<svg width="35" height="34" viewBox="0 0 35 34" fill="none" xmlns="http://www.w3.org/2000/svg">
<circle cx="17.8" cy="17" r="17" fill="#F3F8FF"/>
<circle cx="17.8" cy="17" r="17" fill="#E4E4E4"/>
<circle cx="17.8" cy="17" r="17" fill="#F3F8FF"/>
<circle cx="17.8" cy="17" r="17" fill="#DFEBE6"/>
<path fill-rule="evenodd" clip-rule="evenodd" d="M25.7797 17.3931C25.7797 13.1527 22.3621 9.71436 18.1471 9.71436C13.9321 9.71436 10.5144 13.1527 10.5144 17.3931C10.5144 21.2256 13.3051 24.4024 16.9545 24.979V19.6134H15.016V17.3931H16.9545V15.7014C16.9545 13.7772 18.0942 12.7135 19.8375 12.7135C20.6726 12.7135 21.5463 12.8637 21.5463 12.8637V14.7535H20.5834C19.6358 14.7535 19.3393 15.3452 19.3393 15.9533V17.3931H21.456L21.118 19.6134H19.3397V24.9797C22.989 24.4034 25.7797 21.2267 25.7797 17.3931Z" fill="#136058"/>
<path fill-rule="evenodd" clip-rule="evenodd" d="M25.7797 17.3931C25.7797 13.1527 22.3621 9.71436 18.1471 9.71436C13.9321 9.71436 10.5144 13.1527 10.5144 17.3931C10.5144 21.2256 13.3051 24.4024 16.9545 24.979V19.6134H15.016V17.3931H16.9545V15.7014C16.9545 13.7772 18.0942 12.7135 19.8375 12.7135C20.6726 12.7135 21.5463 12.8637 21.5463 12.8637V14.7535H20.5834C19.6358 14.7535 19.3393 15.3452 19.3393 15.9533V17.3931H21.456L21.118 19.6134H19.3397V24.9797C22.989 24.4034 25.7797 21.2267 25.7797 17.3931Z" fill="#D0021B"/>
</svg>
