<svg width="34" height="34" viewBox="0 0 34 34" fill="none" xmlns="http://www.w3.org/2000/svg">
<circle cx="17" cy="17" r="17" fill="#F3F8FF"/>
<circle cx="17" cy="17" r="17" fill="#E4E4E4"/>
<circle cx="17" cy="17" r="17" fill="#F3F8FF"/>
<circle cx="17" cy="17" r="17" fill="#DFEBE6"/>
<path d="M20.5272 10.9863C21.3699 10.9888 22.1774 11.3247 22.7733 11.9206C23.3693 12.5165 23.7051 13.324 23.7077 14.1668V20.5271C23.7051 21.3698 23.3693 22.1773 22.7733 22.7732C22.1774 23.3692 21.3699 23.7051 20.5272 23.7076H14.1668C13.3241 23.7051 12.5166 23.3692 11.9207 22.7732C11.3248 22.1773 10.9889 21.3698 10.9864 20.5271V14.1668C10.9889 13.324 11.3248 12.5165 11.9207 11.9206C12.5166 11.3247 13.3241 10.9888 14.1668 10.9863H20.5272V10.9863ZM20.5272 9.71427H14.1668C11.7179 9.71427 9.71436 11.7178 9.71436 14.1668V20.5271C9.71436 22.976 11.7179 24.9796 14.1668 24.9796H20.5272C22.9761 24.9796 24.9797 22.976 24.9797 20.5271V14.1668C24.9797 11.7178 22.9761 9.71427 20.5272 9.71427V9.71427Z" fill="#136058"/>
<path d="M20.5272 10.9863C21.3699 10.9888 22.1774 11.3247 22.7733 11.9206C23.3693 12.5165 23.7051 13.324 23.7077 14.1668V20.5271C23.7051 21.3698 23.3693 22.1773 22.7733 22.7732C22.1774 23.3692 21.3699 23.7051 20.5272 23.7076H14.1668C13.3241 23.7051 12.5166 23.3692 11.9207 22.7732C11.3248 22.1773 10.9889 21.3698 10.9864 20.5271V14.1668C10.9889 13.324 11.3248 12.5165 11.9207 11.9206C12.5166 11.3247 13.3241 10.9888 14.1668 10.9863H20.5272V10.9863ZM20.5272 9.71427H14.1668C11.7179 9.71427 9.71436 11.7178 9.71436 14.1668V20.5271C9.71436 22.976 11.7179 24.9796 14.1668 24.9796H20.5272C22.9761 24.9796 24.9797 22.976 24.9797 20.5271V14.1668C24.9797 11.7178 22.9761 9.71427 20.5272 9.71427V9.71427Z" fill="#D0021B"/>
<path d="M21.4813 14.1673C21.2926 14.1673 21.1082 14.1114 20.9513 14.0066C20.7944 13.9017 20.6721 13.7527 20.5999 13.5784C20.5277 13.404 20.5088 13.2122 20.5456 13.0271C20.5824 12.8421 20.6733 12.6721 20.8067 12.5386C20.9401 12.4052 21.1101 12.3143 21.2952 12.2775C21.4803 12.2407 21.6721 12.2596 21.8465 12.3318C22.0208 12.404 22.1698 12.5263 22.2746 12.6832C22.3795 12.8401 22.4354 13.0246 22.4354 13.2133C22.4357 13.3386 22.4112 13.4628 22.3633 13.5787C22.3155 13.6946 22.2452 13.7999 22.1566 13.8885C22.0679 13.9771 21.9626 14.0474 21.8468 14.0953C21.7309 14.1431 21.6067 14.1676 21.4813 14.1673V14.1673ZM17.3471 14.8032C17.8503 14.8032 18.3422 14.9524 18.7607 15.232C19.1791 15.5115 19.5052 15.9089 19.6978 16.3738C19.8903 16.8387 19.9407 17.3503 19.8425 17.8439C19.7444 18.3374 19.502 18.7908 19.1462 19.1466C18.7904 19.5024 18.337 19.7448 17.8435 19.8429C17.3499 19.9411 16.8383 19.8907 16.3734 19.6982C15.9085 19.5056 15.5111 19.1795 15.2316 18.7611C14.952 18.3426 14.8028 17.8507 14.8028 17.3475C14.8035 16.6729 15.0718 16.0262 15.5488 15.5492C16.0258 15.0722 16.6725 14.8039 17.3471 14.8032V14.8032ZM17.3471 13.5312C16.5923 13.5312 15.8545 13.755 15.2269 14.1743C14.5993 14.5937 14.1101 15.1897 13.8213 15.8871C13.5324 16.5844 13.4569 17.3517 13.6041 18.092C13.7514 18.8323 14.1148 19.5123 14.6486 20.0461C15.1823 20.5798 15.8623 20.9432 16.6026 21.0905C17.3429 21.2378 18.1102 21.1622 18.8075 20.8733C19.5049 20.5845 20.1009 20.0953 20.5203 19.4677C20.9396 18.8401 21.1634 18.1023 21.1634 17.3475C21.1634 16.3353 20.7614 15.3647 20.0457 14.649C19.33 13.9333 18.3593 13.5312 17.3471 13.5312V13.5312Z" fill="#136058"/>
<path d="M21.4813 14.1673C21.2926 14.1673 21.1082 14.1114 20.9513 14.0066C20.7944 13.9017 20.6721 13.7527 20.5999 13.5784C20.5277 13.404 20.5088 13.2122 20.5456 13.0271C20.5824 12.8421 20.6733 12.6721 20.8067 12.5386C20.9401 12.4052 21.1101 12.3143 21.2952 12.2775C21.4803 12.2407 21.6721 12.2596 21.8465 12.3318C22.0208 12.404 22.1698 12.5263 22.2746 12.6832C22.3795 12.8401 22.4354 13.0246 22.4354 13.2133C22.4357 13.3386 22.4112 13.4628 22.3633 13.5787C22.3155 13.6946 22.2452 13.7999 22.1566 13.8885C22.0679 13.9771 21.9626 14.0474 21.8468 14.0953C21.7309 14.1431 21.6067 14.1676 21.4813 14.1673V14.1673ZM17.3471 14.8032C17.8503 14.8032 18.3422 14.9524 18.7607 15.232C19.1791 15.5115 19.5052 15.9089 19.6978 16.3738C19.8903 16.8387 19.9407 17.3503 19.8425 17.8439C19.7444 18.3374 19.502 18.7908 19.1462 19.1466C18.7904 19.5024 18.337 19.7448 17.8435 19.8429C17.3499 19.9411 16.8383 19.8907 16.3734 19.6982C15.9085 19.5056 15.5111 19.1795 15.2316 18.7611C14.952 18.3426 14.8028 17.8507 14.8028 17.3475C14.8035 16.6729 15.0718 16.0262 15.5488 15.5492C16.0258 15.0722 16.6725 14.8039 17.3471 14.8032V14.8032ZM17.3471 13.5312C16.5923 13.5312 15.8545 13.755 15.2269 14.1743C14.5993 14.5937 14.1101 15.1897 13.8213 15.8871C13.5324 16.5844 13.4569 17.3517 13.6041 18.092C13.7514 18.8323 14.1148 19.5123 14.6486 20.0461C15.1823 20.5798 15.8623 20.9432 16.6026 21.0905C17.3429 21.2378 18.1102 21.1622 18.8075 20.8733C19.5049 20.5845 20.1009 20.0953 20.5203 19.4677C20.9396 18.8401 21.1634 18.1023 21.1634 17.3475C21.1634 16.3353 20.7614 15.3647 20.0457 14.649C19.33 13.9333 18.3593 13.5312 17.3471 13.5312V13.5312Z" fill="#D0021B"/>
</svg>
