<svg width="34" height="34" viewBox="0 0 34 34" fill="none" xmlns="http://www.w3.org/2000/svg">
<circle cx="17" cy="17" r="17" fill="#F3F8FF"/>
<circle cx="17" cy="17" r="17" fill="#E4E4E4"/>
<circle cx="17" cy="17" r="17" fill="#F3F8FF"/>
<circle cx="17" cy="17" r="17" fill="#DFEBE6"/>
<path d="M24.875 16.9509C24.875 16.9122 24.875 16.8682 24.8732 16.8173C24.8715 16.6749 24.868 16.5149 24.8645 16.3444C24.8504 15.854 24.8258 15.3653 24.7871 14.9048C24.7344 14.2702 24.657 13.7411 24.5516 13.3438C24.4403 12.9292 24.2221 12.5511 23.9189 12.2473C23.6156 11.9435 23.238 11.7245 22.8236 11.6124C22.3262 11.4788 21.3523 11.3962 19.9812 11.3452C19.3291 11.3206 18.6312 11.3048 17.9334 11.296C17.6891 11.2925 17.4623 11.2907 17.2584 11.2889H16.7416C16.5377 11.2907 16.3109 11.2925 16.0666 11.296C15.3687 11.3048 14.6709 11.3206 14.0187 11.3452C12.6477 11.3979 11.6721 11.4805 11.1764 11.6124C10.7619 11.7242 10.3841 11.9431 10.0808 12.247C9.77753 12.5509 9.55946 12.9291 9.44844 13.3438C9.34121 13.7411 9.26562 14.2702 9.21289 14.9048C9.17422 15.3653 9.14961 15.854 9.13555 16.3444C9.13027 16.5149 9.12852 16.6749 9.12676 16.8173C9.12676 16.8682 9.125 16.9122 9.125 16.9509V17.0493C9.125 17.088 9.125 17.1319 9.12676 17.1829C9.12852 17.3253 9.13203 17.4852 9.13555 17.6557C9.14961 18.1462 9.17422 18.6348 9.21289 19.0954C9.26562 19.73 9.34297 20.2591 9.44844 20.6563C9.67344 21.4983 10.3344 22.1628 11.1764 22.3878C11.6721 22.5214 12.6477 22.604 14.0187 22.655C14.6709 22.6796 15.3687 22.6954 16.0666 22.7042C16.3109 22.7077 16.5377 22.7094 16.7416 22.7112H17.2584C17.4623 22.7094 17.6891 22.7077 17.9334 22.7042C18.6312 22.6954 19.3291 22.6796 19.9812 22.655C21.3523 22.6022 22.3279 22.5196 22.8236 22.3878C23.6656 22.1628 24.3266 21.5001 24.5516 20.6563C24.6588 20.2591 24.7344 19.73 24.7871 19.0954C24.8258 18.6348 24.8504 18.1462 24.8645 17.6557C24.8697 17.4852 24.8715 17.3253 24.8732 17.1829C24.8732 17.1319 24.875 17.088 24.875 17.0493V16.9509ZM23.6094 17.0423C23.6094 17.0792 23.6094 17.1196 23.6076 17.1671C23.6059 17.3042 23.6023 17.4553 23.5988 17.6188C23.5865 18.0864 23.5619 18.554 23.525 18.9882C23.4775 19.5542 23.4107 20.0182 23.3281 20.3294C23.2191 20.7354 22.8992 21.0571 22.4949 21.1643C22.1258 21.2628 21.1959 21.3419 19.932 21.3893C19.2922 21.4139 18.6031 21.4298 17.9158 21.4386C17.675 21.4421 17.4518 21.4438 17.2514 21.4438H16.7486L16.0842 21.4386C15.3969 21.4298 14.7096 21.4139 14.068 21.3893C12.8041 21.3401 11.8725 21.2628 11.5051 21.1643C11.1008 21.0553 10.7809 20.7354 10.6719 20.3294C10.5893 20.0182 10.5225 19.5542 10.475 18.9882C10.4381 18.554 10.4152 18.0864 10.4012 17.6188C10.3959 17.4553 10.3941 17.3024 10.3924 17.1671C10.3924 17.1196 10.3906 17.0774 10.3906 17.0423V16.9579C10.3906 16.921 10.3906 16.8805 10.3924 16.8331C10.3941 16.696 10.3977 16.5448 10.4012 16.3813C10.4135 15.9137 10.4381 15.4462 10.475 15.012C10.5225 14.446 10.5893 13.9819 10.6719 13.6708C10.7809 13.2647 11.1008 12.943 11.5051 12.8358C11.8742 12.7374 12.8041 12.6583 14.068 12.6108C14.7078 12.5862 15.3969 12.5704 16.0842 12.5616C16.325 12.5581 16.5482 12.5563 16.7486 12.5563H17.2514L17.9158 12.5616C18.6031 12.5704 19.2904 12.5862 19.932 12.6108C21.1959 12.66 22.1275 12.7374 22.4949 12.8358C22.8992 12.9448 23.2191 13.2647 23.3281 13.6708C23.4107 13.9819 23.4775 14.446 23.525 15.012C23.5619 15.4462 23.5848 15.9137 23.5988 16.3813C23.6041 16.5448 23.6059 16.6977 23.6076 16.8331C23.6076 16.8805 23.6094 16.9227 23.6094 16.9579V17.0423ZM15.4355 19.3555L19.5137 16.9825L15.4355 14.6446V19.3555Z" fill="black"/>
<path d="M24.875 16.9509C24.875 16.9122 24.875 16.8682 24.8732 16.8173C24.8715 16.6749 24.868 16.5149 24.8645 16.3444C24.8504 15.854 24.8258 15.3653 24.7871 14.9048C24.7344 14.2702 24.657 13.7411 24.5516 13.3438C24.4403 12.9292 24.2221 12.5511 23.9189 12.2473C23.6156 11.9435 23.238 11.7245 22.8236 11.6124C22.3262 11.4788 21.3523 11.3962 19.9812 11.3452C19.3291 11.3206 18.6312 11.3048 17.9334 11.296C17.6891 11.2925 17.4623 11.2907 17.2584 11.2889H16.7416C16.5377 11.2907 16.3109 11.2925 16.0666 11.296C15.3687 11.3048 14.6709 11.3206 14.0187 11.3452C12.6477 11.3979 11.6721 11.4805 11.1764 11.6124C10.7619 11.7242 10.3841 11.9431 10.0808 12.247C9.77753 12.5509 9.55946 12.9291 9.44844 13.3438C9.34121 13.7411 9.26562 14.2702 9.21289 14.9048C9.17422 15.3653 9.14961 15.854 9.13555 16.3444C9.13027 16.5149 9.12852 16.6749 9.12676 16.8173C9.12676 16.8682 9.125 16.9122 9.125 16.9509V17.0493C9.125 17.088 9.125 17.1319 9.12676 17.1829C9.12852 17.3253 9.13203 17.4852 9.13555 17.6557C9.14961 18.1462 9.17422 18.6348 9.21289 19.0954C9.26562 19.73 9.34297 20.2591 9.44844 20.6563C9.67344 21.4983 10.3344 22.1628 11.1764 22.3878C11.6721 22.5214 12.6477 22.604 14.0187 22.655C14.6709 22.6796 15.3687 22.6954 16.0666 22.7042C16.3109 22.7077 16.5377 22.7094 16.7416 22.7112H17.2584C17.4623 22.7094 17.6891 22.7077 17.9334 22.7042C18.6312 22.6954 19.3291 22.6796 19.9812 22.655C21.3523 22.6022 22.3279 22.5196 22.8236 22.3878C23.6656 22.1628 24.3266 21.5001 24.5516 20.6563C24.6588 20.2591 24.7344 19.73 24.7871 19.0954C24.8258 18.6348 24.8504 18.1462 24.8645 17.6557C24.8697 17.4852 24.8715 17.3253 24.8732 17.1829C24.8732 17.1319 24.875 17.088 24.875 17.0493V16.9509ZM23.6094 17.0423C23.6094 17.0792 23.6094 17.1196 23.6076 17.1671C23.6059 17.3042 23.6023 17.4553 23.5988 17.6188C23.5865 18.0864 23.5619 18.554 23.525 18.9882C23.4775 19.5542 23.4107 20.0182 23.3281 20.3294C23.2191 20.7354 22.8992 21.0571 22.4949 21.1643C22.1258 21.2628 21.1959 21.3419 19.932 21.3893C19.2922 21.4139 18.6031 21.4298 17.9158 21.4386C17.675 21.4421 17.4518 21.4438 17.2514 21.4438H16.7486L16.0842 21.4386C15.3969 21.4298 14.7096 21.4139 14.068 21.3893C12.8041 21.3401 11.8725 21.2628 11.5051 21.1643C11.1008 21.0553 10.7809 20.7354 10.6719 20.3294C10.5893 20.0182 10.5225 19.5542 10.475 18.9882C10.4381 18.554 10.4152 18.0864 10.4012 17.6188C10.3959 17.4553 10.3941 17.3024 10.3924 17.1671C10.3924 17.1196 10.3906 17.0774 10.3906 17.0423V16.9579C10.3906 16.921 10.3906 16.8805 10.3924 16.8331C10.3941 16.696 10.3977 16.5448 10.4012 16.3813C10.4135 15.9137 10.4381 15.4462 10.475 15.012C10.5225 14.446 10.5893 13.9819 10.6719 13.6708C10.7809 13.2647 11.1008 12.943 11.5051 12.8358C11.8742 12.7374 12.8041 12.6583 14.068 12.6108C14.7078 12.5862 15.3969 12.5704 16.0842 12.5616C16.325 12.5581 16.5482 12.5563 16.7486 12.5563H17.2514L17.9158 12.5616C18.6031 12.5704 19.2904 12.5862 19.932 12.6108C21.1959 12.66 22.1275 12.7374 22.4949 12.8358C22.8992 12.9448 23.2191 13.2647 23.3281 13.6708C23.4107 13.9819 23.4775 14.446 23.525 15.012C23.5619 15.4462 23.5848 15.9137 23.5988 16.3813C23.6041 16.5448 23.6059 16.6977 23.6076 16.8331C23.6076 16.8805 23.6094 16.9227 23.6094 16.9579V17.0423ZM15.4355 19.3555L19.5137 16.9825L15.4355 14.6446V19.3555Z" fill="#D0021B"/>
</svg>
