<svg width="35" height="34" viewBox="0 0 35 34" fill="none" xmlns="http://www.w3.org/2000/svg">
<circle cx="17.5999" cy="17" r="17" fill="#F3F8FF"/>
<circle cx="17.5999" cy="17" r="17" fill="#E4E4E4"/>
<circle cx="17.5999" cy="17" r="17" fill="#F3F8FF"/>
<circle cx="17.5999" cy="17" r="17" fill="#DFEBE6"/>
<path d="M25.5798 11.5231C25.0071 11.8341 24.4013 12.039 23.7813 12.1314C24.4328 11.6545 24.9228 10.8968 25.1593 10.0006C24.5433 10.4508 23.8705 10.7667 23.1697 10.9348C22.8747 10.5482 22.5197 10.2407 22.1266 10.0309C21.7335 9.82105 21.3103 9.71337 20.8828 9.71436C19.1521 9.71436 17.7515 11.4397 17.7515 13.5665C17.7503 13.8623 17.7774 14.1572 17.8323 14.445C16.5913 14.3723 15.376 13.9765 14.2643 13.2831C13.1527 12.5897 12.169 11.6138 11.3763 10.418C11.0983 11.004 10.9512 11.6726 10.9505 12.354C10.9505 13.6897 11.508 14.8704 12.3498 15.5621C11.8511 15.5473 11.3625 15.3823 10.9257 15.0811V15.1288C10.9257 16.9972 12.007 18.5515 13.4381 18.9053C13.169 18.995 12.8917 19.0404 12.6132 19.0405C12.4155 19.0409 12.2183 19.0169 12.0245 18.9689C12.4223 20.4994 13.5803 21.6125 14.9519 21.6443C13.8374 22.718 12.469 23.2984 11.0618 23.2941C10.812 23.2936 10.5625 23.275 10.3145 23.2384C11.746 24.381 13.41 24.9854 15.1084 24.9796C20.8761 24.9796 24.0272 19.1081 24.0272 14.0157C24.0272 13.8487 24.0237 13.6817 24.0173 13.5188C24.6289 12.9749 25.158 12.2992 25.5798 11.5231Z" fill="#136058"/>
<path d="M25.5798 11.5231C25.0071 11.8341 24.4013 12.039 23.7813 12.1314C24.4328 11.6545 24.9228 10.8968 25.1593 10.0006C24.5433 10.4508 23.8705 10.7667 23.1697 10.9348C22.8747 10.5482 22.5197 10.2407 22.1266 10.0309C21.7335 9.82105 21.3103 9.71337 20.8828 9.71436C19.1521 9.71436 17.7515 11.4397 17.7515 13.5665C17.7503 13.8623 17.7774 14.1572 17.8323 14.445C16.5913 14.3723 15.376 13.9765 14.2643 13.2831C13.1527 12.5897 12.169 11.6138 11.3763 10.418C11.0983 11.004 10.9512 11.6726 10.9505 12.354C10.9505 13.6897 11.508 14.8704 12.3498 15.5621C11.8511 15.5473 11.3625 15.3823 10.9257 15.0811V15.1288C10.9257 16.9972 12.007 18.5515 13.4381 18.9053C13.169 18.995 12.8917 19.0404 12.6132 19.0405C12.4155 19.0409 12.2183 19.0169 12.0245 18.9689C12.4223 20.4994 13.5803 21.6125 14.9519 21.6443C13.8374 22.718 12.469 23.2984 11.0618 23.2941C10.812 23.2936 10.5625 23.275 10.3145 23.2384C11.746 24.381 13.41 24.9854 15.1084 24.9796C20.8761 24.9796 24.0272 19.1081 24.0272 14.0157C24.0272 13.8487 24.0237 13.6817 24.0173 13.5188C24.6289 12.9749 25.158 12.2992 25.5798 11.5231Z" fill="#D0021B"/>
</svg>
