<svg width="164" height="58" viewBox="0 0 164 58" fill="none" xmlns="http://www.w3.org/2000/svg">
<rect width="164" height="58" rx="29" fill="#1F2740"/>
<path d="M26.6356 14.3512C26.6356 14.3512 33.0183 10.8809 38.4788 15.0632L35.4228 25.5629C35.4228 25.5629 32.0005 23.2085 29.4627 23.4628C26.9249 23.7177 23.5796 24.932 23.5796 24.932L26.6356 14.3512ZM20 37.3592C21.4088 36.6309 23.5232 36.2618 25.9594 36.0578C28.3976 35.8544 31.8287 38.087 31.8287 38.087L34.9163 27.476C34.4277 27.1249 32.1558 25.5952 29.3122 25.3918C26.4672 25.1883 23.0401 26.782 23.0401 26.782L20 37.3592ZM33.4753 39.0217C34.0333 39.2416 35.864 40.9829 38.911 41.1375C41.9587 41.2887 45.3198 39.7157 45.3198 39.7157C45.3198 39.7157 48.3132 29.2407 48.3736 29.2002C48.3942 29.1892 48.3359 29.2304 48.3131 29.2407C45.4634 30.356 44.0086 30.5223 41.9071 30.5725C39.7733 30.624 36.5153 28.5041 36.5153 28.5041L33.4753 39.0217ZM40.0944 16.1723L37.0322 26.6108C37.0322 26.6108 39.5199 29.0483 43.0239 28.8463C46.53 28.6422 48.4321 27.5373 48.8974 27.3812L51.9375 16.8498C51.9375 16.8498 47.8996 18.5362 45.2593 18.2305C42.6177 17.9247 40.9746 16.8024 40.0944 16.1723Z" fill="#4FC0E8"/>
<path d="M71.8523 15C71.7741 14.7609 71.6712 14.5466 71.5433 14.3572C71.4179 14.1655 71.2675 14.0021 71.0923 13.8672C70.9195 13.7322 70.723 13.6293 70.5028 13.5582C70.2827 13.4872 70.0412 13.4517 69.7784 13.4517C69.3475 13.4517 68.9557 13.563 68.603 13.7855C68.2502 14.008 67.9697 14.3359 67.7614 14.7692C67.553 15.2024 67.4489 15.7339 67.4489 16.3636C67.4489 16.9934 67.5542 17.5249 67.7649 17.9581C67.9756 18.3913 68.2609 18.7192 68.6207 18.9418C68.9806 19.1643 69.3854 19.2756 69.8352 19.2756C70.2519 19.2756 70.6188 19.1868 70.9361 19.0092C71.2557 18.8293 71.5043 18.576 71.6818 18.2493C71.8617 17.9202 71.9517 17.5331 71.9517 17.0881L72.2216 17.1449H70.0341V16.3636H72.804V17.1449C72.804 17.7438 72.6761 18.2647 72.4205 18.7074C72.1671 19.1501 71.8168 19.4934 71.3693 19.7372C70.9242 19.9787 70.4129 20.0994 69.8352 20.0994C69.1913 20.0994 68.6255 19.9479 68.1378 19.6449C67.6525 19.3419 67.2737 18.911 67.0014 18.3523C66.7315 17.7936 66.5966 17.1307 66.5966 16.3636C66.5966 15.7884 66.6735 15.2711 66.8274 14.8118C66.9837 14.3501 67.2038 13.9571 67.4879 13.6328C67.772 13.3085 68.1082 13.0599 68.4964 12.8871C68.8847 12.7143 69.312 12.6278 69.7784 12.6278C70.1619 12.6278 70.5194 12.6858 70.8509 12.8018C71.1847 12.9155 71.4818 13.0777 71.7422 13.2884C72.005 13.4967 72.224 13.7464 72.3991 14.0376C72.5743 14.3265 72.6951 14.6473 72.7614 15H71.8523ZM76.4856 20.1136C75.96 20.1136 75.5067 19.9976 75.1255 19.7656C74.7467 19.5312 74.4544 19.2045 74.2484 18.7855C74.0448 18.3641 73.943 17.8741 73.943 17.3153C73.943 16.7566 74.0448 16.2642 74.2484 15.8381C74.4544 15.4096 74.7408 15.0758 75.1078 14.8366C75.4771 14.5952 75.908 14.4744 76.4004 14.4744C76.6845 14.4744 76.965 14.5218 77.242 14.6165C77.519 14.7112 77.7711 14.8651 77.9984 15.0781C78.2257 15.2888 78.4068 15.5682 78.5417 15.9162C78.6767 16.2642 78.7441 16.6927 78.7441 17.2017V17.5568H74.5396V16.8324H77.8919C77.8919 16.5246 77.8303 16.25 77.7072 16.0085C77.5865 15.767 77.4136 15.5765 77.1887 15.4368C76.9662 15.2971 76.7034 15.2273 76.4004 15.2273C76.0666 15.2273 75.7778 15.3101 75.5339 15.4759C75.2924 15.6392 75.1066 15.8523 74.9764 16.1151C74.8462 16.3778 74.7811 16.6596 74.7811 16.9602V17.4432C74.7811 17.8551 74.8521 18.2043 74.9941 18.4908C75.1386 18.7749 75.3386 18.9915 75.5943 19.1406C75.85 19.2874 76.1471 19.3608 76.4856 19.3608C76.7058 19.3608 76.9047 19.33 77.0822 19.2685C77.2621 19.2045 77.4172 19.1098 77.5474 18.9844C77.6776 18.8565 77.7782 18.6979 77.8493 18.5085L78.6589 18.7358C78.5737 19.0104 78.4305 19.2519 78.2292 19.4602C78.028 19.6662 77.7794 19.8272 77.4835 19.9432C77.1876 20.0568 76.8549 20.1136 76.4856 20.1136ZM82.3912 14.5455V15.2557H79.5645V14.5455H82.3912ZM80.3883 13.2386H81.2264V18.4375C81.2264 18.6742 81.2607 18.8518 81.3294 18.9702C81.4004 19.0862 81.4904 19.1643 81.5993 19.2045C81.7105 19.2424 81.8277 19.2614 81.9508 19.2614C82.0431 19.2614 82.1189 19.2566 82.1781 19.2472C82.2373 19.2353 82.2846 19.2259 82.3201 19.2188L82.4906 19.9716C82.4338 19.9929 82.3545 20.0142 82.2527 20.0355C82.1509 20.0592 82.0218 20.071 81.8656 20.071C81.6288 20.071 81.3968 20.0201 81.1696 19.9183C80.9447 19.8165 80.7576 19.6615 80.6085 19.4531C80.4617 19.2448 80.3883 18.982 80.3883 18.6648V13.2386ZM87.4586 12.7273V20H86.5779V12.7273H87.4586ZM91.483 14.5455V15.2557H88.6562V14.5455H91.483ZM89.4801 13.2386H90.3182V18.4375C90.3182 18.6742 90.3525 18.8518 90.4212 18.9702C90.4922 19.0862 90.5821 19.1643 90.6911 19.2045C90.8023 19.2424 90.9195 19.2614 91.0426 19.2614C91.1349 19.2614 91.2107 19.2566 91.2699 19.2472C91.3291 19.2353 91.3764 19.2259 91.4119 19.2188L91.5824 19.9716C91.5256 19.9929 91.4463 20.0142 91.3445 20.0355C91.2427 20.0592 91.1136 20.071 90.9574 20.071C90.7206 20.071 90.4886 20.0201 90.2614 19.9183C90.0365 19.8165 89.8494 19.6615 89.7003 19.4531C89.5535 19.2448 89.4801 18.982 89.4801 18.6648V13.2386ZM95.6697 20V12.7273H100.031V13.5085H96.5504V15.9659H99.7038V16.7472H96.5504V20H95.6697ZM103.241 20.1136C102.748 20.1136 102.316 19.9964 101.945 19.7621C101.575 19.5277 101.286 19.1998 101.078 18.7784C100.872 18.357 100.769 17.8646 100.769 17.3011C100.769 16.733 100.872 16.237 101.078 15.8132C101.286 15.3894 101.575 15.0604 101.945 14.826C102.316 14.5916 102.748 14.4744 103.241 14.4744C103.733 14.4744 104.164 14.5916 104.533 14.826C104.905 15.0604 105.194 15.3894 105.4 15.8132C105.608 16.237 105.712 16.733 105.712 17.3011C105.712 17.8646 105.608 18.357 105.4 18.7784C105.194 19.1998 104.905 19.5277 104.533 19.7621C104.164 19.9964 103.733 20.1136 103.241 20.1136ZM103.241 19.3608C103.615 19.3608 103.923 19.2649 104.164 19.0732C104.406 18.8814 104.584 18.6293 104.7 18.3168C104.816 18.0043 104.874 17.6657 104.874 17.3011C104.874 16.9366 104.816 16.5968 104.7 16.282C104.584 15.9671 104.406 15.7126 104.164 15.5185C103.923 15.3243 103.615 15.2273 103.241 15.2273C102.867 15.2273 102.559 15.3243 102.317 15.5185C102.076 15.7126 101.897 15.9671 101.781 16.282C101.665 16.5968 101.607 16.9366 101.607 17.3011C101.607 17.6657 101.665 18.0043 101.781 18.3168C101.897 18.6293 102.076 18.8814 102.317 19.0732C102.559 19.2649 102.867 19.3608 103.241 19.3608ZM106.992 20V14.5455H107.801V15.3693H107.858C107.958 15.0994 108.137 14.8804 108.398 14.7124C108.658 14.5443 108.952 14.4602 109.279 14.4602C109.34 14.4602 109.417 14.4614 109.509 14.4638C109.602 14.4661 109.672 14.4697 109.719 14.4744V15.3267C109.691 15.3196 109.625 15.3089 109.524 15.2947C109.424 15.2782 109.319 15.2699 109.208 15.2699C108.942 15.2699 108.706 15.3255 108.497 15.4368C108.291 15.5457 108.128 15.6972 108.007 15.8913C107.889 16.0831 107.83 16.3021 107.83 16.5483V20H106.992Z" fill="#B7BAC7"/>
<path d="M69.5568 41L66.3295 29.3636H68.1761L70.4432 38.375H70.5511L72.9091 29.3636H74.7386L77.0966 38.3807H77.2045L79.4659 29.3636H81.3182L78.0852 41H76.3182L73.8693 32.2841H73.7784L71.3295 41H69.5568ZM82.7827 41V32.2727H84.4815V41H82.7827ZM83.6406 30.9261C83.3452 30.9261 83.0914 30.8277 82.8793 30.6307C82.6709 30.4299 82.5668 30.1913 82.5668 29.9148C82.5668 29.6345 82.6709 29.3958 82.8793 29.1989C83.0914 28.9981 83.3452 28.8977 83.6406 28.8977C83.9361 28.8977 84.188 28.9981 84.3963 29.1989C84.6084 29.3958 84.7145 29.6345 84.7145 29.9148C84.7145 30.1913 84.6084 30.4299 84.3963 30.6307C84.188 30.8277 83.9361 30.9261 83.6406 30.9261ZM88.4659 35.8182V41H86.767V32.2727H88.3977V33.6932H88.5057C88.7064 33.2311 89.0208 32.8598 89.4489 32.5795C89.8807 32.2992 90.4242 32.1591 91.0795 32.1591C91.6742 32.1591 92.1951 32.2841 92.642 32.5341C93.089 32.7803 93.4356 33.1477 93.6818 33.6364C93.928 34.125 94.0511 34.7292 94.0511 35.4489V41H92.3523V35.6534C92.3523 35.0208 92.1875 34.5265 91.858 34.1705C91.5284 33.8106 91.0758 33.6307 90.5 33.6307C90.1061 33.6307 89.7557 33.7159 89.4489 33.8864C89.1458 34.0568 88.9053 34.3068 88.7273 34.6364C88.553 34.9621 88.4659 35.3561 88.4659 35.8182ZM99.5966 41.1705C98.892 41.1705 98.2633 40.9905 97.7102 40.6307C97.161 40.267 96.7292 39.75 96.4148 39.0795C96.1042 38.4053 95.9489 37.5966 95.9489 36.6534C95.9489 35.7102 96.1061 34.9034 96.4205 34.233C96.7386 33.5625 97.1742 33.0492 97.7273 32.6932C98.2803 32.3371 98.9072 32.1591 99.608 32.1591C100.15 32.1591 100.585 32.25 100.915 32.4318C101.248 32.6098 101.506 32.8182 101.688 33.0568C101.873 33.2955 102.017 33.5057 102.119 33.6875H102.222V29.3636H103.92V41H102.261V39.642H102.119C102.017 39.8277 101.869 40.0398 101.676 40.2784C101.487 40.517 101.225 40.7254 100.892 40.9034C100.559 41.0814 100.127 41.1705 99.5966 41.1705ZM99.9716 39.7216C100.46 39.7216 100.873 39.5928 101.21 39.3352C101.551 39.0739 101.809 38.7121 101.983 38.25C102.161 37.7879 102.25 37.25 102.25 36.6364C102.25 36.0303 102.163 35.5 101.989 35.0455C101.814 34.5909 101.559 34.2367 101.222 33.983C100.884 33.7292 100.468 33.6023 99.9716 33.6023C99.4602 33.6023 99.0341 33.7348 98.6932 34C98.3523 34.2652 98.0947 34.6269 97.9205 35.0852C97.75 35.5436 97.6648 36.0606 97.6648 36.6364C97.6648 37.2197 97.7519 37.7443 97.9261 38.2102C98.1004 38.6761 98.358 39.0455 98.6989 39.3182C99.0436 39.5871 99.4678 39.7216 99.9716 39.7216ZM110.021 41.1761C109.203 41.1761 108.489 40.9886 107.879 40.6136C107.269 40.2386 106.796 39.714 106.459 39.0398C106.122 38.3655 105.953 37.5777 105.953 36.6761C105.953 35.7708 106.122 34.9792 106.459 34.3011C106.796 33.6231 107.269 33.0966 107.879 32.7216C108.489 32.3466 109.203 32.1591 110.021 32.1591C110.839 32.1591 111.554 32.3466 112.163 32.7216C112.773 33.0966 113.247 33.6231 113.584 34.3011C113.921 34.9792 114.089 35.7708 114.089 36.6761C114.089 37.5777 113.921 38.3655 113.584 39.0398C113.247 39.714 112.773 40.2386 112.163 40.6136C111.554 40.9886 110.839 41.1761 110.021 41.1761ZM110.027 39.75C110.557 39.75 110.997 39.6098 111.345 39.3295C111.694 39.0492 111.951 38.6761 112.118 38.2102C112.288 37.7443 112.374 37.2311 112.374 36.6705C112.374 36.1136 112.288 35.6023 112.118 35.1364C111.951 34.6667 111.694 34.2898 111.345 34.0057C110.997 33.7216 110.557 33.5795 110.027 33.5795C109.493 33.5795 109.05 33.7216 108.697 34.0057C108.349 34.2898 108.089 34.6667 107.919 35.1364C107.752 35.6023 107.669 36.1136 107.669 36.6705C107.669 37.2311 107.752 37.7443 107.919 38.2102C108.089 38.6761 108.349 39.0492 108.697 39.3295C109.05 39.6098 109.493 39.75 110.027 39.75ZM117.612 41L115.044 32.2727H116.8L118.51 38.6818H118.595L120.311 32.2727H122.067L123.771 38.6534H123.857L125.555 32.2727H127.311L124.749 41H123.016L121.243 34.6989H121.112L119.339 41H117.612ZM135.463 34.4034L133.923 34.6761C133.859 34.4792 133.757 34.2917 133.616 34.1136C133.48 33.9356 133.295 33.7898 133.06 33.6761C132.825 33.5625 132.531 33.5057 132.179 33.5057C131.698 33.5057 131.296 33.6136 130.974 33.8295C130.652 34.0417 130.491 34.3163 130.491 34.6534C130.491 34.9451 130.599 35.1799 130.815 35.358C131.031 35.536 131.38 35.6818 131.861 35.7955L133.247 36.1136C134.05 36.2992 134.649 36.5852 135.043 36.9716C135.437 37.358 135.634 37.8598 135.634 38.4773C135.634 39 135.482 39.4659 135.179 39.875C134.88 40.2803 134.461 40.5985 133.923 40.8295C133.389 41.0606 132.77 41.1761 132.065 41.1761C131.088 41.1761 130.291 40.9678 129.673 40.5511C129.056 40.1307 128.677 39.5341 128.537 38.7614L130.179 38.5114C130.281 38.9394 130.491 39.2633 130.81 39.483C131.128 39.6989 131.543 39.8068 132.054 39.8068C132.611 39.8068 133.056 39.6913 133.389 39.4602C133.723 39.2254 133.889 38.9394 133.889 38.6023C133.889 38.3295 133.787 38.1004 133.582 37.9148C133.382 37.7292 133.073 37.589 132.656 37.4943L131.179 37.1705C130.365 36.9848 129.762 36.6894 129.372 36.2841C128.986 35.8788 128.793 35.3655 128.793 34.7443C128.793 34.2292 128.937 33.7784 129.224 33.392C129.512 33.0057 129.91 32.7045 130.418 32.4886C130.925 32.2689 131.507 32.1591 132.162 32.1591C133.105 32.1591 133.848 32.3636 134.389 32.7727C134.931 33.178 135.289 33.7216 135.463 34.4034Z" fill="white"/>
</svg>
