<svg width="27" height="27" viewBox="0 0 27 27" fill="none" xmlns="http://www.w3.org/2000/svg">
<path d="M23 4.92871H3.28568C2.37954 4.92871 1.64282 5.66543 1.64282 6.57157V19.7144C1.64282 20.6206 2.37954 21.3573 3.28568 21.3573H18.0868L23.0051 24.6353L23 21.3573C23.9061 21.3573 24.6428 20.6206 24.6428 19.7144V6.57157C24.6428 5.66543 23.9061 4.92871 23 4.92871Z" fill="#3D5AFE"/>
<path d="M16.4285 13.143C16.4285 9.92402 15.1065 7.01565 12.976 4.92871H3.28568C2.37954 4.92871 1.64282 5.66543 1.64282 6.57157V19.7144C1.64282 20.6206 2.37954 21.3573 3.28568 21.3573H12.976C15.1065 19.2703 16.4285 16.362 16.4285 13.143Z" fill="#536DFE"/>
<path d="M4.92847 13.1429C4.92847 13.5786 5.10155 13.9964 5.40965 14.3045C5.71774 14.6126 6.13561 14.7857 6.57132 14.7857C7.00704 14.7857 7.4249 14.6126 7.733 14.3045C8.04109 13.9964 8.21418 13.5786 8.21418 13.1429C8.21418 12.7071 8.04109 12.2893 7.733 11.9812C7.4249 11.6731 7.00704 11.5 6.57132 11.5C6.13561 11.5 5.71774 11.6731 5.40965 11.9812C5.10155 12.2893 4.92847 12.7071 4.92847 13.1429Z" fill="#FFFF8D"/>
<path d="M11.5 13.1429C11.5 13.5786 11.6731 13.9964 11.9812 14.3045C12.2893 14.6126 12.7071 14.7857 13.1429 14.7857C13.5786 14.7857 13.9964 14.6126 14.3045 14.3045C14.6126 13.9964 14.7857 13.5786 14.7857 13.1429C14.7857 12.7071 14.6126 12.2893 14.3045 11.9812C13.9964 11.6731 13.5786 11.5 13.1429 11.5C12.7071 11.5 12.2893 11.6731 11.9812 11.9812C11.6731 12.2893 11.5 12.7071 11.5 13.1429Z" fill="#FFFF00"/>
<path d="M18.0713 13.1429C18.0713 13.5786 18.2444 13.9964 18.5525 14.3045C18.8606 14.6126 19.2784 14.7857 19.7141 14.7857C20.1499 14.7857 20.5677 14.6126 20.8758 14.3045C21.1839 13.9964 21.357 13.5786 21.357 13.1429C21.357 12.7071 21.1839 12.2893 20.8758 11.9812C20.5677 11.6731 20.1499 11.5 19.7141 11.5C19.2784 11.5 18.8606 11.6731 18.5525 11.9812C18.2444 12.2893 18.0713 12.7071 18.0713 13.1429Z" fill="#FFEA00"/>
</svg>
