<svg width="27" height="27" viewBox="0 0 27 27" fill="none" xmlns="http://www.w3.org/2000/svg">
<g clip-path="url(#clip0_105_507)">
<path d="M13.1429 26.2857C20.4015 26.2857 26.2857 20.4015 26.2857 13.1429C26.2857 5.88426 20.4015 0 13.1429 0C5.88426 0 0 5.88426 0 13.1429C0 20.4015 5.88426 26.2857 13.1429 26.2857Z" fill="#5ABC6A"/>
<path d="M8.80149 12.7962L10.5556 11.5181C11.1662 11.0732 11.2386 10.1832 10.7005 9.65021L8.62556 7.57529C8.14952 7.09925 7.37337 7.09925 6.9025 7.57529C5.51577 8.96202 4.98282 10.2815 5.03973 11.5802C5.0863 12.6462 5.58304 13.6448 6.3385 14.4003L12.2528 20.3146C13.0082 21.07 14.0069 21.5667 15.0728 21.6133C16.3716 21.6702 17.691 21.1321 19.0778 19.7505C19.5538 19.2745 19.5538 18.4984 19.0778 18.0275L17.0028 15.9526C16.4699 15.4196 15.5799 15.4869 15.1349 16.0975L13.8568 17.8516L8.80149 12.7962Z" fill="#E6E9EE"/>
<path d="M6.90763 7.56523L6.89729 7.57558C6.73171 7.74116 6.58165 7.90674 6.43677 8.07232L10.1623 11.7979L10.5504 11.5133C11.161 11.0683 11.2334 10.1783 10.6953 9.64532L8.63069 7.58075C8.15983 7.10989 7.38367 7.08919 6.90763 7.56523Z" fill="#CED5E0"/>
<path d="M19.083 19.7406L19.0726 19.751C18.907 19.9165 18.7415 20.0666 18.5759 20.2115L14.8503 16.486L15.1349 16.0979C15.5799 15.4873 16.4699 15.4149 17.0029 15.953L19.0674 18.0176C19.5383 18.4884 19.559 19.2646 19.083 19.7406Z" fill="#CED5E0"/>
<path d="M19.0107 12.8998H17.981C17.981 10.1678 15.756 7.94278 13.0239 7.94278V6.91309C16.3252 6.91309 19.0107 9.59858 19.0107 12.8998Z" fill="white"/>
<path d="M21.2563 12.8996H20.2266C20.2266 8.93086 16.9978 5.70206 13.0291 5.70206V4.67236C17.5618 4.67236 21.2563 8.36168 21.2563 12.8996Z" fill="white"/>
<path d="M16.6304 12.8997H15.6007C15.6007 11.4819 14.4468 10.328 13.0291 10.328V9.29835C15.0108 9.29318 16.6304 10.9128 16.6304 12.8997Z" fill="white"/>
</g>
<defs>
<clipPath id="clip0_105_507">
<rect width="26.2857" height="26.2857" fill="white"/>
</clipPath>
</defs>
</svg>
