<svg width="39" height="39" viewBox="0 0 39 39" fill="none" xmlns="http://www.w3.org/2000/svg">
<path d="M19.5 35.75C28.4746 35.75 35.75 28.4746 35.75 19.5C35.75 10.5254 28.4746 3.25 19.5 3.25C10.5254 3.25 3.25 10.5254 3.25 19.5C3.25 28.4746 10.5254 35.75 19.5 35.75Z" fill="#E31E24"/>
<path d="M35.5 19.5C35.5 28.3366 28.3366 35.5 19.5 35.5C10.6634 35.5 3.5 28.3366 3.5 19.5C3.5 10.6634 10.6634 3.5 19.5 3.5C28.3366 3.5 35.5 10.6634 35.5 19.5Z" stroke="white" stroke-opacity="0.66" stroke-width="0.5"/>
<path d="M24.7163 15.9089L20.6538 11.8464C20.5027 11.6941 20.323 11.5732 20.125 11.4907C19.927 11.4082 19.7146 11.3657 19.5001 11.3657C19.2855 11.3657 19.0731 11.4082 18.8751 11.4907C18.6771 11.5732 18.4974 11.6941 18.3463 11.8464L14.2838 15.9089C13.9778 16.2149 13.8059 16.6299 13.8059 17.0626C13.8059 17.4954 13.9778 17.9104 14.2838 18.2164C14.5898 18.5224 15.0048 18.6943 15.4376 18.6943C15.8703 18.6943 16.2853 18.5224 16.5913 18.2164L17.8751 16.9164V26.0001C17.8751 26.4311 18.0463 26.8444 18.351 27.1492C18.6558 27.4539 19.0691 27.6251 19.5001 27.6251C19.931 27.6251 20.3444 27.4539 20.6491 27.1492C20.9539 26.8444 21.1251 26.4311 21.1251 26.0001V16.9164L22.4088 18.2164C22.5599 18.3687 22.7396 18.4896 22.9376 18.5721C23.1356 18.6546 23.348 18.6971 23.5626 18.6971C23.7771 18.6971 23.9895 18.6546 24.1875 18.5721C24.3855 18.4896 24.5652 18.3687 24.7163 18.2164C24.8686 18.0653 24.9895 17.8856 25.072 17.6876C25.1545 17.4896 25.197 17.2772 25.197 17.0626C25.197 16.8481 25.1545 16.6357 25.072 16.4377C24.9895 16.2397 24.8686 16.06 24.7163 15.9089Z" fill="white"/>
</svg>
