<svg width="23" height="23" viewBox="0 0 23 23" fill="none" xmlns="http://www.w3.org/2000/svg">
<path d="M21.3571 11.4997C21.3571 16.9437 16.9439 21.3569 11.5 21.3569C9.42356 21.3569 7.49706 20.7148 5.90822 19.6185L2.53893 20.4608L3.42184 17.1498C2.30072 15.5499 1.64282 13.6017 1.64282 11.4997C1.64282 6.05577 6.05601 1.64258 11.5 1.64258C16.9439 1.64258 21.3571 6.05577 21.3571 11.4997Z" fill="url(#paint0_linear_215_90)"/>
<path fill-rule="evenodd" clip-rule="evenodd" d="M11.5 23C17.8513 23 23 17.8513 23 11.5C23 5.14872 17.8513 0 11.5 0C5.14872 0 0 5.14872 0 11.5C0 13.5625 0.542964 15.4982 1.49374 17.172L0 23L6.00864 21.6067C7.64044 22.4952 9.51124 23 11.5 23ZM11.5 21.2308C16.8742 21.2308 21.2308 16.8742 21.2308 11.5C21.2308 6.12584 16.8742 1.76923 11.5 1.76923C6.12584 1.76923 1.76923 6.12584 1.76923 11.5C1.76923 13.575 2.4187 15.4983 3.52544 17.0777L2.65385 20.3461L5.97994 19.5146C7.54844 20.597 9.45021 21.2308 11.5 21.2308Z" fill="white"/>
<path d="M8.625 6.16085C8.35163 5.61166 7.93213 5.66028 7.50843 5.66028C6.75116 5.66028 5.57031 6.56737 5.57031 8.25558C5.57031 9.63912 6.17998 11.1536 8.23433 13.4192C10.2169 15.6056 12.822 16.7367 14.9847 16.6981C17.1473 16.6597 17.5923 14.7986 17.5923 14.1701C17.5923 13.8916 17.4194 13.7526 17.3004 13.7148C16.5634 13.3611 15.2041 12.7021 14.8948 12.5783C14.5855 12.4545 14.424 12.622 14.3237 12.7131C14.0432 12.9803 13.4873 13.768 13.2969 13.9452C13.1065 14.1224 12.8227 14.0327 12.7046 13.9657C12.27 13.7914 11.0917 13.2672 10.1524 12.3566C8.99078 11.2306 8.9226 10.8432 8.70377 10.4983C8.52873 10.2224 8.6572 10.0532 8.72127 9.97919C8.97156 9.69046 9.31714 9.24458 9.47214 9.02304C9.62706 8.80142 9.50409 8.46505 9.43025 8.25558C9.11276 7.35448 8.84375 6.60016 8.625 6.16085Z" fill="white"/>
<defs>
<linearGradient id="paint0_linear_215_90" x1="20.125" y1="4.10686" x2="1.64282" y2="21.3569" gradientUnits="userSpaceOnUse">
<stop stop-color="#5BD066"/>
<stop offset="1" stop-color="#27B43E"/>
</linearGradient>
</defs>
</svg>
