<svg width="223" height="301" viewBox="0 0 223 301" fill="none" xmlns="http://www.w3.org/2000/svg">
<g clip-path="url(#clip0_435_6)">
<rect width="223" height="301" rx="6" fill="white"/>
<path d="M240.076 179.493C140.348 181.433 82.3203 186.367 -15.0742 200.956C-18.7056 201.5 -22 198.694 -22 195.022V6C-22 2.68629 -19.3137 0 -16 0H240C243.314 0 246 2.68629 246 6V173.489C246 176.761 243.347 179.429 240.076 179.493Z" fill="#1C2672"/>
<circle cx="268.5" cy="25.5" r="56.5" stroke="#353F8B" stroke-width="16"/>
<circle cx="-5.5" cy="73.5" r="32.5" stroke="#353F8B" stroke-width="16"/>
<path d="M142.164 43.7826C142.109 44.2163 142.383 44.379 142.765 44.2163L146.046 42.5897C146.428 42.3728 147.084 42.3728 147.467 42.5897L150.748 44.1621C151.13 44.379 151.404 44.1621 151.349 43.7283L150.802 40.1498C150.748 39.716 150.912 39.1196 151.24 38.7943L153.809 36.1917C154.137 35.8664 154.028 35.5411 153.591 35.4868L149.982 34.8904C149.545 34.8362 149.053 34.4566 148.834 34.0771L147.139 30.8781C146.92 30.4986 146.592 30.4986 146.428 30.8781L144.733 34.0771C144.515 34.4566 144.023 34.8362 143.585 34.8904L139.977 35.4868C139.54 35.5411 139.43 35.8664 139.758 36.1917L142.273 38.8485C142.601 39.1738 142.765 39.7702 142.711 40.204L142.164 43.7826ZM124.832 40.204C124.887 39.7702 124.668 39.1738 124.395 38.8485L121.825 36.3001C121.497 35.9748 121.607 35.7037 122.044 35.5953L125.652 34.9988C126.09 34.9446 126.582 34.5651 126.801 34.1855L128.495 30.9865C128.714 30.607 129.042 30.607 129.206 30.9865L130.901 34.1855C131.12 34.5651 131.612 34.9446 132.049 34.9988L135.658 35.5953C136.095 35.6495 136.204 35.9748 135.876 36.3001L133.307 38.9027C132.979 39.228 132.815 39.8245 132.869 40.2582L133.416 43.8368C133.471 44.2705 133.197 44.4874 132.815 44.2705L129.534 42.6981C129.152 42.4813 128.495 42.5355 128.113 42.6981L124.832 44.3248C124.45 44.5416 124.176 44.3248 124.231 43.891L124.832 40.204ZM106.954 40.204C107.009 39.7702 106.79 39.1738 106.517 38.8485L103.947 36.3001C103.619 35.9748 103.728 35.7037 104.166 35.5953L107.774 34.9988C108.212 34.9446 108.704 34.5651 108.922 34.1855L110.617 30.9865C110.836 30.607 111.164 30.607 111.328 30.9865L113.023 34.1855C113.242 34.5651 113.734 34.9446 114.171 34.9988L117.78 35.5953C118.217 35.6495 118.326 35.9748 117.998 36.3001L115.429 38.9027C115.101 39.228 114.936 39.8245 114.991 40.2582L115.538 43.8368C115.593 44.2705 115.319 44.4874 114.936 44.2705L111.656 42.6981C111.273 42.4813 110.617 42.5355 110.235 42.6981L106.954 44.3248C106.571 44.5416 106.298 44.3248 106.353 43.891L106.954 40.204ZM89.076 40.204C89.1306 39.7702 88.912 39.1738 88.6386 38.8485L86.0689 36.3001C85.7409 35.9748 85.8502 35.7037 86.2876 35.5953L89.8961 34.9988C90.3335 34.9446 90.8255 34.5651 91.0442 34.1855L92.7391 30.9865C92.9578 30.607 93.2858 30.607 93.4498 30.9865L95.1447 34.1855C95.3634 34.5651 95.8555 34.9446 96.2929 34.9988L99.9013 35.5953C100.339 35.6495 100.448 35.9748 100.12 36.3001L97.5504 38.9027C97.2223 39.228 97.0583 39.8245 97.113 40.2582L97.6597 43.8368C97.7144 44.2705 97.441 44.4874 97.0583 44.2705L93.7779 42.6981C93.3952 42.4813 92.7391 42.5355 92.3564 42.6981L89.076 44.3248C88.6933 44.5416 88.4199 44.3248 88.4745 43.891L89.076 40.204ZM71.1978 40.204C71.2524 39.7702 71.0338 39.1738 70.7604 38.8485L68.1907 36.3001C67.8627 35.9748 67.972 35.7037 68.4094 35.5953L72.0179 34.9988C72.4553 34.9446 72.9473 34.5651 73.166 34.1855L74.8609 30.9865C75.0796 30.607 75.4076 30.607 75.5716 30.9865L77.2665 34.1855C77.4852 34.5651 77.9773 34.9446 78.4147 34.9988L82.0231 35.5953C82.4605 35.6495 82.5698 35.9748 82.2418 36.3001L79.6721 38.9027C79.3441 39.228 79.1801 39.8245 79.2348 40.2582L79.7815 43.8368C79.8362 44.2705 79.5628 44.4874 79.1801 44.2705L75.8997 42.6981C75.517 42.4813 74.8609 42.5355 74.4782 42.6981L71.1978 44.3248C70.8151 44.5416 70.5417 44.3248 70.5964 43.891L71.1978 40.204Z" fill="#FFE527"/>
</g>
<defs>
<clipPath id="clip0_435_6">
<rect width="223" height="301" rx="6" fill="white"/>
</clipPath>
</defs>
</svg>
