<svg width="26" height="26" viewBox="0 0 26 26" fill="none" xmlns="http://www.w3.org/2000/svg">
<path d="M24.1435 5.98332V26H2.42725V0.00012207H18.1604L20.9472 2.78695L24.1435 5.98332Z" fill="#B12A27"/>
<path d="M12.272 1.74158H1.85693V6.40167H12.272V1.74158Z" fill="#F2F2F2"/>
<path d="M5.59279 3.26927C5.54683 3.15827 5.48559 3.05874 5.40139 2.97454C5.3172 2.89034 5.2138 2.82143 5.09513 2.77548C4.97264 2.72571 4.83482 2.70276 4.68172 2.70276H3.53711V5.65797H4.11515V4.54399H4.68172C4.83482 4.54399 4.97264 4.52103 5.09513 4.47127C5.2138 4.42531 5.31714 4.35645 5.40139 4.2722C5.48564 4.18801 5.54688 4.09229 5.59279 3.97747C5.63488 3.86646 5.65789 3.74779 5.65789 3.6253C5.65784 3.49896 5.63488 3.38028 5.59279 3.26927ZM4.96879 3.91618C4.89221 3.9889 4.78506 4.02718 4.65491 4.02718H4.11515V3.21565H4.65491C4.78506 3.21565 4.89226 3.25394 4.96879 3.33047C5.0415 3.40318 5.07979 3.50272 5.07979 3.6252C5.07984 3.74393 5.04155 3.84346 4.96879 3.91618Z" fill="#B12A27"/>
<path d="M8.35667 3.8472C8.35286 3.74386 8.349 3.65199 8.33752 3.56775C8.32605 3.4835 8.3069 3.40697 8.28009 3.33425C8.25328 3.26534 8.21885 3.19643 8.17289 3.13519C8.06955 2.98589 7.94321 2.87489 7.80158 2.80598C7.65609 2.73707 7.48384 2.70264 7.28097 2.70264H6.2168V5.65785H7.28097C7.48384 5.65785 7.65609 5.62342 7.80158 5.55451C7.94321 5.4856 8.06955 5.37459 8.17289 5.2253C8.21885 5.16405 8.25328 5.09514 8.28009 5.02623C8.3069 4.95352 8.32605 4.87694 8.33752 4.79274C8.349 4.70855 8.35281 4.61663 8.35667 4.51329C8.36048 4.41376 8.36048 4.30275 8.36048 4.18027C8.36048 4.05779 8.36048 3.94673 8.35667 3.8472ZM7.77863 4.47886C7.77863 4.56692 7.77096 4.63583 7.76329 4.69707C7.75562 4.7545 7.74414 4.80808 7.72886 4.84637C7.71357 4.88846 7.69057 4.92675 7.66381 4.96118C7.56809 5.08367 7.42265 5.1411 7.23125 5.1411H6.79103V3.21558H7.23125C7.42265 3.21558 7.56814 3.27682 7.66381 3.3993C7.69062 3.43373 7.71357 3.46821 7.72886 3.51031C7.74414 3.55241 7.75567 3.60218 7.76329 3.66342C7.77096 3.72085 7.77863 3.79357 7.77863 3.87777C7.78243 3.96201 7.78243 4.06535 7.78243 4.18017C7.78248 4.29509 7.78248 4.39462 7.77863 4.47886Z" fill="#B12A27"/>
<path d="M10.8259 3.21558V2.70264H8.87744V5.65785H9.45548V4.45972H10.623V3.94292H9.45548V3.21558H10.8259Z" fill="#B12A27"/>
<path d="M5.59279 3.26927C5.54683 3.15827 5.48559 3.05874 5.40139 2.97454C5.3172 2.89034 5.2138 2.82143 5.09513 2.77548C4.97264 2.72571 4.83482 2.70276 4.68172 2.70276H3.53711V5.65797H4.11515V4.54399H4.68172C4.83482 4.54399 4.97264 4.52103 5.09513 4.47127C5.2138 4.42531 5.31714 4.35645 5.40139 4.2722C5.48564 4.18801 5.54688 4.09229 5.59279 3.97747C5.63488 3.86646 5.65789 3.74779 5.65789 3.6253C5.65784 3.49896 5.63488 3.38028 5.59279 3.26927ZM4.96879 3.91618C4.89221 3.9889 4.78506 4.02718 4.65491 4.02718H4.11515V3.21565H4.65491C4.78506 3.21565 4.89226 3.25394 4.96879 3.33047C5.0415 3.40318 5.07979 3.50272 5.07979 3.6252C5.07984 3.74393 5.04155 3.84346 4.96879 3.91618Z" fill="#B12A27"/>
<path opacity="0.08" d="M24.1435 5.98324V25.9999H2.42725V21.3068L12.5791 11.1549L13.1801 10.5539L13.5131 10.2208L14.0682 9.6658L14.7267 9.00737L20.9472 2.78687L24.1435 5.98324Z" fill="#040000"/>
<path d="M24.1435 5.98386H18.1597V0L24.1435 5.98386Z" fill="#771B1B"/>
<path d="M21.0427 18.8225C20.9164 18.6005 20.7441 18.3899 20.5298 18.1985C20.3537 18.0377 20.147 17.8884 19.9135 17.7506C18.9718 17.1956 17.6282 16.9276 15.8022 16.9276H15.6184C15.5189 16.8358 15.4156 16.7439 15.3084 16.6482C14.6155 16.0242 14.0643 15.3466 13.6355 14.5925C14.4777 12.7359 14.8796 11.0822 14.8299 9.67352C14.8222 9.43616 14.7878 9.21415 14.7265 9.00742C14.6347 8.67439 14.4816 8.37961 14.2672 8.13845C14.2633 8.13464 14.2633 8.13464 14.2595 8.13078C13.9188 7.74799 13.4441 7.52979 12.9618 7.52979C12.4756 7.52979 12.0278 7.74032 11.7023 8.12697C11.3808 8.50976 11.2085 9.03423 11.2009 9.65051C11.1894 10.5922 11.2659 11.4841 11.4268 12.3071C11.442 12.3722 11.4536 12.4373 11.4689 12.5023C11.6296 13.2488 11.867 13.957 12.1732 14.6154C11.8134 15.3465 11.4497 15.9782 11.197 16.4069C11.0056 16.7323 10.7951 17.073 10.5769 17.4137C9.59309 17.5898 8.75855 17.8042 8.03127 18.0721C7.04748 18.4282 6.2589 18.8875 5.69233 19.4349C5.32483 19.7871 5.076 20.1622 4.95352 20.5527C4.82336 20.9546 4.83103 21.3566 4.97647 21.7164C5.11043 22.0494 5.35159 22.3289 5.67319 22.5203C5.74977 22.5662 5.83015 22.6045 5.91435 22.6389C6.15937 22.7385 6.42729 22.792 6.70674 22.792C7.35369 22.792 8.01974 22.5126 8.58245 22.0111C9.63133 21.0732 10.7146 19.565 11.3539 18.6118C11.8784 18.5314 12.4487 18.4625 13.0919 18.3936C13.8498 18.317 14.5197 18.2711 15.1284 18.2481C15.316 18.4166 15.4959 18.5773 15.6682 18.7305C16.6252 19.5841 17.3525 20.2004 18.0109 20.633C18.0109 20.6368 18.0147 20.6368 18.0186 20.6368C18.2789 20.809 18.5277 20.9507 18.7765 21.0655C19.056 21.1957 19.3392 21.2646 19.6302 21.2646C19.9977 21.2646 20.3422 21.1536 20.6293 20.9507C20.9202 20.7402 21.1307 20.4378 21.2265 20.0971C21.3375 19.6876 21.2724 19.2321 21.0427 18.8225ZM12.579 11.155C12.5254 10.6803 12.5024 10.1865 12.5101 9.66585C12.5177 9.17205 12.6977 8.83898 12.9618 8.83898C13.1608 8.83898 13.3714 9.01889 13.467 9.36339C13.4939 9.46673 13.513 9.58541 13.5168 9.71937C13.5245 9.88014 13.5206 10.0486 13.513 10.2208C13.49 10.707 13.4058 11.2238 13.2604 11.7789C13.1723 12.1349 13.0575 12.5062 12.9159 12.8928C12.7551 12.3493 12.6402 11.7712 12.579 11.155ZM6.19385 21.2303C6.12875 21.0695 6.20152 20.7594 6.59964 20.3766C7.20831 19.7948 8.16147 19.3354 9.48981 18.987C9.23717 19.3315 8.98834 19.6455 8.74718 19.9325C8.37968 20.3766 8.02751 20.7517 7.70977 21.035C7.43799 21.28 7.1394 21.4331 6.85614 21.4714C6.80637 21.4791 6.75661 21.4829 6.70684 21.4829C6.45796 21.4829 6.25509 21.3834 6.19385 21.2303ZM12.311 17.1611L12.3378 17.119L12.2957 17.1267C12.3034 17.1075 12.3149 17.0884 12.3263 17.0731C12.4871 16.8013 12.69 16.453 12.9082 16.051L12.9273 16.0931L12.9771 15.9898C13.1379 16.2195 13.314 16.4453 13.4977 16.6635C13.5858 16.7668 13.6776 16.8664 13.7695 16.9659L13.7083 16.9697L13.7618 17.0195C13.6049 17.031 13.4403 17.0463 13.2756 17.0616C13.1723 17.0731 13.0651 17.0807 12.9579 17.0922C12.7359 17.1152 12.5177 17.1382 12.311 17.1611ZM18.7536 19.5498C18.298 19.2588 17.7889 18.8492 17.1611 18.3018C18.053 18.3937 18.7536 18.5889 19.2512 18.8799C19.4694 19.0062 19.634 19.1363 19.745 19.2626C19.9288 19.4578 19.9939 19.634 19.9594 19.7526C19.9288 19.8713 19.7948 19.9517 19.6302 19.9517C19.5344 19.9517 19.435 19.9287 19.3316 19.879C19.1555 19.7948 18.9717 19.6914 18.7765 19.5651C18.7689 19.5651 18.7612 19.5574 18.7536 19.5498Z" fill="#F2F2F2"/>
</svg>
