<svg width="46" height="46" viewBox="0 0 46 46" fill="none" xmlns="http://www.w3.org/2000/svg">
<path d="M46 0H0V46.0002H46V0Z" fill="#E31E24"/>
<path d="M31.9955 32.0002L32 31.9994V25.3979C32 22.1684 31.3047 19.6807 27.5292 19.6807C25.7142 19.6807 24.4962 20.6767 23.999 21.6209H23.9465V19.9822H20.3667V31.9994H24.0942V26.0489C24.0942 24.4822 24.3912 22.9672 26.3315 22.9672C28.2432 22.9672 28.2717 24.7552 28.2717 26.1494V32.0002H31.9955Z" fill="white"/>
<path d="M14.2969 19.9829H18.0289V32.0002H14.2969V19.9829Z" fill="white"/>
<path d="M16.1615 14C14.9683 14 14 14.9683 14 16.1615C14 17.3548 14.9683 18.3433 16.1615 18.3433C17.3547 18.3433 18.323 17.3548 18.323 16.1615C18.3222 14.9683 17.354 14 16.1615 14Z" fill="white"/>
</svg>
