<svg width="112" height="112" viewBox="0 0 112 112" fill="none" xmlns="http://www.w3.org/2000/svg">
<circle cx="56" cy="56" r="53" fill="white" stroke="#FCEAA9" stroke-width="6"/>
<path d="M74.7234 28.5625H43.4734C41.8158 28.5625 40.2261 29.221 39.054 30.3931C37.8819 31.5652 37.2234 33.1549 37.2234 34.8125V69.1875H70.0359V33.6406L74.7234 28.5625Z" fill="#FDFEFF"/>
<path d="M77.8484 36.375H70.0359V33.3945C70.0182 32.3125 70.3684 31.2565 71.0293 30.3995C71.6901 29.5425 72.6224 28.9353 73.6734 28.6774C74.3605 28.5211 75.074 28.5215 75.7609 28.6784C76.4479 28.8354 77.0907 29.1449 77.6417 29.5841C78.1927 30.0232 78.6379 30.5808 78.9442 31.2154C79.2504 31.85 79.41 32.5454 79.4109 33.25V34.8125C79.4109 35.2269 79.2463 35.6243 78.9533 35.9174C78.6603 36.2104 78.2628 36.375 77.8484 36.375Z" fill="#E31E24"/>
<path d="M75.9266 28.7148C75.2217 28.5293 74.4833 28.5112 73.7702 28.6618C73.0571 28.8123 72.3891 29.1275 71.8194 29.5821C71.2497 30.0367 70.7942 30.6182 70.4892 31.2801C70.1841 31.942 70.038 32.6661 70.0625 33.3945V36.375H72.4062V33.3945C72.391 32.3345 72.7286 31.2996 73.3658 30.4524C74.0031 29.6053 74.9039 28.994 75.9266 28.7148Z" fill="#FF5055"/>
<path d="M65.3484 75.4375H38.7859C37.1283 75.4375 35.5386 74.779 34.3665 73.6069C33.1944 72.4348 32.5359 70.8451 32.5359 69.1875C32.5359 68.7731 32.7006 68.3757 32.9936 68.0826C33.2866 67.7896 33.684 67.625 34.0984 67.625H59.0984C59.5128 67.625 59.9103 67.7896 60.2033 68.0826C60.4963 68.3757 60.6609 68.7731 60.6609 69.1875V70.3594L65.3484 75.4375Z" fill="#E31E24"/>
<path d="M41.1562 73.0938C39.6348 73.0926 38.166 72.5364 37.0253 71.5296C35.8846 70.5228 35.1503 69.1345 34.9602 67.625H34.125C33.7106 67.625 33.3132 67.7896 33.0201 68.0826C32.7271 68.3757 32.5625 68.7731 32.5625 69.1875C32.5625 70.8451 33.221 72.4348 34.3931 73.6069C35.5652 74.779 37.1549 75.4375 38.8125 75.4375H65.375L63.2117 73.0938H41.1562Z" fill="#FF5055"/>
<path d="M70.0359 70.75C70.035 71.4546 69.8754 72.15 69.5692 72.7846C69.2629 73.4192 68.8177 73.9768 68.2667 74.4159C67.7157 74.8551 67.0728 75.1646 66.3859 75.3216C65.699 75.4786 64.9855 75.4789 64.2984 75.3227C63.2474 75.0647 62.3151 74.4575 61.6543 73.6005C60.9934 72.7435 60.6432 71.6875 60.6609 70.6055V67.625H70.0359V70.75Z" fill="#FDFEFF"/>
<path d="M39.5938 36.375V42.625C39.5938 42.8322 39.6761 43.0309 39.8226 43.1774C39.9691 43.3239 40.1678 43.4062 40.375 43.4062H44.2812V41.8438H41.1562V40.2812H44.2812V38.7188H41.1562V37.1562H44.2812V35.5938H40.375C40.1678 35.5938 39.9691 35.6761 39.8226 35.8226C39.6761 35.9691 39.5938 36.1678 39.5938 36.375Z" fill="#DFEAEF"/>
<path d="M48.9688 37.6141L48.1875 38.3953L47.4062 37.6141V35.5938H45.8438V37.9375C45.8438 38.1447 45.9261 38.3434 46.0727 38.4898L47.0828 39.5L46.0727 40.5102C45.9261 40.6566 45.8438 40.8553 45.8438 41.0625V43.4062H47.4062V41.3859L48.1875 40.6047L48.9688 41.3859V43.4062H50.5312V41.0625C50.5312 40.8553 50.4489 40.6566 50.3023 40.5102L49.2922 39.5L50.3023 38.4898C50.4489 38.3434 50.5312 38.1447 50.5312 37.9375V35.5938H48.9688V37.6141Z" fill="#DFEAEF"/>
<path d="M54.4375 35.5938C53.8159 35.5938 53.2198 35.8407 52.7802 36.2802C52.3407 36.7198 52.0938 37.3159 52.0938 37.9375V43.4062H53.6562V41.0625H55.2188V43.4062H56.7812V37.9375C56.7812 37.3159 56.5343 36.7198 56.0948 36.2802C55.6552 35.8407 55.0591 35.5938 54.4375 35.5938ZM53.6562 39.5V37.9375C53.6562 37.7303 53.7386 37.5316 53.8851 37.3851C54.0316 37.2386 54.2303 37.1562 54.4375 37.1562C54.6447 37.1562 54.8434 37.2386 54.9899 37.3851C55.1364 37.5316 55.2188 37.7303 55.2188 37.9375V39.5H53.6562Z" fill="#DFEAEF"/>
<path d="M63.8125 35.5937C63.2341 35.5958 62.6771 35.813 62.25 36.2031C61.9151 35.8976 61.4985 35.6963 61.051 35.6237C60.6036 35.5511 60.1447 35.6104 59.7304 35.7943C59.316 35.9783 58.9643 36.2789 58.718 36.6595C58.4718 37.0401 58.3417 37.4842 58.3437 37.9375V43.4062H59.9062V37.9375C59.9062 37.7303 59.9886 37.5316 60.1351 37.3851C60.2816 37.2385 60.4803 37.1562 60.6875 37.1562C60.8947 37.1562 61.0934 37.2385 61.2399 37.3851C61.3864 37.5316 61.4687 37.7303 61.4687 37.9375V41.0625H63.0312V37.9375C63.0312 37.7303 63.1136 37.5316 63.2601 37.3851C63.4066 37.2385 63.6053 37.1562 63.8125 37.1562C64.0197 37.1562 64.2184 37.2385 64.3649 37.3851C64.5114 37.5316 64.5937 37.7303 64.5937 37.9375V43.4062H66.1562V37.9375C66.1562 37.3159 65.9093 36.7197 65.4698 36.2802C65.0302 35.8407 64.4341 35.5937 63.8125 35.5937Z" fill="#DFEAEF"/>
<path d="M40.375 35.5938V41.8438C40.375 42.051 40.4573 42.2497 40.6038 42.3962C40.7503 42.5427 40.949 42.625 41.1562 42.625H45.0625V41.0625H41.9375V39.5H45.0625V37.9375H41.9375V36.375H45.0625V34.8125H41.1562C40.949 34.8125 40.7503 34.8948 40.6038 35.0413C40.4573 35.1878 40.375 35.3865 40.375 35.5938Z" fill="#E31E24"/>
<path d="M49.75 36.8328L48.9688 37.6141L48.1875 36.8328V34.8125H46.625V37.1562C46.625 37.3634 46.7074 37.5621 46.8539 37.7086L47.8641 38.7188L46.8539 39.7289C46.7074 39.8754 46.625 40.0741 46.625 40.2812V42.625H48.1875V40.6047L48.9688 39.8234L49.75 40.6047V42.625H51.3125V40.2812C51.3125 40.0741 51.2301 39.8754 51.0836 39.7289L50.0734 38.7188L51.0836 37.7086C51.2301 37.5621 51.3125 37.3634 51.3125 37.1562V34.8125H49.75V36.8328Z" fill="#E31E24"/>
<path d="M55.2188 34.8125C54.5971 34.8125 54.001 35.0594 53.5615 35.499C53.1219 35.9385 52.875 36.5346 52.875 37.1562V42.625H54.4375V40.2812H56V42.625H57.5625V37.1562C57.5625 36.5346 57.3156 35.9385 56.876 35.499C56.4365 35.0594 55.8404 34.8125 55.2188 34.8125ZM54.4375 38.7188V37.1562C54.4375 36.949 54.5198 36.7503 54.6663 36.6038C54.8128 36.4573 55.0115 36.375 55.2188 36.375C55.426 36.375 55.6247 36.4573 55.7712 36.6038C55.9177 36.7503 56 36.949 56 37.1562V38.7188H54.4375Z" fill="#E31E24"/>
<path d="M64.5937 34.8125C64.0153 34.8145 63.4583 35.0317 63.0312 35.4219C62.6964 35.1164 62.2797 34.915 61.8323 34.8424C61.3848 34.7698 60.9259 34.8291 60.5116 35.0131C60.0973 35.197 59.7455 35.4977 59.4993 35.8783C59.2531 36.2589 59.123 36.7029 59.125 37.1562V42.625H60.6875V37.1562C60.6875 36.949 60.7698 36.7503 60.9163 36.6038C61.0628 36.4573 61.2615 36.375 61.4687 36.375C61.676 36.375 61.8747 36.4573 62.0212 36.6038C62.1677 36.7503 62.25 36.949 62.25 37.1562V40.2812H63.8125V37.1562C63.8125 36.949 63.8948 36.7503 64.0413 36.6038C64.1878 36.4573 64.3865 36.375 64.5937 36.375C64.8009 36.375 64.9997 36.4573 65.1462 36.6038C65.2927 36.7503 65.375 36.949 65.375 37.1562V42.625H66.9375V37.1562C66.9375 36.5346 66.6906 35.9385 66.251 35.499C65.8115 35.0594 65.2154 34.8125 64.5937 34.8125Z" fill="#E31E24"/>
<path d="M45.0625 51.2188H41.1562C40.949 51.2188 40.7503 51.1364 40.6038 50.9899C40.4573 50.8434 40.375 50.6447 40.375 50.4375V47.3125C40.375 47.1053 40.4573 46.9066 40.6038 46.7601C40.7503 46.6136 40.949 46.5312 41.1562 46.5312H45.0625C45.2697 46.5312 45.4684 46.6136 45.6149 46.7601C45.7614 46.9066 45.8438 47.1053 45.8438 47.3125V50.4375C45.8438 50.6447 45.7614 50.8434 45.6149 50.9899C45.4684 51.1364 45.2697 51.2188 45.0625 51.2188ZM41.9375 49.6562H44.2812V48.0938H41.9375V49.6562Z" fill="#E31E24"/>
<path d="M45.0625 58.25H41.1562C40.949 58.25 40.7503 58.1677 40.6038 58.0212C40.4573 57.8747 40.375 57.676 40.375 57.4688V54.3438C40.375 54.1365 40.4573 53.9378 40.6038 53.7913C40.7503 53.6448 40.949 53.5625 41.1562 53.5625H45.0625C45.2697 53.5625 45.4684 53.6448 45.6149 53.7913C45.7614 53.9378 45.8438 54.1365 45.8438 54.3438V57.4688C45.8438 57.676 45.7614 57.8747 45.6149 58.0212C45.4684 58.1677 45.2697 58.25 45.0625 58.25ZM41.9375 56.6875H44.2812V55.125H41.9375V56.6875Z" fill="#E31E24"/>
<path d="M45.0625 65.2812H41.1562C40.949 65.2812 40.7503 65.1989 40.6038 65.0524C40.4573 64.9059 40.375 64.7072 40.375 64.5V61.375C40.375 61.1678 40.4573 60.9691 40.6038 60.8226C40.7503 60.6761 40.949 60.5938 41.1562 60.5938H45.0625C45.2697 60.5938 45.4684 60.6761 45.6149 60.8226C45.7614 60.9691 45.8438 61.1678 45.8438 61.375V64.5C45.8438 64.7072 45.7614 64.9059 45.6149 65.0524C45.4684 65.1989 45.2697 65.2812 45.0625 65.2812ZM41.9375 63.7188H44.2812V62.1562H41.9375V63.7188Z" fill="#E31E24"/>
<path d="M56 48.0938H47.4062V49.6562H56V48.0938Z" fill="#E31E24"/>
<path d="M56.7812 55.125H47.4062V56.6875H56.7812V55.125Z" fill="#E31E24"/>
<path d="M56 62.1562H47.4062V63.7188H56V62.1562Z" fill="#E31E24"/>
<path d="M62.25 48.0938H60.6875V49.6562H62.25V48.0938Z" fill="#E31E24"/>
<path d="M59.125 48.0938H57.5625V49.6562H59.125V48.0938Z" fill="#E31E24"/>
<path d="M68.6539 47.3594L59.4375 56.5758L58.8617 59.4555L58.4852 60.9844L60.0141 60.6078L62.8937 60.0313L70.0625 52.8625V45.9508L68.6539 47.3594Z" fill="#DFEAEF"/>
<path d="M73.2352 48.1008L69.7789 44.6446L70.9312 43.493C71.0825 43.3416 71.262 43.2215 71.4597 43.1396C71.6574 43.0576 71.8692 43.0154 72.0832 43.0154C72.2972 43.0154 72.509 43.0576 72.7067 43.1396C72.9044 43.2215 73.0839 43.3416 73.2352 43.493L74.3875 44.6446C74.6929 44.9503 74.8645 45.3648 74.8645 45.7969C74.8645 46.2291 74.6929 46.6435 74.3875 46.9493L73.2352 48.1008Z" fill="#F74E0C"/>
<path d="M73.8125 44.0688L73.2367 43.493C73.0855 43.3416 72.9059 43.2215 72.7083 43.1396C72.5106 43.0576 72.2987 43.0154 72.0848 43.0154C71.8708 43.0154 71.6589 43.0576 71.4612 43.1396C71.2636 43.2215 71.084 43.3416 70.9328 43.493L69.7805 44.6446L70.357 45.2211L71.5086 44.0688C71.8142 43.7634 72.2285 43.5919 72.6605 43.5919C73.0926 43.5919 73.5069 43.7634 73.8125 44.0688Z" fill="#CC2600"/>
<path d="M68.6272 45.7967L59.411 55.0129L62.867 58.4689L72.0831 49.2527L68.6272 45.7967Z" fill="#F74E0C"/>
<path d="M69.7795 46.9491L60.5634 56.1653L61.7152 57.3171L70.9313 48.101L69.7795 46.9491Z" fill="#E31E24"/>
<path d="M68.6272 45.7968L59.4111 55.0129L60.5629 56.1648L69.779 46.9486L68.6272 45.7968Z" fill="#F74E0C"/>
<path d="M70.3552 44.0686L68.6272 45.7966L72.0832 49.2526L73.8112 47.5246L70.3552 44.0686Z" fill="#DFEAEF"/>
<path d="M70.9312 46.9493C70.7798 46.798 70.6597 46.6183 70.5778 46.4206C70.4958 46.2229 70.4536 46.0109 70.4536 45.7969C70.4536 45.5829 70.4958 45.3709 70.5778 45.1732C70.6597 44.9755 70.7798 44.7958 70.9312 44.6446L70.3555 44.0688L68.6273 45.7969L72.0828 49.2532L72.6594 48.6766L70.9312 46.9493Z" fill="#C3D6DD"/>
<path d="M59.9867 59.0453L58.8352 57.893L59.4109 55.0133L62.8672 58.4688L59.9867 59.0453Z" fill="#F7D694"/>
<path d="M58.8352 57.893L58.4578 59.4219L59.9867 59.0454L58.8352 57.893Z" fill="#F74E0C"/>
</svg>
