<svg width="112" height="112" viewBox="0 0 112 112" fill="none" xmlns="http://www.w3.org/2000/svg">
<circle cx="56" cy="56" r="53" fill="white" stroke="#FCEAA9" stroke-width="6"/>
<g clip-path="url(#clip0_270_11)">
<path fill-rule="evenodd" clip-rule="evenodd" d="M71.6466 32V44.6304L57.2562 59.0208C56.5315 59.7455 56.1174 60.729 56.1174 61.7643V70.823H65.1761C66.2114 70.823 67.1949 70.4089 67.9196 69.6841L71.6466 65.9571V75.9994H38V32H71.6466ZM74.6126 45.3215C75.1199 44.8142 75.9378 44.8142 76.4451 45.3215L81.6215 50.4979C82.1262 51.0025 82.1262 51.8204 81.6215 52.3277L66.0923 67.8569C65.849 68.0976 65.5203 68.2348 65.1761 68.2348H58.7056V61.7643C58.7056 61.42 58.8428 61.0913 59.0835 60.8506L74.6126 45.3215ZM53.5292 57.882H45.7646V60.4702H53.5292L53.5292 57.882ZM58.7056 52.7056H45.7646V55.2938H58.7056V52.7056H58.7056ZM75.5289 48.065L73.4764 50.1174L76.8229 53.4639L78.8754 51.4115L75.5289 48.065ZM63.882 39.7646H45.7646V47.5292H63.882V39.7646L63.882 39.7646Z" fill="#E31E24"/>
</g>
<defs>
<clipPath id="clip0_270_11">
<rect width="44" height="44" fill="white" transform="translate(38 32)"/>
</clipPath>
</defs>
</svg>
