<svg width="112" height="112" viewBox="0 0 112 112" fill="none" xmlns="http://www.w3.org/2000/svg">
<circle cx="56" cy="56" r="53" fill="white" stroke="#FCEAA9" stroke-width="6"/>
<path d="M70.4941 36.6H40.5061C38.3641 36.6 36.6001 38.364 36.6001 40.506V70.494C36.6001 72.636 38.3641 74.4 40.5061 74.4H70.4941C72.6361 74.4 74.4001 72.636 74.4001 70.494V40.506C74.4001 38.364 72.6361 36.6 70.4941 36.6ZM53.8621 41.262C53.8621 40.758 54.3661 40.38 54.8701 40.38H69.6121C70.1161 40.38 70.4941 40.884 70.4941 41.388V43.278C70.4941 43.782 69.9901 44.16 69.4861 44.16H54.7441C54.2401 44.16 53.8621 43.656 53.8621 43.152V41.262ZM48.8221 40.38C49.8931 40.38 50.7121 41.199 50.7121 42.27C50.7121 43.341 49.8931 44.16 48.8221 44.16C47.7511 44.16 46.9321 43.341 46.9321 42.27C46.9321 41.199 47.7511 40.38 48.8221 40.38ZM42.2701 40.38C43.3411 40.38 44.1601 41.199 44.1601 42.27C44.1601 43.341 43.3411 44.16 42.2701 44.16C41.1991 44.16 40.3801 43.341 40.3801 42.27C40.3801 41.199 41.1991 40.38 42.2701 40.38ZM70.6201 69.738C70.6201 70.242 70.1161 70.62 69.6121 70.62H41.2621C40.7581 70.62 40.3801 70.116 40.3801 69.612V48.822C40.3801 48.318 40.8841 47.94 41.3881 47.94H69.7381C70.2421 47.94 70.6201 48.444 70.6201 48.948V69.738Z" fill="#E31E24"/>
<path d="M66.84 56.949C66.84 57.642 66.273 58.209 65.58 58.209H60.792C60.099 58.209 59.532 57.642 59.532 56.949V55.059C59.532 54.366 60.099 53.799 60.792 53.799H65.58C66.273 53.799 66.84 54.366 66.84 55.059V56.949Z" fill="#E31E24"/>
<path d="M66.84 63.879C66.84 64.572 66.273 65.139 65.58 65.139H60.792C60.099 65.139 59.532 64.572 59.532 63.879V61.989C59.532 61.296 60.099 60.729 60.792 60.729H65.58C66.273 60.729 66.84 61.296 66.84 61.989V63.879Z" fill="#E31E24"/>
<path d="M54.8699 53.799H45.1679C44.6639 53.799 44.1599 54.177 44.1599 54.681V64.131C44.1599 64.635 44.5379 65.139 45.0419 65.139H45.1679H54.7439C55.2479 65.139 55.7519 64.761 55.7519 64.257V54.807C55.7519 54.303 55.3739 53.799 54.8699 53.799ZM52.3499 63.186H47.6249C47.1209 63.186 46.6799 62.619 46.6799 62.052C46.6799 61.233 47.5619 60.729 48.4439 60.288C49.0739 60.036 49.1369 59.784 49.1369 59.469C49.1369 59.154 48.9479 58.965 48.7589 58.776C48.3809 58.461 48.1919 57.957 48.1919 57.39C48.1919 56.319 48.8219 55.437 49.9559 55.437C51.0269 55.437 51.7199 56.319 51.7199 57.39C51.7199 57.957 51.5309 58.461 51.1529 58.776C50.9639 58.965 50.7749 59.217 50.7749 59.469C50.7749 59.721 50.8379 59.973 51.4679 60.225C52.3499 60.603 53.2319 61.17 53.2319 61.989C53.2949 62.619 52.8539 63.186 52.3499 63.186Z" fill="#E31E24"/>
</svg>
