<svg width="112" height="112" viewBox="0 0 112 112" fill="none" xmlns="http://www.w3.org/2000/svg">
<circle cx="56" cy="56" r="53" fill="white" stroke="#FCEAA9" stroke-width="6"/>
<path d="M83 72.303L82.327 62.9443C82.5597 60.1677 79.7772 58.686 78.313 58.1707C78.2235 58.1389 78.1273 58.0976 78.0264 58.0476L75.6786 63.5144L75.0171 58.5841L75.4257 58.2774L75.3142 56.9371L76.4063 56.5737C76.4025 56.5477 76.3968 56.5217 76.3968 56.4976C76.3968 56.1468 76.3968 55.7083 76.3968 55.1083C76.8487 54.6065 77.1908 53.5892 77.3928 52.4364C77.6775 52.3335 77.862 52.1778 78.1041 50.9673C78.2754 50.1145 78.0081 49.5867 77.9427 49.5877C78.0561 48.8118 78.2119 47.2782 77.8081 46.5081C77.8081 46.5081 78.085 46.0092 78.085 45.3429C76.9197 45.5092 73.1999 43.123 72.0894 45.0649C70.4789 44.8986 69.5175 47.1706 70.2482 49.5877C70.2482 49.5877 69.3443 49.5443 69.7059 50.8087C70.0443 51.9951 70.3154 52.2663 70.7913 52.4363C70.9942 53.5892 71.3365 54.6064 71.7873 55.1082C71.7873 55.637 71.7873 56.0399 71.7873 56.3687L73.2949 56.8706L73.1795 58.2773L73.5881 58.584L72.9056 63.6701L69.9538 58.1369C69.926 58.1474 69.8981 58.1599 69.8711 58.1706C69.1097 58.4378 67.5098 58.9685 66.2061 59.807L66.0888 60.6357L66.0811 60.5415H66.082C66.1042 60.2761 66.0935 60.0222 66.0599 59.7771C65.6907 57.086 62.1892 55.5822 60.5528 54.9938L57.2838 61.5307L56.4753 55.5082L56.9733 55.135L56.8319 53.4188L58.1799 52.9698C58.1799 52.5622 58.1799 52.0536 58.1799 51.3594C58.7068 50.7729 59.1086 49.5807 59.3471 48.2299C59.9028 48.0308 60.222 47.7136 60.6181 46.3224C61.0411 44.8418 59.9826 44.8917 59.9826 44.8917C60.8383 42.0602 59.7124 39.398 57.8261 39.5941C56.5243 37.3174 52.1669 40.1143 50.8007 39.9191C50.8007 40.6997 51.1257 41.2843 51.1257 41.2843C50.6517 42.1861 50.8343 43.9832 50.968 44.8917C50.8901 44.8908 49.9344 44.9004 50.3402 46.3224C50.7372 47.7136 51.0545 48.0308 51.6112 48.2299C51.8497 49.5807 52.2496 50.773 52.7784 51.3594C52.7784 52.0536 52.7784 52.5622 52.7784 52.9698L54.3686 53.5006L54.234 55.135L54.7321 55.5082L53.8717 61.9248L50.4056 54.9937C48.6596 55.6205 44.7936 57.2887 44.8676 60.3298L44.7926 59.8069C43.4898 58.9684 41.8909 58.4377 41.1285 58.1705C41.1025 58.1599 41.0737 58.1473 41.0468 58.1368L38.0944 63.6702L37.4118 58.5841L37.8204 58.2774L37.705 56.8707L39.2125 56.3688C39.2125 56.04 39.2125 55.6371 39.2125 55.1083C39.6634 54.6065 40.0057 53.5892 40.2085 52.4364C40.6835 52.2663 40.9545 51.9951 41.2951 50.8088C41.6546 49.5444 40.7517 49.5878 40.7517 49.5878C41.4814 47.1707 40.52 44.8987 38.9106 45.065C37.8001 43.123 34.0802 45.5093 32.915 45.343C32.915 46.0093 33.1919 46.5082 33.1919 46.5082C32.7871 47.2785 32.9438 48.8119 33.0573 49.5878C32.9919 49.5868 32.7246 50.1146 32.8958 50.9674C33.1381 52.1779 33.3226 52.3336 33.6062 52.4365C33.8091 53.5894 34.1514 54.6066 34.6033 55.1084C34.6033 55.7084 34.6033 56.1468 34.6033 56.4977C34.6033 56.5218 34.5975 56.5478 34.5927 56.5738L35.6859 56.9372L35.5744 58.2775L35.984 58.5842L35.3217 63.5145L32.9736 58.0476C32.8728 58.0975 32.7755 58.1389 32.6871 58.1707C31.2229 58.686 28.4404 60.1676 28.673 62.9443L28 72.303H83Z" fill="#E31E24"/>
</svg>
