<svg width="112" height="112" viewBox="0 0 112 112" fill="none" xmlns="http://www.w3.org/2000/svg">
<circle cx="56" cy="56" r="53" fill="white" stroke="#FCEAA9" stroke-width="6"/>
<path d="M56.3625 62.8043C56.6675 62.8043 56.9147 62.5571 56.9147 62.2521C56.9147 61.9471 56.6675 61.6999 56.3625 61.6999C56.0575 61.6999 55.8103 61.9471 55.8103 62.2521C55.8103 62.5571 56.0575 62.8043 56.3625 62.8043Z" fill="#E31E24"/>
<path d="M59.1574 61.6999C59.0486 61.6999 58.9423 61.7322 58.8519 61.7926C58.7614 61.853 58.6909 61.9389 58.6493 62.0394C58.6077 62.1399 58.5968 62.2505 58.618 62.3572C58.6392 62.4639 58.6916 62.5619 58.7685 62.6388C58.8454 62.7157 58.9434 62.7681 59.0501 62.7893C59.1568 62.8106 59.2674 62.7997 59.3679 62.758C59.4684 62.7164 59.5543 62.6459 59.6147 62.5555C59.6752 62.465 59.7074 62.3587 59.7074 62.2499C59.7074 62.104 59.6495 61.9641 59.5463 61.861C59.4432 61.7579 59.3033 61.6999 59.1574 61.6999Z" fill="#E31E24"/>
<path d="M61.9008 62.8043C62.2058 62.8043 62.453 62.5571 62.453 62.2521C62.453 61.9471 62.2058 61.6999 61.9008 61.6999C61.5959 61.6999 61.3486 61.9471 61.3486 62.2521C61.3486 62.5571 61.5959 62.8043 61.9008 62.8043Z" fill="#E31E24"/>
<path d="M50.4201 58.3812C49.7502 58.3826 49.0922 58.5581 48.5105 58.8905V55.0405C48.5105 54.8946 48.4526 54.7547 48.3495 54.6516C48.2463 54.5485 48.1064 54.4905 47.9605 54.4905H42.9875C42.8769 54.4906 42.769 54.5241 42.6777 54.5865C42.5864 54.6488 42.5161 54.7373 42.4758 54.8402C42.4356 54.9432 42.4273 55.0559 42.452 55.1636C42.4768 55.2714 42.5334 55.3691 42.6146 55.4442C42.9004 55.7031 43.1288 56.019 43.2851 56.3716C43.4414 56.7242 43.5222 57.1056 43.5221 57.4913C43.5221 58.2317 43.2279 58.9418 42.7044 59.4654C42.1808 59.989 41.4707 60.2831 40.7303 60.2831C39.9898 60.2831 39.2797 59.989 38.7562 59.4654C38.2326 58.9418 37.9385 58.2317 37.9385 57.4913C37.9383 57.1056 38.0191 56.7242 38.1754 56.3716C38.3317 56.019 38.5601 55.7031 38.846 55.4442C38.9271 55.3691 38.9837 55.2714 39.0085 55.1636C39.0332 55.0559 39.0249 54.9432 38.9847 54.8402C38.9444 54.7373 38.8741 54.6488 38.7828 54.5865C38.6915 54.5241 38.5836 54.4906 38.4731 54.4905H33.5C33.3541 54.4905 33.2142 54.5485 33.111 54.6516C33.0079 54.7547 32.95 54.8946 32.95 55.0405V67.3C32.95 68.0294 33.2397 68.7288 33.7554 69.2446C34.2711 69.7603 34.9706 70.05 35.7 70.05H47.9605C48.1064 70.05 48.2463 69.9921 48.3495 69.8889C48.4526 69.7858 48.5105 69.6459 48.5105 69.5V65.65C49.0286 65.9426 49.607 66.1124 50.201 66.1464C50.795 66.1803 51.3889 66.0775 51.937 65.8458C52.485 65.6141 52.9726 65.2597 53.3621 64.81C53.7517 64.3602 54.0328 63.827 54.1839 63.2515C54.335 62.676 54.352 62.0735 54.2336 61.4904C54.1152 60.9073 53.8645 60.3592 53.5009 59.8882C53.1374 59.4172 52.6705 59.0359 52.1364 58.7737C51.6023 58.5114 51.0152 58.3753 50.4201 58.3757V58.3812Z" fill="#E31E24"/>
<path d="M50.4202 65.0648C50.0329 65.0649 49.6499 64.9834 49.2963 64.8255C48.9426 64.6676 48.6262 64.4369 48.3676 64.1485C48.2923 64.0674 48.1946 64.0105 48.0868 63.9853C47.979 63.96 47.8662 63.9674 47.7626 64.0066C47.6591 64.0466 47.5701 64.1169 47.5073 64.2084C47.4444 64.2999 47.4108 64.4082 47.4106 64.5192V68.95H35.7C35.2624 68.95 34.8428 68.7762 34.5333 68.4667C34.2239 68.1573 34.05 67.7376 34.05 67.3V55.5927H37.3379C37.0085 56.1719 36.8364 56.8272 36.8385 57.4935C36.8385 58.5257 37.2486 59.5156 37.9784 60.2454C38.7083 60.9753 39.6982 61.3853 40.7303 61.3853C41.7625 61.3853 42.7524 60.9753 43.4823 60.2454C44.2121 59.5156 44.6221 58.5257 44.6221 57.4935C44.6243 56.8272 44.4522 56.1719 44.1227 55.5927H47.4106V60.0257C47.4105 60.1369 47.4441 60.2455 47.5069 60.3372C47.5698 60.4289 47.6589 60.4994 47.7626 60.5394C47.8662 60.5786 47.979 60.586 48.0868 60.5607C48.1946 60.5355 48.2923 60.4786 48.3676 60.3975C48.6262 60.1091 48.9426 59.8784 49.2963 59.7205C49.6499 59.5626 50.0329 59.4811 50.4202 59.4812C50.7869 59.4812 51.1499 59.5534 51.4886 59.6937C51.8273 59.834 52.1351 60.0397 52.3944 60.2989C52.6536 60.5581 52.8592 60.8659 52.9995 61.2046C53.1398 61.5433 53.212 61.9064 53.212 62.273C53.212 62.6396 53.1398 63.0027 52.9995 63.3414C52.8592 63.6801 52.6536 63.9879 52.3944 64.2471C52.1351 64.5063 51.8273 64.712 51.4886 64.8523C51.1499 64.9926 50.7869 65.0648 50.4202 65.0648Z" fill="#E31E24"/>
<path d="M77.5001 54.4927H73.6567C73.9893 53.9114 74.1635 53.2529 74.1616 52.5831C74.1616 51.5509 73.7516 50.561 73.0217 49.8312C72.2919 49.1013 71.302 48.6913 70.2698 48.6913C69.2376 48.6913 68.2477 49.1013 67.5179 49.8312C66.788 50.561 66.378 51.5509 66.378 52.5831C66.3761 53.2529 66.5503 53.9114 66.8829 54.4927H63.0395C62.8936 54.4927 62.7537 54.5506 62.6506 54.6538C62.5474 54.7569 62.4895 54.8968 62.4895 55.0427V60.0158C62.4896 60.1263 62.5231 60.2343 62.5854 60.3255C62.6478 60.4168 62.7363 60.4871 62.8392 60.5274C62.9422 60.5677 63.0549 60.576 63.1626 60.5512C63.2703 60.5265 63.3681 60.4698 63.4432 60.3887C63.7019 60.1029 64.0177 59.8745 64.3701 59.7182C64.7225 59.5619 65.1037 59.4812 65.4892 59.4812C66.2296 59.4812 66.9397 59.7753 67.4633 60.2989C67.9869 60.8225 68.281 61.5326 68.281 62.273C68.281 63.0134 67.9869 63.7235 67.4633 64.2471C66.9397 64.7707 66.2296 65.0648 65.4892 65.0648C65.1037 65.0648 64.7225 64.9841 64.3701 64.8278C64.0177 64.6715 63.7019 64.4431 63.4432 64.1573C63.3681 64.0762 63.2703 64.0195 63.1626 63.9948C63.0549 63.97 62.9422 63.9783 62.8392 64.0186C62.7363 64.0589 62.6478 64.1292 62.5854 64.2205C62.5231 64.3117 62.4896 64.4197 62.4895 64.5302V69.5C62.4895 69.6459 62.5474 69.7858 62.6506 69.8889C62.7537 69.9921 62.8936 70.05 63.0395 70.05H75.3001C76.0294 70.05 76.7289 69.7603 77.2446 69.2445C77.7604 68.7288 78.0501 68.0293 78.0501 67.3V55.0427C78.0501 54.8968 77.9922 54.7569 77.889 54.6538C77.7859 54.5506 77.646 54.4927 77.5001 54.4927Z" fill="#E31E24"/>
<path d="M76.95 67.3C76.95 67.7376 76.7761 68.1573 76.4667 68.4667C76.1572 68.7762 75.7376 68.95 75.3 68.95H63.5894V65.661C64.1681 65.9906 64.823 66.1632 65.4891 66.1615C66.0001 66.1615 66.5062 66.0608 66.9784 65.8653C67.4506 65.6697 67.8796 65.383 68.241 65.0216C68.6024 64.6602 68.889 64.2312 69.0846 63.759C69.2802 63.2869 69.3809 62.7808 69.3809 62.2697C69.3809 61.7586 69.2802 61.2526 69.0846 60.7804C68.889 60.3082 68.6024 59.8792 68.241 59.5178C67.8796 59.1564 67.4506 58.8697 66.9784 58.6741C66.5062 58.4786 66.0001 58.3779 65.4891 58.3779C64.8232 58.3764 64.1684 58.5485 63.5894 58.8773V55.5927H68.0224C68.1333 55.5928 68.2417 55.5594 68.3333 55.4969C68.4249 55.4343 68.4954 55.3455 68.5356 55.2421C68.5758 55.1387 68.5838 55.0256 68.5586 54.9175C68.5333 54.8095 68.476 54.7117 68.3942 54.6368C68.1057 54.3781 67.875 54.0615 67.7172 53.7076C67.5593 53.3537 67.4777 52.9706 67.4779 52.5831C67.4779 51.8427 67.772 51.1326 68.2956 50.609C68.8191 50.0854 69.5292 49.7913 70.2697 49.7913C71.0101 49.7913 71.7202 50.0854 72.2438 50.609C72.7673 51.1326 73.0615 51.8427 73.0615 52.5831C73.0616 52.9706 72.98 53.3537 72.8222 53.7076C72.6643 54.0615 72.4336 54.3781 72.1452 54.6368C72.0634 54.7116 72.0061 54.8094 71.9808 54.9173C71.9555 55.0252 71.9634 55.1382 72.0035 55.2416C72.0436 55.3449 72.1139 55.4337 72.2054 55.4964C72.2968 55.559 72.405 55.5926 72.5159 55.5927H76.95V67.3Z" fill="#D12200"/>
<path d="M59.7998 46.1272C59.8417 45.1328 60.2518 44.1895 60.9504 43.4806C61.6576 42.7339 62.2036 41.8496 62.5545 40.8828C62.9053 39.916 63.0535 38.8874 62.9897 37.8609C62.9259 36.8343 62.6516 35.8319 62.1838 34.916C61.7161 34 61.0648 33.1902 60.2706 32.5367C59.4068 31.8275 58.3961 31.3191 57.3117 31.0484C56.2274 30.7777 55.0964 30.7514 54.0006 30.9714C52.6894 31.2383 51.4734 31.851 50.4788 32.7461C49.4842 33.6412 48.7471 34.7861 48.344 36.062C47.941 37.3379 47.8865 38.6985 48.1864 40.0025C48.4862 41.3066 49.1295 42.5067 50.0494 43.4784C50.7483 44.1882 51.159 45.132 51.2022 46.1272C50.8676 46.1661 50.5588 46.3258 50.3338 46.5764C50.1087 46.827 49.9829 47.1511 49.9801 47.4879V48.5098C49.9807 48.8801 50.128 49.2351 50.3899 49.497C50.6518 49.7588 51.0068 49.9062 51.3771 49.9068H51.4871C51.5752 50.9121 52.0368 51.8478 52.7808 52.5296C53.5249 53.2113 54.4974 53.5894 55.5065 53.5894C56.5156 53.5894 57.4881 53.2113 58.2322 52.5296C58.9762 51.8478 59.4378 50.9121 59.5259 49.9068H59.6359C60.0062 49.9062 60.3612 49.7588 60.6231 49.497C60.8849 49.2351 61.0323 48.8801 61.0329 48.5098V47.4879C61.0297 47.1494 60.9024 46.8239 60.6751 46.573C60.4478 46.3222 60.1363 46.1636 59.7998 46.1272Z" fill="#E31E24"/>
<path d="M49.197 37.1721C49.4202 35.9133 50.0178 34.7511 50.9119 33.8374C51.806 32.9237 52.955 32.3009 54.2086 32.0505C55.1453 31.8626 56.1121 31.8849 57.0392 32.1156C57.9662 32.3463 58.8306 32.7798 59.57 33.3848C60.2479 33.9423 60.8038 34.6334 61.2031 35.415C61.6024 36.1966 61.8366 37.052 61.891 37.928C61.9455 38.804 61.8191 39.6819 61.5198 40.5069C61.2204 41.332 60.7544 42.0866 60.1508 42.7238C59.2677 43.6281 58.7515 44.8279 58.7021 46.0909H57.5548V41.329H57.9541C58.3527 41.3296 58.7353 41.1719 59.0177 40.8905C59.3 40.6092 59.4592 40.2272 59.46 39.8286V39.69C59.46 39.2921 59.3019 38.9104 59.0206 38.6291C58.7392 38.3477 58.3576 38.1896 57.9596 38.1896C57.5617 38.1896 57.1801 38.3477 56.8987 38.6291C56.6173 38.9104 56.4592 39.2921 56.4592 39.69V40.2301H54.5452V39.69C54.5452 39.2921 54.3871 38.9104 54.1058 38.6291C53.8244 38.3477 53.4428 38.1896 53.0448 38.1896C52.6469 38.1896 52.2653 38.3477 51.9839 38.6291C51.7025 38.9104 51.5444 39.2921 51.5444 39.69V39.8297C51.5453 40.2276 51.7038 40.6089 51.9852 40.8901C52.2667 41.1713 52.6481 41.3295 53.0459 41.3301H53.4452V46.092H52.2968C52.2467 44.8283 51.7302 43.628 50.847 42.7227C50.1542 41.9929 49.6435 41.1097 49.3568 40.1452C49.0701 39.1806 49.0153 38.1619 49.197 37.1721Z" fill="#E31E24"/>
<path d="M53.4451 40.229H53.0458C52.9931 40.2291 52.9409 40.2189 52.8922 40.1988C52.8435 40.1788 52.7992 40.1493 52.762 40.1121C52.7247 40.0749 52.6951 40.0307 52.6749 39.9821C52.6547 39.9334 52.6443 39.8813 52.6443 39.8286V39.69C52.6443 39.5838 52.6865 39.482 52.7616 39.4069C52.8367 39.3318 52.9385 39.2896 53.0447 39.2896C53.1509 39.2896 53.2527 39.3318 53.3278 39.4069C53.4029 39.482 53.4451 39.5838 53.4451 39.69V40.229Z" fill="#E31E24"/>
<path d="M56.4548 41.329H54.5452V46.092H56.4548V41.329Z" fill="#E31E24"/>
<path d="M57.5547 40.229V39.69C57.5547 39.5838 57.5969 39.482 57.672 39.4069C57.7471 39.3318 57.8489 39.2896 57.9551 39.2896C58.0613 39.2896 58.1631 39.3318 58.2382 39.4069C58.3133 39.482 58.3555 39.5838 58.3555 39.69V39.8297C58.3555 39.8824 58.3451 39.9345 58.3249 39.9832C58.3047 40.0318 58.2751 40.076 58.2378 40.1132C58.2005 40.1504 58.1563 40.1799 58.1076 40.1999C58.0588 40.22 58.0067 40.2302 57.954 40.2301L57.5547 40.229Z" fill="#E31E24"/>
<path d="M55.5 52.4907C54.7824 52.4885 54.0902 52.225 53.5529 51.7494C53.0156 51.2738 52.6699 50.6188 52.5806 49.9068H58.4194C58.33 50.6188 57.9844 51.2738 57.4471 51.7494C56.9097 52.225 56.2175 52.4885 55.5 52.4907Z" fill="#E31E24"/>
<path d="M59.6238 47.1909H51.3749C51.2109 47.1909 51.0779 47.3239 51.0779 47.4879V48.5087C51.0779 48.6727 51.2109 48.8057 51.3749 48.8057H59.6238C59.7878 48.8057 59.9208 48.6727 59.9208 48.5087V47.4879C59.9208 47.3239 59.7878 47.1909 59.6238 47.1909Z" fill="#E31E24"/>
<path d="M55.5 29.9231C55.6458 29.9231 55.7857 29.8652 55.8889 29.762C55.992 29.6589 56.05 29.519 56.05 29.3731V25.5C56.05 25.3541 55.992 25.2142 55.8889 25.1111C55.7857 25.0079 55.6458 24.95 55.5 24.95C55.3541 24.95 55.2142 25.0079 55.111 25.1111C55.0079 25.2142 54.95 25.3541 54.95 25.5V29.3731C54.95 29.519 55.0079 29.6589 55.111 29.762C55.2142 29.8652 55.3541 29.9231 55.5 29.9231Z" fill="#E31E24"/>
<path d="M64.312 38.7352C64.312 38.8811 64.37 39.021 64.4731 39.1241C64.5762 39.2273 64.7161 39.2852 64.862 39.2852H68.7384C68.8843 39.2852 69.0242 39.2273 69.1273 39.1241C69.2305 39.021 69.2884 38.8811 69.2884 38.7352C69.2884 38.5893 69.2305 38.4494 69.1273 38.3463C69.0242 38.2431 68.8843 38.1852 68.7384 38.1852H64.862C64.7161 38.1852 64.5762 38.2431 64.4731 38.3463C64.37 38.4494 64.312 38.5893 64.312 38.7352Z" fill="#E31E24"/>
<path d="M42.2614 39.2852H46.1378C46.2837 39.2852 46.4236 39.2273 46.5267 39.1241C46.6299 39.021 46.6878 38.8811 46.6878 38.7352C46.6878 38.5893 46.6299 38.4494 46.5267 38.3463C46.4236 38.2431 46.2837 38.1852 46.1378 38.1852H42.2614C42.1156 38.1852 41.9757 38.2431 41.8725 38.3463C41.7694 38.4494 41.7114 38.5893 41.7114 38.7352C41.7114 38.8811 41.7694 39.021 41.8725 39.1241C41.9757 39.2273 42.1156 39.2852 42.2614 39.2852Z" fill="#E31E24"/>
<path d="M50.3431 30.9021C50.4161 31.0281 50.536 31.1201 50.6766 31.1578C50.8173 31.1956 50.9671 31.176 51.0933 31.1034C51.2197 31.0305 51.3118 30.9103 51.3496 30.7694C51.3873 30.6286 51.3676 30.4784 51.2946 30.3521L49.3564 26.9949C49.3221 26.9292 49.2747 26.8711 49.2173 26.8241C49.1599 26.7772 49.0936 26.7423 49.0223 26.7216C48.9511 26.701 48.8764 26.6949 48.8028 26.7039C48.7291 26.7128 48.6581 26.7365 48.5938 26.7737C48.5296 26.8108 48.4736 26.8605 48.4291 26.9199C48.3846 26.9792 48.3525 27.0469 48.3349 27.119C48.3172 27.191 48.3143 27.2659 48.3264 27.3391C48.3384 27.4123 48.3651 27.4823 48.4049 27.5449L50.3431 30.9021Z" fill="#E31E24"/>
<path d="M63.6081 34.6047C63.7046 34.6047 63.7995 34.5793 63.8831 34.531L67.2403 32.5928C67.3029 32.5567 67.3578 32.5086 67.4018 32.4513C67.4459 32.3939 67.4782 32.3285 67.4969 32.2587C67.5157 32.1889 67.5205 32.116 67.5111 32.0444C67.5017 31.9727 67.4782 31.9036 67.4421 31.841C67.406 31.7783 67.3579 31.7234 67.3006 31.6794C67.2433 31.6354 67.1778 31.6031 67.108 31.5843C67.0382 31.5656 66.9654 31.5608 66.8937 31.5702C66.822 31.5796 66.7529 31.603 66.6903 31.6391L63.3331 33.5784C63.2282 33.6389 63.1463 33.7324 63.1 33.8442C63.0536 33.9561 63.0455 34.0801 63.0768 34.1971C63.1082 34.314 63.1772 34.4173 63.2733 34.491C63.3693 34.5647 63.487 34.6047 63.6081 34.6047Z" fill="#E31E24"/>
<path d="M47.1168 42.9394L43.7596 44.8776C43.6331 44.9505 43.5408 45.0707 43.503 45.2117C43.4651 45.3527 43.4848 45.503 43.5577 45.6294C43.6307 45.7559 43.7509 45.8482 43.8919 45.8861C44.0329 45.9239 44.1831 45.9042 44.3096 45.8313L47.6668 43.892C47.7299 43.8561 47.7852 43.8082 47.8296 43.7509C47.8741 43.6935 47.9067 43.628 47.9257 43.558C47.9447 43.488 47.9497 43.4149 47.9404 43.343C47.931 43.2711 47.9075 43.2017 47.8713 43.1389C47.835 43.0761 47.7867 43.021 47.729 42.977C47.6714 42.9329 47.6057 42.9007 47.5355 42.8821C47.4654 42.8636 47.3923 42.8591 47.3204 42.8689C47.2486 42.8788 47.1794 42.9027 47.1168 42.9394Z" fill="#E31E24"/>
<path d="M43.7596 32.5928L47.1168 34.531C47.1794 34.5677 47.2486 34.5916 47.3204 34.6015C47.3923 34.6113 47.4654 34.6068 47.5355 34.5883C47.6057 34.5697 47.6714 34.5375 47.729 34.4934C47.7867 34.4494 47.835 34.3944 47.8713 34.3315C47.9075 34.2687 47.931 34.1994 47.9404 34.1274C47.9497 34.0555 47.9447 33.9824 47.9257 33.9124C47.9067 33.8424 47.8741 33.7769 47.8296 33.7196C47.7852 33.6622 47.7299 33.6143 47.6668 33.5784L44.3096 31.6391C44.1831 31.5662 44.0329 31.5465 43.8919 31.5843C43.7509 31.6222 43.6307 31.7145 43.5577 31.841C43.4848 31.9674 43.4651 32.1177 43.503 32.2587C43.5408 32.3997 43.6331 32.5199 43.7596 32.5928Z" fill="#E31E24"/>
<path d="M63.3331 43.892L66.6903 45.8313C66.7739 45.8796 66.8687 45.905 66.9653 45.905C67.0867 45.9054 67.2049 45.8656 67.3013 45.7919C67.3978 45.7181 67.4671 45.6145 67.4985 45.4972C67.5299 45.3799 67.5216 45.2555 67.4749 45.1435C67.4282 45.0314 67.3457 44.9379 67.2403 44.8776L63.8831 42.9394C63.8205 42.9027 63.7513 42.8788 63.6794 42.8689C63.6076 42.8591 63.5345 42.8636 63.4643 42.8821C63.3942 42.9007 63.3285 42.9329 63.2708 42.977C63.2132 43.021 63.1649 43.0761 63.1286 43.1389C63.0924 43.2017 63.0689 43.2711 63.0595 43.343C63.0502 43.4149 63.0551 43.488 63.0741 43.558C63.0931 43.628 63.1258 43.6935 63.1703 43.7509C63.2147 43.8082 63.27 43.8561 63.3331 43.892Z" fill="#E31E24"/>
<path d="M59.9066 31.1034C60.0328 31.176 60.1827 31.1956 60.3233 31.1578C60.4639 31.1201 60.5838 31.0281 60.6568 30.9021L62.595 27.5449C62.6348 27.4823 62.6615 27.4123 62.6735 27.3391C62.6856 27.2659 62.6827 27.191 62.665 27.119C62.6474 27.0469 62.6153 26.9792 62.5708 26.9199C62.5263 26.8605 62.4703 26.8108 62.4061 26.7737C62.3418 26.7365 62.2708 26.7128 62.1971 26.7039C62.1235 26.6949 62.0488 26.701 61.9776 26.7216C61.9063 26.7423 61.84 26.7772 61.7826 26.8241C61.7252 26.8711 61.6779 26.9292 61.6435 26.9949L59.7053 30.3521C59.6323 30.4784 59.6126 30.6286 59.6503 30.7694C59.6881 30.9103 59.7803 31.0305 59.9066 31.1034Z" fill="#E31E24"/>
</svg>
