<svg width="112" height="112" viewBox="0 0 112 112" fill="none" xmlns="http://www.w3.org/2000/svg">
<circle cx="56" cy="56" r="53" fill="white" stroke="#FCEAA9" stroke-width="6"/>
<path d="M53.5777 55.4936C53.5777 55.415 53.5647 55.34 53.5547 55.2643L59.3148 51.0837C59.6766 50.8206 59.7581 50.3116 59.495 49.9489C59.3422 49.7392 59.0964 49.6137 58.8368 49.6137C58.6645 49.6137 58.5002 49.6678 58.3603 49.7688L52.5886 53.958C52.3737 53.86 52.138 53.8016 51.8864 53.8016H48.7489L47.9876 49.4667C47.5694 47.281 46.6921 45.5645 44.8235 45.5645H36.9015C35.0329 45.5645 33 47.5974 33 49.4667V62.4287C33 63.363 33.757 64.1207 34.6913 64.1207C35.1513 64.1207 34.6913 64.1207 35.8721 64.1207L36.5152 75.1753C36.5152 76.1694 37.3219 76.9754 38.316 76.9754C39.0614 76.9754 40.9229 76.9754 41.9171 76.9754C42.9112 76.9754 43.7172 76.1694 43.7172 75.1753L44.5621 53.279H44.6046L45.0884 55.415C45.2485 56.4337 46.125 57.1848 47.156 57.1848H51.8867C52.8208 57.1848 53.5777 56.4279 53.5777 55.4936ZM39.2446 53.0907V46.929H41.4593V53.0907L40.2827 54.4785L39.2446 53.0907Z" fill="#E31E24"/>
<path d="M50.4712 37.3574V51.439H52.6859V39.572H77.7852V60.7345H52.6859V58.0707H50.4712V62.9491H79.9999V37.3574H50.4712Z" fill="#E31E24"/>
<path d="M40.4761 43.7376C42.6063 43.7376 44.3322 42.0102 44.3322 39.8814C44.3322 37.7503 42.6063 36.0244 40.4761 36.0244C38.3449 36.0244 36.6191 37.7503 36.6191 39.8814C36.6191 42.0102 38.3449 43.7376 40.4761 43.7376Z" fill="#E31E24"/>
<path d="M58.4995 73.4688C56.2726 73.4688 54.381 74.9301 53.6543 76.9753H63.3448C62.6182 74.93 60.7264 73.4688 58.4995 73.4688Z" fill="#E31E24"/>
<path d="M71.9718 73.4688C69.7449 73.4688 67.8532 74.9301 67.1265 76.9753H76.817C76.0903 74.93 74.1987 73.4688 71.9718 73.4688Z" fill="#E31E24"/>
<path d="M75.0957 68.6719C75.0957 66.946 73.6972 65.5481 71.9721 65.5481C70.2462 65.5481 68.8477 66.946 68.8477 68.6719C68.8477 70.3963 70.2462 71.7955 71.9721 71.7955C73.6972 71.7955 75.0957 70.3962 75.0957 68.6719Z" fill="#E31E24"/>
<path d="M61.6231 68.6719C61.6231 66.946 60.2245 65.5481 58.4994 65.5481C56.7735 65.5481 55.375 66.946 55.375 68.6719C55.375 70.3963 56.7735 71.7955 58.4994 71.7955C60.2244 71.7955 61.6231 70.3962 61.6231 68.6719Z" fill="#E31E24"/>
</svg>
