<svg width="35" height="34" viewBox="0 0 35 34" fill="none" xmlns="http://www.w3.org/2000/svg">
<circle cx="17.6001" cy="17" r="17" fill="#F3F8FF"/>
<circle cx="17.6001" cy="17" r="17" fill="#E4E4E4"/>
<circle cx="17.6001" cy="17" r="17" fill="#F3F8FF"/>
<circle cx="17.6001" cy="17" r="17" fill="#DFEBE6"/>
<g clip-path="url(#clip0_419_12)">
<path fill-rule="evenodd" clip-rule="evenodd" d="M22.0747 18.8848C21.906 19.3623 21.2354 19.7574 20.7006 19.8729C20.3345 19.9506 19.8571 20.0121 18.2485 19.3455C16.4418 18.597 13.933 15.9307 13.933 14.1563C13.933 13.2531 14.4538 12.2013 15.3645 12.2013C15.8027 12.2013 15.8993 12.2098 16.0435 12.5557C16.2122 12.9632 16.6238 13.9673 16.6728 14.0702C16.8751 14.4924 16.467 14.7396 16.1709 15.1072C16.0764 15.2179 15.9693 15.3375 16.089 15.5434C16.208 15.745 16.6196 16.4158 17.2244 16.9543C18.0056 17.6503 18.6391 17.8725 18.8659 17.967C19.0346 18.0371 19.2362 18.0208 19.3594 17.8891C19.5155 17.7204 19.7094 17.4404 19.9068 17.1645C20.0461 16.967 20.2232 16.9424 20.4087 17.0124C20.534 17.0558 22.1265 17.7954 22.1937 17.9137C22.2434 17.9998 22.2434 18.4072 22.0747 18.8848ZM18.0014 9H17.9979C14.1388 9 11 12.1397 11 16C11 17.5307 11.4935 18.9507 12.3328 20.1026L11.4606 22.7037L14.1507 21.844C15.2574 22.5765 16.5783 23 18.0014 23C21.8605 23 25 19.8603 25 16C25 12.1397 21.8605 9 18.0014 9Z" fill="#D0021B"/>
</g>
<defs>
<clipPath id="clip0_419_12">
<rect width="14" height="14" fill="white" transform="translate(11 9)"/>
</clipPath>
</defs>
</svg>
