<svg width="68" height="68" viewBox="0 0 68 68" fill="none" xmlns="http://www.w3.org/2000/svg">
<circle cx="34" cy="34" r="33.5" fill="white" stroke="#D2D0D0"/>
<path d="M41.2233 37.4585L40.4262 38.2976C40.4262 38.2976 38.5317 40.2922 33.3604 34.8478C28.1892 29.4035 30.0837 27.4089 30.0837 27.4089L30.5857 26.8804C31.8222 25.5787 31.9387 23.4887 30.8599 21.9629L28.6532 18.8418C27.318 16.9534 24.7379 16.7039 23.2075 18.3151L20.4607 21.207C19.7019 22.0059 19.1934 23.0415 19.2551 24.1904C19.4128 27.1296 20.6687 33.4532 27.6769 40.8316C35.1087 48.6558 42.0819 48.9668 44.9335 48.6854C45.8355 48.5963 46.6198 48.11 47.2519 47.4445L49.738 44.8272C51.416 43.0606 50.9428 40.0318 48.7958 38.796L45.4524 36.8715C44.0426 36.06 42.3251 36.2984 41.2233 37.4585Z" fill="#D0021B"/>
</svg>
