<svg width="34" height="34" viewBox="0 0 34 34" fill="none" xmlns="http://www.w3.org/2000/svg">
<circle cx="17" cy="17" r="17" fill="#F3F8FF"/>
<circle cx="17" cy="17" r="17" fill="#E4E4E4"/>
<circle cx="17" cy="17" r="17" fill="#F3F8FF"/>
<circle cx="17" cy="17" r="17" fill="#DFEBE6"/>
<g clip-path="url(#clip0_419_5)">
<path d="M23.9937 12.4767C24.0208 12.3136 23.9596 12.1482 23.8327 12.042C23.7058 11.9359 23.5322 11.9049 23.3763 11.9605L10.3097 16.6272C10.1337 16.6901 10.0121 16.852 10.0009 17.0386C9.98958 17.2252 10.0908 17.4005 10.258 17.4841L13.9913 19.3508C14.1411 19.4256 14.3195 19.4145 14.4589 19.3216L17.5579 17.2556L15.7023 19.5752C15.6206 19.6773 15.5855 19.809 15.6055 19.9383C15.6256 20.0675 15.699 20.1824 15.8078 20.255L21.4079 23.9883C21.5395 24.0761 21.7069 24.0911 21.8522 24.0282C21.9975 23.9653 22.1009 23.833 22.127 23.6767L23.9937 12.4767Z" fill="#D0021B"/>
</g>
<defs>
<clipPath id="clip0_419_5">
<rect width="14" height="14" fill="white" transform="translate(10 11)"/>
</clipPath>
</defs>
</svg>
