<svg width="194" height="55" viewBox="0 0 194 55" fill="none" xmlns="http://www.w3.org/2000/svg">
<path d="M27.2466 53.8078C12.5997 53.8078 0.682373 41.8905 0.682373 27.2436C0.682373 12.5966 12.5997 0.679321 27.2466 0.679321H166.703C181.35 0.679321 193.267 12.5966 193.267 27.2436C193.267 41.8905 181.35 53.8078 166.703 53.8078H27.2466Z" fill="white"/>
<path d="M166.703 1.35551C180.978 1.35551 192.591 12.9688 192.591 27.2436C192.591 41.5183 180.978 53.1316 166.703 53.1316H27.2436C12.9688 53.1316 1.35551 41.5183 1.35551 27.2436C1.35551 12.9688 12.9688 1.35551 27.2436 1.35551H166.703ZM166.703 0H27.2436C12.2213 0 0 12.2213 0 27.2436C0 42.2658 12.2213 54.4871 27.2436 54.4871H166.703C181.725 54.4871 193.946 42.2658 193.946 27.2436C193.946 12.2213 181.722 0 166.703 0Z" fill="black"/>
<path d="M27.2808 5.5213C15.289 5.5213 5.53369 15.2766 5.53369 27.2684C5.53369 39.2601 15.289 49.0155 27.2808 49.0155C39.2725 49.0155 49.0279 39.2601 49.0279 27.2684C49.0279 15.2766 39.2725 5.5213 27.2808 5.5213ZM27.2808 48.6494C15.472 48.6494 5.89971 39.0771 5.89971 27.2684C5.89971 15.4596 15.472 5.88732 27.2808 5.88732C39.0895 5.88732 48.6618 15.4596 48.6618 27.2684C48.6618 39.0771 39.0895 48.6494 27.2808 48.6494Z" fill="black"/>
<path d="M27.2807 5.88733C15.472 5.88733 5.89966 15.4596 5.89966 27.2684C5.89966 39.0771 15.472 48.6495 27.2807 48.6495C39.0895 48.6495 48.6618 39.0771 48.6618 27.2684C48.6618 15.4596 39.0895 5.88733 27.2807 5.88733ZM27.2807 6.43635C35.5192 6.43635 42.6566 11.2442 46.0345 18.2048H8.52693C11.9017 11.2442 19.0391 6.43635 27.2807 6.43635ZM27.2807 48.1004C15.7946 48.1004 6.44869 38.7546 6.44869 27.2684C6.44869 24.2379 7.10007 21.3532 8.26947 18.7538H46.292C47.4614 21.3563 48.1128 24.2379 48.1128 27.2684C48.1128 38.7546 38.7669 48.1004 27.2807 48.1004Z" fill="white"/>
<path d="M27.2807 6.43634C19.0421 6.43634 11.9048 11.2442 8.52686 18.2048H46.0344C42.6565 11.2442 35.5192 6.43634 27.2807 6.43634Z" fill="black"/>
<path d="M46.292 18.7538H8.26952C7.10012 21.3562 6.44873 24.2379 6.44873 27.2684C6.44873 38.7545 15.7946 48.1004 27.2808 48.1004C38.7669 48.1004 48.1128 38.7545 48.1128 27.2684C48.1128 24.2379 47.4614 21.3531 46.292 18.7538Z" fill="#EB1C24"/>
<path fill-rule="evenodd" clip-rule="evenodd" d="M19.0175 34.7718C1.63473 35.0168 11.7871 31.2574 10.6766 31.704C10.0625 31.9522 9.64681 33.1898 10.4285 33.4907C12.2182 34.1793 20.3141 34.2165 29.0985 34.201C34.9176 34.1886 41.0407 34.1545 45.8361 34.2662C36.6888 34.4399 28.1618 34.6012 19.0175 34.7718Z" fill="white"/>
<path d="M11.6972 27.5847C11.691 27.5227 11.6723 27.4762 11.6475 27.4483C11.6196 27.4204 11.5855 27.4079 11.539 27.4079C11.4862 27.4079 11.4459 27.4297 11.4149 27.47C11.3963 27.4948 11.3839 27.532 11.3777 27.5847H11.6972ZM12.026 27.7398H11.3777C11.3839 27.7926 11.3963 27.8298 11.4211 27.8546C11.4521 27.8918 11.4924 27.9104 11.5421 27.9104C11.5731 27.9104 11.6041 27.9042 11.632 27.8856C11.6506 27.8763 11.6692 27.8577 11.6879 27.8329L12.0073 27.8608C11.9577 27.9446 11.8988 28.0066 11.8305 28.0438C11.7623 28.081 11.663 28.0997 11.5328 28.0997C11.4211 28.0997 11.3342 28.0841 11.2691 28.0531C11.204 28.0221 11.1512 27.9725 11.1109 27.9011C11.0706 27.8329 11.0489 27.7522 11.0489 27.6592C11.0489 27.5258 11.0923 27.4204 11.176 27.3397C11.2598 27.2591 11.3777 27.2187 11.5266 27.2187C11.6475 27.2187 11.7437 27.2373 11.8119 27.2746C11.8833 27.3118 11.936 27.3645 11.9732 27.4328C12.0104 27.501 12.0291 27.5941 12.0291 27.7057V27.7398H12.026ZM10.0035 26.9178H10.3261V27.3459C10.3696 27.2994 10.413 27.2684 10.4564 27.2466C10.4998 27.228 10.5495 27.2187 10.6115 27.2187C10.6984 27.2187 10.7697 27.2466 10.8193 27.2994C10.869 27.3521 10.8938 27.4359 10.8938 27.5475V28.0841H10.5681V27.6189C10.5681 27.5661 10.5588 27.5289 10.5402 27.5072C10.5216 27.4855 10.4936 27.4731 10.4595 27.4731C10.4192 27.4731 10.3882 27.4886 10.3665 27.5165C10.3417 27.5475 10.3292 27.6003 10.3292 27.6747V28.081H10.0067V26.9178H10.0035ZM8.72559 26.9178H9.82054V27.2063H9.45452V28.0841H9.09471V27.2063H8.72869V26.9178H8.72559Z" fill="white"/>
<path d="M43.274 36.5801C43.2585 36.4374 43.2212 36.3351 43.1592 36.273C43.0972 36.211 43.0165 36.18 42.9141 36.18C42.7963 36.18 42.7032 36.2265 42.635 36.3195C42.5916 36.3785 42.5636 36.4622 42.5512 36.5801H43.274ZM44.0184 36.9337H42.545C42.5574 37.0516 42.5916 37.1384 42.6412 37.1974C42.7125 37.2811 42.8056 37.3214 42.9203 37.3214C42.9917 37.3214 43.063 37.3028 43.1251 37.2687C43.1654 37.247 43.2088 37.2067 43.2523 37.1477L43.975 37.2129C43.8633 37.4052 43.7299 37.5417 43.5748 37.6254C43.4198 37.7092 43.1933 37.7495 42.9017 37.7495C42.6474 37.7495 42.4489 37.7154 42.3031 37.6409C42.1573 37.5696 42.0363 37.4548 41.9402 37.2997C41.844 37.1446 41.7975 36.9585 41.7975 36.7507C41.7975 36.4498 41.8936 36.2079 42.086 36.0218C42.2783 35.8357 42.5419 35.7426 42.88 35.7426C43.1561 35.7426 43.3701 35.7829 43.5283 35.8667C43.6865 35.9504 43.8075 36.0683 43.8912 36.2296C43.975 36.3878 44.0153 36.5925 44.0153 36.8469V36.9337H44.0184ZM41.1399 35.0633V35.7922H41.5431V36.332H41.1399V37.0112C41.1399 37.0919 41.1492 37.1477 41.1647 37.1725C41.1895 37.2129 41.2298 37.2346 41.2919 37.2346C41.3477 37.2346 41.4222 37.2191 41.5183 37.1881L41.5741 37.6968C41.3911 37.7371 41.2236 37.7557 41.0654 37.7557C40.8824 37.7557 40.7491 37.7309 40.6622 37.6844C40.5753 37.6378 40.5133 37.5665 40.4699 37.4703C40.4296 37.3742 40.4079 37.2191 40.4079 37.0051V36.332H40.138V35.7922H40.4079V35.4417L41.1399 35.0633ZM39.8061 37.7061H39.1206V37.3959C39.0182 37.5231 38.9159 37.613 38.8135 37.6689C38.7111 37.7216 38.5809 37.7495 38.432 37.7495C38.2303 37.7495 38.0722 37.6875 37.9574 37.5665C37.8426 37.4455 37.7868 37.2594 37.7868 37.0082V35.7891H38.525V36.8438C38.525 36.9647 38.5467 37.0485 38.5902 37.1012C38.6336 37.1508 38.6956 37.1757 38.7763 37.1757C38.8631 37.1757 38.9345 37.1415 38.9903 37.0733C39.0461 37.005 39.0741 36.8841 39.0741 36.7104V35.786H39.8092V37.7061H39.8061ZM37.0361 35.0633V35.7922H37.4394V36.332H37.0361V37.0112C37.0361 37.0919 37.0454 37.1477 37.061 37.1725C37.0858 37.2129 37.1261 37.2346 37.1881 37.2346C37.244 37.2346 37.3184 37.2191 37.4146 37.1881L37.4704 37.6968C37.2874 37.7371 37.1199 37.7557 36.9617 37.7557C36.7787 37.7557 36.6453 37.7309 36.5585 37.6844C36.4716 37.6378 36.4096 37.5665 36.3661 37.4703C36.3258 37.3742 36.3041 37.2191 36.3041 37.0051V36.332H36.0342V35.7922H36.3041V35.4417L37.0361 35.0633ZM34.9486 35.7922H35.6837V37.7092H34.9486V35.7922ZM34.9486 35.0633H35.6837V35.5627H34.9486V35.0633ZM34.17 35.0633V35.7922H34.5733V36.332H34.17V37.0112C34.17 37.0919 34.1793 37.1477 34.1948 37.1725C34.2197 37.2129 34.26 37.2346 34.322 37.2346C34.3747 37.2346 34.4523 37.2191 34.5485 37.1881L34.6043 37.6968C34.4213 37.7371 34.2538 37.7557 34.0956 37.7557C33.9126 37.7557 33.7792 37.7309 33.6923 37.6844C33.6055 37.6378 33.5435 37.5665 33.5 37.4703C33.4597 37.3742 33.438 37.2191 33.438 37.0051V36.332H33.1681V35.7922H33.438V35.4417L34.17 35.0633ZM30.8976 37.1757L31.6265 37.1105C31.6575 37.1974 31.6979 37.2594 31.7537 37.2935C31.8064 37.3307 31.8809 37.3494 31.9708 37.3494C32.0701 37.3494 32.1445 37.3276 32.2004 37.2873C32.2438 37.2563 32.2624 37.216 32.2624 37.1694C32.2624 37.1167 32.2345 37.0764 32.1786 37.0454C32.1383 37.0237 32.0329 36.9989 31.8623 36.9709C31.6079 36.9275 31.4311 36.8841 31.3318 36.8469C31.2326 36.8096 31.1488 36.7445 31.0806 36.6545C31.0123 36.5646 30.9782 36.4622 30.9782 36.3444C30.9782 36.2172 31.0154 36.1086 31.0868 36.0187C31.1612 35.9256 31.2605 35.8574 31.3908 35.8139C31.5179 35.7674 31.6916 35.7457 31.9088 35.7457C32.1352 35.7457 32.3058 35.7612 32.4144 35.7984C32.5229 35.8326 32.6129 35.8884 32.6873 35.9597C32.7587 36.0342 32.8207 36.1334 32.8672 36.2575L32.1724 36.3257C32.1538 36.2637 32.1228 36.2203 32.0825 36.1893C32.0266 36.152 31.9553 36.1334 31.8747 36.1334C31.7909 36.1334 31.732 36.1489 31.6947 36.1769C31.6575 36.2048 31.6389 36.242 31.6389 36.2823C31.6389 36.3288 31.6637 36.3661 31.7103 36.3878C31.7568 36.4126 31.8622 36.4343 32.0235 36.4529C32.2686 36.4808 32.4485 36.5181 32.5695 36.5677C32.6873 36.6173 32.7804 36.6887 32.8424 36.7786C32.9045 36.8717 32.9386 36.9709 32.9386 37.0795C32.9386 37.1912 32.9045 37.2997 32.8393 37.4021C32.7742 37.5075 32.6687 37.5913 32.5229 37.6502C32.3803 37.7123 32.1848 37.7433 31.9367 37.7433C31.5862 37.7433 31.338 37.6937 31.1892 37.5944C31.0341 37.5013 30.941 37.3587 30.8976 37.1757ZM28.565 35.7922H29.2505V36.1024C29.3529 35.9752 29.4552 35.8853 29.5607 35.8295C29.6661 35.7736 29.7933 35.7488 29.9422 35.7488C30.1438 35.7488 30.302 35.8077 30.4199 35.9318C30.5347 36.0528 30.5905 36.2389 30.5905 36.4932V37.7123H29.8522V36.6576C29.8522 36.5367 29.8305 36.4529 29.7871 36.4033C29.7437 36.3537 29.6816 36.3289 29.601 36.3289C29.5141 36.3289 29.4397 36.363 29.387 36.4312C29.3311 36.4994 29.3032 36.6204 29.3032 36.7941V37.7154H28.5681V35.7922H28.565ZM27.2095 35.0633H28.0284V37.7061H27.2095V35.0633Z" fill="#FFF000"/>
<path d="M40.8453 31.8994L42.2318 31.8126C42.2628 32.0359 42.3217 32.2096 42.4148 32.3244C42.5668 32.5136 42.7808 32.6098 43.06 32.6098C43.2678 32.6098 43.4291 32.5632 43.5408 32.464C43.6555 32.3647 43.7114 32.2531 43.7114 32.1228C43.7114 32.0018 43.6586 31.8901 43.5532 31.794C43.4477 31.6978 43.1965 31.6079 42.8056 31.521C42.1636 31.3783 41.7107 31.186 41.4377 30.9472C41.1617 30.7083 41.0252 30.4044 41.0252 30.0352C41.0252 29.7933 41.0965 29.5637 41.2361 29.3497C41.3757 29.1326 41.5897 28.962 41.872 28.841C42.1542 28.7169 42.542 28.6549 43.0352 28.6549C43.64 28.6549 44.0991 28.7666 44.4155 28.993C44.7319 29.2163 44.9211 29.5762 44.98 30.0662L43.6059 30.1469C43.5687 29.9329 43.4911 29.7747 43.3764 29.6785C43.2585 29.5824 43.0972 29.5327 42.8894 29.5327C42.7188 29.5327 42.5916 29.57 42.5048 29.6413C42.4179 29.7126 42.3745 29.7995 42.3745 29.905C42.3745 29.9794 42.4086 30.0476 42.4799 30.1066C42.5482 30.1686 42.7095 30.2275 42.9669 30.2803C43.6059 30.4168 44.0619 30.5563 44.338 30.699C44.614 30.8386 44.8156 31.0154 44.9397 31.2232C45.0638 31.4311 45.1289 31.6637 45.1289 31.9243C45.1289 32.2282 45.0452 32.5074 44.8777 32.7618C44.7102 33.0161 44.4775 33.2115 44.1736 33.3449C43.8727 33.4783 43.4942 33.5434 43.0383 33.5434C42.2349 33.5434 41.6766 33.3883 41.3695 33.0782C41.0593 32.768 40.8856 32.3771 40.8453 31.8994ZM37.4456 30.6556H38.0629C38.128 30.6556 38.2583 30.6339 38.4506 30.5905C38.5468 30.5718 38.6274 30.5222 38.6864 30.4416C38.7484 30.3609 38.7794 30.271 38.7794 30.1655C38.7794 30.0135 38.7298 29.8957 38.6337 29.8119C38.5375 29.7282 38.3545 29.6878 38.0877 29.6878H37.4456V30.6556ZM35.9785 33.4628V28.7356H38.4134C38.8663 28.7356 39.2106 28.7728 39.4494 28.8534C39.6883 28.931 39.8806 29.0737 40.0264 29.2846C40.1722 29.4955 40.2466 29.7499 40.2466 30.0538C40.2466 30.3144 40.1908 30.5439 40.0791 30.7332C39.9674 30.9255 39.8155 31.0775 39.6169 31.1984C39.4929 31.2729 39.3223 31.3349 39.1051 31.3845C39.2788 31.4435 39.406 31.4993 39.4836 31.5582C39.5363 31.5955 39.6138 31.6792 39.7162 31.8064C39.8186 31.9336 39.8868 32.0297 39.9209 32.1011L40.6312 33.4659H38.9811L38.1994 32.0235C38.1001 31.8374 38.0133 31.7164 37.9357 31.6606C37.8303 31.5893 37.7093 31.552 37.5759 31.552H37.4456V33.4659H35.9785V33.4628ZM31.1892 28.7356H35.0975V29.7468H32.6533V30.5005H34.9176V31.4652H32.6533V32.3957H35.1689V33.4659H31.1861V28.7356H31.1892ZM25.702 28.7356H27.0668L28.8411 31.3473V28.7356H30.2214V33.4628H28.8411L27.0793 30.8665V33.4628H25.7051V28.7356H25.702ZM20.1993 28.7356H21.5642L23.3384 31.3473V28.7356H24.7187V33.4628H23.3384L21.5766 30.8665V33.4628H20.2024V28.7356H20.1993ZM17.9474 30.0352H19.2626V33.4628H17.9474V30.0352ZM17.9474 28.7356H19.2626V29.6258H17.9474V28.7356ZM10.6829 28.7356H12.0694L12.5688 31.3752L13.3008 28.7356H14.678L15.4132 31.3783L15.9157 28.7356H17.296L16.2538 33.4628H14.8207L13.9894 30.485L13.1643 33.4628H11.7344L10.6829 28.7356Z" fill="white"/>
<path d="M32.9572 14.5012C33.0472 14.5012 33.1247 14.5322 33.1867 14.5973C33.2488 14.6593 33.2798 14.7369 33.2798 14.8238C33.2798 14.9137 33.2488 14.9882 33.1867 15.0502C33.1247 15.1122 33.0472 15.1432 32.9603 15.1432C32.8704 15.1432 32.7959 15.1122 32.7339 15.0502C32.6718 14.9882 32.6408 14.9137 32.6408 14.8238C32.6408 14.7338 32.6718 14.6593 32.7339 14.5973C32.7897 14.5322 32.8673 14.5012 32.9572 14.5012ZM32.3679 15.0254V15.0936H31.0092V15.0254H31.0961C31.1705 15.0254 31.2326 15.013 31.2791 14.985C31.3132 14.9664 31.338 14.9354 31.3567 14.892C31.3691 14.861 31.3784 14.7803 31.3784 14.6469V12.9254C31.3784 12.792 31.3722 12.7052 31.3567 12.6742C31.3411 12.64 31.3132 12.6121 31.2698 12.5873C31.2264 12.5625 31.1705 12.5501 31.0961 12.5501H31.0092V12.4819H32.3679V12.5501H32.281C32.2066 12.5501 32.1445 12.5625 32.098 12.5904C32.0639 12.609 32.0391 12.64 32.0205 12.6835C32.0049 12.7145 31.9987 12.7951 31.9987 12.9285V14.65C31.9987 14.7834 32.0049 14.8672 32.0205 14.9013C32.036 14.9354 32.0639 14.9633 32.1073 14.9881C32.1507 15.013 32.2066 15.0254 32.281 15.0254H32.3679ZM29.4521 14.5012C29.5421 14.5012 29.6165 14.5322 29.6817 14.5973C29.7437 14.6593 29.7747 14.7369 29.7747 14.8238C29.7747 14.9137 29.7437 14.9882 29.6786 15.0502C29.6165 15.1122 29.539 15.1432 29.4521 15.1432C29.3622 15.1432 29.2877 15.1122 29.2257 15.0502C29.1636 14.9882 29.1326 14.9137 29.1326 14.8238C29.1326 14.7338 29.1636 14.6593 29.2257 14.5973C29.2877 14.5322 29.3622 14.5012 29.4521 14.5012ZM29.2846 12.4788V12.547C29.235 12.5501 29.1947 12.5656 29.1605 12.5873C29.1264 12.6121 29.0985 12.6493 29.0706 12.6959C29.0644 12.7114 29.0241 12.8106 28.9496 12.9968L28.1307 15.1525H28.0594L27.4142 13.4527L26.6977 15.1525H26.6294L25.7671 13.0185C25.6803 12.8013 25.6182 12.6711 25.5841 12.6245C25.55 12.578 25.4911 12.5532 25.4073 12.5439V12.4756H26.5395V12.5439C26.4495 12.547 26.3875 12.5594 26.3565 12.5842C26.3255 12.609 26.3099 12.64 26.3099 12.6773C26.3099 12.7269 26.341 12.8324 26.4061 12.9906L26.9179 14.2592L27.3336 13.2573L27.2312 12.9875C27.1723 12.8355 27.1257 12.7331 27.0947 12.6835C27.0637 12.6338 27.0265 12.5966 26.983 12.5749C26.9427 12.5532 26.8807 12.5439 26.8 12.5439V12.4756H28.0563V12.5439C27.9694 12.5439 27.9043 12.5532 27.8671 12.5656C27.8392 12.5749 27.8205 12.5904 27.8019 12.6121C27.7864 12.6338 27.7802 12.6587 27.7802 12.6835C27.7802 12.7145 27.8081 12.8044 27.8671 12.9595L28.3417 14.1972L28.7666 13.0774C28.81 12.9595 28.838 12.882 28.8504 12.8386C28.8597 12.7951 28.8659 12.7579 28.8659 12.7207C28.8659 12.668 28.8473 12.6276 28.8131 12.5966C28.779 12.5656 28.7077 12.5501 28.6084 12.547V12.4788H29.2846ZM23.9711 14.5012C24.0611 14.5012 24.1387 14.5322 24.2007 14.5973C24.2627 14.6593 24.2937 14.7369 24.2937 14.8238C24.2937 14.9137 24.2627 14.9882 24.2007 15.0502C24.1387 15.1122 24.0611 15.1432 23.9742 15.1432C23.8843 15.1432 23.8098 15.1122 23.7478 15.0502C23.6858 14.9882 23.6548 14.9137 23.6548 14.8238C23.6548 14.7338 23.6858 14.6593 23.7478 14.5973C23.8067 14.5322 23.8812 14.5012 23.9711 14.5012ZM23.6268 12.4788V13.1829H23.5586C23.5183 13.0185 23.4718 12.9037 23.4221 12.8324C23.3725 12.761 23.3042 12.7052 23.2174 12.6618C23.1678 12.64 23.084 12.6276 22.9599 12.6276H22.7614V14.6469C22.7614 14.7803 22.7676 14.8641 22.7831 14.8982C22.7986 14.9323 22.8266 14.9602 22.8669 14.985C22.9103 15.0099 22.9661 15.0223 23.0406 15.0223H23.1243V15.0905H21.7657V15.0223H21.8526C21.927 15.0223 21.9891 15.0099 22.0325 14.9819C22.0666 14.9633 22.0914 14.9323 22.11 14.8889C22.1224 14.8579 22.1317 14.7772 22.1317 14.6438V12.6245H21.9425C21.7688 12.6245 21.6417 12.6618 21.561 12.7362C21.4493 12.8417 21.3811 12.9875 21.3501 13.1798H21.2756V12.4756H23.6268V12.4788Z" fill="white"/>
<path d="M25.342 28.0686H25.2117C25.0938 28.0686 24.9915 28.0221 24.917 27.9352C24.8147 27.8174 24.7744 27.6251 24.8054 27.4203C24.8085 27.3986 24.8116 27.3645 24.8178 27.3273C24.8767 26.8744 24.9388 26.6108 25.069 26.6108H25.1807C25.2396 26.6108 25.2613 26.617 25.2893 26.6263C25.2955 26.6294 25.3017 26.6294 25.311 26.6325C25.373 26.5766 25.4382 26.5239 25.5033 26.4743C25.6088 26.3936 25.7204 26.3068 25.8197 26.1889C25.8724 26.1269 25.9096 26.0772 25.9407 26.0307C26.043 25.8911 26.0926 25.8198 26.4059 25.7205C26.5393 25.6771 26.6324 25.6771 26.7006 25.674C26.8278 25.6709 26.8371 25.6709 26.9208 25.2459C26.9829 24.9265 27.0263 24.6504 27.0666 24.3805C27.1132 24.089 27.1597 23.7881 27.2279 23.4469L27.231 23.4283L27.2465 23.419C27.3923 23.3259 27.8018 23.3011 28.1988 23.2794C28.4656 23.2639 28.7199 23.2483 28.8657 23.2142L28.9526 23.1956L28.813 23.5089C28.9246 23.6547 29.241 23.8687 29.545 24.0765C30.0692 24.4302 30.3856 24.6597 30.3856 24.8272V24.914C30.3856 25.0319 30.2926 25.1312 30.2057 25.2242C30.1623 25.2708 30.122 25.3142 30.0909 25.3607C30.0289 25.4538 29.9793 25.5375 29.9296 25.6244C29.8955 25.6802 29.8614 25.7391 29.8211 25.8012C29.7652 25.8911 29.6877 26.0493 29.6132 26.2013C29.514 26.4029 29.4209 26.5984 29.3496 26.6914C29.3651 26.7286 29.3775 26.7596 29.3868 26.7907C29.4023 26.8372 29.4147 26.8744 29.4457 26.9209C29.4675 26.9551 29.4892 26.9799 29.5109 27.0047C29.5388 27.0388 29.5698 27.076 29.607 27.1319C29.6598 27.2125 29.7435 27.2559 29.818 27.2963C29.9079 27.3459 29.9917 27.3893 29.9917 27.4855C29.9917 27.6251 29.6691 27.6716 29.5822 27.6716C29.3961 27.6716 28.6579 27.1877 28.5865 27.0481L28.5741 27.0264L28.5865 27.0047C28.8192 26.6511 28.9402 26.4619 29.0859 26.0121C29.117 25.919 29.1387 25.8136 29.1604 25.7019C29.2162 25.4259 29.2783 25.1157 29.5109 24.9947C29.4209 24.9637 29.2658 24.9358 29.1697 24.9172C29.0766 24.8985 28.996 24.883 28.9526 24.8706C28.7416 24.7993 28.5865 24.7496 28.4035 24.6318C28.2732 24.7683 27.749 25.4724 27.4885 25.8198C27.3954 25.9439 27.321 26.0431 27.2838 26.0927C27.2186 26.1796 27.0821 26.2168 26.9519 26.2509C26.8929 26.2665 26.834 26.282 26.7844 26.3037C26.651 26.3564 26.4338 26.4836 26.3656 26.527C26.2477 26.5984 26.1268 26.679 26.012 26.7597C25.8786 26.8527 25.739 26.952 25.5964 27.0295V27.1722L25.5746 27.1846C25.4568 27.2497 25.4568 27.2497 25.4257 27.3397C25.4195 27.3614 25.4102 27.3862 25.4009 27.4203C25.3823 27.4762 25.342 27.5444 25.3079 27.6003C25.2893 27.6344 25.2613 27.6778 25.2582 27.6902C25.2582 27.7522 25.2738 27.7864 25.2955 27.8298C25.3172 27.8794 25.342 27.9322 25.3451 28.0283L25.342 28.0686ZM25.0721 26.6976C25.0411 26.6976 24.9791 26.7814 24.9046 27.3397C24.8984 27.38 24.8953 27.411 24.8922 27.4359C24.8643 27.6127 24.8984 27.7802 24.9822 27.8794C25.0411 27.9477 25.1187 27.9818 25.2117 27.9818H25.2489C25.2427 27.929 25.2272 27.8949 25.2117 27.8608C25.19 27.8143 25.1683 27.7646 25.1683 27.684C25.1683 27.6561 25.19 27.622 25.2303 27.5506C25.2613 27.501 25.2986 27.4359 25.3141 27.3862C25.3234 27.3552 25.3327 27.3304 25.3389 27.3087C25.373 27.197 25.3854 27.1784 25.5064 27.1133V26.9706L25.5281 26.9582C25.6708 26.8806 25.8166 26.7814 25.9562 26.6821C26.074 26.6015 26.1919 26.5177 26.316 26.4464C26.4401 26.3719 26.6231 26.2696 26.7471 26.2199C26.7999 26.1982 26.8619 26.1827 26.9239 26.1641C27.0418 26.1331 27.1628 26.0989 27.2093 26.0338C27.2465 25.9842 27.321 25.8849 27.414 25.7609C27.8514 25.1746 28.2888 24.5946 28.3694 24.5356L28.3942 24.517L28.419 24.5325C28.6051 24.6566 28.7509 24.7062 28.9743 24.7807C29.0146 24.7931 29.0952 24.8086 29.1821 24.8241C29.4302 24.8706 29.5946 24.9047 29.6412 24.9699L29.6784 25.0195L29.6164 25.035C29.362 25.1033 29.3 25.4134 29.241 25.7112C29.2193 25.8198 29.1976 25.9315 29.1635 26.0307C29.0177 26.4805 28.8905 26.6852 28.6703 27.0202C28.7882 27.1691 29.4426 27.5754 29.576 27.5754C29.7063 27.5754 29.8955 27.5103 29.8986 27.4762C29.8986 27.4359 29.849 27.4079 29.7683 27.3645C29.6877 27.3211 29.5915 27.2683 29.5264 27.1691C29.4923 27.1164 29.4644 27.0822 29.4364 27.0481C29.4147 27.0202 29.393 26.9923 29.3682 26.9582C29.331 26.9023 29.3155 26.8558 29.3 26.8062C29.2876 26.7721 29.2782 26.7348 29.2565 26.6945L29.241 26.6697L29.2596 26.648C29.3248 26.5735 29.4271 26.3595 29.5295 26.1517C29.607 25.9904 29.6815 25.8384 29.7404 25.7453C29.7776 25.6833 29.8149 25.6275 29.8459 25.5685C29.8986 25.4817 29.9482 25.3979 30.0103 25.3049C30.0444 25.2522 30.0878 25.2056 30.1344 25.156C30.2119 25.0753 30.2926 24.9885 30.2926 24.9047V24.8179C30.2926 24.6814 29.849 24.3805 29.4892 24.1386C29.148 23.909 28.8254 23.6888 28.7199 23.5306L28.7075 23.5089L28.7975 23.3073C28.6424 23.3321 28.4252 23.3445 28.1988 23.3569C27.8452 23.3786 27.4451 23.4003 27.3024 23.4748C27.2372 23.8067 27.1938 24.0889 27.1442 24.3867C27.1039 24.6566 27.0573 24.9358 26.9984 25.2553C26.9115 25.705 26.8867 25.7453 26.6975 25.7515C26.6355 25.7547 26.5486 25.7546 26.4276 25.795C26.1423 25.8849 26.102 25.9408 26.0058 26.0741C25.9748 26.1176 25.9345 26.1734 25.8817 26.2354C25.7763 26.3626 25.6615 26.4495 25.5529 26.5332C25.4816 26.589 25.4133 26.6418 25.3513 26.7007L25.3358 26.7162L25.3141 26.71C25.2924 26.7038 25.2769 26.7007 25.2614 26.6945C25.2396 26.6883 25.2241 26.6821 25.1838 26.6821H25.0721V26.6976Z" fill="white"/>
<path fill-rule="evenodd" clip-rule="evenodd" d="M27.2683 23.4593C27.138 24.1107 27.0884 24.5946 26.9612 25.2584C26.8341 25.9129 26.8434 25.6306 26.4184 25.764C26.0214 25.8881 26.0741 25.9563 25.8508 26.2169C25.6802 26.4185 25.4879 26.5239 25.3235 26.6821C25.2614 26.6666 25.2583 26.6542 25.1839 26.6542H25.0722C24.9326 26.6542 24.8737 27.2715 24.8489 27.4266C24.7992 27.7368 24.9264 28.0221 25.2118 28.0221H25.2955C25.2924 27.8484 25.2118 27.8298 25.2118 27.6809C25.2118 27.6437 25.3235 27.501 25.3576 27.3987C25.4196 27.2188 25.3855 27.225 25.5499 27.1381V26.9954C25.8167 26.8527 26.071 26.6387 26.3378 26.4836C26.4587 26.4123 26.6417 26.3068 26.7627 26.2572C26.924 26.192 27.1598 26.1703 27.2435 26.0587C27.411 25.8415 28.2857 24.6473 28.3943 24.5698C28.5804 24.6969 28.7324 24.7466 28.9619 24.8241C29.0891 24.8644 29.5482 24.9172 29.6071 24.9978C29.2256 25.1002 29.2442 25.6585 29.1232 26.0214C28.9774 26.4712 28.8534 26.6697 28.6207 27.0233C28.6921 27.1567 29.4148 27.622 29.5792 27.622C29.6816 27.622 29.9452 27.5662 29.9452 27.4793C29.9452 27.3459 29.6847 27.3304 29.5668 27.1505C29.5048 27.0544 29.4613 27.0171 29.4086 26.9396C29.3466 26.8527 29.3497 26.7814 29.2969 26.6821C29.4148 26.5426 29.6474 25.9904 29.7808 25.7733C29.8801 25.6151 29.9514 25.4879 30.0507 25.3328C30.1406 25.1932 30.3392 25.0661 30.3392 24.911V24.8241C30.3392 24.5356 28.9867 23.8532 28.7603 23.512L28.8751 23.2577C28.5091 23.3476 27.501 23.3104 27.2683 23.4593Z" fill="#231F20"/>
<path d="M27.3304 23.2515L27.4576 23.0653L27.8236 22.3271L27.9043 22.0479L28.0563 21.6881C27.864 21.6292 27.7585 21.502 27.6685 21.3965C27.6003 21.3159 27.5476 21.2508 27.4762 21.2477L27.4576 21.257C27.2901 21.3469 27.0544 21.471 26.9644 21.4958C26.7194 21.561 26.6232 21.6044 26.4464 21.7222C26.3875 21.7657 26.3658 21.8308 26.3471 21.899C26.313 22.0076 26.2727 22.1317 26.0556 22.1317H25.9997C25.8881 22.1317 25.854 22.0231 25.8291 21.9425C25.8167 21.9084 25.8074 21.8773 25.795 21.8556L25.7888 21.8463V21.7347L25.795 21.7222C25.8788 21.592 25.9811 21.5547 26.0897 21.5144C26.1362 21.4958 26.1828 21.4772 26.2355 21.4524C26.3782 21.3779 26.4371 21.319 26.5333 21.2197L26.5829 21.167C26.8341 20.9096 26.9365 20.8754 27.0854 20.8258C27.1691 20.7979 27.2653 20.7638 27.4173 20.6831L27.4328 20.6769L27.4483 20.68C27.5103 20.6955 28.0408 20.8196 28.199 20.9065C28.2579 20.9375 28.3044 20.9685 28.3478 20.9933C28.5029 21.0864 28.5836 21.1329 28.8255 21.136C28.8783 21.0584 28.9155 20.9995 28.9186 20.8754C28.8907 20.8289 28.8348 20.739 28.8348 20.6087V20.466C28.8348 20.2458 29.2102 19.9945 29.328 19.9945C29.5948 19.9945 30.0539 20.2365 30.0756 20.4908L30.0787 20.5373H30.0197V20.8227H29.967L30.0011 21.1329L29.9577 21.136C29.8709 21.1422 29.8398 21.2042 29.7964 21.3035C29.7654 21.3717 29.7344 21.4524 29.663 21.502L29.6413 21.5175L29.6196 21.5051C29.6041 21.4958 29.5824 21.4803 29.5576 21.4648C29.5203 21.44 29.4056 21.3655 29.3808 21.3779C29.3808 21.3779 29.3777 21.3841 29.3777 21.409V21.4369C29.3777 21.5082 29.7002 21.7657 29.8429 21.8463C30.0197 21.9456 30.0849 22.051 30.1438 22.1441C30.1779 22.203 30.2121 22.2527 30.2648 22.2961C30.3703 22.2278 30.4633 22.1751 30.5564 22.1255C30.7766 22.0045 30.9472 21.9084 31.1209 21.654L31.0868 21.4214L31.3752 21.1484L31.4218 21.2042C31.4714 21.2322 31.6885 21.3624 31.6885 21.4958C31.6885 21.5641 31.5893 21.6881 31.3659 21.958C31.2543 22.0945 31.1364 22.234 31.0899 22.3147C31.003 22.4667 30.5471 22.9661 30.3206 22.9661C30.3051 22.9661 30.2958 22.9661 29.8646 22.7645L29.7964 22.7334C29.6754 22.6776 29.5483 22.5784 29.4645 22.5132C29.4459 22.4977 29.4242 22.4822 29.4087 22.4698L29.2753 22.7024C29.235 22.7303 29.1947 22.7707 29.1512 22.8172C29.1016 22.8668 29.0458 22.9258 28.9775 22.9723C28.9558 22.9878 28.9186 23.0064 28.8814 23.0312C28.8193 23.0684 28.689 23.1429 28.6735 23.1708L28.6611 23.1987H28.6332C28.534 23.1987 28.4781 23.2111 28.4223 23.2266C28.3665 23.239 28.3075 23.2546 28.2114 23.2546L27.3304 23.2515ZM27.4669 21.1639C27.5817 21.1639 27.6561 21.2508 27.7337 21.3438C27.8236 21.4524 27.9291 21.5734 28.1245 21.6199L28.1741 21.6323L27.9849 22.079L27.9012 22.3612L27.529 23.1119L27.4917 23.1646L28.1958 23.1615C28.2796 23.1615 28.3323 23.1491 28.3851 23.1367C28.4409 23.1212 28.4998 23.1088 28.596 23.1057C28.6332 23.0622 28.7139 23.0157 28.8255 22.9506C28.8627 22.9289 28.8969 22.9102 28.9186 22.8947C28.9806 22.8544 29.0302 22.8017 29.0799 22.7521C29.1233 22.7086 29.1636 22.6652 29.2102 22.6342L29.3621 22.355L29.3963 22.3643C29.418 22.3705 29.4459 22.3922 29.511 22.4419C29.5917 22.5039 29.7158 22.6001 29.8243 22.6528L29.8926 22.6838C30.0011 22.7334 30.2896 22.8668 30.3206 22.8761C30.4726 22.8761 30.9038 22.445 31.0061 22.2682C31.0558 22.1813 31.1705 22.0448 31.2915 21.899C31.4094 21.7564 31.5893 21.5423 31.5924 21.4927C31.5924 21.4338 31.4714 21.3345 31.3628 21.2756L31.3597 21.2725L31.1705 21.4524L31.2015 21.6757L31.1922 21.6881C31.0061 21.9704 30.8107 22.079 30.5874 22.1999C30.4912 22.2527 30.3889 22.3085 30.2803 22.3829L30.2555 22.3984L30.2307 22.3829C30.1469 22.3271 30.1035 22.2558 30.0601 22.1875C30.0042 22.0976 29.9484 22.0045 29.7933 21.9177C29.7437 21.8897 29.2815 21.5858 29.2815 21.4338V21.4059C29.2815 21.3531 29.297 21.319 29.3311 21.3004C29.4025 21.2632 29.5048 21.3283 29.5979 21.3903C29.6103 21.3965 29.6196 21.4059 29.632 21.4121C29.6692 21.3779 29.6909 21.3252 29.7158 21.2694C29.753 21.1825 29.7933 21.0864 29.905 21.0553L29.8709 20.7359H29.9329V20.4505H29.9794C29.9112 20.2706 29.5514 20.0814 29.328 20.0814C29.2567 20.0814 28.9217 20.2985 28.9217 20.466V20.6087C28.9217 20.7203 28.9682 20.7948 28.9899 20.8258C28.9992 20.8413 29.0054 20.8506 29.0054 20.8661C29.0054 21.0243 28.9527 21.1019 28.8969 21.1856L28.8721 21.2228H28.8472C28.5619 21.2228 28.4688 21.167 28.3013 21.0678C28.261 21.0429 28.2114 21.015 28.1555 20.984C28.0408 20.922 27.6623 20.8227 27.4452 20.77C27.2963 20.8475 27.1971 20.8816 27.1164 20.9127C26.9706 20.9623 26.8838 20.9933 26.6449 21.2352L26.5953 21.2849C26.496 21.3872 26.4309 21.4555 26.2758 21.533C26.22 21.5609 26.1672 21.5827 26.1238 21.5982C26.0246 21.6354 25.947 21.6664 25.8788 21.7626V21.8246C25.8943 21.8525 25.9036 21.8866 25.916 21.9208C25.9408 22.0014 25.9594 22.051 26.0059 22.051H26.0618C26.2169 22.051 26.2355 21.9828 26.2696 21.8804C26.2944 21.806 26.3192 21.7222 26.403 21.6602C26.5891 21.533 26.6946 21.4865 26.9489 21.4183C27.0078 21.4028 27.1691 21.3252 27.4235 21.1856C27.4545 21.1639 27.4545 21.1639 27.4669 21.1639Z" fill="white"/>
<path fill-rule="evenodd" clip-rule="evenodd" d="M25.8323 21.8339C25.8819 21.9146 25.885 22.0914 25.9998 22.0914H26.0556C26.3658 22.0914 26.2417 21.8246 26.4216 21.6912C26.6015 21.5672 26.707 21.5237 26.952 21.4586C27.0668 21.4276 27.4608 21.2074 27.4639 21.2074C27.6748 21.2074 27.7306 21.5734 28.1121 21.6633L27.9415 22.0635L27.8578 22.3488L27.4887 23.0933L27.408 23.2112L27.8857 23.205H28.1959C28.382 23.205 28.413 23.1491 28.6177 23.1491C28.6395 23.0933 28.869 22.9816 28.9403 22.932C29.0613 22.8513 29.142 22.7304 29.2381 22.6621L29.3777 22.4047C29.418 22.414 29.6165 22.6063 29.7995 22.69C29.8554 22.7149 30.2865 22.9196 30.3052 22.9196C30.4944 22.9196 30.9379 22.4605 31.0372 22.2899C31.1488 22.0945 31.6296 21.5951 31.6296 21.4927C31.6296 21.3935 31.4497 21.2756 31.3753 21.2353L31.3536 21.2105L31.1147 21.4369L31.1489 21.6633C30.8883 22.0573 30.6184 22.0976 30.2462 22.3488C30.0663 22.2279 30.0942 22.0449 29.8057 21.8836C29.7003 21.8246 29.3157 21.5486 29.3157 21.4369V21.409C29.3157 21.2322 29.5421 21.4214 29.6258 21.4648C29.7716 21.3656 29.7375 21.1112 29.9422 21.0926L29.9081 20.7793H29.9732V20.4939H30.0291C30.0105 20.2737 29.5762 20.038 29.325 20.038C29.2288 20.038 28.8752 20.2706 28.8752 20.466V20.6087C28.8752 20.7638 28.9589 20.8569 28.9589 20.8662C28.9589 21.0213 28.9062 21.0895 28.8473 21.1794C28.503 21.1794 28.4564 21.0988 28.1773 20.9468C28.0439 20.8755 27.6065 20.7638 27.439 20.7235C27.011 20.953 26.9986 20.8134 26.6139 21.2012C26.4806 21.3345 26.4278 21.4059 26.2541 21.4927C26.0773 21.5827 25.9408 21.5796 25.8323 21.7502V21.8339Z" fill="#231F20"/>
<path d="M22.8823 26.4557L22.9909 25.4414L23.1274 25.4445C23.8749 25.4445 24.8179 24.5605 25.187 24.182C25.7174 23.6392 26.3347 23.1057 27.5227 23.1057H27.5289L27.8949 23.1615H28.1989C28.2826 23.1615 28.3354 23.1491 28.3881 23.1367C28.4439 23.1212 28.5029 23.1088 28.599 23.1057C28.6363 23.0623 28.7169 23.0157 28.8286 22.9506C28.8658 22.9289 28.8999 22.9103 28.9216 22.8948C28.9837 22.8544 29.0333 22.8017 29.0798 22.7521C29.1263 22.7056 29.1698 22.659 29.2194 22.628L29.2876 22.5815V22.6621C29.2876 22.9909 29.1015 23.1615 28.903 23.298L28.8875 23.3042C28.8224 23.3197 28.7634 23.3352 28.7107 23.3476C28.537 23.3911 28.4005 23.4283 28.1182 23.4469C28.081 23.45 28.0066 23.45 27.9197 23.4531C27.7212 23.4562 27.3552 23.4593 27.2931 23.4996L27.2838 23.5058H27.2714C26.2571 23.5058 25.6771 24.1758 25.066 24.8831C24.5015 25.5375 23.9152 26.2137 22.9444 26.4433L22.8823 26.4557ZM23.0684 25.5282L22.9816 26.3409C23.8904 26.1052 24.455 25.4538 24.9978 24.8241C25.6213 24.1014 26.2137 23.4221 27.259 23.4159C27.349 23.3725 27.6126 23.3662 27.9197 23.3631C28.0035 23.3631 28.0748 23.3631 28.112 23.36C28.385 23.3414 28.5122 23.3073 28.689 23.2639C28.7417 23.2515 28.7945 23.236 28.8596 23.2205C29.0395 23.0995 29.1636 22.9692 29.1946 22.7614C29.1791 22.7769 29.1605 22.7955 29.145 22.8141C29.0953 22.8638 29.0395 22.9227 28.9713 22.9692C28.9495 22.9847 28.9123 23.0033 28.8751 23.0281C28.8131 23.0654 28.6828 23.1398 28.6673 23.1677L28.6549 23.1956H28.627C28.5277 23.1956 28.4719 23.208 28.416 23.2236C28.3602 23.236 28.3013 23.2515 28.2051 23.2515H27.8949L27.5258 23.1956C26.3781 23.1956 25.7763 23.7137 25.2583 24.2441C24.8799 24.6318 23.9152 25.5344 23.1367 25.5344L23.0684 25.5282Z" fill="black"/>
<path fill-rule="evenodd" clip-rule="evenodd" d="M27.5226 23.146C26.3967 23.146 25.7856 23.6299 25.2211 24.21C24.8178 24.6225 23.8749 25.4879 23.1304 25.4879H23.0311L22.9319 26.403C24.9512 25.9253 25.3048 23.4655 27.2714 23.4655C27.3706 23.4035 27.9755 23.419 28.1151 23.4097C28.4749 23.3849 28.5897 23.3352 28.875 23.267C29.0611 23.1429 29.2411 22.9785 29.2411 22.6683C29.1449 22.7335 29.0642 22.8544 28.9433 22.9382C28.8719 22.9878 28.6424 23.0995 28.6207 23.1553C28.416 23.1553 28.3849 23.2112 28.1988 23.2112H27.8886L27.5226 23.146Z" fill="#FFF000"/>
<path d="M24.1603 22.5504C23.7633 22.5504 23.3942 22.4729 23.2329 22.2278L23.2205 22.2061L23.602 21.4834L23.633 21.5796C23.8129 22.1379 24.9575 21.9363 25.5717 21.8277C25.674 21.8091 25.7609 21.7936 25.826 21.7874L25.8539 21.7843L25.8694 21.8091C25.888 21.8401 25.9005 21.8773 25.9129 21.9146C25.9377 21.9952 25.9563 22.0448 26.0028 22.0448H26.0587C26.2137 22.0448 26.2323 21.9766 26.2665 21.8742C26.2913 21.7998 26.3161 21.716 26.3999 21.654L26.4247 21.6354L26.4495 21.6509C26.4774 21.6695 26.6449 21.6912 26.8062 21.7129C27.2094 21.7657 27.7616 21.837 27.9756 22.0262L27.9973 22.0448L27.8887 22.414L27.8391 22.3798C27.6871 22.2713 26.9985 22.1317 26.71 22.1317H26.5705C26.3161 22.1317 25.9594 22.2278 25.674 22.3085C25.6027 22.3271 25.5375 22.3457 25.4817 22.3612C25.2336 22.4233 24.6721 22.5504 24.1603 22.5504ZM23.3197 22.1999C23.6919 22.6962 25.1622 22.3519 25.4569 22.2775C25.5127 22.262 25.5779 22.2433 25.6492 22.2247C25.7578 22.1937 25.8787 22.1627 25.9997 22.1317C25.8912 22.1286 25.857 22.02 25.8322 21.9425C25.826 21.9208 25.8167 21.899 25.8105 21.8804C25.7485 21.8897 25.674 21.9021 25.5903 21.9177C24.9823 22.0262 23.8718 22.2216 23.5896 21.6974L23.3197 22.1999ZM26.5643 22.0479H26.7038C26.9892 22.0479 27.6034 22.1689 27.8329 22.2837L27.8949 22.0789C27.6809 21.9177 27.1474 21.8494 26.7907 21.8029C26.5984 21.7781 26.4867 21.7626 26.4278 21.744C26.3812 21.7874 26.3626 21.8432 26.344 21.9052C26.3254 21.9704 26.3037 22.0386 26.2448 22.0821C26.3595 22.0603 26.4681 22.0479 26.5643 22.0479Z" fill="black"/>
<path fill-rule="evenodd" clip-rule="evenodd" d="M27.8608 22.3488L27.9445 22.0634C27.6343 21.7905 26.5363 21.7656 26.4246 21.6912C26.2447 21.8246 26.3688 22.0913 26.0586 22.0913H26.0028C25.888 22.0913 25.8849 21.9145 25.8352 21.8339C25.3638 21.8959 23.8159 22.2899 23.5926 21.5981L23.27 22.2061C23.6174 22.7334 25.0412 22.4294 25.4661 22.3209C25.7577 22.2464 26.2416 22.0913 26.5642 22.0913H26.7038C27.0046 22.0913 27.6995 22.234 27.8608 22.3488Z" fill="#FFF000"/>
<path d="M25.342 28.0686H25.2117C25.0938 28.0686 24.9915 28.0221 24.917 27.9352C24.8147 27.8174 24.7744 27.6251 24.8054 27.4203C24.8085 27.3986 24.8116 27.3645 24.8178 27.3273C24.8767 26.8744 24.9388 26.6108 25.069 26.6108H25.1807C25.2396 26.6108 25.2613 26.617 25.2893 26.6263C25.2955 26.6294 25.3017 26.6294 25.311 26.6325C25.373 26.5766 25.4382 26.5239 25.5033 26.4743C25.6088 26.3936 25.7204 26.3068 25.8197 26.1889C25.8724 26.1269 25.9096 26.0772 25.9407 26.0307C26.043 25.8911 26.0926 25.8198 26.4059 25.7205C26.5393 25.6771 26.6324 25.6771 26.7006 25.674C26.8278 25.6709 26.8371 25.6709 26.9208 25.2459C26.9829 24.9265 27.0263 24.6504 27.0666 24.3805C27.1132 24.089 27.1597 23.7881 27.2279 23.4469L27.231 23.4283L27.2465 23.419C27.3923 23.3259 27.8018 23.3011 28.1988 23.2794C28.4656 23.2639 28.7199 23.2483 28.8657 23.2142L28.9526 23.1956L28.813 23.5089C28.9246 23.6547 29.241 23.8687 29.545 24.0765C30.0692 24.4302 30.3856 24.6597 30.3856 24.8272V24.914C30.3856 25.0319 30.2926 25.1312 30.2057 25.2242C30.1623 25.2708 30.122 25.3142 30.0909 25.3607C30.0289 25.4538 29.9793 25.5375 29.9296 25.6244C29.8955 25.6802 29.8614 25.7391 29.8211 25.8012C29.7652 25.8911 29.6877 26.0493 29.6132 26.2013C29.514 26.4029 29.4209 26.5984 29.3496 26.6914C29.3651 26.7286 29.3775 26.7596 29.3868 26.7907C29.4023 26.8372 29.4147 26.8744 29.4457 26.9209C29.4675 26.9551 29.4892 26.9799 29.5109 27.0047C29.5388 27.0388 29.5698 27.076 29.607 27.1319C29.6598 27.2125 29.7435 27.2559 29.818 27.2963C29.9079 27.3459 29.9917 27.3893 29.9917 27.4855C29.9917 27.6251 29.6691 27.6716 29.5822 27.6716C29.3961 27.6716 28.6579 27.1877 28.5865 27.0481L28.5741 27.0264L28.5865 27.0047C28.8192 26.6511 28.9402 26.4619 29.0859 26.0121C29.117 25.919 29.1387 25.8136 29.1604 25.7019C29.2162 25.4259 29.2783 25.1157 29.5109 24.9947C29.4209 24.9637 29.2658 24.9358 29.1697 24.9172C29.0766 24.8985 28.996 24.883 28.9526 24.8706C28.7416 24.7993 28.5865 24.7496 28.4035 24.6318C28.2732 24.7683 27.749 25.4724 27.4885 25.8198C27.3954 25.9439 27.321 26.0431 27.2838 26.0927C27.2186 26.1796 27.0821 26.2168 26.9519 26.2509C26.8929 26.2665 26.834 26.282 26.7844 26.3037C26.651 26.3564 26.4338 26.4836 26.3656 26.527C26.2477 26.5984 26.1268 26.679 26.012 26.7597C25.8786 26.8527 25.739 26.952 25.5964 27.0295V27.1722L25.5746 27.1846C25.4568 27.2497 25.4568 27.2497 25.4257 27.3397C25.4195 27.3614 25.4102 27.3862 25.4009 27.4203C25.3823 27.4762 25.342 27.5444 25.3079 27.6003C25.2893 27.6344 25.2613 27.6778 25.2582 27.6902C25.2582 27.7522 25.2738 27.7864 25.2955 27.8298C25.3172 27.8794 25.342 27.9322 25.3451 28.0283L25.342 28.0686ZM25.0721 26.6976C25.0411 26.6976 24.9791 26.7814 24.9046 27.3397C24.8984 27.38 24.8953 27.411 24.8922 27.4359C24.8643 27.6127 24.8984 27.7802 24.9822 27.8794C25.0411 27.9477 25.1187 27.9818 25.2117 27.9818H25.2489C25.2427 27.929 25.2272 27.8949 25.2117 27.8608C25.19 27.8143 25.1683 27.7646 25.1683 27.684C25.1683 27.6561 25.19 27.622 25.2303 27.5506C25.2613 27.501 25.2986 27.4359 25.3141 27.3862C25.3234 27.3552 25.3327 27.3304 25.3389 27.3087C25.373 27.197 25.3854 27.1784 25.5064 27.1133V26.9706L25.5281 26.9582C25.6708 26.8806 25.8166 26.7814 25.9562 26.6821C26.074 26.6015 26.1919 26.5177 26.316 26.4464C26.4401 26.3719 26.6231 26.2696 26.7471 26.2199C26.7999 26.1982 26.8619 26.1827 26.9239 26.1641C27.0418 26.1331 27.1628 26.0989 27.2093 26.0338C27.2465 25.9842 27.321 25.8849 27.414 25.7609C27.8514 25.1746 28.2888 24.5946 28.3694 24.5356L28.3942 24.517L28.419 24.5325C28.6051 24.6566 28.7509 24.7062 28.9743 24.7807C29.0146 24.7931 29.0952 24.8086 29.1821 24.8241C29.4302 24.8706 29.5946 24.9047 29.6412 24.9699L29.6784 25.0195L29.6164 25.035C29.362 25.1033 29.3 25.4134 29.241 25.7112C29.2193 25.8198 29.1976 25.9315 29.1635 26.0307C29.0177 26.4805 28.8905 26.6852 28.6703 27.0202C28.7882 27.1691 29.4426 27.5754 29.576 27.5754C29.7063 27.5754 29.8955 27.5103 29.8986 27.4762C29.8986 27.4359 29.849 27.4079 29.7683 27.3645C29.6877 27.3211 29.5915 27.2683 29.5264 27.1691C29.4923 27.1164 29.4644 27.0822 29.4364 27.0481C29.4147 27.0202 29.393 26.9923 29.3682 26.9582C29.331 26.9023 29.3155 26.8558 29.3 26.8062C29.2876 26.7721 29.2782 26.7348 29.2565 26.6945L29.241 26.6697L29.2596 26.648C29.3248 26.5735 29.4271 26.3595 29.5295 26.1517C29.607 25.9904 29.6815 25.8384 29.7404 25.7453C29.7776 25.6833 29.8149 25.6275 29.8459 25.5685C29.8986 25.4817 29.9482 25.3979 30.0103 25.3049C30.0444 25.2522 30.0878 25.2056 30.1344 25.156C30.2119 25.0753 30.2926 24.9885 30.2926 24.9047V24.8179C30.2926 24.6814 29.849 24.3805 29.4892 24.1386C29.148 23.909 28.8254 23.6888 28.7199 23.5306L28.7075 23.5089L28.7975 23.3073C28.6424 23.3321 28.4252 23.3445 28.1988 23.3569C27.8452 23.3786 27.4451 23.4003 27.3024 23.4748C27.2372 23.8067 27.1938 24.0889 27.1442 24.3867C27.1039 24.6566 27.0573 24.9358 26.9984 25.2553C26.9115 25.705 26.8867 25.7453 26.6975 25.7515C26.6355 25.7547 26.5486 25.7546 26.4276 25.795C26.1423 25.8849 26.102 25.9408 26.0058 26.0741C25.9748 26.1176 25.9345 26.1734 25.8817 26.2354C25.7763 26.3626 25.6615 26.4495 25.5529 26.5332C25.4816 26.589 25.4133 26.6418 25.3513 26.7007L25.3358 26.7162L25.3141 26.71C25.2924 26.7038 25.2769 26.7007 25.2614 26.6945C25.2396 26.6883 25.2241 26.6821 25.1838 26.6821H25.0721V26.6976Z" fill="white"/>
<path fill-rule="evenodd" clip-rule="evenodd" d="M27.2683 23.4593C27.138 24.1107 27.0884 24.5946 26.9612 25.2584C26.8341 25.9129 26.8434 25.6306 26.4184 25.764C26.0214 25.8881 26.0741 25.9563 25.8508 26.2169C25.6802 26.4185 25.4879 26.5239 25.3235 26.6821C25.2614 26.6666 25.2583 26.6542 25.1839 26.6542H25.0722C24.9326 26.6542 24.8737 27.2715 24.8489 27.4266C24.7992 27.7368 24.9264 28.0221 25.2118 28.0221H25.2955C25.2924 27.8484 25.2118 27.8298 25.2118 27.6809C25.2118 27.6437 25.3235 27.501 25.3576 27.3987C25.4196 27.2188 25.3855 27.225 25.5499 27.1381V26.9954C25.8167 26.8527 26.071 26.6387 26.3378 26.4836C26.4587 26.4123 26.6417 26.3068 26.7627 26.2572C26.924 26.192 27.1598 26.1703 27.2435 26.0587C27.411 25.8415 28.2857 24.6473 28.3943 24.5698C28.5804 24.6969 28.7324 24.7466 28.9619 24.8241C29.0891 24.8644 29.5482 24.9172 29.6071 24.9978C29.2256 25.1002 29.2442 25.6585 29.1232 26.0214C28.9774 26.4712 28.8534 26.6697 28.6207 27.0233C28.6921 27.1567 29.4148 27.622 29.5792 27.622C29.6816 27.622 29.9452 27.5662 29.9452 27.4793C29.9452 27.3459 29.6847 27.3304 29.5668 27.1505C29.5048 27.0544 29.4613 27.0171 29.4086 26.9396C29.3466 26.8527 29.3497 26.7814 29.2969 26.6821C29.4148 26.5426 29.6474 25.9904 29.7808 25.7733C29.8801 25.6151 29.9514 25.4879 30.0507 25.3328C30.1406 25.1932 30.3392 25.0661 30.3392 24.911V24.8241C30.3392 24.5356 28.9867 23.8532 28.7603 23.512L28.8751 23.2577C28.5091 23.3476 27.501 23.3104 27.2683 23.4593Z" fill="#231F20"/>
<path d="M27.3304 23.2515L27.4576 23.0653L27.8236 22.3271L27.9043 22.0479L28.0563 21.6881C27.864 21.6292 27.7585 21.502 27.6685 21.3965C27.6003 21.3159 27.5476 21.2508 27.4762 21.2477L27.4576 21.257C27.2901 21.3469 27.0544 21.471 26.9644 21.4958C26.7194 21.561 26.6232 21.6044 26.4464 21.7222C26.3875 21.7657 26.3658 21.8308 26.3471 21.899C26.313 22.0076 26.2727 22.1317 26.0556 22.1317H25.9997C25.8881 22.1317 25.854 22.0231 25.8291 21.9425C25.8167 21.9084 25.8074 21.8773 25.795 21.8556L25.7888 21.8463V21.7347L25.795 21.7222C25.8788 21.592 25.9811 21.5547 26.0897 21.5144C26.1362 21.4958 26.1828 21.4772 26.2355 21.4524C26.3782 21.3779 26.4371 21.319 26.5333 21.2197L26.5829 21.167C26.8341 20.9096 26.9365 20.8754 27.0854 20.8258C27.1691 20.7979 27.2653 20.7638 27.4173 20.6831L27.4328 20.6769L27.4483 20.68C27.5103 20.6955 28.0408 20.8196 28.199 20.9065C28.2579 20.9375 28.3044 20.9685 28.3478 20.9933C28.5029 21.0864 28.5836 21.1329 28.8255 21.136C28.8783 21.0584 28.9155 20.9995 28.9186 20.8754C28.8907 20.8289 28.8348 20.739 28.8348 20.6087V20.466C28.8348 20.2458 29.2102 19.9945 29.328 19.9945C29.5948 19.9945 30.0539 20.2365 30.0756 20.4908L30.0787 20.5373H30.0197V20.8227H29.967L30.0011 21.1329L29.9577 21.136C29.8709 21.1422 29.8398 21.2042 29.7964 21.3035C29.7654 21.3717 29.7344 21.4524 29.663 21.502L29.6413 21.5175L29.6196 21.5051C29.6041 21.4958 29.5824 21.4803 29.5576 21.4648C29.5203 21.44 29.4056 21.3655 29.3808 21.3779C29.3808 21.3779 29.3777 21.3841 29.3777 21.409V21.4369C29.3777 21.5082 29.7002 21.7657 29.8429 21.8463C30.0197 21.9456 30.0849 22.051 30.1438 22.1441C30.1779 22.203 30.2121 22.2527 30.2648 22.2961C30.3703 22.2278 30.4633 22.1751 30.5564 22.1255C30.7766 22.0045 30.9472 21.9084 31.1209 21.654L31.0868 21.4214L31.3752 21.1484L31.4218 21.2042C31.4714 21.2322 31.6885 21.3624 31.6885 21.4958C31.6885 21.5641 31.5893 21.6881 31.3659 21.958C31.2543 22.0945 31.1364 22.234 31.0899 22.3147C31.003 22.4667 30.5471 22.9661 30.3206 22.9661C30.3051 22.9661 30.2958 22.9661 29.8646 22.7645L29.7964 22.7334C29.6754 22.6776 29.5483 22.5784 29.4645 22.5132C29.4459 22.4977 29.4242 22.4822 29.4087 22.4698L29.2753 22.7024C29.235 22.7303 29.1947 22.7707 29.1512 22.8172C29.1016 22.8668 29.0458 22.9258 28.9775 22.9723C28.9558 22.9878 28.9186 23.0064 28.8814 23.0312C28.8193 23.0684 28.689 23.1429 28.6735 23.1708L28.6611 23.1987H28.6332C28.534 23.1987 28.4781 23.2111 28.4223 23.2266C28.3665 23.239 28.3075 23.2546 28.2114 23.2546L27.3304 23.2515ZM27.4669 21.1639C27.5817 21.1639 27.6561 21.2508 27.7337 21.3438C27.8236 21.4524 27.9291 21.5734 28.1245 21.6199L28.1741 21.6323L27.9849 22.079L27.9012 22.3612L27.529 23.1119L27.4917 23.1646L28.1958 23.1615C28.2796 23.1615 28.3323 23.1491 28.3851 23.1367C28.4409 23.1212 28.4998 23.1088 28.596 23.1057C28.6332 23.0622 28.7139 23.0157 28.8255 22.9506C28.8627 22.9289 28.8969 22.9102 28.9186 22.8947C28.9806 22.8544 29.0302 22.8017 29.0799 22.7521C29.1233 22.7086 29.1636 22.6652 29.2102 22.6342L29.3621 22.355L29.3963 22.3643C29.418 22.3705 29.4459 22.3922 29.511 22.4419C29.5917 22.5039 29.7158 22.6001 29.8243 22.6528L29.8926 22.6838C30.0011 22.7334 30.2896 22.8668 30.3206 22.8761C30.4726 22.8761 30.9038 22.445 31.0061 22.2682C31.0558 22.1813 31.1705 22.0448 31.2915 21.899C31.4094 21.7564 31.5893 21.5423 31.5924 21.4927C31.5924 21.4338 31.4714 21.3345 31.3628 21.2756L31.3597 21.2725L31.1705 21.4524L31.2015 21.6757L31.1922 21.6881C31.0061 21.9704 30.8107 22.079 30.5874 22.1999C30.4912 22.2527 30.3889 22.3085 30.2803 22.3829L30.2555 22.3984L30.2307 22.3829C30.1469 22.3271 30.1035 22.2558 30.0601 22.1875C30.0042 22.0976 29.9484 22.0045 29.7933 21.9177C29.7437 21.8897 29.2815 21.5858 29.2815 21.4338V21.4059C29.2815 21.3531 29.297 21.319 29.3311 21.3004C29.4025 21.2632 29.5048 21.3283 29.5979 21.3903C29.6103 21.3965 29.6196 21.4059 29.632 21.4121C29.6692 21.3779 29.6909 21.3252 29.7158 21.2694C29.753 21.1825 29.7933 21.0864 29.905 21.0553L29.8709 20.7359H29.9329V20.4505H29.9794C29.9112 20.2706 29.5514 20.0814 29.328 20.0814C29.2567 20.0814 28.9217 20.2985 28.9217 20.466V20.6087C28.9217 20.7203 28.9682 20.7948 28.9899 20.8258C28.9992 20.8413 29.0054 20.8506 29.0054 20.8661C29.0054 21.0243 28.9527 21.1019 28.8969 21.1856L28.8721 21.2228H28.8472C28.5619 21.2228 28.4688 21.167 28.3013 21.0678C28.261 21.0429 28.2114 21.015 28.1555 20.984C28.0408 20.922 27.6623 20.8227 27.4452 20.77C27.2963 20.8475 27.1971 20.8816 27.1164 20.9127C26.9706 20.9623 26.8838 20.9933 26.6449 21.2352L26.5953 21.2849C26.496 21.3872 26.4309 21.4555 26.2758 21.533C26.22 21.5609 26.1672 21.5827 26.1238 21.5982C26.0246 21.6354 25.947 21.6664 25.8788 21.7626V21.8246C25.8943 21.8525 25.9036 21.8866 25.916 21.9208C25.9408 22.0014 25.9594 22.051 26.0059 22.051H26.0618C26.2169 22.051 26.2355 21.9828 26.2696 21.8804C26.2944 21.806 26.3192 21.7222 26.403 21.6602C26.5891 21.533 26.6946 21.4865 26.9489 21.4183C27.0078 21.4028 27.1691 21.3252 27.4235 21.1856C27.4545 21.1639 27.4545 21.1639 27.4669 21.1639Z" fill="white"/>
<path fill-rule="evenodd" clip-rule="evenodd" d="M25.8323 21.8339C25.8819 21.9146 25.885 22.0914 25.9998 22.0914H26.0556C26.3658 22.0914 26.2417 21.8246 26.4216 21.6912C26.6015 21.5672 26.707 21.5237 26.952 21.4586C27.0668 21.4276 27.4608 21.2074 27.4639 21.2074C27.6748 21.2074 27.7306 21.5734 28.1121 21.6633L27.9415 22.0635L27.8578 22.3488L27.4887 23.0933L27.408 23.2112L27.8857 23.205H28.1959C28.382 23.205 28.413 23.1491 28.6177 23.1491C28.6395 23.0933 28.869 22.9816 28.9403 22.932C29.0613 22.8513 29.142 22.7304 29.2381 22.6621L29.3777 22.4047C29.418 22.414 29.6165 22.6063 29.7995 22.69C29.8554 22.7149 30.2865 22.9196 30.3052 22.9196C30.4944 22.9196 30.9379 22.4605 31.0372 22.2899C31.1488 22.0945 31.6296 21.5951 31.6296 21.4927C31.6296 21.3935 31.4497 21.2756 31.3753 21.2353L31.3536 21.2105L31.1147 21.4369L31.1489 21.6633C30.8883 22.0573 30.6184 22.0976 30.2462 22.3488C30.0663 22.2279 30.0942 22.0449 29.8057 21.8836C29.7003 21.8246 29.3157 21.5486 29.3157 21.4369V21.409C29.3157 21.2322 29.5421 21.4214 29.6258 21.4648C29.7716 21.3656 29.7375 21.1112 29.9422 21.0926L29.9081 20.7793H29.9732V20.4939H30.0291C30.0105 20.2737 29.5762 20.038 29.325 20.038C29.2288 20.038 28.8752 20.2706 28.8752 20.466V20.6087C28.8752 20.7638 28.9589 20.8569 28.9589 20.8662C28.9589 21.0213 28.9062 21.0895 28.8473 21.1794C28.503 21.1794 28.4564 21.0988 28.1773 20.9468C28.0439 20.8755 27.6065 20.7638 27.439 20.7235C27.011 20.953 26.9986 20.8134 26.6139 21.2012C26.4806 21.3345 26.4278 21.4059 26.2541 21.4927C26.0773 21.5827 25.9408 21.5796 25.8323 21.7502V21.8339Z" fill="#231F20"/>
<path d="M22.8823 26.4557L22.9909 25.4414L23.1274 25.4445C23.8749 25.4445 24.8179 24.5605 25.187 24.182C25.7174 23.6392 26.3347 23.1057 27.5227 23.1057H27.5289L27.8949 23.1615H28.1989C28.2826 23.1615 28.3354 23.1491 28.3881 23.1367C28.4439 23.1212 28.5029 23.1088 28.599 23.1057C28.6363 23.0623 28.7169 23.0157 28.8286 22.9506C28.8658 22.9289 28.8999 22.9103 28.9216 22.8948C28.9837 22.8544 29.0333 22.8017 29.0798 22.7521C29.1263 22.7056 29.1698 22.659 29.2194 22.628L29.2876 22.5815V22.6621C29.2876 22.9909 29.1015 23.1615 28.903 23.298L28.8875 23.3042C28.8224 23.3197 28.7634 23.3352 28.7107 23.3476C28.537 23.3911 28.4005 23.4283 28.1182 23.4469C28.081 23.45 28.0066 23.45 27.9197 23.4531C27.7212 23.4562 27.3552 23.4593 27.2931 23.4996L27.2838 23.5058H27.2714C26.2571 23.5058 25.6771 24.1758 25.066 24.8831C24.5015 25.5375 23.9152 26.2137 22.9444 26.4433L22.8823 26.4557ZM23.0684 25.5282L22.9816 26.3409C23.8904 26.1052 24.455 25.4538 24.9978 24.8241C25.6213 24.1014 26.2137 23.4221 27.259 23.4159C27.349 23.3725 27.6126 23.3662 27.9197 23.3631C28.0035 23.3631 28.0748 23.3631 28.112 23.36C28.385 23.3414 28.5122 23.3073 28.689 23.2639C28.7417 23.2515 28.7945 23.236 28.8596 23.2205C29.0395 23.0995 29.1636 22.9692 29.1946 22.7614C29.1791 22.7769 29.1605 22.7955 29.145 22.8141C29.0953 22.8638 29.0395 22.9227 28.9713 22.9692C28.9495 22.9847 28.9123 23.0033 28.8751 23.0281C28.8131 23.0654 28.6828 23.1398 28.6673 23.1677L28.6549 23.1956H28.627C28.5277 23.1956 28.4719 23.208 28.416 23.2236C28.3602 23.236 28.3013 23.2515 28.2051 23.2515H27.8949L27.5258 23.1956C26.3781 23.1956 25.7763 23.7137 25.2583 24.2441C24.8799 24.6318 23.9152 25.5344 23.1367 25.5344L23.0684 25.5282Z" fill="black"/>
<path fill-rule="evenodd" clip-rule="evenodd" d="M27.5226 23.146C26.3967 23.146 25.7856 23.6299 25.2211 24.21C24.8178 24.6225 23.8749 25.4879 23.1304 25.4879H23.0311L22.9319 26.403C24.9512 25.9253 25.3048 23.4655 27.2714 23.4655C27.3706 23.4035 27.9755 23.419 28.1151 23.4097C28.4749 23.3849 28.5897 23.3352 28.875 23.267C29.0611 23.1429 29.2411 22.9785 29.2411 22.6683C29.1449 22.7335 29.0642 22.8544 28.9433 22.9382C28.8719 22.9878 28.6424 23.0995 28.6207 23.1553C28.416 23.1553 28.3849 23.2112 28.1988 23.2112H27.8886L27.5226 23.146Z" fill="#FFF000"/>
<path d="M24.1603 22.5504C23.7633 22.5504 23.3942 22.4729 23.2329 22.2278L23.2205 22.2061L23.602 21.4834L23.633 21.5796C23.8129 22.1379 24.9575 21.9363 25.5717 21.8277C25.674 21.8091 25.7609 21.7936 25.826 21.7874L25.8539 21.7843L25.8694 21.8091C25.888 21.8401 25.9005 21.8773 25.9129 21.9146C25.9377 21.9952 25.9563 22.0448 26.0028 22.0448H26.0587C26.2137 22.0448 26.2323 21.9766 26.2665 21.8742C26.2913 21.7998 26.3161 21.716 26.3999 21.654L26.4247 21.6354L26.4495 21.6509C26.4774 21.6695 26.6449 21.6912 26.8062 21.7129C27.2094 21.7657 27.7616 21.837 27.9756 22.0262L27.9973 22.0448L27.8887 22.414L27.8391 22.3798C27.6871 22.2713 26.9985 22.1317 26.71 22.1317H26.5705C26.3161 22.1317 25.9594 22.2278 25.674 22.3085C25.6027 22.3271 25.5375 22.3457 25.4817 22.3612C25.2336 22.4233 24.6721 22.5504 24.1603 22.5504ZM23.3197 22.1999C23.6919 22.6962 25.1622 22.3519 25.4569 22.2775C25.5127 22.262 25.5779 22.2433 25.6492 22.2247C25.7578 22.1937 25.8787 22.1627 25.9997 22.1317C25.8912 22.1286 25.857 22.02 25.8322 21.9425C25.826 21.9208 25.8167 21.899 25.8105 21.8804C25.7485 21.8897 25.674 21.9021 25.5903 21.9177C24.9823 22.0262 23.8718 22.2216 23.5896 21.6974L23.3197 22.1999ZM26.5643 22.0479H26.7038C26.9892 22.0479 27.6034 22.1689 27.8329 22.2837L27.8949 22.0789C27.6809 21.9177 27.1474 21.8494 26.7907 21.8029C26.5984 21.7781 26.4867 21.7626 26.4278 21.744C26.3812 21.7874 26.3626 21.8432 26.344 21.9052C26.3254 21.9704 26.3037 22.0386 26.2448 22.0821C26.3595 22.0603 26.4681 22.0479 26.5643 22.0479Z" fill="black"/>
<path fill-rule="evenodd" clip-rule="evenodd" d="M27.8608 22.3488L27.9445 22.0634C27.6343 21.7905 26.5363 21.7656 26.4246 21.6912C26.2447 21.8246 26.3688 22.0913 26.0586 22.0913H26.0028C25.888 22.0913 25.8849 21.9145 25.8352 21.8339C25.3638 21.8959 23.8159 22.2899 23.5926 21.5981L23.27 22.2061C23.6174 22.7334 25.0412 22.4294 25.4661 22.3209C25.7577 22.2464 26.2416 22.0913 26.5642 22.0913H26.7038C27.0046 22.0913 27.6995 22.234 27.8608 22.3488Z" fill="#FFF000"/>
<path fill-rule="evenodd" clip-rule="evenodd" d="M90.5862 35.4325C32.197 36.2545 66.2956 23.6299 62.5672 25.1281C60.5045 25.9594 59.1087 30.119 61.7328 31.1333C67.7411 33.4504 94.935 33.5745 124.449 33.5155C143.997 33.4752 164.565 33.3542 180.667 33.7296C149.946 34.3127 121.31 34.8524 90.5862 35.4325Z" fill="#EB1C24"/>
<path d="M65.9979 11.2908C65.9762 11.0799 65.9204 10.9279 65.8273 10.8379C65.7343 10.748 65.6164 10.7014 65.4644 10.7014C65.2907 10.7014 65.1542 10.7697 65.0488 10.9093C64.9836 10.993 64.9402 11.1233 64.9216 11.2939H65.9979V11.2908ZM67.0991 11.8088H64.9216C64.9402 11.9825 64.9867 12.1128 65.0643 12.1996C65.1698 12.3237 65.3062 12.3826 65.4768 12.3826C65.5854 12.3826 65.6878 12.3578 65.7808 12.3051C65.8397 12.271 65.9049 12.212 65.97 12.1283L67.0402 12.2275C66.8789 12.5129 66.6803 12.7176 66.4477 12.8386C66.2182 12.9627 65.8832 13.0247 65.452 13.0247C65.0767 13.0247 64.782 12.972 64.5649 12.8665C64.3509 12.7611 64.171 12.5905 64.0283 12.3609C63.8887 12.1314 63.8173 11.8584 63.8173 11.5482C63.8173 11.1047 63.96 10.7449 64.2423 10.4719C64.5246 10.1989 64.9185 10.0593 65.4179 10.0593C65.8242 10.0593 66.1437 10.1214 66.3764 10.2455C66.6121 10.3695 66.792 10.5463 66.913 10.779C67.034 11.0116 67.096 11.3156 67.096 11.6909V11.8088H67.0991ZM60.3122 9.04504H61.3979V10.4843C61.5468 10.3292 61.6926 10.2207 61.8384 10.1555C61.9842 10.0904 62.1548 10.0563 62.3533 10.0563C62.6479 10.0563 62.8806 10.1462 63.0512 10.3261C63.2187 10.5091 63.3055 10.7821 63.3055 11.1543V12.9565H62.2137V11.3963C62.2137 11.2194 62.1827 11.0923 62.1175 11.0178C62.0524 10.9434 61.9593 10.9062 61.8415 10.9062C61.7112 10.9062 61.6057 10.9558 61.5251 11.055C61.4444 11.1543 61.4041 11.3311 61.4041 11.5917V12.9534H60.3184V9.04504H60.3122ZM56.0193 9.04504H59.695V10.0128H58.4604V12.9565H57.2538V10.0128H56.0193V9.04504Z" fill="black"/>
<path d="M172.063 41.509C172.016 41.0282 171.883 40.6871 171.675 40.4792C171.467 40.2714 171.194 40.169 170.853 40.169C170.462 40.169 170.146 40.3241 169.91 40.6374C169.761 40.8297 169.665 41.1213 169.625 41.509H172.063ZM174.569 42.6846H169.618C169.665 43.0786 169.77 43.3764 169.941 43.5687C170.18 43.8478 170.49 43.9874 170.875 43.9874C171.12 43.9874 171.349 43.9285 171.566 43.8075C171.7 43.73 171.845 43.5966 171.997 43.4043L174.429 43.6276C174.057 44.2728 173.607 44.7381 173.083 45.0172C172.559 45.2995 171.805 45.4391 170.822 45.4391C169.969 45.4391 169.299 45.3181 168.809 45.0762C168.322 44.8373 167.915 44.4558 167.593 43.9316C167.273 43.4043 167.112 42.7901 167.112 42.0829C167.112 41.0748 167.435 40.259 168.08 39.6355C168.722 39.012 169.615 38.7019 170.747 38.7019C171.672 38.7019 172.394 38.8415 172.928 39.1206C173.462 39.3998 173.871 39.803 174.147 40.3334C174.426 40.8608 174.566 41.5525 174.566 42.4024V42.6846H174.569ZM164.894 36.4096V38.8538H166.247V40.6622H164.894V42.9421C164.894 43.2151 164.922 43.3981 164.972 43.4849C165.052 43.6214 165.195 43.6896 165.397 43.6896C165.58 43.6896 165.834 43.6369 166.16 43.5314L166.343 45.2375C165.732 45.3739 165.164 45.4391 164.634 45.4391C164.019 45.4391 163.567 45.3615 163.275 45.2033C162.987 45.0452 162.769 44.8063 162.63 44.4868C162.49 44.1673 162.422 43.6462 162.422 42.9266V40.6622H161.516V38.8538H162.422V37.672L164.894 36.4096ZM160.418 45.2902H158.114V44.2542C157.769 44.6822 157.425 44.9862 157.078 45.1692C156.73 45.3491 156.299 45.4422 155.793 45.4422C155.114 45.4422 154.587 45.2375 154.199 44.8311C153.814 44.4248 153.622 43.7982 153.622 42.9545V38.857H156.1V42.4055C156.1 42.8087 156.175 43.0972 156.324 43.2678C156.473 43.4353 156.681 43.5222 156.95 43.5222C157.242 43.5222 157.481 43.4074 157.67 43.184C157.856 42.9576 157.949 42.5482 157.949 41.9619V38.8601H160.418V45.2902ZM151.119 36.4096V38.8538H152.471V40.6622H151.119V42.9421C151.119 43.2151 151.147 43.3981 151.196 43.4849C151.277 43.6214 151.42 43.6896 151.621 43.6896C151.804 43.6896 152.059 43.6369 152.388 43.5314L152.571 45.2375C151.959 45.3739 151.392 45.4391 150.861 45.4391C150.247 45.4391 149.794 45.3615 149.503 45.2033C149.214 45.0452 149 44.8063 148.858 44.4868C148.718 44.1673 148.65 43.6462 148.65 42.9266V40.6622H147.744V38.8538H148.65V37.672L151.119 36.4096ZM144.096 38.8538H146.565V45.2902H144.096V38.8538ZM144.096 36.4096H146.565V38.0846H144.096V36.4096ZM141.481 36.4096V38.8538H142.834V40.6622H141.481V42.9421C141.481 43.2151 141.509 43.3981 141.559 43.4849C141.64 43.6214 141.782 43.6896 141.987 43.6896C142.167 43.6896 142.421 43.6369 142.75 43.5314L142.933 45.2375C142.322 45.3739 141.754 45.4391 141.224 45.4391C140.61 45.4391 140.157 45.3615 139.865 45.2033C139.577 45.0452 139.36 44.8063 139.22 44.4868C139.084 44.1673 139.012 43.6462 139.012 42.9266V40.6622H138.107V38.8538H139.012V37.672L141.481 36.4096ZM130.495 43.5035L132.939 43.2802C133.041 43.5687 133.181 43.7765 133.364 43.9006C133.544 44.0246 133.789 44.0867 134.09 44.0867C134.422 44.0867 134.676 44.0153 134.859 43.8757C135.002 43.7734 135.073 43.64 135.073 43.4818C135.073 43.305 134.98 43.1654 134.794 43.0693C134.66 43.001 134.307 42.9173 133.736 42.8149C132.88 42.666 132.288 42.5265 131.953 42.3993C131.621 42.2721 131.341 42.055 131.112 41.7541C130.886 41.4501 130.771 41.1058 130.771 40.715C130.771 40.2931 130.892 39.9271 131.137 39.62C131.385 39.3129 131.723 39.0803 132.154 38.9314C132.585 38.7794 133.162 38.705 133.888 38.705C134.654 38.705 135.222 38.7608 135.585 38.8787C135.951 38.9965 136.255 39.1796 136.497 39.4246C136.742 39.6727 136.943 40.0077 137.105 40.4265L134.772 40.6498C134.71 40.4451 134.611 40.2931 134.468 40.197C134.276 40.0698 134.043 40.0046 133.767 40.0046C133.491 40.0046 133.286 40.0543 133.159 40.1535C133.032 40.2528 132.97 40.3738 132.97 40.5134C132.97 40.6746 133.051 40.7925 133.209 40.8732C133.37 40.9569 133.721 41.0283 134.26 41.0934C135.082 41.1865 135.69 41.3167 136.09 41.4811C136.491 41.6455 136.795 41.8844 137.005 42.1914C137.219 42.4985 137.325 42.8366 137.325 43.2027C137.325 43.5749 137.213 43.9378 136.99 44.2883C136.767 44.6388 136.413 44.918 135.932 45.1258C135.451 45.3367 134.794 45.4391 133.963 45.4391C132.787 45.4391 131.953 45.2716 131.453 44.9335C130.954 44.5985 130.634 44.1239 130.495 43.5035ZM122.656 38.8538H124.955V39.8992C125.299 39.4711 125.643 39.164 125.994 38.981C126.344 38.798 126.769 38.705 127.275 38.705C127.957 38.705 128.488 38.9066 128.876 39.316C129.26 39.7193 129.452 40.3489 129.452 41.1988V45.2933H126.971V41.751C126.971 41.3446 126.897 41.0593 126.748 40.8918C126.599 40.7243 126.391 40.6405 126.121 40.6405C125.826 40.6405 125.584 40.7553 125.401 40.9786C125.215 41.2082 125.122 41.6114 125.122 42.1977V45.2902H122.656V38.8538ZM118.103 36.4096H120.857V45.2902H118.103V36.4096Z" fill="black"/>
<path d="M163.905 25.7826L168.564 25.491C168.663 26.2448 168.871 26.8217 169.181 27.2126C169.687 27.8516 170.409 28.1742 171.346 28.1742C172.044 28.1742 172.584 28.0129 172.962 27.6841C173.344 27.3553 173.533 26.9737 173.533 26.5426C173.533 26.1331 173.356 25.764 172.996 25.4383C172.636 25.1126 171.802 24.8086 170.49 24.5171C168.337 24.0363 166.808 23.3942 165.89 22.5908C164.966 21.7936 164.503 20.7731 164.503 19.5293C164.503 18.7166 164.739 17.9473 165.214 17.2215C165.688 16.4926 166.396 15.9249 167.348 15.5093C168.297 15.0936 169.6 14.8889 171.253 14.8889C173.282 14.8889 174.829 15.2673 175.893 16.0242C176.957 16.7779 177.59 17.9815 177.795 19.6285L173.182 19.9015C173.061 19.1819 172.801 18.6546 172.41 18.3289C172.013 18.0001 171.47 17.8388 170.778 17.8388C170.208 17.8388 169.777 17.9597 169.488 18.2017C169.2 18.4405 169.057 18.7383 169.057 19.0857C169.057 19.337 169.175 19.5634 169.407 19.765C169.634 19.976 170.18 20.1683 171.045 20.3513C173.189 20.8135 174.724 21.2818 175.648 21.7564C176.576 22.231 177.252 22.8141 177.674 23.5152C178.096 24.2162 178.307 24.9979 178.307 25.8664C178.307 26.8838 178.024 27.8236 177.463 28.6829C176.898 29.5421 176.114 30.1966 175.099 30.6401C174.091 31.0837 172.819 31.307 171.281 31.307C168.582 31.307 166.712 30.7859 165.673 29.7468C164.627 28.7046 164.041 27.3832 163.905 25.7826ZM152.484 21.6075H154.556C154.779 21.6075 155.213 21.5362 155.859 21.3904C156.184 21.3284 156.451 21.1609 156.653 20.891C156.86 20.6211 156.963 20.3141 156.963 19.9666C156.963 19.4517 156.801 19.0578 156.476 18.7848C156.15 18.5088 155.539 18.3692 154.643 18.3692H152.484V21.6075ZM147.561 31.0372V15.1526H155.738C157.254 15.1526 158.414 15.2829 159.212 15.5434C160.015 15.8009 160.66 16.2879 161.153 16.9889C161.643 17.693 161.889 18.5553 161.889 19.5696C161.889 20.4505 161.699 21.2105 161.321 21.8495C160.949 22.4916 160.431 23.0096 159.77 23.4097C159.351 23.661 158.774 23.8719 158.048 24.0394C158.632 24.2348 159.057 24.4271 159.323 24.6256C159.5 24.7528 159.764 25.0351 160.108 25.46C160.449 25.885 160.679 26.2138 160.794 26.4464L163.176 31.0341H157.63L155.009 26.189C154.677 25.5593 154.379 25.1529 154.121 24.9637C153.768 24.7218 153.365 24.5977 152.918 24.5977H152.484V31.031H147.561V31.0372ZM131.475 15.1526H144.608V18.546H136.397V21.074H144.006V24.3123H136.397V27.439H144.85V31.0341H131.475V15.1526ZM113.041 15.1526H117.622L123.578 23.9215V15.1526H128.215V31.0372H123.578L117.653 22.3148V31.0372H113.041V15.1526ZM94.5597 15.1526H99.1412L105.097 23.9215V15.1526H109.734V31.0372H105.097L99.1753 22.3148V31.0372H94.5597V15.1526ZM86.9974 19.5231H91.4113V31.0372H86.9974V19.5231ZM86.9974 15.1526H91.4113V18.149H86.9974V15.1526ZM62.592 15.1526H67.251L68.926 24.0146L71.3796 15.1526H76.0014L78.4735 24.0301L80.1609 15.1526H84.7951L81.2962 31.0372H76.4821L73.6936 21.0368L70.9236 31.0372H66.1188L62.592 15.1526Z" fill="black"/>
</svg>
