<?xml version="1.0" encoding="utf-8"?>
<!-- Generator: Adobe Illustrator 25.4.1, SVG Export Plug-In . SVG Version: 6.00 Build 0)  -->
<svg version="1.1" id="Layer_1" xmlns="http://www.w3.org/2000/svg" xmlns:xlink="http://www.w3.org/1999/xlink" x="0px" y="0px"
	 viewBox="0 0 1080 1080" style="enable-background:new 0 0 1080 1080;" xml:space="preserve">
<style type="text/css">
	.st0{fill:#FFFFFF;}
	.st1{fill:#EB1C24;}
	.st2{fill-rule:evenodd;clip-rule:evenodd;fill:#FFFFFF;}
	.st3{fill:#FFF000;}
	.st4{fill-rule:evenodd;clip-rule:evenodd;fill:#231F20;}
	.st5{fill-rule:evenodd;clip-rule:evenodd;fill:#FFF000;}
	.st6{fill-rule:evenodd;clip-rule:evenodd;fill:#EB1C24;}
</style>
<g>
	<g>
		<path class="st0" d="M315.21,568.62c-47.22,0-85.64-38.42-85.64-85.64c0-47.22,38.42-85.64,85.64-85.64h449.59
			c47.22,0,85.64,38.42,85.64,85.64c0,47.22-38.42,85.64-85.64,85.64H315.21z"/>
		<path d="M764.8,399.52c46.02,0,83.46,37.44,83.46,83.46s-37.44,83.46-83.46,83.46H315.2c-46.02,0-83.46-37.44-83.46-83.46
			s37.44-83.46,83.46-83.46H764.8 M764.8,395.15H315.2c-48.43,0-87.83,39.4-87.83,87.83s39.4,87.83,87.83,87.83H764.8
			c48.43,0,87.83-39.4,87.83-87.83S813.22,395.15,764.8,395.15L764.8,395.15z"/>
	</g>
	<g>
		<g>
			<path d="M315.32,412.95c-38.66,0-70.11,31.45-70.11,70.11c0,38.66,31.45,70.11,70.11,70.11c38.66,0,70.11-31.45,70.11-70.11
				C385.43,444.4,353.98,412.95,315.32,412.95z M315.32,551.99c-38.07,0-68.93-30.86-68.93-68.93s30.86-68.93,68.93-68.93
				s68.93,30.86,68.93,68.93S353.39,551.99,315.32,551.99z"/>
			<path class="st0" d="M315.32,414.13c-38.07,0-68.93,30.86-68.93,68.93s30.86,68.93,68.93,68.93s68.93-30.86,68.93-68.93
				S353.39,414.13,315.32,414.13z M315.32,415.9c26.56,0,49.57,15.5,60.46,37.94H254.86C265.74,431.4,288.75,415.9,315.32,415.9z
				 M315.32,550.22c-37.03,0-67.16-30.13-67.16-67.16c0-9.77,2.1-19.07,5.87-27.45h122.58c3.77,8.39,5.87,17.68,5.87,27.45
				C382.48,520.09,352.35,550.22,315.32,550.22z"/>
			<path d="M315.32,415.9c-26.56,0-49.57,15.5-60.46,37.94h120.92C364.89,431.4,341.88,415.9,315.32,415.9z"/>
			<path class="st1" d="M376.61,455.61H254.03c-3.77,8.39-5.87,17.68-5.87,27.45c0,37.03,30.13,67.16,67.16,67.16
				s67.16-30.13,67.16-67.16C382.48,473.29,380.38,463.99,376.61,455.61z"/>
		</g>
		<g>
			<path class="st2" d="M288.68,507.25c-56.04,0.79-23.31-11.33-26.89-9.89c-1.98,0.8-3.32,4.79-0.8,5.76
				c5.77,2.22,31.87,2.34,60.19,2.29c18.76-0.04,38.5-0.15,53.96,0.21C345.65,506.18,318.16,506.7,288.68,507.25"/>
			<path class="st0" d="M265.08,484.08c-0.02-0.2-0.08-0.35-0.16-0.44c-0.09-0.09-0.2-0.13-0.35-0.13c-0.17,0-0.3,0.07-0.4,0.2
				c-0.06,0.08-0.1,0.2-0.12,0.37H265.08z M266.14,484.58h-2.09c0.02,0.17,0.06,0.29,0.14,0.37c0.1,0.12,0.23,0.18,0.39,0.18
				c0.1,0,0.2-0.02,0.29-0.08c0.06-0.03,0.12-0.09,0.18-0.17l1.03,0.09c-0.16,0.27-0.35,0.47-0.57,0.59
				c-0.22,0.12-0.54,0.18-0.96,0.18c-0.36,0-0.64-0.05-0.85-0.15c-0.21-0.1-0.38-0.26-0.51-0.49c-0.13-0.22-0.2-0.48-0.2-0.78
				c0-0.43,0.14-0.77,0.41-1.03c0.27-0.26,0.65-0.39,1.13-0.39c0.39,0,0.7,0.06,0.92,0.18c0.23,0.12,0.4,0.29,0.52,0.51
				c0.12,0.22,0.18,0.52,0.18,0.88V484.58z M259.62,481.93h1.04v1.38c0.14-0.15,0.28-0.25,0.42-0.32c0.14-0.06,0.3-0.09,0.5-0.09
				c0.28,0,0.51,0.09,0.67,0.26c0.16,0.17,0.24,0.44,0.24,0.8v1.73h-1.05v-1.5c0-0.17-0.03-0.29-0.09-0.36
				c-0.06-0.07-0.15-0.11-0.26-0.11c-0.13,0-0.23,0.05-0.3,0.14c-0.08,0.1-0.12,0.27-0.12,0.51v1.31h-1.04V481.93z M255.5,481.93
				h3.53v0.93h-1.18v2.83h-1.16v-2.83h-1.18V481.93z"/>
			<path class="st3" d="M366.88,513.08c-0.05-0.46-0.17-0.79-0.37-0.99c-0.2-0.2-0.46-0.3-0.79-0.3c-0.38,0-0.68,0.15-0.9,0.45
				c-0.14,0.19-0.23,0.46-0.27,0.84H366.88z M369.28,514.22h-4.75c0.04,0.38,0.15,0.66,0.31,0.85c0.23,0.27,0.53,0.4,0.9,0.4
				c0.23,0,0.46-0.06,0.66-0.17c0.13-0.07,0.27-0.2,0.41-0.39l2.33,0.21c-0.36,0.62-0.79,1.06-1.29,1.33
				c-0.5,0.27-1.23,0.4-2.17,0.4c-0.82,0-1.46-0.11-1.93-0.35c-0.47-0.23-0.86-0.6-1.17-1.1c-0.31-0.5-0.46-1.1-0.46-1.77
				c0-0.97,0.31-1.75,0.93-2.35c0.62-0.6,1.47-0.9,2.56-0.9c0.89,0,1.58,0.13,2.09,0.4c0.51,0.27,0.9,0.65,1.17,1.17
				c0.27,0.51,0.4,1.17,0.4,1.99V514.22z M360,508.19v2.35h1.3v1.74H360v2.19c0,0.26,0.03,0.44,0.08,0.52
				c0.08,0.13,0.21,0.2,0.41,0.2c0.18,0,0.42-0.05,0.73-0.15l0.18,1.64c-0.59,0.13-1.13,0.19-1.64,0.19c-0.59,0-1.02-0.08-1.3-0.23
				c-0.28-0.15-0.48-0.38-0.62-0.69c-0.13-0.31-0.2-0.81-0.2-1.5v-2.17h-0.87v-1.74h0.87v-1.13L360,508.19z M355.7,516.71h-2.21v-1
				c-0.33,0.41-0.66,0.7-0.99,0.88c-0.33,0.17-0.75,0.26-1.23,0.26c-0.65,0-1.16-0.2-1.53-0.59c-0.37-0.39-0.55-0.99-0.55-1.8v-3.93
				h2.38v3.4c0,0.39,0.07,0.66,0.21,0.83c0.14,0.16,0.34,0.24,0.6,0.24c0.28,0,0.51-0.11,0.69-0.33c0.18-0.22,0.27-0.61,0.27-1.17
				v-2.98h2.37V516.71z M346.77,508.19v2.35h1.3v1.74h-1.3v2.19c0,0.26,0.03,0.44,0.08,0.52c0.08,0.13,0.21,0.2,0.41,0.2
				c0.18,0,0.42-0.05,0.73-0.15l0.18,1.64c-0.59,0.13-1.13,0.19-1.64,0.19c-0.59,0-1.02-0.08-1.3-0.23
				c-0.28-0.15-0.48-0.38-0.62-0.69c-0.13-0.31-0.2-0.81-0.2-1.5v-2.17h-0.87v-1.74h0.87v-1.13L346.77,508.19z M340.04,510.54h2.37
				v6.18h-2.37V510.54z M340.04,508.19h2.37v1.61h-2.37V508.19z M337.53,508.19v2.35h1.3v1.74h-1.3v2.19c0,0.26,0.03,0.44,0.08,0.52
				c0.08,0.13,0.21,0.2,0.41,0.2c0.17,0,0.42-0.05,0.73-0.15l0.18,1.64c-0.59,0.13-1.13,0.19-1.64,0.19c-0.59,0-1.02-0.08-1.3-0.23
				c-0.28-0.15-0.48-0.38-0.62-0.69c-0.13-0.31-0.2-0.81-0.2-1.5v-2.17h-0.87v-1.74h0.87v-1.13L337.53,508.19z M326.98,515
				l2.35-0.21c0.1,0.28,0.23,0.48,0.41,0.59c0.17,0.12,0.41,0.18,0.7,0.18c0.32,0,0.56-0.07,0.74-0.2c0.14-0.1,0.2-0.23,0.2-0.38
				c0-0.17-0.09-0.3-0.27-0.4c-0.13-0.07-0.47-0.15-1.02-0.24c-0.82-0.14-1.39-0.28-1.71-0.4c-0.32-0.12-0.59-0.33-0.81-0.62
				c-0.22-0.29-0.33-0.62-0.33-1c0-0.41,0.12-0.76,0.35-1.05c0.24-0.3,0.56-0.52,0.98-0.66c0.41-0.15,0.97-0.22,1.67-0.22
				c0.73,0,1.28,0.05,1.63,0.17c0.35,0.11,0.64,0.29,0.88,0.52c0.23,0.24,0.43,0.56,0.58,0.96l-2.24,0.22
				c-0.06-0.2-0.16-0.34-0.29-0.44c-0.18-0.12-0.41-0.18-0.67-0.18c-0.27,0-0.46,0.05-0.58,0.14c-0.12,0.09-0.18,0.21-0.18,0.34
				c0,0.15,0.08,0.27,0.23,0.34c0.15,0.08,0.49,0.15,1.01,0.21c0.79,0.09,1.37,0.21,1.76,0.37c0.38,0.16,0.68,0.39,0.88,0.68
				c0.2,0.3,0.31,0.62,0.31,0.97c0,0.36-0.11,0.71-0.32,1.04c-0.21,0.34-0.55,0.61-1.02,0.8c-0.46,0.2-1.09,0.3-1.89,0.3
				c-1.13,0-1.93-0.16-2.41-0.48C327.42,516.05,327.12,515.59,326.98,515z M319.46,510.54h2.21v1c0.33-0.41,0.66-0.7,1-0.88
				c0.34-0.18,0.75-0.26,1.23-0.26c0.65,0,1.16,0.19,1.54,0.59c0.37,0.39,0.55,0.99,0.55,1.81v3.93h-2.38v-3.4
				c0-0.39-0.07-0.66-0.21-0.82c-0.14-0.16-0.34-0.24-0.6-0.24c-0.28,0-0.52,0.11-0.69,0.33c-0.18,0.22-0.27,0.61-0.27,1.17v2.97
				h-2.37V510.54z M315.09,508.19h2.64v8.52h-2.64V508.19z"/>
			<path class="st0" d="M359.05,497.99l4.47-0.28c0.1,0.72,0.29,1.28,0.59,1.65c0.49,0.61,1.18,0.92,2.08,0.92
				c0.67,0,1.19-0.15,1.55-0.47c0.37-0.32,0.55-0.68,0.55-1.1c0-0.39-0.17-0.75-0.51-1.06c-0.34-0.31-1.15-0.6-2.41-0.88
				c-2.07-0.46-3.53-1.08-4.41-1.85c-0.89-0.77-1.33-1.75-1.33-2.94c0-0.78,0.23-1.52,0.68-2.21c0.45-0.7,1.14-1.25,2.05-1.64
				c0.91-0.4,2.16-0.6,3.75-0.6c1.95,0,3.43,0.36,4.45,1.09c1.02,0.72,1.63,1.88,1.82,3.46l-4.43,0.26
				c-0.12-0.69-0.37-1.2-0.74-1.51c-0.38-0.31-0.9-0.47-1.57-0.47c-0.55,0-0.96,0.12-1.24,0.35c-0.28,0.23-0.42,0.51-0.42,0.85
				c0,0.24,0.11,0.46,0.34,0.65c0.22,0.2,0.74,0.39,1.57,0.56c2.06,0.44,3.53,0.89,4.42,1.35c0.89,0.45,1.54,1.02,1.94,1.69
				c0.4,0.67,0.61,1.42,0.61,2.26c0,0.98-0.27,1.88-0.81,2.7c-0.54,0.82-1.29,1.45-2.27,1.88c-0.97,0.43-2.19,0.64-3.66,0.64
				c-2.59,0-4.39-0.5-5.38-1.5C359.74,500.79,359.18,499.53,359.05,497.99 M348.09,493.98h1.99c0.21,0,0.63-0.07,1.25-0.21
				c0.31-0.06,0.57-0.22,0.76-0.48c0.2-0.26,0.3-0.55,0.3-0.89c0-0.49-0.16-0.87-0.47-1.14c-0.31-0.27-0.9-0.4-1.76-0.4h-2.07
				V493.98z M343.36,503.03v-15.24h7.85c1.46,0,2.57,0.12,3.34,0.38c0.77,0.25,1.39,0.71,1.86,1.39c0.47,0.68,0.71,1.5,0.71,2.48
				c0,0.84-0.18,1.58-0.54,2.19c-0.36,0.62-0.85,1.11-1.49,1.5c-0.4,0.24-0.95,0.44-1.65,0.6c0.56,0.19,0.97,0.37,1.22,0.56
				c0.17,0.12,0.42,0.39,0.75,0.8c0.33,0.41,0.55,0.72,0.66,0.95l2.29,4.4h-5.32l-2.52-4.65c-0.32-0.6-0.6-0.99-0.85-1.17
				c-0.34-0.23-0.73-0.35-1.16-0.35h-0.42v6.17H343.36z M327.92,487.79h12.6v3.26h-7.88v2.43h7.3v3.11h-7.3v3h8.11v3.45h-12.84
				V487.79z M310.23,487.79h4.4l5.72,8.42v-8.42h4.45v15.24h-4.45l-5.68-8.37v8.37h-4.43V487.79z M292.49,487.79h4.4l5.72,8.42
				v-8.42h4.45v15.24h-4.45l-5.68-8.37v8.37h-4.43V487.79z M285.23,491.98h4.24v11.05h-4.24V491.98z M285.23,487.79h4.24v2.87h-4.24
				V487.79z M261.81,487.79h4.47l1.61,8.51l2.36-8.51h4.44l2.37,8.52l1.62-8.52h4.45l-3.36,15.24h-4.62l-2.68-9.6l-2.66,9.6h-4.61
				L261.81,487.79z"/>
		</g>
		<path class="st0" d="M333.62,441.9c0.29,0,0.54,0.1,0.74,0.31c0.2,0.2,0.3,0.45,0.3,0.73c0,0.29-0.1,0.53-0.3,0.73
			c-0.2,0.2-0.45,0.3-0.73,0.3c-0.29,0-0.53-0.1-0.73-0.3c-0.2-0.2-0.3-0.44-0.3-0.73c0-0.29,0.1-0.53,0.3-0.73
			C333.08,442,333.33,441.9,333.62,441.9 M331.72,443.59v0.22h-4.38v-0.22h0.28c0.24,0,0.44-0.04,0.59-0.13
			c0.11-0.06,0.19-0.16,0.25-0.3c0.04-0.1,0.07-0.36,0.07-0.79v-5.55c0-0.43-0.02-0.71-0.07-0.81c-0.05-0.11-0.14-0.2-0.28-0.28
			c-0.14-0.08-0.32-0.12-0.56-0.12h-0.28v-0.22h4.38v0.22h-0.28c-0.24,0-0.44,0.04-0.59,0.13c-0.11,0.06-0.19,0.16-0.25,0.3
			c-0.05,0.1-0.07,0.36-0.07,0.79v5.55c0,0.43,0.02,0.7,0.07,0.81c0.05,0.11,0.14,0.2,0.28,0.28c0.14,0.08,0.32,0.12,0.56,0.12
			H331.72z M322.32,441.9c0.29,0,0.53,0.1,0.74,0.31c0.2,0.2,0.3,0.45,0.3,0.73c0,0.29-0.1,0.53-0.31,0.73
			c-0.2,0.2-0.45,0.3-0.73,0.3c-0.29,0-0.53-0.1-0.73-0.3c-0.2-0.2-0.3-0.44-0.3-0.73c0-0.29,0.1-0.53,0.3-0.73
			C321.79,442,322.03,441.9,322.32,441.9z M321.78,435.38v0.22c-0.16,0.01-0.29,0.06-0.4,0.13c-0.11,0.08-0.2,0.2-0.29,0.35
			c-0.02,0.05-0.15,0.37-0.39,0.97l-2.64,6.95h-0.23l-2.08-5.48l-2.31,5.48h-0.22l-2.78-6.88c-0.28-0.7-0.48-1.12-0.59-1.27
			c-0.11-0.15-0.3-0.23-0.57-0.26v-0.22h3.65v0.22c-0.29,0.01-0.49,0.05-0.59,0.13c-0.1,0.08-0.15,0.18-0.15,0.3
			c0,0.16,0.1,0.5,0.31,1.01l1.65,4.09l1.34-3.23l-0.33-0.87c-0.19-0.49-0.34-0.82-0.44-0.98c-0.1-0.16-0.22-0.28-0.36-0.35
			c-0.13-0.07-0.33-0.1-0.59-0.1v-0.22h4.05v0.22c-0.28,0-0.49,0.03-0.61,0.07c-0.09,0.03-0.15,0.08-0.21,0.15
			c-0.05,0.07-0.07,0.15-0.07,0.23c0,0.1,0.09,0.39,0.28,0.89l1.53,3.99l1.37-3.61c0.14-0.38,0.23-0.63,0.27-0.77
			c0.03-0.14,0.05-0.26,0.05-0.38c0-0.17-0.06-0.3-0.17-0.4c-0.11-0.1-0.34-0.15-0.66-0.16v-0.22H321.78z M304.65,441.9
			c0.29,0,0.54,0.1,0.74,0.31c0.2,0.2,0.3,0.45,0.3,0.73c0,0.29-0.1,0.53-0.3,0.73c-0.2,0.2-0.45,0.3-0.73,0.3
			c-0.29,0-0.53-0.1-0.73-0.3c-0.2-0.2-0.3-0.44-0.3-0.73c0-0.29,0.1-0.53,0.3-0.73C304.12,442,304.36,441.9,304.65,441.9z
			 M303.54,435.38v2.27h-0.22c-0.13-0.53-0.28-0.9-0.44-1.13c-0.16-0.23-0.38-0.41-0.66-0.55c-0.16-0.07-0.43-0.11-0.83-0.11h-0.64
			v6.51c0,0.43,0.02,0.7,0.07,0.81c0.05,0.11,0.14,0.2,0.27,0.28c0.14,0.08,0.32,0.12,0.56,0.12h0.27v0.22h-4.38v-0.22h0.28
			c0.24,0,0.44-0.04,0.58-0.13c0.11-0.06,0.19-0.16,0.25-0.3c0.04-0.1,0.07-0.36,0.07-0.79v-6.51h-0.61c-0.56,0-0.97,0.12-1.23,0.36
			c-0.36,0.34-0.58,0.81-0.68,1.43h-0.24v-2.27H303.54z"/>
		<g>
			<path class="st0" d="M309.07,485.64h-0.42c-0.38,0-0.71-0.15-0.95-0.43c-0.33-0.38-0.46-1-0.36-1.66
				c0.01-0.07,0.02-0.18,0.04-0.3c0.19-1.46,0.39-2.31,0.81-2.31h0.36c0.19,0,0.26,0.02,0.35,0.05c0.02,0.01,0.04,0.01,0.07,0.02
				c0.2-0.18,0.41-0.35,0.62-0.51c0.34-0.26,0.7-0.54,1.02-0.92c0.17-0.2,0.29-0.36,0.39-0.51c0.33-0.45,0.49-0.68,1.5-1
				c0.43-0.14,0.73-0.14,0.95-0.15c0.41-0.01,0.44-0.01,0.71-1.38c0.2-1.03,0.34-1.92,0.47-2.79c0.15-0.94,0.3-1.91,0.52-3.01
				l0.01-0.06l0.05-0.03c0.47-0.3,1.79-0.38,3.07-0.45c0.86-0.05,1.68-0.1,2.15-0.21l0.28-0.06l-0.45,1.01
				c0.36,0.47,1.38,1.16,2.36,1.83c1.69,1.14,2.71,1.88,2.71,2.42v0.28c0,0.38-0.3,0.7-0.58,1c-0.14,0.15-0.27,0.29-0.37,0.44
				c-0.2,0.3-0.36,0.57-0.52,0.85c-0.11,0.18-0.22,0.37-0.35,0.57c-0.18,0.29-0.43,0.8-0.67,1.29c-0.32,0.65-0.62,1.28-0.85,1.58
				c0.05,0.12,0.09,0.22,0.12,0.32c0.05,0.15,0.09,0.27,0.19,0.42c0.07,0.11,0.14,0.19,0.21,0.27c0.09,0.11,0.19,0.23,0.31,0.41
				c0.17,0.26,0.44,0.4,0.68,0.53c0.29,0.16,0.56,0.3,0.56,0.61c0,0.45-1.04,0.6-1.32,0.6c-0.6,0-2.98-1.56-3.21-2.01l-0.04-0.07
				l0.04-0.07c0.75-1.14,1.14-1.75,1.61-3.2c0.1-0.3,0.17-0.64,0.24-1c0.18-0.89,0.38-1.89,1.13-2.28c-0.29-0.1-0.79-0.19-1.1-0.25
				c-0.3-0.06-0.56-0.11-0.7-0.15c-0.68-0.23-1.18-0.39-1.77-0.77c-0.42,0.44-2.11,2.71-2.95,3.83c-0.3,0.4-0.54,0.72-0.66,0.88
				c-0.21,0.28-0.65,0.4-1.07,0.51c-0.19,0.05-0.38,0.1-0.54,0.17c-0.43,0.17-1.13,0.58-1.35,0.72c-0.38,0.23-0.77,0.49-1.14,0.75
				c-0.43,0.3-0.88,0.62-1.34,0.87v0.46l-0.07,0.04c-0.38,0.21-0.38,0.21-0.48,0.5c-0.02,0.07-0.05,0.15-0.08,0.26
				c-0.06,0.18-0.19,0.4-0.3,0.58c-0.06,0.11-0.15,0.25-0.16,0.29c0,0.2,0.05,0.31,0.12,0.45c0.07,0.16,0.15,0.33,0.16,0.64
				L309.07,485.64z M308.2,481.22c-0.1,0-0.3,0.27-0.54,2.07c-0.02,0.13-0.03,0.23-0.04,0.31c-0.09,0.57,0.02,1.11,0.29,1.43
				c0.19,0.22,0.44,0.33,0.74,0.33h0.12c-0.02-0.17-0.07-0.28-0.12-0.39c-0.07-0.15-0.14-0.31-0.14-0.57c0-0.09,0.07-0.2,0.2-0.43
				c0.1-0.16,0.22-0.37,0.27-0.53c0.03-0.1,0.06-0.18,0.08-0.25c0.11-0.36,0.15-0.42,0.54-0.63v-0.46l0.07-0.04
				c0.46-0.25,0.93-0.57,1.38-0.89c0.38-0.26,0.76-0.53,1.16-0.76c0.4-0.24,0.99-0.57,1.39-0.73c0.17-0.07,0.37-0.12,0.57-0.18
				c0.38-0.1,0.77-0.21,0.92-0.42c0.12-0.16,0.36-0.48,0.66-0.88c1.41-1.89,2.82-3.76,3.08-3.95l0.08-0.06l0.08,0.05
				c0.6,0.4,1.07,0.56,1.79,0.8c0.13,0.04,0.39,0.09,0.67,0.14c0.8,0.15,1.33,0.26,1.48,0.47l0.12,0.16l-0.2,0.05
				c-0.82,0.22-1.02,1.22-1.21,2.18c-0.07,0.35-0.14,0.71-0.25,1.03c-0.47,1.45-0.88,2.11-1.59,3.19c0.38,0.48,2.49,1.79,2.92,1.79
				c0.42,0,1.03-0.21,1.04-0.32c0-0.13-0.16-0.22-0.42-0.36c-0.26-0.14-0.57-0.31-0.78-0.63c-0.11-0.17-0.2-0.28-0.29-0.39
				c-0.07-0.09-0.14-0.18-0.22-0.29c-0.12-0.18-0.17-0.33-0.22-0.49c-0.04-0.11-0.07-0.23-0.14-0.36l-0.05-0.08l0.06-0.07
				c0.21-0.24,0.54-0.93,0.87-1.6c0.25-0.52,0.49-1.01,0.68-1.31c0.12-0.2,0.24-0.38,0.34-0.57c0.17-0.28,0.33-0.55,0.53-0.85
				c0.11-0.17,0.25-0.32,0.4-0.48c0.25-0.26,0.51-0.54,0.51-0.81v-0.28c0-0.44-1.43-1.41-2.59-2.19c-1.1-0.74-2.14-1.45-2.48-1.96
				l-0.04-0.07l0.29-0.65c-0.5,0.08-1.2,0.12-1.93,0.16c-1.14,0.07-2.43,0.14-2.89,0.38c-0.21,1.07-0.35,1.98-0.51,2.94
				c-0.13,0.87-0.28,1.77-0.47,2.8c-0.28,1.45-0.36,1.58-0.97,1.6c-0.2,0.01-0.48,0.01-0.87,0.14c-0.92,0.29-1.05,0.47-1.36,0.9
				c-0.1,0.14-0.23,0.32-0.4,0.52c-0.34,0.41-0.71,0.69-1.06,0.96c-0.23,0.18-0.45,0.35-0.65,0.54l-0.05,0.05l-0.07-0.02
				c-0.07-0.02-0.12-0.03-0.17-0.05c-0.07-0.02-0.12-0.04-0.25-0.04H308.2z"/>
			<path class="st4" d="M315.28,470.78c-0.42,2.1-0.58,3.66-0.99,5.8c-0.41,2.11-0.38,1.2-1.75,1.63c-1.28,0.4-1.11,0.62-1.83,1.46
				c-0.55,0.65-1.17,0.99-1.7,1.5c-0.2-0.05-0.21-0.09-0.45-0.09h-0.36c-0.45,0-0.64,1.99-0.72,2.49c-0.16,1,0.25,1.92,1.17,1.92
				h0.27c-0.01-0.56-0.27-0.62-0.27-1.1c0-0.12,0.36-0.58,0.47-0.91c0.2-0.58,0.09-0.56,0.62-0.84v-0.46
				c0.86-0.46,1.68-1.15,2.54-1.65c0.39-0.23,0.98-0.57,1.37-0.73c0.52-0.21,1.28-0.28,1.55-0.64c0.54-0.7,3.36-4.55,3.71-4.8
				c0.6,0.41,1.09,0.57,1.83,0.82c0.41,0.13,1.89,0.3,2.08,0.56c-1.23,0.33-1.17,2.13-1.56,3.3c-0.47,1.45-0.87,2.09-1.62,3.23
				c0.23,0.43,2.56,1.93,3.09,1.93c0.33,0,1.18-0.18,1.18-0.46c0-0.43-0.84-0.48-1.22-1.06c-0.2-0.31-0.34-0.43-0.51-0.68
				c-0.2-0.28-0.19-0.51-0.36-0.83c0.38-0.45,1.13-2.23,1.56-2.93c0.32-0.51,0.55-0.92,0.87-1.42c0.29-0.45,0.93-0.86,0.93-1.36
				v-0.28c0-0.93-4.36-3.13-5.09-4.23l0.37-0.82C319.28,470.42,316.03,470.3,315.28,470.78"/>
			<path class="st0" d="M315.48,470.11l0.41-0.6l1.18-2.38l0.26-0.9l0.49-1.16c-0.62-0.19-0.96-0.6-1.25-0.94
				c-0.22-0.26-0.39-0.47-0.62-0.48l-0.06,0.03c-0.54,0.29-1.3,0.69-1.59,0.77c-0.79,0.21-1.1,0.35-1.67,0.73
				c-0.19,0.14-0.26,0.35-0.32,0.57c-0.11,0.35-0.24,0.75-0.94,0.75h-0.18c-0.36,0-0.47-0.35-0.55-0.61
				c-0.04-0.11-0.07-0.21-0.11-0.28l-0.02-0.03v-0.36l0.02-0.04c0.27-0.42,0.6-0.54,0.95-0.67c0.15-0.06,0.3-0.12,0.47-0.2
				c0.46-0.24,0.65-0.43,0.96-0.75l0.16-0.17c0.81-0.83,1.14-0.94,1.62-1.1c0.27-0.09,0.58-0.2,1.07-0.46l0.05-0.02l0.05,0.01
				c0.2,0.05,1.91,0.45,2.42,0.73c0.19,0.1,0.34,0.2,0.48,0.28c0.5,0.3,0.76,0.45,1.54,0.46c0.17-0.25,0.29-0.44,0.3-0.84
				c-0.09-0.15-0.27-0.44-0.27-0.86v-0.46c0-0.71,1.21-1.52,1.59-1.52c0.86,0,2.34,0.78,2.41,1.6l0.01,0.15h-0.19v0.92h-0.17l0.11,1
				l-0.14,0.01c-0.28,0.02-0.38,0.22-0.52,0.54c-0.1,0.22-0.2,0.48-0.43,0.64l-0.07,0.05l-0.07-0.04c-0.05-0.03-0.12-0.08-0.2-0.13
				c-0.12-0.08-0.49-0.32-0.57-0.28c0,0-0.01,0.02-0.01,0.1v0.09c0,0.23,1.04,1.06,1.5,1.32c0.57,0.32,0.78,0.66,0.97,0.96
				c0.11,0.19,0.22,0.35,0.39,0.49c0.34-0.22,0.64-0.39,0.94-0.55c0.71-0.39,1.26-0.7,1.82-1.52l-0.11-0.75l0.93-0.88l0.15,0.18
				c0.16,0.09,0.86,0.51,0.86,0.94c0,0.22-0.32,0.62-1.04,1.49c-0.36,0.44-0.74,0.89-0.89,1.15c-0.28,0.49-1.75,2.1-2.48,2.1
				c-0.05,0-0.08,0-1.47-0.65l-0.22-0.1c-0.39-0.18-0.8-0.5-1.07-0.71c-0.06-0.05-0.13-0.1-0.18-0.14l-0.43,0.75
				c-0.13,0.09-0.26,0.22-0.4,0.37c-0.16,0.16-0.34,0.35-0.56,0.5c-0.07,0.05-0.19,0.11-0.31,0.19c-0.2,0.12-0.62,0.36-0.67,0.45
				l-0.04,0.09l-0.09,0c-0.32,0-0.5,0.04-0.68,0.09c-0.18,0.04-0.37,0.09-0.68,0.09L315.48,470.11z M315.92,463.38
				c0.37,0,0.61,0.28,0.86,0.58c0.29,0.35,0.63,0.74,1.26,0.89l0.16,0.04l-0.61,1.44l-0.27,0.91l-1.2,2.42l-0.12,0.17l2.27-0.01
				c0.27,0,0.44-0.04,0.61-0.08c0.18-0.05,0.37-0.09,0.68-0.1c0.12-0.14,0.38-0.29,0.74-0.5c0.12-0.07,0.23-0.13,0.3-0.18
				c0.2-0.13,0.36-0.3,0.52-0.46c0.14-0.14,0.27-0.28,0.42-0.38l0.49-0.9l0.11,0.03c0.07,0.02,0.16,0.09,0.37,0.25
				c0.26,0.2,0.66,0.51,1.01,0.68l0.22,0.1c0.35,0.16,1.28,0.59,1.38,0.62c0.49,0,1.88-1.39,2.21-1.96
				c0.16-0.28,0.53-0.72,0.92-1.19c0.38-0.46,0.96-1.15,0.97-1.31c0-0.19-0.39-0.51-0.74-0.7l-0.01-0.01l-0.61,0.58l0.1,0.72
				l-0.03,0.04c-0.6,0.91-1.23,1.26-1.95,1.65c-0.31,0.17-0.64,0.35-0.99,0.59l-0.08,0.05l-0.08-0.05
				c-0.27-0.18-0.41-0.41-0.55-0.63c-0.18-0.29-0.36-0.59-0.86-0.87c-0.16-0.09-1.65-1.07-1.65-1.56v-0.09
				c0-0.17,0.05-0.28,0.16-0.34c0.23-0.12,0.56,0.09,0.86,0.29c0.04,0.02,0.07,0.05,0.11,0.07c0.12-0.11,0.19-0.28,0.27-0.46
				c0.12-0.28,0.25-0.59,0.61-0.69l-0.11-1.03h0.2v-0.92h0.15c-0.22-0.58-1.38-1.19-2.1-1.19c-0.23,0-1.31,0.7-1.31,1.24v0.46
				c0,0.36,0.15,0.6,0.22,0.7c0.03,0.05,0.05,0.08,0.05,0.13c0,0.51-0.17,0.76-0.35,1.03l-0.08,0.12h-0.08
				c-0.92,0-1.22-0.18-1.76-0.5c-0.13-0.08-0.29-0.17-0.47-0.27c-0.37-0.2-1.59-0.52-2.29-0.69c-0.48,0.25-0.8,0.36-1.06,0.46
				c-0.47,0.16-0.75,0.26-1.52,1.04l-0.16,0.16c-0.32,0.33-0.53,0.55-1.03,0.8c-0.18,0.09-0.35,0.16-0.49,0.21
				c-0.32,0.12-0.57,0.22-0.79,0.53v0.2c0.05,0.09,0.08,0.2,0.12,0.31c0.08,0.26,0.14,0.42,0.29,0.42h0.18
				c0.5,0,0.56-0.22,0.67-0.55c0.08-0.24,0.16-0.51,0.43-0.71c0.6-0.41,0.94-0.56,1.76-0.78c0.19-0.05,0.71-0.3,1.53-0.75
				C315.88,463.38,315.88,463.38,315.92,463.38z"/>
			<path class="st4" d="M310.65,465.54c0.16,0.26,0.17,0.83,0.54,0.83h0.18c1,0,0.6-0.86,1.18-1.29c0.58-0.4,0.92-0.54,1.71-0.75
				c0.37-0.1,1.64-0.81,1.65-0.81c0.68,0,0.86,1.18,2.09,1.47l-0.55,1.29l-0.27,0.92l-1.19,2.4l-0.26,0.38l1.54-0.02h1
				c0.6,0,0.7-0.18,1.36-0.18c0.07-0.18,0.81-0.54,1.04-0.7c0.39-0.26,0.65-0.65,0.96-0.87l0.45-0.83c0.13,0.03,0.77,0.65,1.36,0.92
				c0.18,0.08,1.57,0.74,1.63,0.74c0.61,0,2.04-1.48,2.36-2.03c0.36-0.63,1.91-2.24,1.91-2.57c0-0.32-0.58-0.7-0.82-0.83l-0.07-0.08
				l-0.77,0.73l0.11,0.73c-0.84,1.27-1.71,1.4-2.91,2.21c-0.58-0.39-0.49-0.98-1.42-1.5c-0.34-0.19-1.58-1.08-1.58-1.44v-0.09
				c0-0.57,0.73,0.04,1,0.18c0.47-0.32,0.36-1.14,1.02-1.2l-0.11-1.01H324v-0.92h0.18c-0.06-0.71-1.46-1.47-2.27-1.47
				c-0.31,0-1.45,0.75-1.45,1.38v0.46c0,0.5,0.27,0.8,0.27,0.83c0,0.5-0.17,0.72-0.36,1.01c-1.11,0-1.26-0.26-2.16-0.75
				c-0.43-0.23-1.84-0.59-2.38-0.72c-1.38,0.74-1.42,0.29-2.66,1.54c-0.43,0.43-0.6,0.66-1.16,0.94c-0.57,0.29-1.01,0.28-1.36,0.83
				V465.54z"/>
			<path d="M301.14,480.44l0.35-3.27l0.44,0.01c2.41,0,5.45-2.85,6.64-4.07c1.71-1.75,3.7-3.47,7.53-3.47l0.02,0l1.18,0.18l0.98,0
				c0.27,0,0.44-0.04,0.61-0.08c0.18-0.05,0.37-0.09,0.68-0.1c0.12-0.14,0.38-0.29,0.74-0.5c0.12-0.07,0.23-0.13,0.3-0.18
				c0.2-0.13,0.36-0.3,0.51-0.46c0.15-0.15,0.29-0.3,0.45-0.4l0.22-0.15v0.26c0,1.06-0.6,1.61-1.24,2.05l-0.05,0.02
				c-0.21,0.05-0.4,0.1-0.57,0.14c-0.56,0.14-1,0.26-1.91,0.32c-0.12,0.01-0.36,0.01-0.64,0.02c-0.64,0.01-1.82,0.02-2.02,0.15
				l-0.03,0.02h-0.04c-3.27,0-5.14,2.16-7.11,4.44c-1.82,2.11-3.71,4.29-6.84,5.03L301.14,480.44z M301.74,477.45l-0.28,2.62
				c2.93-0.76,4.75-2.86,6.5-4.89c2.01-2.33,3.92-4.52,7.29-4.54c0.29-0.14,1.14-0.16,2.13-0.17c0.27,0,0.5,0,0.62-0.01
				c0.88-0.06,1.29-0.17,1.86-0.31c0.17-0.04,0.34-0.09,0.55-0.14c0.58-0.39,0.98-0.81,1.08-1.48c-0.05,0.05-0.11,0.11-0.16,0.17
				c-0.16,0.16-0.34,0.35-0.56,0.5c-0.07,0.05-0.19,0.11-0.31,0.19c-0.2,0.12-0.62,0.36-0.67,0.45l-0.04,0.09l-0.09,0
				c-0.32,0-0.5,0.04-0.68,0.09c-0.18,0.04-0.37,0.09-0.68,0.09h-1l-1.19-0.18c-3.7,0-5.64,1.67-7.31,3.38
				c-1.22,1.25-4.33,4.16-6.84,4.16L301.74,477.45z"/>
			<path class="st5" d="M316.1,469.77c-3.63,0-5.6,1.56-7.42,3.43c-1.3,1.33-4.34,4.12-6.74,4.12l-0.32,0l-0.32,2.95
				c6.51-1.54,7.65-9.47,13.99-9.47c0.32-0.2,2.27-0.15,2.72-0.18c1.16-0.08,1.53-0.24,2.45-0.46c0.6-0.4,1.18-0.93,1.18-1.93
				c-0.31,0.21-0.57,0.6-0.96,0.87c-0.23,0.16-0.97,0.52-1.04,0.7c-0.66,0-0.76,0.18-1.36,0.18h-1L316.1,469.77z"/>
			<path d="M305.26,467.85c-1.28,0-2.47-0.25-2.99-1.04l-0.04-0.07l1.23-2.33l0.1,0.31c0.58,1.8,4.27,1.15,6.25,0.8
				c0.33-0.06,0.61-0.11,0.82-0.13l0.09-0.01l0.05,0.08c0.06,0.1,0.1,0.22,0.14,0.34c0.08,0.26,0.14,0.42,0.29,0.42h0.18
				c0.5,0,0.56-0.22,0.67-0.55c0.08-0.24,0.16-0.51,0.43-0.71l0.08-0.06l0.08,0.05c0.09,0.06,0.63,0.13,1.15,0.2
				c1.3,0.17,3.08,0.4,3.77,1.01l0.07,0.06l-0.35,1.19l-0.16-0.11c-0.49-0.35-2.71-0.8-3.64-0.8h-0.45c-0.82,0-1.97,0.31-2.89,0.57
				c-0.23,0.06-0.44,0.12-0.62,0.17C308.72,467.44,306.91,467.85,305.26,467.85 M302.55,466.72c1.2,1.6,5.94,0.49,6.89,0.25
				c0.18-0.05,0.39-0.11,0.62-0.17c0.35-0.1,0.74-0.2,1.13-0.3c-0.35-0.01-0.46-0.36-0.54-0.61c-0.02-0.07-0.05-0.14-0.07-0.2
				c-0.2,0.03-0.44,0.07-0.71,0.12c-1.96,0.35-5.54,0.98-6.45-0.71L302.55,466.72z M313.01,466.23h0.45c0.92,0,2.9,0.39,3.64,0.76
				l0.2-0.66c-0.69-0.52-2.41-0.74-3.56-0.89c-0.62-0.08-0.98-0.13-1.17-0.19c-0.15,0.14-0.21,0.32-0.27,0.52
				c-0.06,0.21-0.13,0.43-0.32,0.57C312.35,466.27,312.7,466.23,313.01,466.23z"/>
			<path class="st5" d="M317.19,467.2l0.27-0.92c-1-0.88-4.54-0.96-4.9-1.2c-0.58,0.43-0.18,1.29-1.18,1.29h-0.18
				c-0.37,0-0.38-0.57-0.54-0.83c-1.52,0.2-6.51,1.47-7.23-0.76l-1.04,1.96c1.12,1.7,5.71,0.72,7.08,0.37
				c0.94-0.24,2.5-0.74,3.54-0.74h0.45C314.43,466.37,316.67,466.83,317.19,467.2"/>
			<path class="st0" d="M309.07,485.64h-0.42c-0.38,0-0.71-0.15-0.95-0.43c-0.33-0.38-0.46-1-0.36-1.66
				c0.01-0.07,0.02-0.18,0.04-0.3c0.19-1.46,0.39-2.31,0.81-2.31h0.36c0.19,0,0.26,0.02,0.35,0.05c0.02,0.01,0.04,0.01,0.07,0.02
				c0.2-0.18,0.41-0.35,0.62-0.51c0.34-0.26,0.7-0.54,1.02-0.92c0.17-0.2,0.29-0.36,0.39-0.51c0.33-0.45,0.49-0.68,1.5-1
				c0.43-0.14,0.73-0.14,0.95-0.15c0.41-0.01,0.44-0.01,0.71-1.38c0.2-1.03,0.34-1.92,0.47-2.79c0.15-0.94,0.3-1.91,0.52-3.01
				l0.01-0.06l0.05-0.03c0.47-0.3,1.79-0.38,3.07-0.45c0.86-0.05,1.68-0.1,2.15-0.21l0.28-0.06l-0.45,1.01
				c0.36,0.47,1.38,1.16,2.36,1.83c1.69,1.14,2.71,1.88,2.71,2.42v0.28c0,0.38-0.3,0.7-0.58,1c-0.14,0.15-0.27,0.29-0.37,0.44
				c-0.2,0.3-0.36,0.57-0.52,0.85c-0.11,0.18-0.22,0.37-0.35,0.57c-0.18,0.29-0.43,0.8-0.67,1.29c-0.32,0.65-0.62,1.28-0.85,1.58
				c0.05,0.12,0.09,0.22,0.12,0.32c0.05,0.15,0.09,0.27,0.19,0.42c0.07,0.11,0.14,0.19,0.21,0.27c0.09,0.11,0.19,0.23,0.31,0.41
				c0.17,0.26,0.44,0.4,0.68,0.53c0.29,0.16,0.56,0.3,0.56,0.61c0,0.45-1.04,0.6-1.32,0.6c-0.6,0-2.98-1.56-3.21-2.01l-0.04-0.07
				l0.04-0.07c0.75-1.14,1.14-1.75,1.61-3.2c0.1-0.3,0.17-0.64,0.24-1c0.18-0.89,0.38-1.89,1.13-2.28c-0.29-0.1-0.79-0.19-1.1-0.25
				c-0.3-0.06-0.56-0.11-0.7-0.15c-0.68-0.23-1.18-0.39-1.77-0.77c-0.42,0.44-2.11,2.71-2.95,3.83c-0.3,0.4-0.54,0.72-0.66,0.88
				c-0.21,0.28-0.65,0.4-1.07,0.51c-0.19,0.05-0.38,0.1-0.54,0.17c-0.43,0.17-1.13,0.58-1.35,0.72c-0.38,0.23-0.77,0.49-1.14,0.75
				c-0.43,0.3-0.88,0.62-1.34,0.87v0.46l-0.07,0.04c-0.38,0.21-0.38,0.21-0.48,0.5c-0.02,0.07-0.05,0.15-0.08,0.26
				c-0.06,0.18-0.19,0.4-0.3,0.58c-0.06,0.11-0.15,0.25-0.16,0.29c0,0.2,0.05,0.31,0.12,0.45c0.07,0.16,0.15,0.33,0.16,0.64
				L309.07,485.64z M308.2,481.22c-0.1,0-0.3,0.27-0.54,2.07c-0.02,0.13-0.03,0.23-0.04,0.31c-0.09,0.57,0.02,1.11,0.29,1.43
				c0.19,0.22,0.44,0.33,0.74,0.33h0.12c-0.02-0.17-0.07-0.28-0.12-0.39c-0.07-0.15-0.14-0.31-0.14-0.57c0-0.09,0.07-0.2,0.2-0.43
				c0.1-0.16,0.22-0.37,0.27-0.53c0.03-0.1,0.06-0.18,0.08-0.25c0.11-0.36,0.15-0.42,0.54-0.63v-0.46l0.07-0.04
				c0.46-0.25,0.93-0.57,1.38-0.89c0.38-0.26,0.76-0.53,1.16-0.76c0.4-0.24,0.99-0.57,1.39-0.73c0.17-0.07,0.37-0.12,0.57-0.18
				c0.38-0.1,0.77-0.21,0.92-0.42c0.12-0.16,0.36-0.48,0.66-0.88c1.41-1.89,2.82-3.76,3.08-3.95l0.08-0.06l0.08,0.05
				c0.6,0.4,1.07,0.56,1.79,0.8c0.13,0.04,0.39,0.09,0.67,0.14c0.8,0.15,1.33,0.26,1.48,0.47l0.12,0.16l-0.2,0.05
				c-0.82,0.22-1.02,1.22-1.21,2.18c-0.07,0.35-0.14,0.71-0.25,1.03c-0.47,1.45-0.88,2.11-1.59,3.19c0.38,0.48,2.49,1.79,2.92,1.79
				c0.42,0,1.03-0.21,1.04-0.32c0-0.13-0.16-0.22-0.42-0.36c-0.26-0.14-0.57-0.31-0.78-0.63c-0.11-0.17-0.2-0.28-0.29-0.39
				c-0.07-0.09-0.14-0.18-0.22-0.29c-0.12-0.18-0.17-0.33-0.22-0.49c-0.04-0.11-0.07-0.23-0.14-0.36l-0.05-0.08l0.06-0.07
				c0.21-0.24,0.54-0.93,0.87-1.6c0.25-0.52,0.49-1.01,0.68-1.31c0.12-0.2,0.24-0.38,0.34-0.57c0.17-0.28,0.33-0.55,0.53-0.85
				c0.11-0.17,0.25-0.32,0.4-0.48c0.25-0.26,0.51-0.54,0.51-0.81v-0.28c0-0.44-1.43-1.41-2.59-2.19c-1.1-0.74-2.14-1.45-2.48-1.96
				l-0.04-0.07l0.29-0.65c-0.5,0.08-1.2,0.12-1.93,0.16c-1.14,0.07-2.43,0.14-2.89,0.38c-0.21,1.07-0.35,1.98-0.51,2.94
				c-0.13,0.87-0.28,1.77-0.47,2.8c-0.28,1.45-0.36,1.58-0.97,1.6c-0.2,0.01-0.48,0.01-0.87,0.14c-0.92,0.29-1.05,0.47-1.36,0.9
				c-0.1,0.14-0.23,0.32-0.4,0.52c-0.34,0.41-0.71,0.69-1.06,0.96c-0.23,0.18-0.45,0.35-0.65,0.54l-0.05,0.05l-0.07-0.02
				c-0.07-0.02-0.12-0.03-0.17-0.05c-0.07-0.02-0.12-0.04-0.25-0.04H308.2z"/>
			<path class="st4" d="M315.28,470.78c-0.42,2.1-0.58,3.66-0.99,5.8c-0.41,2.11-0.38,1.2-1.75,1.63c-1.28,0.4-1.11,0.62-1.83,1.46
				c-0.55,0.65-1.17,0.99-1.7,1.5c-0.2-0.05-0.21-0.09-0.45-0.09h-0.36c-0.45,0-0.64,1.99-0.72,2.49c-0.16,1,0.25,1.92,1.17,1.92
				h0.27c-0.01-0.56-0.27-0.62-0.27-1.1c0-0.12,0.36-0.58,0.47-0.91c0.2-0.58,0.09-0.56,0.62-0.84v-0.46
				c0.86-0.46,1.68-1.15,2.54-1.65c0.39-0.23,0.98-0.57,1.37-0.73c0.52-0.21,1.28-0.28,1.55-0.64c0.54-0.7,3.36-4.55,3.71-4.8
				c0.6,0.41,1.09,0.57,1.83,0.82c0.41,0.13,1.89,0.3,2.08,0.56c-1.23,0.33-1.17,2.13-1.56,3.3c-0.47,1.45-0.87,2.09-1.62,3.23
				c0.23,0.43,2.56,1.93,3.09,1.93c0.33,0,1.18-0.18,1.18-0.46c0-0.43-0.84-0.48-1.22-1.06c-0.2-0.31-0.34-0.43-0.51-0.68
				c-0.2-0.28-0.19-0.51-0.36-0.83c0.38-0.45,1.13-2.23,1.56-2.93c0.32-0.51,0.55-0.92,0.87-1.42c0.29-0.45,0.93-0.86,0.93-1.36
				v-0.28c0-0.93-4.36-3.13-5.09-4.23l0.37-0.82C319.28,470.42,316.03,470.3,315.28,470.78"/>
			<path class="st0" d="M315.48,470.11l0.41-0.6l1.18-2.38l0.26-0.9l0.49-1.16c-0.62-0.19-0.96-0.6-1.25-0.94
				c-0.22-0.26-0.39-0.47-0.62-0.48l-0.06,0.03c-0.54,0.29-1.3,0.69-1.59,0.77c-0.79,0.21-1.1,0.35-1.67,0.73
				c-0.19,0.14-0.26,0.35-0.32,0.57c-0.11,0.35-0.24,0.75-0.94,0.75h-0.18c-0.36,0-0.47-0.35-0.55-0.61
				c-0.04-0.11-0.07-0.21-0.11-0.28l-0.02-0.03v-0.36l0.02-0.04c0.27-0.42,0.6-0.54,0.95-0.67c0.15-0.06,0.3-0.12,0.47-0.2
				c0.46-0.24,0.65-0.43,0.96-0.75l0.16-0.17c0.81-0.83,1.14-0.94,1.62-1.1c0.27-0.09,0.58-0.2,1.07-0.46l0.05-0.02l0.05,0.01
				c0.2,0.05,1.91,0.45,2.42,0.73c0.19,0.1,0.34,0.2,0.48,0.28c0.5,0.3,0.76,0.45,1.54,0.46c0.17-0.25,0.29-0.44,0.3-0.84
				c-0.09-0.15-0.27-0.44-0.27-0.86v-0.46c0-0.71,1.21-1.52,1.59-1.52c0.86,0,2.34,0.78,2.41,1.6l0.01,0.15h-0.19v0.92h-0.17l0.11,1
				l-0.14,0.01c-0.28,0.02-0.38,0.22-0.52,0.54c-0.1,0.22-0.2,0.48-0.43,0.64l-0.07,0.05l-0.07-0.04c-0.05-0.03-0.12-0.08-0.2-0.13
				c-0.12-0.08-0.49-0.32-0.57-0.28c0,0-0.01,0.02-0.01,0.1v0.09c0,0.23,1.04,1.06,1.5,1.32c0.57,0.32,0.78,0.66,0.97,0.96
				c0.11,0.19,0.22,0.35,0.39,0.49c0.34-0.22,0.64-0.39,0.94-0.55c0.71-0.39,1.26-0.7,1.82-1.52l-0.11-0.75l0.93-0.88l0.15,0.18
				c0.16,0.09,0.86,0.51,0.86,0.94c0,0.22-0.32,0.62-1.04,1.49c-0.36,0.44-0.74,0.89-0.89,1.15c-0.28,0.49-1.75,2.1-2.48,2.1
				c-0.05,0-0.08,0-1.47-0.65l-0.22-0.1c-0.39-0.18-0.8-0.5-1.07-0.71c-0.06-0.05-0.13-0.1-0.18-0.14l-0.43,0.75
				c-0.13,0.09-0.26,0.22-0.4,0.37c-0.16,0.16-0.34,0.35-0.56,0.5c-0.07,0.05-0.19,0.11-0.31,0.19c-0.2,0.12-0.62,0.36-0.67,0.45
				l-0.04,0.09l-0.09,0c-0.32,0-0.5,0.04-0.68,0.09c-0.18,0.04-0.37,0.09-0.68,0.09L315.48,470.11z M315.92,463.38
				c0.37,0,0.61,0.28,0.86,0.58c0.29,0.35,0.63,0.74,1.26,0.89l0.16,0.04l-0.61,1.44l-0.27,0.91l-1.2,2.42l-0.12,0.17l2.27-0.01
				c0.27,0,0.44-0.04,0.61-0.08c0.18-0.05,0.37-0.09,0.68-0.1c0.12-0.14,0.38-0.29,0.74-0.5c0.12-0.07,0.23-0.13,0.3-0.18
				c0.2-0.13,0.36-0.3,0.52-0.46c0.14-0.14,0.27-0.28,0.42-0.38l0.49-0.9l0.11,0.03c0.07,0.02,0.16,0.09,0.37,0.25
				c0.26,0.2,0.66,0.51,1.01,0.68l0.22,0.1c0.35,0.16,1.28,0.59,1.38,0.62c0.49,0,1.88-1.39,2.21-1.96
				c0.16-0.28,0.53-0.72,0.92-1.19c0.38-0.46,0.96-1.15,0.97-1.31c0-0.19-0.39-0.51-0.74-0.7l-0.01-0.01l-0.61,0.58l0.1,0.72
				l-0.03,0.04c-0.6,0.91-1.23,1.26-1.95,1.65c-0.31,0.17-0.64,0.35-0.99,0.59l-0.08,0.05l-0.08-0.05
				c-0.27-0.18-0.41-0.41-0.55-0.63c-0.18-0.29-0.36-0.59-0.86-0.87c-0.16-0.09-1.65-1.07-1.65-1.56v-0.09
				c0-0.17,0.05-0.28,0.16-0.34c0.23-0.12,0.56,0.09,0.86,0.29c0.04,0.02,0.07,0.05,0.11,0.07c0.12-0.11,0.19-0.28,0.27-0.46
				c0.12-0.28,0.25-0.59,0.61-0.69l-0.11-1.03h0.2v-0.92h0.15c-0.22-0.58-1.38-1.19-2.1-1.19c-0.23,0-1.31,0.7-1.31,1.24v0.46
				c0,0.36,0.15,0.6,0.22,0.7c0.03,0.05,0.05,0.08,0.05,0.13c0,0.51-0.17,0.76-0.35,1.03l-0.08,0.12h-0.08
				c-0.92,0-1.22-0.18-1.76-0.5c-0.13-0.08-0.29-0.17-0.47-0.27c-0.37-0.2-1.59-0.52-2.29-0.69c-0.48,0.25-0.8,0.36-1.06,0.46
				c-0.47,0.16-0.75,0.26-1.52,1.04l-0.16,0.16c-0.32,0.33-0.53,0.55-1.03,0.8c-0.18,0.09-0.35,0.16-0.49,0.21
				c-0.32,0.12-0.57,0.22-0.79,0.53v0.2c0.05,0.09,0.08,0.2,0.12,0.31c0.08,0.26,0.14,0.42,0.29,0.42h0.18
				c0.5,0,0.56-0.22,0.67-0.55c0.08-0.24,0.16-0.51,0.43-0.71c0.6-0.41,0.94-0.56,1.76-0.78c0.19-0.05,0.71-0.3,1.53-0.75
				C315.88,463.38,315.88,463.38,315.92,463.38z"/>
			<path class="st4" d="M310.65,465.54c0.16,0.26,0.17,0.83,0.54,0.83h0.18c1,0,0.6-0.86,1.18-1.29c0.58-0.4,0.92-0.54,1.71-0.75
				c0.37-0.1,1.64-0.81,1.65-0.81c0.68,0,0.86,1.18,2.09,1.47l-0.55,1.29l-0.27,0.92l-1.19,2.4l-0.26,0.38l1.54-0.02h1
				c0.6,0,0.7-0.18,1.36-0.18c0.07-0.18,0.81-0.54,1.04-0.7c0.39-0.26,0.65-0.65,0.96-0.87l0.45-0.83c0.13,0.03,0.77,0.65,1.36,0.92
				c0.18,0.08,1.57,0.74,1.63,0.74c0.61,0,2.04-1.48,2.36-2.03c0.36-0.63,1.91-2.24,1.91-2.57c0-0.32-0.58-0.7-0.82-0.83l-0.07-0.08
				l-0.77,0.73l0.11,0.73c-0.84,1.27-1.71,1.4-2.91,2.21c-0.58-0.39-0.49-0.98-1.42-1.5c-0.34-0.19-1.58-1.08-1.58-1.44v-0.09
				c0-0.57,0.73,0.04,1,0.18c0.47-0.32,0.36-1.14,1.02-1.2l-0.11-1.01H324v-0.92h0.18c-0.06-0.71-1.46-1.47-2.27-1.47
				c-0.31,0-1.45,0.75-1.45,1.38v0.46c0,0.5,0.27,0.8,0.27,0.83c0,0.5-0.17,0.72-0.36,1.01c-1.11,0-1.26-0.26-2.16-0.75
				c-0.43-0.23-1.84-0.59-2.38-0.72c-1.38,0.74-1.42,0.29-2.66,1.54c-0.43,0.43-0.6,0.66-1.16,0.94c-0.57,0.29-1.01,0.28-1.36,0.83
				V465.54z"/>
			<path d="M301.14,480.44l0.35-3.27l0.44,0.01c2.41,0,5.45-2.85,6.64-4.07c1.71-1.75,3.7-3.47,7.53-3.47l0.02,0l1.18,0.18l0.98,0
				c0.27,0,0.44-0.04,0.61-0.08c0.18-0.05,0.37-0.09,0.68-0.1c0.12-0.14,0.38-0.29,0.74-0.5c0.12-0.07,0.23-0.13,0.3-0.18
				c0.2-0.13,0.36-0.3,0.51-0.46c0.15-0.15,0.29-0.3,0.45-0.4l0.22-0.15v0.26c0,1.06-0.6,1.61-1.24,2.05l-0.05,0.02
				c-0.21,0.05-0.4,0.1-0.57,0.14c-0.56,0.14-1,0.26-1.91,0.32c-0.12,0.01-0.36,0.01-0.64,0.02c-0.64,0.01-1.82,0.02-2.02,0.15
				l-0.03,0.02h-0.04c-3.27,0-5.14,2.16-7.11,4.44c-1.82,2.11-3.71,4.29-6.84,5.03L301.14,480.44z M301.74,477.45l-0.28,2.62
				c2.93-0.76,4.75-2.86,6.5-4.89c2.01-2.33,3.92-4.52,7.29-4.54c0.29-0.14,1.14-0.16,2.13-0.17c0.27,0,0.5,0,0.62-0.01
				c0.88-0.06,1.29-0.17,1.86-0.31c0.17-0.04,0.34-0.09,0.55-0.14c0.58-0.39,0.98-0.81,1.08-1.48c-0.05,0.05-0.11,0.11-0.16,0.17
				c-0.16,0.16-0.34,0.35-0.56,0.5c-0.07,0.05-0.19,0.11-0.31,0.19c-0.2,0.12-0.62,0.36-0.67,0.45l-0.04,0.09l-0.09,0
				c-0.32,0-0.5,0.04-0.68,0.09c-0.18,0.04-0.37,0.09-0.68,0.09h-1l-1.19-0.18c-3.7,0-5.64,1.67-7.31,3.38
				c-1.22,1.25-4.33,4.16-6.84,4.16L301.74,477.45z"/>
			<path class="st5" d="M316.1,469.77c-3.63,0-5.6,1.56-7.42,3.43c-1.3,1.33-4.34,4.12-6.74,4.12l-0.32,0l-0.32,2.95
				c6.51-1.54,7.65-9.47,13.99-9.47c0.32-0.2,2.27-0.15,2.72-0.18c1.16-0.08,1.53-0.24,2.45-0.46c0.6-0.4,1.18-0.93,1.18-1.93
				c-0.31,0.21-0.57,0.6-0.96,0.87c-0.23,0.16-0.97,0.52-1.04,0.7c-0.66,0-0.76,0.18-1.36,0.18h-1L316.1,469.77z"/>
			<path d="M305.26,467.85c-1.28,0-2.47-0.25-2.99-1.04l-0.04-0.07l1.23-2.33l0.1,0.31c0.58,1.8,4.27,1.15,6.25,0.8
				c0.33-0.06,0.61-0.11,0.82-0.13l0.09-0.01l0.05,0.08c0.06,0.1,0.1,0.22,0.14,0.34c0.08,0.26,0.14,0.42,0.29,0.42h0.18
				c0.5,0,0.56-0.22,0.67-0.55c0.08-0.24,0.16-0.51,0.43-0.71l0.08-0.06l0.08,0.05c0.09,0.06,0.63,0.13,1.15,0.2
				c1.3,0.17,3.08,0.4,3.77,1.01l0.07,0.06l-0.35,1.19l-0.16-0.11c-0.49-0.35-2.71-0.8-3.64-0.8h-0.45c-0.82,0-1.97,0.31-2.89,0.57
				c-0.23,0.06-0.44,0.12-0.62,0.17C308.72,467.44,306.91,467.85,305.26,467.85 M302.55,466.72c1.2,1.6,5.94,0.49,6.89,0.25
				c0.18-0.05,0.39-0.11,0.62-0.17c0.35-0.1,0.74-0.2,1.13-0.3c-0.35-0.01-0.46-0.36-0.54-0.61c-0.02-0.07-0.05-0.14-0.07-0.2
				c-0.2,0.03-0.44,0.07-0.71,0.12c-1.96,0.35-5.54,0.98-6.45-0.71L302.55,466.72z M313.01,466.23h0.45c0.92,0,2.9,0.39,3.64,0.76
				l0.2-0.66c-0.69-0.52-2.41-0.74-3.56-0.89c-0.62-0.08-0.98-0.13-1.17-0.19c-0.15,0.14-0.21,0.32-0.27,0.52
				c-0.06,0.21-0.13,0.43-0.32,0.57C312.35,466.27,312.7,466.23,313.01,466.23z"/>
			<path class="st5" d="M317.19,467.2l0.27-0.92c-1-0.88-4.54-0.96-4.9-1.2c-0.58,0.43-0.18,1.29-1.18,1.29h-0.18
				c-0.37,0-0.38-0.57-0.54-0.83c-1.52,0.2-6.51,1.47-7.23-0.76l-1.04,1.96c1.12,1.7,5.71,0.72,7.08,0.37
				c0.94-0.24,2.5-0.74,3.54-0.74h0.45C314.43,466.37,316.67,466.83,317.19,467.2"/>
		</g>
	</g>
	<g>
		<path class="st6" d="M519.41,509.38c-188.24,2.65-78.31-38.05-90.33-33.22c-6.65,2.68-11.15,16.09-2.69,19.36
			c19.37,7.47,107.04,7.87,202.19,7.68c63.02-0.13,129.33-0.52,181.24,0.69C710.78,505.77,618.46,507.51,519.41,509.38"/>
		<path d="M440.14,431.55c-0.07-0.68-0.25-1.17-0.55-1.46c-0.3-0.29-0.68-0.44-1.17-0.44c-0.56,0-1,0.22-1.34,0.67
			c-0.21,0.27-0.35,0.69-0.41,1.24H440.14z M443.69,433.22h-7.02c0.06,0.56,0.21,0.98,0.46,1.26c0.34,0.4,0.78,0.59,1.33,0.59
			c0.35,0,0.68-0.08,0.98-0.25c0.19-0.11,0.4-0.3,0.61-0.57l3.45,0.32c-0.52,0.92-1.16,1.58-1.91,1.97c-0.74,0.4-1.82,0.6-3.21,0.6
			c-1.21,0-2.16-0.17-2.86-0.51c-0.69-0.34-1.27-0.89-1.73-1.63c-0.45-0.74-0.68-1.62-0.68-2.62c0-1.43,0.46-2.59,1.37-3.47
			c0.91-0.88,2.18-1.33,3.79-1.33c1.31,0,2.34,0.2,3.09,0.6c0.76,0.4,1.34,0.97,1.73,1.72c0.39,0.75,0.59,1.73,0.59,2.94V433.22z
			 M421.81,424.31h3.5v4.64c0.48-0.5,0.95-0.85,1.42-1.06c0.47-0.21,1.02-0.32,1.66-0.32c0.95,0,1.7,0.29,2.25,0.87
			c0.54,0.59,0.82,1.47,0.82,2.67v5.81h-3.52v-5.03c0-0.57-0.1-0.98-0.31-1.22c-0.21-0.24-0.51-0.36-0.89-0.36
			c-0.42,0-0.76,0.16-1.02,0.48c-0.26,0.32-0.39,0.89-0.39,1.73v4.39h-3.5V424.31z M407.97,424.31h11.85v3.12h-3.98v9.49h-3.89
			v-9.49h-3.98V424.31z"/>
		<path d="M782.08,528.97c-0.15-1.55-0.58-2.65-1.25-3.32c-0.67-0.67-1.55-1-2.65-1c-1.26,0-2.28,0.5-3.04,1.51
			c-0.48,0.62-0.79,1.56-0.92,2.81H782.08z M790.16,532.76H774.2c0.15,1.27,0.49,2.23,1.04,2.85c0.77,0.9,1.77,1.35,3.01,1.35
			c0.79,0,1.53-0.19,2.23-0.58c0.43-0.25,0.9-0.68,1.39-1.3l7.84,0.72c-1.2,2.08-2.65,3.58-4.34,4.48
			c-1.69,0.91-4.12,1.36-7.29,1.36c-2.75,0-4.91-0.39-6.49-1.17c-1.57-0.77-2.88-2-3.92-3.69c-1.03-1.7-1.55-3.68-1.55-5.96
			c0-3.25,1.04-5.88,3.12-7.89c2.07-2.01,4.95-3.01,8.6-3.01c2.98,0,5.31,0.45,7.03,1.35c1.72,0.9,3.04,2.2,3.93,3.91
			c0.9,1.7,1.35,3.93,1.35,6.67V532.76z M758.97,512.53v7.88h4.36v5.83h-4.36v7.35c0,0.88,0.09,1.47,0.25,1.75
			c0.26,0.44,0.72,0.66,1.37,0.66c0.59,0,1.41-0.17,2.46-0.51l0.59,5.5c-1.97,0.44-3.8,0.65-5.51,0.65c-1.98,0-3.44-0.25-4.38-0.76
			c-0.93-0.51-1.63-1.28-2.08-2.31c-0.45-1.03-0.67-2.71-0.67-5.03v-7.3h-2.92v-5.83h2.92v-3.81L758.97,512.53z M744.54,541.16
			h-7.43v-3.34c-1.11,1.38-2.22,2.36-3.34,2.95c-1.12,0.58-2.51,0.88-4.14,0.88c-2.19,0-3.89-0.66-5.14-1.97
			c-1.24-1.31-1.86-3.33-1.86-6.05v-13.21h7.99v11.44c0,1.3,0.24,2.23,0.72,2.78c0.48,0.54,1.15,0.82,2.02,0.82
			c0.94,0,1.71-0.37,2.32-1.09c0.6-0.73,0.9-2.05,0.9-3.94v-10h7.96V541.16z M714.56,512.53v7.88h4.36v5.83h-4.36v7.35
			c0,0.88,0.09,1.47,0.25,1.75c0.26,0.44,0.72,0.66,1.37,0.66c0.59,0,1.41-0.17,2.47-0.51l0.59,5.5c-1.97,0.44-3.8,0.65-5.51,0.65
			c-1.98,0-3.44-0.25-4.38-0.76c-0.93-0.51-1.62-1.28-2.08-2.31c-0.45-1.03-0.67-2.71-0.67-5.03v-7.3h-2.92v-5.83h2.92v-3.81
			L714.56,512.53z M691.92,520.41h7.96v20.75h-7.96V520.41z M691.92,512.53h7.96v5.4h-7.96V512.53z M683.49,512.53v7.88h4.36v5.83
			h-4.36v7.35c0,0.88,0.09,1.47,0.25,1.75c0.26,0.44,0.72,0.66,1.38,0.66c0.58,0,1.4-0.17,2.46-0.51l0.59,5.5
			c-1.97,0.44-3.8,0.65-5.51,0.65c-1.98,0-3.44-0.25-4.38-0.76c-0.93-0.51-1.63-1.28-2.08-2.31c-0.44-1.03-0.67-2.71-0.67-5.03v-7.3
			h-2.92v-5.83h2.92v-3.81L683.49,512.53z M648.07,535.4l7.88-0.72c0.33,0.93,0.78,1.6,1.37,2c0.58,0.4,1.37,0.6,2.34,0.6
			c1.07,0,1.89-0.23,2.48-0.68c0.46-0.33,0.69-0.76,0.69-1.27c0-0.57-0.3-1.02-0.9-1.33c-0.43-0.22-1.57-0.49-3.41-0.82
			c-2.76-0.48-4.67-0.93-5.75-1.34c-1.07-0.41-1.97-1.11-2.71-2.08c-0.73-0.98-1.1-2.09-1.1-3.35c0-1.36,0.39-2.54,1.18-3.53
			c0.8-0.99,1.89-1.74,3.28-2.22c1.39-0.49,3.25-0.73,5.59-0.73c2.47,0,4.3,0.18,5.47,0.56c1.18,0.38,2.16,0.97,2.94,1.76
			c0.79,0.8,1.44,1.88,1.96,3.23l-7.52,0.72c-0.2-0.66-0.52-1.15-0.98-1.46c-0.62-0.41-1.37-0.62-2.26-0.62
			c-0.89,0-1.55,0.16-1.96,0.48c-0.41,0.32-0.61,0.71-0.61,1.16c0,0.52,0.26,0.9,0.77,1.16c0.52,0.27,1.65,0.5,3.39,0.71
			c2.65,0.3,4.61,0.72,5.9,1.25c1.29,0.53,2.27,1.3,2.95,2.29c0.69,0.99,1.03,2.08,1.03,3.26c0,1.2-0.36,2.37-1.08,3.5
			c-0.72,1.13-1.86,2.03-3.41,2.7c-1.55,0.68-3.67,1.01-6.35,1.01c-3.79,0-6.48-0.54-8.09-1.63
			C649.55,538.93,648.52,537.4,648.07,535.4z M622.8,520.41h7.41v3.37c1.11-1.38,2.22-2.37,3.35-2.96c1.13-0.59,2.5-0.89,4.13-0.89
			c2.2,0,3.91,0.65,5.16,1.97c1.24,1.3,1.86,3.33,1.86,6.07v13.2h-8v-11.42c0-1.31-0.24-2.23-0.72-2.77
			c-0.48-0.54-1.15-0.81-2.02-0.81c-0.95,0-1.73,0.37-2.32,1.09c-0.6,0.74-0.9,2.04-0.9,3.93v9.97h-7.95V520.41z M608.12,512.53
			h8.88v28.63h-8.88V512.53z"/>
		<path d="M755.78,478.27l15.02-0.94c0.32,2.43,0.99,4.29,1.99,5.55c1.63,2.06,3.96,3.1,6.98,3.1c2.25,0,3.99-0.52,5.21-1.58
			c1.23-1.06,1.84-2.29,1.84-3.68c0-1.32-0.57-2.51-1.73-3.56c-1.16-1.05-3.85-2.03-8.08-2.97c-6.94-1.55-11.87-3.62-14.83-6.21
			c-2.98-2.57-4.47-5.86-4.47-9.87c0-2.62,0.76-5.1,2.29-7.44c1.53-2.35,3.81-4.18,6.88-5.52c3.06-1.34,7.26-2,12.59-2
			c6.54,0,11.53,1.22,14.96,3.66c3.43,2.43,5.47,6.31,6.13,11.62l-14.87,0.88c-0.39-2.32-1.23-4.02-2.49-5.07
			c-1.28-1.06-3.03-1.58-5.26-1.58c-1.84,0-3.23,0.39-4.16,1.17c-0.93,0.77-1.39,1.73-1.39,2.85c0,0.81,0.38,1.54,1.13,2.19
			c0.73,0.68,2.49,1.3,5.28,1.89c6.91,1.49,11.86,3,14.84,4.53c2.99,1.53,5.17,3.41,6.53,5.67c1.36,2.26,2.04,4.78,2.04,7.58
			c0,3.28-0.91,6.31-2.72,9.08c-1.82,2.77-4.35,4.88-7.62,6.31c-3.25,1.43-7.35,2.15-12.31,2.15c-8.7,0-14.73-1.68-18.08-5.03
			C758.11,487.69,756.22,483.43,755.78,478.27 M718.96,464.81h6.68c0.72,0,2.12-0.23,4.2-0.7c1.05-0.2,1.91-0.74,2.56-1.61
			c0.67-0.87,1-1.86,1-2.98c0-1.66-0.52-2.93-1.57-3.81c-1.05-0.89-3.02-1.34-5.91-1.34h-6.96V464.81z M703.09,495.21V444h26.36
			c4.89,0,8.63,0.42,11.2,1.26c2.59,0.83,4.67,2.4,6.26,4.66c1.58,2.27,2.37,5.05,2.37,8.32c0,2.84-0.61,5.29-1.83,7.35
			c-1.2,2.07-2.87,3.74-5,5.03c-1.35,0.81-3.21,1.49-5.55,2.03c1.88,0.63,3.25,1.25,4.11,1.89c0.57,0.41,1.42,1.32,2.53,2.69
			c1.1,1.37,1.84,2.43,2.21,3.18l7.68,14.79h-17.88l-8.45-15.62c-1.07-2.03-2.03-3.34-2.86-3.95c-1.14-0.78-2.44-1.18-3.88-1.18
			h-1.4v20.74H703.09z M651.23,444h42.34v10.94H667.1v8.15h24.53v10.44H667.1v10.08h27.25v11.59h-43.12V444z M591.8,444h14.77
			l19.2,28.27V444h14.95v51.21h-14.95l-19.1-28.12v28.12H591.8V444z M532.22,444h14.77l19.2,28.27V444h14.95v51.21h-14.95
			l-19.09-28.12v28.12h-14.88V444z M507.84,458.09h14.23v37.12h-14.23V458.09z M507.84,444h14.23v9.66h-14.23V444z M429.16,444
			h15.02l5.4,28.57l7.91-28.57h14.9l7.97,28.62L485.8,444h14.94l-11.28,51.21h-15.52l-8.99-32.24l-8.93,32.24h-15.49L429.16,444z"/>
	</g>
</g>
<g>
	<g>
		<path d="M468.19,652.49h14.71c0.18,0.34,0.28,0.89,0.28,1.65c0,0.76-0.19,1.46-0.56,2.11c-0.37,0.65-0.78,1.13-1.23,1.44
			c-0.45,0.31-1.03,0.56-1.74,0.74c-0.87,0.19-1.93,0.28-3.2,0.28h-14.61c-0.25-0.59-0.37-1.23-0.37-1.92c0-0.7,0.19-1.35,0.56-1.97
			c0.37-0.62,0.78-1.07,1.23-1.34c0.45-0.28,1.03-0.51,1.74-0.7C465.85,652.58,466.92,652.49,468.19,652.49z"/>
		<path d="M525.42,665.06l0.18-8.81h-7.37c1.64,1.79,2.46,3.64,2.46,5.54c0,1.9-0.51,3.33-1.53,4.29c-1.02,0.96-2.38,1.44-4.08,1.44
			c-1.7,0-3.42-0.59-5.15-1.76c-1.73-1.18-3.14-2.57-4.22-4.18c-1.08-1.61-1.96-3.18-2.62-4.71s-1-2.71-1-3.55
			c0-0.84,0.21-1.44,0.63-1.81c0.42-0.37,0.92-0.57,1.51-0.6c1.33,3.74,2.8,6.5,4.41,8.28s3.08,2.67,4.41,2.67
			c0.93,0,1.62-0.26,2.09-0.79c0.46-0.53,0.7-1.22,0.7-2.09s-0.4-1.81-1.21-2.83c-2.72-0.34-4.08-1.7-4.08-4.08
			c0-0.52,0.08-0.94,0.23-1.25h14.89c0-2.32-0.23-3.87-0.7-4.64h-20.64c-3.9,0-5.85-1.39-5.85-4.17c0-0.53,0.08-0.94,0.23-1.25
			h33.49c3.9,0,5.85,1.32,5.85,3.94c0,0.56-0.11,1.05-0.33,1.48h-7.7c1.21,0.93,1.81,2.8,1.81,5.61l-0.23,15.12
			c0,2.48,0.23,4.1,0.7,4.87c-0.56,0.22-1.21,0.33-1.95,0.33C527.06,672.11,525.42,669.76,525.42,665.06z"/>
		<path d="M544.02,649.43l4.08,0.05c1.17,0,1.76-0.43,1.76-1.3c0-0.37-0.14-0.74-0.42-1.11c-0.28-0.37-0.63-0.66-1.07-0.88h-10.67
			c-3.9,0-5.85-1.39-5.85-4.17c0-0.53,0.08-0.94,0.23-1.25h23.29c3.9,0,5.84,1.32,5.84,3.94c0,0.56-0.11,1.05-0.32,1.48h-8.44
			c1.49,1.36,2.23,2.89,2.23,4.59c0,1.17-0.43,2.15-1.3,2.92c-0.87,0.77-2.12,1.16-3.76,1.16l-4.13-0.05
			c-2.01,0-3.02,0.74-3.02,2.23c0,0.53,0.14,1.07,0.42,1.62c1.14-0.46,2.4-0.7,3.76-0.7c2.69,0,5.01,0.89,6.96,2.67
			c1.95,1.78,2.92,3.64,2.92,5.59c0,1.27-0.41,2.31-1.23,3.11c-0.82,0.81-1.79,1.21-2.92,1.21s-2.11-0.31-2.94-0.93
			c-0.83-0.62-1.33-1.48-1.49-2.6c1.11-0.16,1.99-0.49,2.62-1c0.63-0.51,0.95-1.07,0.95-1.67c0-0.6-0.21-1.07-0.63-1.41
			c-0.42-0.34-1.01-0.51-1.79-0.51c-1.42,0-2.72,0.49-3.9,1.46c-1.17,0.98-1.76,2.31-1.76,3.99c0,1.69,0.85,3.09,2.55,4.2
			c1.7,1.11,3.66,1.67,5.89,1.67c0.87,0,1.75-0.09,2.65-0.28c0.22,0.43,0.32,0.94,0.32,1.51s-0.32,1.08-0.95,1.53
			c-0.63,0.45-1.52,0.67-2.67,0.67c-3.56,0-6.67-1.14-9.32-3.41c-2.66-2.27-3.99-4.97-3.99-8.1c0-2.13,0.71-3.88,2.13-5.24
			c-1.7-1.88-2.55-3.82-2.55-5.8c0-1.51,0.54-2.76,1.62-3.73C540.24,649.92,541.86,649.43,544.02,649.43z"/>
		<path d="M561.28,665.06l0.23-14.06c0-2.5-0.23-4.11-0.7-4.82h-0.93c-3.9,0-5.85-1.39-5.85-4.17c0-0.53,0.08-0.94,0.23-1.25h13.82
			c3.9,0,5.85,1.32,5.85,3.94c0,0.56-0.11,1.05-0.33,1.48h-7.75c1.21,0.93,1.81,2.8,1.81,5.61l-0.23,15.12c0,2.48,0.23,4.1,0.7,4.87
			c-0.53,0.22-1.18,0.33-1.95,0.33C562.92,672.11,561.28,669.76,561.28,665.06z"/>
		<path d="M563.74,632.36c1.45,0,2.82-0.35,4.11-1.04c1.28-0.7,2.25-1.74,2.9-3.13c0.8,0.06,1.55,0.43,2.23,1.09
			c0.68,0.66,1.02,1.46,1.02,2.39c0,1.7-0.88,3.04-2.64,4.01c-1.76,0.97-3.59,1.46-5.48,1.46c-2.88,0-5.42-0.72-7.63-2.16
			s-3.32-2.92-3.32-4.43c0-0.9,0.43-1.58,1.3-2.04C558.11,631.08,560.62,632.36,563.74,632.36z M567.36,626.14
			c0,0.99-0.29,1.79-0.88,2.39c-0.59,0.6-1.39,0.9-2.41,0.9c-1.02,0-1.96-0.43-2.83-1.3c-0.87-0.87-1.3-1.81-1.3-2.83
			c0-1.02,0.29-1.83,0.86-2.41c0.57-0.59,1.37-0.88,2.39-0.88c1.02,0,1.97,0.44,2.85,1.32S567.36,625.15,567.36,626.14z"/>
		<path d="M587.4,665.06l0.23-14.52c0-1.17-0.06-2.63-0.18-4.36h-1.44c-3.9,0-5.85-1.39-5.85-4.17c0-0.53,0.08-0.94,0.23-1.25h6.17
			c-0.06-0.31-0.19-0.83-0.39-1.58c-0.2-0.74-0.33-1.28-0.39-1.62c-0.22-1.11-0.33-2.04-0.33-2.78c0-2.51,0.95-4.4,2.85-5.68
			c1.9-1.28,4.59-1.92,8.07-1.92s7.79,0.64,12.94,1.92c5.15,1.28,9.52,2.75,13.13,4.41c3.6,1.66,5.4,3.01,5.4,4.06
			c0,0.74-0.34,1.25-1.02,1.53c-4.21-2.07-8.83-3.66-13.87-4.78s-9.71-1.67-14.01-1.67c-2.63,0-4.6,0.4-5.91,1.21
			c-1.32,0.81-1.97,2.2-1.97,4.18c0,1.08,0.11,1.99,0.33,2.74h2.83c3.9,0,5.85,1.32,5.85,3.94c0,0.56-0.11,1.05-0.33,1.48h-6.49
			c0.37,1.42,0.56,2.94,0.56,4.55l-0.23,16.19c0,2.48,0.23,4.1,0.7,4.87c-0.53,0.22-1.18,0.33-1.95,0.33
			C589.04,672.11,587.4,669.76,587.4,665.06z"/>
		<path d="M621.12,665.06l0.18-8.81h-7.37c1.64,1.79,2.46,3.64,2.46,5.54c0,1.9-0.51,3.33-1.53,4.29c-1.02,0.96-2.38,1.44-4.08,1.44
			c-1.7,0-3.42-0.59-5.15-1.76c-1.73-1.18-3.14-2.57-4.22-4.18c-1.08-1.61-1.96-3.18-2.62-4.71c-0.66-1.53-1-2.71-1-3.55
			c0-0.84,0.21-1.44,0.63-1.81c0.42-0.37,0.92-0.57,1.51-0.6c1.33,3.74,2.8,6.5,4.41,8.28s3.08,2.67,4.41,2.67
			c0.93,0,1.62-0.26,2.09-0.79c0.46-0.53,0.7-1.22,0.7-2.09s-0.4-1.81-1.21-2.83c-2.72-0.34-4.08-1.7-4.08-4.08
			c0-0.52,0.08-0.94,0.23-1.25h14.89c0-2.32-0.23-3.87-0.7-4.64h-20.64c-3.9,0-5.85-1.39-5.85-4.17c0-0.53,0.08-0.94,0.23-1.25
			h33.49c3.9,0,5.85,1.32,5.85,3.94c0,0.56-0.11,1.05-0.33,1.48h-7.7c1.21,0.93,1.81,2.8,1.81,5.61l-0.23,15.12
			c0,2.48,0.23,4.1,0.7,4.87c-0.56,0.22-1.21,0.33-1.95,0.33C622.76,672.11,621.12,669.76,621.12,665.06z M613.14,672.49
			c0-0.77,0.22-1.38,0.65-1.83c0.43-0.45,1.04-0.67,1.81-0.67c0.77,0,1.5,0.34,2.18,1.02c0.68,0.68,1.02,1.4,1.02,2.16
			c0,0.76-0.22,1.36-0.65,1.81c-0.43,0.45-1.04,0.67-1.83,0.67c-0.79,0-1.52-0.33-2.18-1C613.48,673.98,613.14,673.26,613.14,672.49
			z"/>
		<path d="M649.93,640.75c3.9,0,5.85,1.32,5.85,3.94c0,0.56-0.11,1.05-0.33,1.48h-6.96c1.14,1.14,1.72,2.3,1.72,3.46
			c0,1.16-0.43,2.16-1.3,2.99c-0.87,0.84-1.92,1.5-3.15,1.99c-1.24,0.5-2.48,1-3.73,1.51c-1.25,0.51-2.31,1.19-3.18,2.04
			c-0.87,0.85-1.3,1.88-1.3,3.08c0,1.21,0.48,2.16,1.44,2.85c0.96,0.7,1.99,1.04,3.11,1.04s2.09-0.14,2.92-0.42
			c-0.28-0.56-0.42-1.24-0.42-2.06c0-0.82,0.33-1.56,1-2.23s1.53-1,2.6-1c1.07,0,2.02,0.5,2.88,1.51c0.85,1,1.28,2.14,1.28,3.41
			c0,1.95-0.82,3.43-2.46,4.45c1.42,1.52,2.13,3.14,2.13,4.87c0,1.24-0.36,2.27-1.09,3.08c-0.73,0.82-1.68,1.23-2.85,1.23
			c-1.18,0-2.15-0.33-2.92-1c-0.77-0.67-1.25-1.52-1.44-2.58c1.02-0.18,1.86-0.57,2.5-1.16c0.65-0.59,0.97-1.25,0.97-1.97
			s-0.06-1.23-0.18-1.51c-0.59,0.09-1.22,0.14-1.9,0.14c-3.16,0-6.08-1.14-8.77-3.41s-4.04-4.8-4.04-7.58
			c0-1.64,0.42-3.05,1.27-4.22c0.85-1.18,1.89-2.07,3.11-2.69s2.44-1.15,3.66-1.6c1.22-0.45,2.26-0.93,3.11-1.44
			c0.85-0.51,1.28-1.01,1.28-1.51c0-0.5-0.11-0.93-0.33-1.3h-11.04c-3.9,0-5.85-1.39-5.85-4.17c0-0.53,0.08-0.94,0.23-1.25H649.93z"
			/>
		<path d="M675.59,649.43l4.08,0.05c1.17,0,1.76-0.43,1.76-1.3c0-0.37-0.14-0.74-0.42-1.11c-0.28-0.37-0.63-0.66-1.07-0.88h-10.67
			c-3.9,0-5.85-1.39-5.85-4.17c0-0.53,0.08-0.94,0.23-1.25h23.29c3.9,0,5.84,1.32,5.84,3.94c0,0.56-0.11,1.05-0.32,1.48h-8.44
			c1.49,1.36,2.23,2.89,2.23,4.59c0,1.17-0.43,2.15-1.3,2.92c-0.87,0.77-2.12,1.16-3.76,1.16l-4.13-0.05
			c-2.01,0-3.02,0.74-3.02,2.23c0,0.53,0.14,1.07,0.42,1.62c1.14-0.46,2.4-0.7,3.76-0.7c2.69,0,5.01,0.89,6.96,2.67
			c1.95,1.78,2.92,3.64,2.92,5.59c0,1.27-0.41,2.31-1.23,3.11c-0.82,0.81-1.79,1.21-2.92,1.21s-2.11-0.31-2.94-0.93
			c-0.83-0.62-1.33-1.48-1.49-2.6c1.11-0.16,1.99-0.49,2.62-1c0.63-0.51,0.95-1.07,0.95-1.67c0-0.6-0.21-1.07-0.63-1.41
			c-0.42-0.34-1.01-0.51-1.79-0.51c-1.42,0-2.72,0.49-3.9,1.46c-1.17,0.98-1.76,2.31-1.76,3.99c0,1.69,0.85,3.09,2.55,4.2
			c1.7,1.11,3.66,1.67,5.89,1.67c0.87,0,1.75-0.09,2.65-0.28c0.22,0.43,0.32,0.94,0.32,1.51s-0.32,1.08-0.95,1.53
			c-0.63,0.45-1.52,0.67-2.67,0.67c-3.56,0-6.67-1.14-9.32-3.41c-2.66-2.27-3.99-4.97-3.99-8.1c0-2.13,0.71-3.88,2.13-5.24
			c-1.7-1.88-2.55-3.82-2.55-5.8c0-1.51,0.54-2.76,1.62-3.73S673.42,649.43,675.59,649.43z"/>
		<path d="M670.81,627.74c0-1.16,0.35-2.09,1.04-2.78c0.7-0.7,1.66-1.05,2.88-1.05c1.22,0,2.4,0.53,3.53,1.58
			c1.13,1.05,2,2.38,2.62,3.99c1.27,3.31,1.9,6.51,1.9,9.6c0,0.68-0.03,1.22-0.09,1.62c-0.16,1.08-0.79,1.79-1.9,2.13
			c-3.9-4.21-6.94-6.31-9.14-6.31c-0.8,0-1.52,0.22-2.16,0.65s-1.05,1.02-1.23,1.76c-1.05,0-1.98-0.38-2.78-1.14
			c-0.8-0.76-1.21-1.71-1.21-2.85c0-1.14,0.45-2.07,1.34-2.78c0.9-0.71,1.98-1.07,3.25-1.07c1.89,0,3.8,0.62,5.73,1.86
			c1.93,1.24,3.61,2.67,5.03,4.31c-1.05-4.86-2.74-7.28-5.06-7.28c-0.74,0-1.48,0.23-2.23,0.7
			C671.32,629.88,670.81,628.9,670.81,627.74z"/>
		<path d="M733.62,651.79l-0.23,15.12c0,2.48,0.23,4.1,0.7,4.87c-0.56,0.22-1.21,0.33-1.95,0.33c-3.28,0-4.92-2.35-4.92-7.05
			c0-0.77,0.03-2.18,0.09-4.22c-0.4,0.06-1.07,0.09-1.99,0.09c-2.97,0-5.52-0.68-7.65-2.04c-1.48,1.83-3.54,2.78-6.17,2.88
			c0.62,1.61,1.42,2.87,2.41,3.78s2.33,1.37,4.04,1.37c0.59,0,1.08-0.06,1.49-0.18c0.31,0.68,0.46,1.44,0.46,2.27
			c0,0.83-0.29,1.58-0.88,2.25c-0.59,0.66-1.47,1-2.64,1c-3.59,0-6.48-3.76-8.68-11.27c-1.3-0.59-2.37-1.39-3.22-2.41
			c-0.85-1.02-1.27-2.08-1.27-3.18c0-1.1,0.25-1.97,0.77-2.62c0.51-0.65,1.24-0.97,2.18-0.97c0.94,0,1.69,0.34,2.25,1.02
			c0.56,0.68,1.04,1.66,1.44,2.92c1.39-0.03,2.45-0.52,3.18-1.48c0.73-0.96,1.09-2.1,1.09-3.43c0-2.07-0.68-3.62-2.04-4.64h-7.19
			c-3.9,0-5.85-1.39-5.85-4.17c0-0.53,0.08-0.94,0.23-1.25h34.79c3.9,0,5.84,1.32,5.84,3.94c0,0.56-0.11,1.05-0.32,1.48h-7.75
			C733.02,647.11,733.62,648.98,733.62,651.79z M719.33,653.84c0,0.65-0.08,1.33-0.23,2.04c0.62,0.12,1.31,0.18,2.09,0.18
			c2.29,0,4.38-0.53,6.26-1.58v-3.48c0-2.5-0.23-4.11-0.7-4.82h-10.48C718.31,648.59,719.33,651.15,719.33,653.84z"/>
		<path d="M758.35,658.57l-0.14,8.35c0,2.48,0.23,4.1,0.7,4.87c-0.53,0.22-1.18,0.33-1.95,0.33c-1.67,0-2.9-0.58-3.69-1.74
			c-0.79-1.16-1.18-2.41-1.18-3.76c0-1.34,0.12-2.51,0.37-3.5c-0.62,0.19-1.27,0.28-1.95,0.28c-2.81,0-5.4-1.07-7.77-3.2
			c-2.37-2.13-3.55-4.35-3.55-6.66s-0.02-3.97-0.05-4.99c-0.03-1.02-0.25-1.81-0.65-2.37c-3.34-0.15-5.01-1.55-5.01-4.17
			c0-0.53,0.08-0.94,0.23-1.25h36.32c3.9,0,5.85,1.32,5.85,3.94c0,0.56-0.11,1.05-0.33,1.48h-18.93c0.9,0.8,1.34,2.03,1.34,3.66
			c0,0.28-0.03,0.73-0.09,1.35c1.05-0.99,2.38-1.49,3.99-1.49c2.54,0,4.82,1.06,6.86,3.18c2.04,2.12,3.06,4.52,3.06,7.21
			c0,1.76-0.58,3.3-1.74,4.62c-1.16,1.31-2.64,1.97-4.43,1.97c-1.27,0-2.3-0.41-3.11-1.23c-0.8-0.82-1.21-1.8-1.21-2.94
			c0-0.19,0.01-0.36,0.05-0.51c1.92,0,3.43-0.6,4.55-1.81c0.71-0.8,1.07-1.69,1.07-2.67s-0.29-1.73-0.88-2.27
			c-0.59-0.54-1.28-0.81-2.09-0.81C761.93,654.44,760.05,655.82,758.35,658.57z M752.22,656.9l0.05-5.89c0-2.5-0.23-4.11-0.7-4.82
			h-8.07c1.17,0.9,1.76,2.77,1.76,5.61l-0.09,2.83c0,1.42,0.22,2.48,0.65,3.18c0.43,0.7,1.28,1.05,2.55,1.05
			C749.64,658.85,750.92,658.2,752.22,656.9z"/>
		<path d="M804.97,651.79l-0.23,15.12c0,2.48,0.23,4.1,0.7,4.87c-0.53,0.22-1.18,0.33-1.95,0.33c-3.28,0-4.92-2.35-4.92-7.05
			c0-0.8,0.06-3.65,0.19-8.54c-0.68-0.16-1.36-0.23-2.04-0.23c-0.68,0-1.35,0.21-2.02,0.63s-1.14,0.98-1.41,1.69
			c0.22,0.99,0.32,1.93,0.32,2.83c0,0.9-0.26,1.79-0.79,2.69c-0.53,0.9-1.36,1.35-2.5,1.35c-1.15,0-2.06-0.53-2.76-1.6
			c-0.7-1.07-1.05-2.29-1.05-3.66c0-1.38,0.39-2.81,1.16-4.29c-0.68-0.37-1.54-0.56-2.57-0.56c-1.04,0-1.91,0.43-2.62,1.3
			c-0.71,0.87-1.07,2.01-1.07,3.43c0,3.53,1.61,6.97,4.82,10.35c-0.37,0.71-1.02,1.07-1.95,1.07c-0.93,0-2.1-0.63-3.5-1.88
			c-1.41-1.25-2.66-2.94-3.76-5.06c-1.1-2.12-1.65-4.29-1.65-6.52c0-2.23,0.68-4.06,2.04-5.5c1.36-1.44,3.21-2.16,5.54-2.16
			c2.33,0,4.54,0.88,6.61,2.65c1.58-1.52,3.4-2.27,5.47-2.27c1.36,0,2.61,0.36,3.76,1.07v-0.83c0-2.5-0.23-4.11-0.7-4.82h-21.94
			c-3.9,0-5.85-1.39-5.85-4.17c0-0.53,0.08-0.94,0.23-1.25h34.75c3.9,0,5.84,1.32,5.84,3.94c0,0.56-0.11,1.05-0.32,1.48h-7.65
			C804.36,647.11,804.97,648.98,804.97,651.79z"/>
		<path d="M831.22,651.79l-0.23,15.12c0,2.48,0.23,4.1,0.7,4.87c-0.56,0.22-1.21,0.33-1.95,0.33c-3.28,0-4.92-2.35-4.92-7.05
			c0-0.84,0.06-3.63,0.18-8.4h-4.73c-1.27,0-2.27,0.34-2.99,1.02c-0.73,0.68-1.09,1.65-1.09,2.92c0,3.22,1.16,6.4,3.48,9.56
			c-0.34,0.71-0.94,1.07-1.79,1.07c-0.85,0-1.87-0.66-3.06-1.97c-1.19-1.31-2.24-3-3.15-5.06c-0.91-2.06-1.37-3.97-1.37-5.73
			c0-2.54,0.75-4.39,2.25-5.57c1.5-1.17,3.29-1.76,5.36-1.76c2.07,0,4.45,0.16,7.14,0.46v-0.23c0-2.69-0.23-4.42-0.7-5.2h-13.55
			c-3.9,0-5.85-1.39-5.85-4.17c0-0.53,0.08-0.94,0.23-1.25h26.26c3.9,0,5.84,1.32,5.84,3.94c0,0.56-0.11,1.05-0.32,1.48h-7.56
			C830.62,647.11,831.22,648.98,831.22,651.79z"/>
		<path d="M837.76,665.06l0.23-14.06c0-2.5-0.23-4.11-0.7-4.82h-0.93c-3.9,0-5.85-1.39-5.85-4.17c0-0.53,0.08-0.94,0.23-1.25h13.82
			c3.9,0,5.85,1.32,5.85,3.94c0,0.56-0.11,1.05-0.33,1.48h-7.75c1.21,0.93,1.81,2.8,1.81,5.61l-0.23,15.12c0,2.48,0.23,4.1,0.7,4.87
			c-0.53,0.22-1.18,0.33-1.95,0.33C839.4,672.11,837.76,669.76,837.76,665.06z"/>
		<path d="M881.65,658.57l-0.14,8.35c0,2.48,0.23,4.1,0.7,4.87c-0.56,0.22-1.21,0.33-1.95,0.33c-1.58,0-2.72-0.47-3.43-1.42
			c-0.71-0.94-1.07-1.99-1.07-3.13c0-1.14,0.11-2.09,0.33-2.83c-1.05,0.96-2.44,1.44-4.18,1.44c-2.57,0-4.88-1.05-6.93-3.16
			c-2.06-2.1-3.09-4.5-3.09-7.19c0-1.76,0.58-3.3,1.74-4.62c1.16-1.31,2.64-1.97,4.43-1.97c1.27,0,2.3,0.41,3.11,1.23
			c0.8,0.82,1.21,1.8,1.21,2.95c0,0.19-0.02,0.36-0.05,0.51c-1.83,0-3.29,0.57-4.41,1.72c-0.81,0.8-1.21,1.7-1.21,2.69
			c0,0.99,0.29,1.76,0.88,2.32c0.59,0.56,1.28,0.83,2.09,0.83c2.16,0,4.1-1.33,5.8-3.99c0.06-2.41,0.09-4.72,0.09-6.93
			c0-2.21-0.23-3.67-0.7-4.38h-12.25c-3.9,0-5.85-1.39-5.85-4.17c0-0.53,0.08-0.94,0.23-1.25h36.32c3.9,0,5.84,1.32,5.84,3.94
			c0,0.56-0.11,1.05-0.32,1.48h-18.88c0.9,0.74,1.35,1.95,1.35,3.62c0,0.5-0.05,0.94-0.14,1.35c1.11-0.96,2.44-1.44,3.99-1.44
			c2.44,0,4.71,1.07,6.8,3.2c2.09,2.13,3.13,4.53,3.13,7.19c0,1.76-0.58,3.3-1.74,4.62c-1.16,1.31-2.64,1.97-4.43,1.97
			c-1.27,0-2.3-0.41-3.11-1.23c-0.8-0.82-1.21-1.8-1.21-2.94c0-0.19,0.02-0.36,0.05-0.51c1.86,0,3.34-0.57,4.45-1.72
			c0.77-0.8,1.16-1.71,1.16-2.71c0-1-0.29-1.78-0.88-2.32c-0.59-0.54-1.28-0.81-2.09-0.81
			C885.24,654.44,883.35,655.82,881.65,658.57z"/>
		<path d="M900.25,665.06l0.23-15.03c0-1.36-0.06-2.64-0.18-3.85h-1.44c-3.9,0-5.85-1.39-5.85-4.17c0-0.53,0.08-0.94,0.23-1.25h5.89
			c-1.89-5.6-5.53-8.4-10.95-8.4c-1.76,0-3.22,0.44-4.38,1.32c-1.16,0.88-1.74,2.05-1.74,3.5c0,0.5,0.09,0.97,0.28,1.44
			c-0.4,0.28-0.94,0.42-1.62,0.42c-1.27,0-2.36-0.53-3.27-1.58c-0.91-1.05-1.37-2.39-1.37-4.01c0-1.62,0.74-3.08,2.23-4.36
			c1.49-1.28,3.54-1.92,6.17-1.92c4.11,0,7.98,1.26,11.6,3.78c3.62,2.52,6.38,5.79,8.3,9.81h2.69c3.9,0,5.85,1.32,5.85,3.94
			c0,0.56-0.11,1.05-0.33,1.48h-6.4c0.31,1.64,0.46,3.17,0.46,4.59l-0.23,16.14c0,2.48,0.23,4.1,0.7,4.87
			c-0.53,0.22-1.18,0.33-1.95,0.33C901.89,672.11,900.25,669.76,900.25,665.06z"/>
	</g>
	<g>
		<g>
			<path d="M244.66,680.4c-131.03,1.85-54.51-26.49-62.88-23.12c-4.63,1.86-7.76,11.2-1.88,13.47c13.48,5.2,74.51,5.48,140.74,5.35
				c43.87-0.09,90.02-0.36,126.16,0.48C377.86,677.88,313.6,679.09,244.66,680.4z"/>
			<path d="M181.84,634.89h10.45l3.76,19.89l5.51-19.89h10.37l5.55,19.92l3.78-19.92h10.4l-7.86,35.64h-10.8l-6.26-22.44
				l-6.21,22.44h-10.78L181.84,634.89L181.84,634.89z M236.6,634.89h9.91v6.72h-9.91V634.89L236.6,634.89z M236.6,644.7h9.91v25.84
				h-9.91V644.7L236.6,644.7z M253.58,634.89h10.28l13.36,19.68v-19.68h10.41v35.64h-10.41l-13.29-19.57v19.57h-10.36V634.89
				L253.58,634.89z M295.04,634.89h10.28l13.37,19.68v-19.68h10.41v35.64h-10.41l-13.29-19.57v19.57h-10.35V634.89L295.04,634.89z
				 M336.41,634.89h29.47v7.62h-18.42v5.68h17.07v7.27h-17.07v7.02h18.97v8.07h-30.02V634.89L336.41,634.89z M372.51,670.53v-35.64
				h18.35c3.4,0,6.01,0.29,7.8,0.88c1.8,0.58,3.25,1.67,4.36,3.24c1.1,1.58,1.65,3.52,1.65,5.79c0,1.98-0.42,3.68-1.27,5.12
				c-0.83,1.44-2,2.6-3.48,3.5c-0.94,0.56-2.23,1.04-3.87,1.41c1.31,0.44,2.26,0.87,2.86,1.31c0.4,0.29,0.99,0.92,1.76,1.87
				c0.76,0.95,1.28,1.69,1.54,2.22l5.35,10.3h-12.44l-5.88-10.87c-0.75-1.41-1.41-2.32-1.99-2.75c-0.79-0.54-1.7-0.82-2.7-0.82
				h-0.97v14.44H372.51L372.51,670.53z M383.56,649.37h4.65c0.5,0,1.48-0.16,2.92-0.49c0.73-0.14,1.33-0.52,1.78-1.12
				c0.46-0.6,0.7-1.29,0.7-2.07c0-1.15-0.37-2.04-1.1-2.65c-0.73-0.62-2.1-0.93-4.12-0.93h-4.84V649.37L383.56,649.37z
				 M409.19,658.74l10.45-0.66c0.22,1.69,0.69,2.99,1.39,3.87c1.14,1.43,2.75,2.15,4.86,2.15c1.57,0,2.78-0.36,3.62-1.1
				c0.85-0.74,1.28-1.59,1.28-2.56c0-0.92-0.4-1.75-1.2-2.48c-0.81-0.73-2.68-1.41-5.63-2.07c-4.83-1.08-8.26-2.52-10.32-4.32
				c-2.07-1.79-3.11-4.08-3.11-6.87c0-1.83,0.53-3.55,1.59-5.18c1.06-1.63,2.65-2.91,4.79-3.84c2.13-0.93,5.05-1.39,8.76-1.39
				c4.56,0,8.02,0.85,10.41,2.55c2.39,1.69,3.81,4.39,4.27,8.09L430,645.54c-0.27-1.62-0.85-2.8-1.73-3.53
				c-0.89-0.74-2.11-1.1-3.66-1.1c-1.28,0-2.25,0.27-2.9,0.81c-0.65,0.54-0.97,1.2-0.97,1.98c0,0.57,0.27,1.07,0.79,1.53
				c0.51,0.47,1.73,0.9,3.68,1.31c4.81,1.04,8.26,2.09,10.33,3.15c2.08,1.06,3.6,2.38,4.54,3.95c0.95,1.57,1.42,3.33,1.42,5.28
				c0,2.28-0.63,4.39-1.89,6.32c-1.27,1.92-3.03,3.39-5.3,4.39c-2.27,1-5.12,1.49-8.57,1.49c-6.06,0-10.26-1.17-12.59-3.5
				C410.81,665.3,409.5,662.33,409.19,658.74z"/>
		</g>
	</g>
</g>
</svg>
