<svg width="28" height="28" viewBox="0 0 28 28" fill="none" xmlns="http://www.w3.org/2000/svg">
<path d="M18.2004 20.7667C18.0778 20.8586 17.9383 20.9255 17.7899 20.9635C17.6415 21.0015 17.487 21.0099 17.3354 20.9883C17.1837 20.9666 17.0378 20.9153 16.9059 20.8372C16.7741 20.7592 16.6589 20.6559 16.567 20.5333C16.4751 20.4108 16.4082 20.2713 16.3702 20.1229C16.3322 19.9745 16.3238 19.82 16.3454 19.6683C16.3671 19.5167 16.4184 19.3708 16.4965 19.2389C16.5745 19.1071 16.6778 18.9919 16.8004 18.9C18.625 17.5315 19.6704 16.2003 20.2689 15.0383C19.4471 15.2499 18.5798 15.2001 17.7876 14.8961C16.9954 14.592 16.3177 14.0486 15.8485 13.3416C15.3793 12.6345 15.1421 11.7989 15.1698 10.9508C15.1974 10.1027 15.4886 9.28424 16.0029 8.60927C16.5171 7.9343 17.2289 7.4363 18.0392 7.1845C18.8496 6.9327 19.7182 6.93961 20.5245 7.20426C21.3307 7.46891 22.0344 7.97816 22.5379 8.66122C23.0414 9.34429 23.3195 10.1672 23.3337 11.0157C23.4832 12.4484 23.2797 13.896 22.741 15.232C22.0445 16.989 20.683 18.9047 18.2004 20.7667ZM7.70036 20.7667C7.57779 20.8586 7.43832 20.9255 7.2899 20.9635C7.14149 21.0015 6.98703 21.0099 6.83537 20.9883C6.6837 20.9666 6.53778 20.9153 6.40595 20.8372C6.27412 20.7592 6.15895 20.6559 6.06703 20.5333C5.9751 20.4108 5.90822 20.2713 5.87019 20.1229C5.83217 19.9745 5.82375 19.82 5.84542 19.6683C5.86708 19.5167 5.91841 19.3708 5.99647 19.2389C6.07453 19.1071 6.17779 18.9919 6.30036 18.9C8.12502 17.5315 9.17036 16.2003 9.76886 15.0383C8.94709 15.2499 8.07984 15.2001 7.28764 14.8961C6.49544 14.592 5.81766 14.0486 5.34849 13.3416C4.87933 12.6345 4.6421 11.7989 4.66977 10.9508C4.69744 10.1027 4.98864 9.28424 5.50289 8.60927C6.01715 7.93429 6.72891 7.4363 7.53925 7.1845C8.34958 6.9327 9.21823 6.93961 10.0245 7.20426C10.8307 7.46891 11.5344 7.97816 12.0379 8.66122C12.5414 9.34429 12.8195 10.1672 12.8337 11.0157C12.9832 12.4484 12.7797 13.896 12.241 15.232C11.5434 16.989 10.183 18.9047 7.70036 20.7667Z" fill="#545454"/>
</svg>
