<svg width="20" height="20" viewBox="0 0 20 20" fill="none" xmlns="http://www.w3.org/2000/svg">
<path d="M17.8079 7.5773H2.19253C1.84638 7.5773 1.57715 7.84653 1.57715 8.19268V17.2311C1.57715 18.2311 2.38484 19.0388 3.38484 19.0388H16.6156C17.6156 19.0388 18.4233 18.2311 18.4233 17.2311V8.19268C18.4233 7.84653 18.1541 7.5773 17.8079 7.5773ZM7.00023 16.0004C7.00023 16.3465 6.73099 16.6158 6.38484 16.6158H5.19253C4.84638 16.6158 4.57715 16.3465 4.57715 16.0004V14.8081C4.57715 14.4619 4.84638 14.1927 5.19253 14.1927H6.38484C6.73099 14.1927 7.00023 14.4619 7.00023 14.8081V16.0004ZM11.1925 16.0004C11.1925 16.3465 10.9233 16.6158 10.5771 16.6158H9.38484C9.03869 16.6158 8.76946 16.3465 8.76946 16.0004V14.8081C8.76946 14.4619 9.03869 14.1927 9.38484 14.1927H10.5771C10.9233 14.1927 11.1925 14.4619 11.1925 14.8081V16.0004ZM11.1925 11.8081C11.1925 12.1542 10.9233 12.4235 10.5771 12.4235H9.38484C9.03869 12.4235 8.76946 12.1542 8.76946 11.8081V10.6158C8.76946 10.2696 9.03869 10.0004 9.38484 10.0004H10.5771C10.9233 10.0004 11.1925 10.2696 11.1925 10.6158V11.8081ZM15.4233 11.8081C15.4233 12.1542 15.1541 12.4235 14.8079 12.4235H13.6156C13.2695 12.4235 13.0002 12.1542 13.0002 11.8081V10.6158C13.0002 10.2696 13.2695 10.0004 13.6156 10.0004H14.8079C15.1541 10.0004 15.4233 10.2696 15.4233 10.6158V11.8081ZM16.6156 2.76961H15.1156V2.15422C15.1156 1.50038 14.5771 0.961914 13.9233 0.961914C13.2695 0.961914 12.731 1.50038 12.731 2.15422V2.76961H7.30792V2.15422C7.30792 1.50038 6.76946 0.961914 6.11561 0.961914C5.46176 0.961914 4.9233 1.50038 4.9233 2.15422V2.76961H3.38484C2.38484 2.76961 1.57715 3.5773 1.57715 4.5773V5.19268C1.57715 5.53884 1.84638 5.80807 2.19253 5.80807H17.8464C18.1925 5.80807 18.4618 5.53884 18.4618 5.19268V4.5773C18.4233 3.5773 17.6156 2.76961 16.6156 2.76961Z" fill="#E31E24"/>
</svg>
