<svg width="20" height="20" viewBox="0 0 20 20" fill="none" xmlns="http://www.w3.org/2000/svg">
<path d="M10.0003 1.66699C8.35215 1.66699 6.74099 2.15573 5.37058 3.07141C4.00017 3.98709 2.93206 5.28858 2.30133 6.8113C1.6706 8.33401 1.50558 10.0096 1.82712 11.6261C2.14866 13.2426 2.94234 14.7274 4.10777 15.8929C5.27321 17.0583 6.75807 17.852 8.37458 18.1735C9.99109 18.4951 11.6666 18.3301 13.1894 17.6993C14.7121 17.0686 16.0136 16.0005 16.9292 14.6301C17.8449 13.2597 18.3337 11.6485 18.3337 10.0003C18.3337 8.90598 18.1181 7.82234 17.6993 6.8113C17.2805 5.80025 16.6667 4.88159 15.8929 4.10777C15.1191 3.33395 14.2004 2.72012 13.1894 2.30133C12.1783 1.88254 11.0947 1.66699 10.0003 1.66699ZM12.1253 13.192C11.9911 13.286 11.8308 13.3355 11.667 13.3337C11.5297 13.3329 11.3948 13.2983 11.2741 13.2329C11.1535 13.1675 11.0508 13.0733 10.9753 12.9587L9.30866 10.4587C9.21754 10.3231 9.16827 10.1637 9.167 10.0003V5.83366C9.167 5.61264 9.25479 5.40068 9.41107 5.2444C9.56735 5.08812 9.77931 5.00033 10.0003 5.00033C10.2213 5.00033 10.4333 5.08812 10.5896 5.2444C10.7459 5.40068 10.8337 5.61264 10.8337 5.83366V9.75032L12.3587 12.042C12.4793 12.2257 12.5224 12.4496 12.4787 12.665C12.435 12.8804 12.308 13.0698 12.1253 13.192Z" fill="#E31E24"/>
</svg>
