<svg width="28" height="28" viewBox="0 0 28 28" fill="none" xmlns="http://www.w3.org/2000/svg">
<g clip-path="url(#clip0_105_427)">
<path d="M9.79964 7.23333C9.92221 7.14141 10.0617 7.07452 10.2101 7.0365C10.3585 6.99848 10.513 6.99006 10.6646 7.01173C10.8163 7.03339 10.9622 7.08472 11.0941 7.16278C11.2259 7.24084 11.3411 7.3441 11.433 7.46667C11.5249 7.58923 11.5918 7.72871 11.6298 7.87712C11.6678 8.02554 11.6762 8.17999 11.6546 8.33166C11.6329 8.48333 11.5816 8.62924 11.5035 8.76108C11.4255 8.89291 11.3222 9.00808 11.1996 9.1C9.37498 10.4685 8.32964 11.7997 7.73114 12.9617C8.55291 12.7501 9.42016 12.7999 10.2124 13.1039C11.0046 13.408 11.6823 13.9514 12.1515 14.6584C12.6207 15.3655 12.8579 16.2011 12.8302 17.0492C12.8026 17.8973 12.5114 18.7158 11.9971 19.3907C11.4829 20.0657 10.7711 20.5637 9.96075 20.8155C9.15042 21.0673 8.28177 21.0604 7.47554 20.7957C6.66931 20.5311 5.96556 20.0218 5.4621 19.3388C4.95864 18.6557 4.68049 17.8328 4.66631 16.9843C4.51681 15.5516 4.72029 14.104 5.25898 12.768C5.95548 11.011 7.31698 9.09533 9.79964 7.23333ZM20.2996 7.23333C20.4222 7.14141 20.5617 7.07452 20.7101 7.0365C20.8585 6.99848 21.013 6.99006 21.1646 7.01173C21.3163 7.03339 21.4622 7.08472 21.594 7.16278C21.7259 7.24084 21.841 7.3441 21.933 7.46667C22.0249 7.58923 22.0918 7.72871 22.1298 7.87712C22.1678 8.02554 22.1763 8.17999 22.1546 8.33166C22.1329 8.48333 22.0816 8.62924 22.0035 8.76108C21.9255 8.89291 21.8222 9.00808 21.6996 9.1C19.875 10.4685 18.8296 11.7997 18.2311 12.9617C19.0529 12.7501 19.9202 12.7999 20.7124 13.1039C21.5046 13.408 22.1823 13.9514 22.6515 14.6584C23.1207 15.3655 23.3579 16.2011 23.3302 17.0492C23.3026 17.8973 23.0114 18.7158 22.4971 19.3907C21.9829 20.0657 21.2711 20.5637 20.4608 20.8155C19.6504 21.0673 18.7818 21.0604 17.9755 20.7957C17.1693 20.5311 16.4656 20.0218 15.9621 19.3388C15.4586 18.6557 15.1805 17.8328 15.1663 16.9843C15.0168 15.5516 15.2203 14.104 15.759 12.768C16.4566 11.011 17.817 9.09533 20.2996 7.23333Z" fill="#545454"/>
</g>
<defs>
<clipPath id="clip0_105_427">
<rect width="28" height="28" fill="white"/>
</clipPath>
</defs>
</svg>
