<svg width="89" height="89" viewBox="0 0 89 89" fill="none" xmlns="http://www.w3.org/2000/svg">
<g filter="url(#filter0_d_169_19)">
<rect x="69" y="69" width="49" height="49" rx="10" transform="rotate(-180 69 69)" fill="white"/>
</g>
<path d="M56.7071 45.7071C57.0976 45.3166 57.0976 44.6834 56.7071 44.2929L50.3431 37.9289C49.9526 37.5384 49.3195 37.5384 48.9289 37.9289C48.5384 38.3195 48.5384 38.9526 48.9289 39.3431L54.5858 45L48.9289 50.6569C48.5384 51.0474 48.5384 51.6805 48.9289 52.0711C49.3195 52.4616 49.9526 52.4616 50.3431 52.0711L56.7071 45.7071ZM34 46H56V44H34V46Z" fill="black"/>
<defs>
<filter id="filter0_d_169_19" x="0" y="0" width="89" height="89" filterUnits="userSpaceOnUse" color-interpolation-filters="sRGB">
<feFlood flood-opacity="0" result="BackgroundImageFix"/>
<feColorMatrix in="SourceAlpha" type="matrix" values="0 0 0 0 0 0 0 0 0 0 0 0 0 0 0 0 0 0 127 0" result="hardAlpha"/>
<feOffset/>
<feGaussianBlur stdDeviation="10"/>
<feComposite in2="hardAlpha" operator="out"/>
<feColorMatrix type="matrix" values="0 0 0 0 0 0 0 0 0 0 0 0 0 0 0 0 0 0 0.25 0"/>
<feBlend mode="normal" in2="BackgroundImageFix" result="effect1_dropShadow_169_19"/>
<feBlend mode="normal" in="SourceGraphic" in2="effect1_dropShadow_169_19" result="shape"/>
</filter>
</defs>
</svg>
