<svg width="161" height="123" viewBox="0 0 161 123" fill="none" xmlns="http://www.w3.org/2000/svg">
<g opacity="0.1">
<path d="M16.8045 57.789L21.8731 45.6153L90.0334 73.9941L84.9648 86.1679C77.1282 104.99 55.5172 113.895 36.6952 106.059C17.8733 98.222 8.96792 76.611 16.8045 57.789Z" stroke="black" stroke-width="4"/>
<path d="M16.8045 57.789L21.8731 45.6153L90.0334 73.9941L84.9648 86.1679C77.1282 104.99 55.5172 113.895 36.6952 106.059C17.8733 98.222 8.96792 76.611 16.8045 57.789Z" stroke="#D0021B" stroke-width="4"/>
</g>
<g opacity="0.1">
<path d="M139.266 71.6183L132.673 83.0384L68.7321 46.1223L75.3255 34.7023C85.5195 17.0456 108.097 10.9959 125.754 21.19C143.41 31.3841 149.46 53.9616 139.266 71.6183Z" stroke="black" stroke-width="4"/>
<path d="M139.266 71.6183L132.673 83.0384L68.7321 46.1223L75.3255 34.7023C85.5195 17.0456 108.097 10.9959 125.754 21.19C143.41 31.3841 149.46 53.9616 139.266 71.6183Z" stroke="#D0021B" stroke-width="4"/>
</g>
</svg>
