<svg width="934" height="1691" viewBox="0 0 934 1691" fill="none" xmlns="http://www.w3.org/2000/svg">
<path fill-rule="evenodd" clip-rule="evenodd" d="M0 23.8722L2.57655 28.3336L18.9398 0H24.8615L41.2248 28.3336L57.5881 0H63.5098L79.8731 28.3336L96.2364 0H102.158L118.521 28.3336L134.885 0H140.806L157.17 28.3336L173.533 0H179.454L195.818 28.3336L212.182 0H218.103L234.466 28.3336L250.83 0H256.751L273.114 28.3336L289.478 0H295.399L311.763 28.3336L328.126 0H334.047L350.411 28.3336L366.775 0H372.696L389.059 28.3336L405.423 0H411.344L427.708 28.3336L444.071 0H449.992L466.356 28.3336L482.72 0H488.64L505.004 28.3336L521.368 0H527.289L543.652 28.3336L560.016 0H565.937L582.301 28.3336L598.664 0H604.585L620.949 28.3336L637.313 0H643.234L659.597 28.3336L675.961 0H681.882L698.246 28.3336L714.609 0H720.53L736.894 28.3336L753.257 0H759.178L775.542 28.3336L791.906 0H797.827L814.19 28.3336L830.554 0H836.475L852.839 28.3336L869.202 0H875.123L891.487 28.3336L907.851 0H913.771L930.135 28.3336L934 21.6415V1241.72C933.16 1241.59 932.299 1241.53 931.423 1241.53C922.174 1241.53 914.676 1249.02 914.676 1258.27C914.676 1267.52 922.174 1275.01 931.423 1275.01C932.299 1275.01 933.16 1274.94 934 1274.81V1669.36L930.135 1662.67L913.771 1691H907.851L891.487 1662.67L875.123 1691H869.202L852.839 1662.67L836.475 1691H830.554L814.19 1662.67L797.827 1691H791.906L775.542 1662.67L759.178 1691H753.257L736.894 1662.67L720.53 1691H714.609L698.246 1662.67L681.882 1691H675.961L659.597 1662.67L643.234 1691H637.313L620.949 1662.67L604.585 1691H598.664L582.301 1662.67L565.937 1691H560.016L543.652 1662.67L527.289 1691H521.368L505.004 1662.67L488.64 1691H482.72L466.356 1662.67L449.992 1691H444.071L427.708 1662.67L411.344 1691H405.423L389.059 1662.67L372.696 1691H366.775L350.411 1662.67L334.047 1691H328.126L311.763 1662.67L295.399 1691H289.478L273.114 1662.67L256.751 1691H250.83L234.466 1662.67L218.103 1691H212.182L195.818 1662.67L179.454 1691H173.533L157.17 1662.67L140.806 1691H134.885L118.521 1662.67L102.158 1691H96.2364L79.8731 1662.67L63.5098 1691H57.5881L41.2248 1662.67L24.8615 1691H18.9398L2.57655 1662.67L0 1667.12V1274.96C0.425193 1274.99 0.854807 1275.01 1.28828 1275.01C10.5377 1275.01 18.0359 1267.52 18.0359 1258.27C18.0359 1249.02 10.5377 1241.53 1.28828 1241.53C0.854807 1241.53 0.425193 1241.54 0 1241.58V23.8722ZM50.2428 1275.01C59.4922 1275.01 66.9903 1267.52 66.9903 1258.27C66.9903 1249.02 59.4922 1241.53 50.2428 1241.53C40.9933 1241.53 33.4952 1249.02 33.4952 1258.27C33.4952 1267.52 40.9933 1275.01 50.2428 1275.01ZM115.945 1258.27C115.945 1267.52 108.447 1275.01 99.1972 1275.01C89.9478 1275.01 82.4497 1267.52 82.4497 1258.27C82.4497 1249.02 89.9478 1241.53 99.1972 1241.53C108.447 1241.53 115.945 1249.02 115.945 1258.27ZM148.152 1275.01C157.402 1275.01 164.899 1267.52 164.899 1258.27C164.899 1249.02 157.402 1241.53 148.152 1241.53C138.902 1241.53 131.404 1249.02 131.404 1258.27C131.404 1267.52 138.902 1275.01 148.152 1275.01ZM213.854 1258.27C213.854 1267.52 206.356 1275.01 197.106 1275.01C187.856 1275.01 180.359 1267.52 180.359 1258.27C180.359 1249.02 187.856 1241.53 197.106 1241.53C206.356 1241.53 213.854 1249.02 213.854 1258.27ZM246.061 1275.01C255.311 1275.01 262.808 1267.52 262.808 1258.27C262.808 1249.02 255.311 1241.53 246.061 1241.53C236.811 1241.53 229.313 1249.02 229.313 1258.27C229.313 1267.52 236.811 1275.01 246.061 1275.01ZM311.763 1258.27C311.763 1267.52 304.265 1275.01 295.015 1275.01C285.765 1275.01 278.268 1267.52 278.268 1258.27C278.268 1249.02 285.765 1241.53 295.015 1241.53C304.265 1241.53 311.763 1249.02 311.763 1258.27ZM343.97 1275.01C353.219 1275.01 360.717 1267.52 360.717 1258.27C360.717 1249.02 353.219 1241.53 343.97 1241.53C334.72 1241.53 327.222 1249.02 327.222 1258.27C327.222 1267.52 334.72 1275.01 343.97 1275.01ZM409.672 1258.27C409.672 1267.52 402.174 1275.01 392.924 1275.01C383.674 1275.01 376.177 1267.52 376.177 1258.27C376.177 1249.02 383.674 1241.53 392.924 1241.53C402.174 1241.53 409.672 1249.02 409.672 1258.27ZM441.879 1275.01C451.128 1275.01 458.626 1267.52 458.626 1258.27C458.626 1249.02 451.128 1241.53 441.879 1241.53C432.629 1241.53 425.131 1249.02 425.131 1258.27C425.131 1267.52 432.629 1275.01 441.879 1275.01ZM507.581 1258.27C507.581 1267.52 500.083 1275.01 490.833 1275.01C481.583 1275.01 474.086 1267.52 474.086 1258.27C474.086 1249.02 481.583 1241.53 490.833 1241.53C500.083 1241.53 507.581 1249.02 507.581 1258.27ZM539.788 1275.01C549.037 1275.01 556.535 1267.52 556.535 1258.27C556.535 1249.02 549.037 1241.53 539.788 1241.53C530.538 1241.53 523.04 1249.02 523.04 1258.27C523.04 1267.52 530.538 1275.01 539.788 1275.01ZM605.49 1258.27C605.49 1267.52 597.992 1275.01 588.742 1275.01C579.492 1275.01 571.994 1267.52 571.994 1258.27C571.994 1249.02 579.492 1241.53 588.742 1241.53C597.992 1241.53 605.49 1249.02 605.49 1258.27ZM637.697 1275.01C646.946 1275.01 654.444 1267.52 654.444 1258.27C654.444 1249.02 646.946 1241.53 637.697 1241.53C628.447 1241.53 620.949 1249.02 620.949 1258.27C620.949 1267.52 628.447 1275.01 637.697 1275.01ZM703.399 1258.27C703.399 1267.52 695.901 1275.01 686.651 1275.01C677.401 1275.01 669.903 1267.52 669.903 1258.27C669.903 1249.02 677.401 1241.53 686.651 1241.53C695.901 1241.53 703.399 1249.02 703.399 1258.27ZM735.606 1275.01C744.855 1275.01 752.353 1267.52 752.353 1258.27C752.353 1249.02 744.855 1241.53 735.606 1241.53C726.356 1241.53 718.858 1249.02 718.858 1258.27C718.858 1267.52 726.356 1275.01 735.606 1275.01ZM801.308 1258.27C801.308 1267.52 793.81 1275.01 784.56 1275.01C775.31 1275.01 767.812 1267.52 767.812 1258.27C767.812 1249.02 775.31 1241.53 784.56 1241.53C793.81 1241.53 801.308 1249.02 801.308 1258.27ZM833.514 1275.01C842.764 1275.01 850.262 1267.52 850.262 1258.27C850.262 1249.02 842.764 1241.53 833.514 1241.53C824.265 1241.53 816.767 1249.02 816.767 1258.27C816.767 1267.52 824.265 1275.01 833.514 1275.01ZM899.217 1258.27C899.217 1267.52 891.719 1275.01 882.469 1275.01C873.219 1275.01 865.721 1267.52 865.721 1258.27C865.721 1249.02 873.219 1241.53 882.469 1241.53C891.719 1241.53 899.217 1249.02 899.217 1258.27Z" fill="white"/>
</svg>
