<svg width="228" height="228" viewBox="0 0 228 228" fill="none" xmlns="http://www.w3.org/2000/svg">
<circle cx="114" cy="114" r="81" fill="#D9D9D9"/>
<circle cx="114" cy="114" r="81" fill="#1C2672"/>
<circle cx="114" cy="114" r="113.5" stroke="black" stroke-dasharray="2 2"/>
<path d="M158.662 103.259L144.385 101.117L137.96 88.0894L131.357 101.831L133.677 103.08L137.96 94.3355L142.6 103.616L152.773 105.043L145.277 112.36L147.24 122.532L138.674 117.892L137.425 120.391L150.81 127.529L148.133 113.252L158.662 103.259Z" fill="white"/>
<path d="M174.544 97.7263L162.944 96.1202L157.769 85.5909L152.236 96.834L154.556 97.9048L157.769 91.6586L161.159 98.6186L168.833 99.6894L163.122 105.043L164.55 112.717L158.304 109.326L157.055 111.825L168.119 117.714L166.156 105.936L174.544 97.7263Z" fill="white"/>
<path d="M91.7408 120.391L90.4916 117.892L81.9254 122.532L83.8885 112.36L76.3931 105.043L86.5654 103.616L91.2054 94.3355L95.4885 103.08L97.8085 101.831L91.2054 88.0894L84.7808 101.117L70.5039 103.259L81.0331 113.252L78.3562 127.529L91.7408 120.391Z" fill="white"/>
<path d="M64.613 112.717L66.0407 105.043L60.3299 99.6894L68.0038 98.6186L71.3945 91.6586L74.6068 97.9048L76.9268 96.834L71.3945 85.5909L66.2191 96.1202L54.6191 97.7263L63.0068 105.936L61.0438 117.714L72.1084 111.825L70.8591 109.326L64.613 112.717Z" fill="white"/>
<path d="M134.927 113.431C134.927 110.575 132.607 108.255 129.752 108.255H124.219H116.367C117.973 105.4 118.866 102.188 118.866 98.797V96.477C118.866 93.6216 116.546 91.1232 113.512 91.1232C110.656 91.1232 108.158 93.4432 108.158 96.477C108.158 100.046 106.909 103.615 104.767 106.471L103.339 108.255H91.561V110.932H104.767L106.909 108.077C109.586 104.686 111.013 100.582 111.013 96.2986C111.013 94.8709 112.262 93.6216 113.69 93.6216C115.118 93.6216 116.367 94.8709 116.367 96.2986V98.9755C116.367 102.009 115.475 104.865 114.047 107.363L111.906 111.111H124.398H129.752C131.179 111.111 132.25 112.182 132.25 113.609C132.25 115.215 131.001 116.465 129.395 116.465H125.826H125.647V119.142H125.826H129.395H129.573C131.001 119.142 132.25 120.391 132.25 121.819C132.25 123.246 131.001 124.495 129.573 124.495H125.647V127.172H129.573C131.001 127.172 132.25 128.422 132.25 129.849C132.25 131.277 131.001 132.526 129.573 132.526H127.253H125.826V135.203H127.253C128.681 135.203 129.93 136.452 129.93 137.88C129.93 139.308 128.681 140.022 127.253 140.022H111.013C110.299 140.022 109.764 139.843 109.05 139.665L106.195 138.237C105.124 137.702 103.696 137.345 102.447 137.345H89.0625V140.022H102.447C103.339 140.022 104.232 140.2 104.946 140.557L107.801 141.985C108.693 142.342 109.764 142.699 110.835 142.699H127.075C129.93 142.699 132.429 140.379 132.429 137.345C132.429 136.274 132.072 135.203 131.536 134.311C133.499 133.597 134.749 131.634 134.749 129.492C134.749 127.886 134.035 126.459 132.964 125.566C134.035 124.674 134.749 123.246 134.749 121.64C134.749 120.034 134.035 118.606 132.786 117.714C134.213 116.643 134.927 115.037 134.927 113.431Z" fill="white"/>
<path d="M98.1634 132.169H95.4865V134.846H98.1634V132.169Z" fill="white"/>
<path d="M104.409 132.169H101.732V134.846H104.409V132.169Z" fill="white"/>
<path d="M108.157 132.169H107.979V134.846H108.157V132.169Z" fill="white"/>
</svg>
