<svg width="228" height="228" viewBox="0 0 228 228" fill="none" xmlns="http://www.w3.org/2000/svg">
<circle cx="114" cy="114" r="81" fill="#D9D9D9"/>
<circle cx="114" cy="114" r="81" fill="#1C2672"/>
<circle cx="114" cy="114" r="113.5" stroke="black" stroke-dasharray="2 2"/>
<path d="M141.031 79.625L143.062 68.6875H84.625L86.6563 79.625H74.3125V93.8438C74.3125 104.938 82.5938 114 93.2188 115.25C95.0938 123.531 101.5 129.781 109.469 131.344L108.219 150.563H95.875V159.312H131.813V157.75V150.719H119.469L118.219 131.5C126.188 129.781 132.75 123.531 134.469 115.406C145.25 114.156 153.688 105.094 153.688 93.8438V79.625H141.031ZM139.625 87.5938H146.031V93.8438C146.031 100.094 141.813 105.406 136.031 107.125L139.625 87.5938ZM91.6563 106.969C86.0313 105.25 81.9688 99.9375 81.9688 93.8438V87.5938H88.2187L91.6563 106.969ZM77.4375 93.8438V82.75H87.2812L87.5938 84.4688H78.6875V93.8438C78.6875 101.969 84.4687 108.844 92.125 110.406L92.4375 112.125C84 110.562 77.4375 102.906 77.4375 93.8438ZM128.688 153.844V156.188H99V153.844H108.063H119.625H128.688ZM115.094 131.969L116.344 150.719H111.5L112.75 131.969H114H115.094ZM113.844 128.844C105.094 128.844 97.5937 122.594 96.0312 114L88.375 71.8125H139.313L131.656 114C130.094 122.594 122.594 128.844 113.844 128.844ZM150.563 93.8438C150.563 103.063 143.844 110.562 135.094 112.125L135.406 110.406C143.219 109 149.156 102.125 149.156 93.8438V84.4688H140.094L140.563 82.75H150.563V93.8438Z" fill="white"/>
<path d="M118.375 91.5L113.844 77.5938L112.281 82.125L109.312 91.5H94.7812L106.5 100.094L101.969 114L113.687 105.406L125.406 114L120.875 100.094L132.594 91.5H118.375ZM119.781 105.719L113.844 101.5L108.062 105.719L110.25 98.8437L104.469 94.625H111.656L113.844 87.75L116.031 94.625H123.375L117.594 98.8437L119.781 105.719Z" fill="white"/>
</svg>
