<svg width="228" height="228" viewBox="0 0 228 228" fill="none" xmlns="http://www.w3.org/2000/svg">
<circle cx="114" cy="114" r="81" fill="#D9D9D9"/>
<circle cx="114" cy="114" r="81" fill="#1C2672"/>
<circle cx="114" cy="114" r="113.5" stroke="black" stroke-dasharray="2 2"/>
<path d="M119.856 130.316V128.344C124.632 127.238 128.206 122.905 128.206 117.738C128.206 112.572 124.632 108.239 119.856 107.133V95.5406C122.328 96.416 124.584 98.3256 125.421 99.1929C126.373 100.188 127.953 100.224 128.95 99.2726C129.948 98.3199 129.985 96.7387 129.033 95.7405C128.842 95.5403 124.881 91.4489 119.856 90.3564V88.3928C119.856 87.0128 118.738 85.8947 117.358 85.8947C115.978 85.8947 114.86 87.0128 114.86 88.3928V90.412C110.187 91.5925 106.713 95.8774 106.713 100.97C106.713 106.063 110.187 110.348 114.86 111.529V122.927C112.485 121.782 110.209 119.532 109.401 118.577C108.513 117.521 106.937 117.384 105.882 118.272C104.825 119.159 104.688 120.735 105.576 121.791C106.076 122.386 110.012 126.919 114.86 128.251V130.315C114.86 131.695 115.978 132.813 117.358 132.813C118.738 132.814 119.856 131.695 119.856 130.316ZM123.21 117.738C123.21 120.107 121.832 122.149 119.856 123.081V112.396C121.832 113.328 123.21 115.369 123.21 117.738ZM111.709 100.97C111.709 98.6833 112.993 96.7014 114.86 95.7278V106.214C112.993 105.24 111.709 103.258 111.709 100.97Z" fill="white"/>
<path d="M112.603 154.456C112.69 154.465 112.777 154.47 112.863 154.47C113.478 154.47 114.074 154.243 114.535 153.828C115.061 153.354 115.361 152.68 115.361 151.972V137.557C115.361 136.328 114.468 135.282 113.254 135.089C102.116 133.325 93.2166 124.281 91.6118 113.096C91.4356 111.866 90.3817 110.953 89.1389 110.953H74.7814C74.0779 110.953 73.4071 111.25 72.9334 111.77C72.4601 112.29 72.2279 112.986 72.2942 113.686C74.3204 135.077 91.2727 152.224 112.603 154.456ZM87.0498 115.949C88.2852 121.699 91.1051 126.923 95.2821 131.164C99.4614 135.406 104.641 138.302 110.365 139.616V149.102C93.6023 146.157 80.3883 132.779 77.6223 115.949L87.0498 115.949Z" fill="white"/>
<path d="M76.0904 137.674C75.3829 136.489 73.849 136.103 72.6649 136.81C71.4801 137.517 71.0937 139.051 71.8012 140.235C71.8624 140.338 71.9241 140.441 71.9867 140.543C72.458 141.313 73.2791 141.738 74.1201 141.738C74.5645 141.738 75.0148 141.62 75.4212 141.37C76.5983 140.65 76.9687 139.113 76.2489 137.936L76.0904 137.674Z" fill="white"/>
<path d="M68.1569 123.599C69.5293 123.457 70.5269 122.23 70.3853 120.857L70.3547 120.548C70.2254 119.175 69.0093 118.168 67.6333 118.295C66.2597 118.425 65.2511 119.643 65.3803 121.017L65.4153 121.371C65.5478 122.656 66.6324 123.612 67.8971 123.612C67.9827 123.612 68.0697 123.608 68.1569 123.599Z" fill="white"/>
<path d="M72.3654 129.701L72.2644 129.405C71.8234 128.099 70.4058 127.396 69.0984 127.837C67.791 128.278 67.0892 129.696 67.5302 131.003L67.6448 131.338C68.0029 132.371 68.9702 133.018 70.0051 133.018C70.2762 133.018 70.5527 132.974 70.8235 132.88C72.1272 132.428 72.8174 131.004 72.3654 129.701Z" fill="white"/>
<path d="M114.342 159.004L114.197 159.003C112.817 159.003 111.699 160.121 111.699 161.501C111.699 162.881 112.817 164 114.197 164L114.303 164C114.31 164 114.316 164 114.323 164C115.694 164 116.81 162.894 116.821 161.521C116.832 160.141 115.722 159.014 114.342 159.004Z" fill="white"/>
<path d="M105.406 158.173L105.089 158.111C103.735 157.841 102.421 158.724 102.153 160.077C101.886 161.431 102.766 162.745 104.12 163.012L104.456 163.078C104.617 163.109 104.776 163.124 104.934 163.124C106.107 163.124 107.153 162.294 107.384 161.1C107.646 159.745 106.76 158.435 105.406 158.173Z" fill="white"/>
<path d="M96.6657 155.549L96.3739 155.425C95.1052 154.885 93.6373 155.474 93.0957 156.743C92.5541 158.012 93.144 159.479 94.413 160.021L94.7348 160.157C95.0502 160.289 95.3773 160.352 95.6994 160.352C96.676 160.352 97.6034 159.775 98.0044 158.818C98.538 157.546 97.9385 156.082 96.6657 155.549Z" fill="white"/>
<path d="M81.5579 144.971C80.6195 143.96 79.0387 143.901 78.0274 144.839C77.0162 145.778 76.9569 147.358 77.8955 148.37L78.1294 148.621C78.6213 149.147 79.2869 149.412 79.9544 149.412C80.5659 149.412 81.1788 149.189 81.6605 148.738C82.6681 147.796 82.7207 146.215 81.778 145.207L81.5579 144.971Z" fill="white"/>
<path d="M88.6727 151.162L88.4179 150.984C87.2904 150.188 85.7319 150.457 84.9361 151.584C84.1404 152.711 84.4089 154.27 85.536 155.066L85.8272 155.269C86.2612 155.57 86.7568 155.714 87.2478 155.714C88.0395 155.714 88.8186 155.339 89.3036 154.639C90.0887 153.504 89.8066 151.948 88.6727 151.162Z" fill="white"/>
<path d="M117.359 64C105.861 64 94.8997 68.3238 86.4945 76.1754C78.134 83.9851 73.0627 94.554 72.2139 105.936C72.1623 106.629 72.4015 107.312 72.8745 107.821C73.3471 108.33 74.0106 108.62 74.7055 108.62H89.0307C90.3021 108.62 91.371 107.664 91.5132 106.401C92.9958 93.222 104.107 83.2839 117.359 83.2839C131.705 83.2839 143.375 94.9791 143.375 109.355C143.375 122.418 133.637 133.528 120.724 135.198C119.478 135.36 118.546 136.42 118.546 137.676V152.049C118.546 152.749 118.84 153.416 119.355 153.889C119.818 154.314 120.421 154.548 121.044 154.548C121.115 154.548 121.186 154.545 121.257 154.539C132.514 153.575 142.948 148.448 150.638 140.101C158.372 131.705 162.632 120.786 162.632 109.355C162.632 84.3458 142.322 64 117.359 64ZM123.542 149.233V139.792C137.843 136.892 148.371 124.178 148.371 109.354C148.371 92.2234 134.459 78.2869 117.359 78.2869C102.314 78.2869 89.5836 89.0307 86.8776 103.623H77.4874C80.2851 83.9994 97.302 68.9964 117.359 68.9964C139.567 68.9964 157.635 87.1008 157.635 109.354C157.635 129.213 142.867 146.224 123.542 149.233Z" fill="white"/>
</svg>
