<svg width="228" height="228" viewBox="0 0 228 228" fill="none" xmlns="http://www.w3.org/2000/svg">
<circle cx="114" cy="114" r="81" fill="#D9D9D9"/>
<circle cx="114" cy="114" r="81" fill="#1C2672"/>
<circle cx="114" cy="114" r="113.5" stroke="black" stroke-dasharray="2 2"/>
<path fill-rule="evenodd" clip-rule="evenodd" d="M140.667 84.3333C142.324 84.3333 143.667 85.6764 143.667 87.3333V114C143.667 115.657 142.324 117 140.667 117C139.011 117 137.667 115.657 137.667 114V94.5759L94.5766 137.667H114.001C115.658 137.667 117.001 139.01 117.001 140.667C117.001 142.323 115.658 143.667 114.001 143.667H87.334C86.5383 143.667 85.7753 143.351 85.2127 142.788C84.6501 142.225 84.334 141.462 84.334 140.667V114C84.334 112.343 85.6771 111 87.334 111C88.9909 111 90.334 112.343 90.334 114V133.424L133.425 90.3333H114.001C112.344 90.3333 111.001 88.9901 111.001 87.3333C111.001 85.6764 112.344 84.3333 114.001 84.3333H140.667Z" fill="white"/>
</svg>
