<svg width="228" height="228" viewBox="0 0 228 228" fill="none" xmlns="http://www.w3.org/2000/svg">
<circle cx="114" cy="114" r="81" fill="#D9D9D9"/>
<circle cx="114" cy="114" r="81" fill="#1C2672"/>
<circle cx="114" cy="114" r="113.5" stroke="black" stroke-dasharray="2 2"/>
<path d="M114.127 134.844C118.949 134.844 123.623 133.172 127.351 130.112C131.078 127.053 133.63 122.795 134.571 118.065C135.511 113.336 134.783 108.426 132.509 104.173C130.236 99.9196 126.558 96.5864 122.103 94.741C117.647 92.8956 112.689 92.6522 108.075 94.0522C103.46 95.4523 99.4729 98.4092 96.7938 102.419C94.1146 106.429 92.9087 111.244 93.3815 116.043C93.8543 120.843 95.9766 125.329 99.3868 128.739C101.318 130.681 103.615 132.22 106.145 133.268C108.675 134.316 111.388 134.852 114.127 134.844ZM101.315 101.187C104.279 98.2228 108.179 96.3777 112.351 95.9664C116.523 95.5552 120.709 96.6032 124.195 98.932C127.68 101.261 130.251 104.726 131.468 108.738C132.685 112.749 132.474 117.059 130.87 120.932C129.266 124.805 126.368 128.003 122.671 129.979C118.974 131.955 114.706 132.589 110.594 131.771C106.483 130.953 102.782 128.735 100.122 125.495C97.4626 122.254 96.0089 118.192 96.0088 113.999C96.0021 111.619 96.4677 109.261 97.3785 107.062C98.2892 104.863 99.6271 102.866 101.315 101.187ZM94.8448 141.363L96.9268 139.281C97.1556 139.047 97.4582 138.898 97.7837 138.86C98.1093 138.822 98.438 138.897 98.7148 139.072C101.367 140.707 104.264 141.908 107.296 142.628C107.615 142.7 107.901 142.88 108.104 143.137C108.307 143.394 108.416 143.713 108.412 144.04V146.982C108.412 147.646 108.675 148.281 109.144 148.75C109.613 149.219 110.249 149.482 110.912 149.482H117.346C118.009 149.482 118.645 149.219 119.114 148.75C119.582 148.281 119.846 147.646 119.846 146.982V144.04C119.842 143.713 119.95 143.394 120.153 143.137C120.357 142.879 120.642 142.7 120.962 142.628C123.993 141.908 126.89 140.708 129.543 139.072C129.82 138.897 130.148 138.822 130.474 138.86C130.799 138.898 131.102 139.047 131.331 139.281L133.413 141.363C133.881 141.831 134.517 142.094 135.179 142.094C135.841 142.094 136.476 141.831 136.945 141.363L141.495 136.813C141.963 136.345 142.225 135.71 142.225 135.047C142.225 134.385 141.963 133.75 141.495 133.281L139.409 131.199C139.174 130.971 139.025 130.668 138.987 130.343C138.949 130.017 139.024 129.688 139.2 129.411C140.834 126.759 142.035 123.862 142.755 120.83C142.827 120.511 143.006 120.225 143.263 120.022C143.52 119.819 143.839 119.71 144.167 119.714H147.11C147.773 119.714 148.409 119.451 148.878 118.982C149.346 118.513 149.61 117.878 149.61 117.214V110.782C149.61 110.119 149.346 109.484 148.878 109.015C148.409 108.546 147.773 108.282 147.11 108.282H144.168C143.84 108.287 143.521 108.178 143.264 107.975C143.006 107.772 142.827 107.486 142.755 107.166C142.035 104.135 140.835 101.238 139.2 98.5855C139.024 98.3087 138.949 97.9799 138.987 97.6544C139.025 97.3289 139.174 97.0263 139.409 96.7975L141.491 94.7155C141.959 94.2468 142.221 93.6116 142.221 92.9495C142.221 92.2873 141.959 91.6522 141.491 91.1835L136.941 86.6335C136.472 86.1654 135.837 85.9025 135.174 85.9025C134.512 85.9025 133.877 86.1654 133.408 86.6335L131.327 88.7175C131.098 88.9521 130.795 89.1009 130.47 89.1389C130.144 89.177 129.816 89.102 129.539 88.9265C126.886 87.2918 123.989 86.0917 120.958 85.3715C120.638 85.2997 120.353 85.1203 120.15 84.8632C119.946 84.6062 119.838 84.2871 119.842 83.9595V81.0165C119.842 80.3534 119.578 79.7175 119.11 79.2487C118.641 78.7799 118.005 78.5165 117.342 78.5165H110.91C110.247 78.5165 109.611 78.7799 109.142 79.2487C108.673 79.7175 108.41 80.3534 108.41 81.0165V83.9585C108.414 84.2862 108.305 84.6053 108.102 84.8625C107.899 85.1197 107.613 85.2993 107.294 85.3715C104.262 86.0915 101.365 87.2917 98.7128 88.9265C98.436 89.102 98.1073 89.177 97.7817 89.1389C97.4562 89.1009 97.1536 88.9521 96.9248 88.7175L94.8428 86.6355C94.3741 86.1677 93.7389 85.905 93.0768 85.905C92.4146 85.905 91.7795 86.1677 91.3108 86.6355L86.7608 91.1845C86.2927 91.6532 86.0298 92.2885 86.0298 92.951C86.0298 93.6134 86.2927 94.2487 86.7608 94.7175L88.8448 96.7995C89.0792 97.0284 89.2279 97.3309 89.2662 97.6563C89.3044 97.9817 89.2298 98.3104 89.0548 98.5875C87.4192 101.24 86.2187 104.137 85.4988 107.168C85.4268 107.488 85.2472 107.774 84.99 107.977C84.7327 108.18 84.4135 108.289 84.0858 108.284H81.1438C80.4807 108.284 79.8448 108.548 79.376 109.017C78.9072 109.486 78.6438 110.121 78.6438 110.784V117.218C78.6438 117.882 78.9072 118.517 79.376 118.986C79.8448 119.455 80.4807 119.718 81.1438 119.718H84.0868C84.4144 119.714 84.7335 119.823 84.9905 120.026C85.2476 120.229 85.427 120.515 85.4988 120.834C86.2189 123.866 87.419 126.763 89.0538 129.415C89.2293 129.692 89.3043 130.021 89.2662 130.347C89.2282 130.672 89.0794 130.975 88.8448 131.203L86.7628 133.285C86.2965 133.755 86.0348 134.39 86.0348 135.051C86.0348 135.713 86.2965 136.348 86.7628 136.817L91.3128 141.367C91.782 141.835 92.4174 142.097 93.0796 142.096C93.7418 142.095 94.3766 141.832 94.8448 141.363ZM88.8528 135.047L90.7728 133.127C91.4396 132.464 91.8619 131.594 91.9708 130.659C92.0798 129.725 91.869 128.781 91.3728 127.981C89.8914 125.576 88.804 122.949 88.1518 120.199C87.9365 119.284 87.4176 118.468 86.6795 117.885C85.9413 117.301 85.0275 116.985 84.0868 116.987H81.3728V111.011H84.0868C85.0275 111.014 85.9413 110.698 86.6795 110.114C87.4176 109.531 87.9365 108.715 88.1518 107.799C88.805 105.05 89.8937 102.423 91.3768 100.017C91.8728 99.2181 92.0835 98.2742 91.9745 97.3398C91.8656 96.4053 91.4434 95.5353 90.7768 94.8715L88.8578 92.9515L93.0828 88.7265L95.0028 90.6455C95.6665 91.3123 96.5366 91.7346 97.4711 91.8435C98.4056 91.9525 99.3494 91.7417 100.149 91.2455C102.553 89.764 105.179 88.6766 107.927 88.0245C108.843 87.809 109.659 87.2899 110.242 86.5516C110.825 85.8133 111.141 84.8993 111.139 83.9585V81.2455H117.115V83.9595C117.112 84.9002 117.428 85.8142 118.012 86.5523C118.595 87.2905 119.411 87.8094 120.327 88.0245C123.076 88.6774 125.703 89.7662 128.109 91.2495C128.908 91.7455 129.852 91.9562 130.786 91.8472C131.721 91.7383 132.591 91.3161 133.255 90.6495L135.175 88.7305L139.4 92.9555L137.481 94.8755C136.814 95.5393 136.392 96.4093 136.283 97.3438C136.174 98.2782 136.385 99.2221 136.881 100.021C138.363 102.426 139.45 105.052 140.102 107.799C140.317 108.715 140.836 109.531 141.574 110.115C142.313 110.698 143.227 111.014 144.168 111.011H146.881V116.987H144.167C143.226 116.985 142.312 117.301 141.574 117.885C140.836 118.468 140.317 119.284 140.102 120.199C139.449 122.949 138.36 125.576 136.877 127.981C136.381 128.781 136.17 129.725 136.279 130.659C136.388 131.594 136.81 132.464 137.477 133.127L139.396 135.047L135.171 139.273L133.251 137.353C132.587 136.687 131.717 136.264 130.782 136.155C129.848 136.046 128.904 136.257 128.105 136.753C125.7 138.235 123.075 139.322 120.327 139.974C119.411 140.19 118.595 140.709 118.012 141.447C117.428 142.186 117.112 143.1 117.115 144.04V146.753H111.139V144.04C111.141 143.1 110.825 142.186 110.242 141.447C109.659 140.709 108.843 140.19 107.927 139.974C105.177 139.321 102.55 138.232 100.144 136.749C99.3445 136.254 98.4009 136.043 97.4666 136.152C96.5323 136.261 95.6625 136.683 94.9988 137.349L93.0788 139.269L88.8528 135.047ZM157.037 118.599C156.306 125.36 153.99 131.853 150.276 137.55C146.562 143.246 141.555 147.985 135.664 151.381C129.772 154.777 123.162 156.733 116.371 157.091C109.58 157.45 102.801 156.199 96.5848 153.442L98.1218 157.108C98.191 157.274 98.227 157.451 98.2277 157.63C98.2285 157.809 98.1939 157.986 98.1261 158.152C98.0583 158.318 97.9585 158.468 97.8324 158.596C97.7063 158.723 97.5564 158.824 97.3913 158.893C97.2261 158.962 97.049 158.998 96.8699 158.999C96.6909 159 96.5134 158.965 96.3477 158.897C96.182 158.829 96.0313 158.73 95.9042 158.604C95.777 158.477 95.676 158.328 95.6068 158.162L92.6558 151.126C92.6408 151.09 92.6268 151.054 92.6148 151.017C92.6029 150.983 92.5929 150.948 92.5848 150.912V150.899C92.509 150.582 92.5502 150.247 92.7008 149.957L92.7368 149.893C92.8874 149.638 93.1179 149.439 93.3928 149.326L100.427 146.374C100.76 146.235 101.136 146.233 101.47 146.37C101.805 146.507 102.072 146.771 102.211 147.105C102.351 147.438 102.353 147.814 102.216 148.149C102.079 148.483 101.814 148.75 101.481 148.889L97.1508 150.705C101.154 152.556 105.435 153.737 109.821 154.199C117.923 155.067 126.098 153.467 133.275 149.608C140.451 145.749 146.294 139.811 150.038 132.573C153.781 125.336 155.25 117.136 154.252 109.049C153.254 100.962 149.835 93.3649 144.445 87.2545C144.319 87.1214 144.222 86.9644 144.158 86.7928C144.094 86.6213 144.066 86.4386 144.074 86.2558C144.083 86.073 144.128 85.8938 144.207 85.7288C144.286 85.5639 144.398 85.4165 144.535 85.2956C144.673 85.1747 144.833 85.0827 145.007 85.0251C145.18 84.9675 145.364 84.9454 145.546 84.9602C145.729 84.9751 145.906 85.0265 146.068 85.1114C146.23 85.1963 146.374 85.313 146.49 85.4545C150.457 89.9416 153.444 95.2071 155.26 100.914C157.076 106.622 157.681 112.645 157.037 118.599ZM83.8088 140.744C83.9344 140.878 84.0319 141.035 84.0956 141.206C84.1592 141.378 84.1877 141.56 84.1792 141.743C84.1708 141.926 84.1256 142.105 84.0464 142.27C83.9672 142.435 83.8556 142.582 83.7182 142.703C83.5809 142.824 83.4206 142.916 83.2469 142.974C83.0732 143.031 82.8897 143.054 82.7073 143.039C82.5249 143.024 82.3474 142.972 82.1853 142.888C82.0232 142.803 81.8798 142.686 81.7638 142.544C75.2606 135.155 71.4778 125.766 71.0423 115.933C70.6068 106.099 73.5448 96.4119 79.3692 88.477C85.1937 80.5421 93.5549 74.8358 103.067 72.304C112.579 69.7722 122.67 70.5669 131.669 74.5565L130.132 70.8905C129.992 70.557 129.99 70.1816 130.127 69.8469C130.264 69.5123 130.529 69.2457 130.862 69.106C131.196 68.9662 131.571 68.9646 131.906 69.1016C132.24 69.2386 132.507 69.503 132.647 69.8365L135.6 76.8775L135.609 76.8995C135.692 77.1046 135.724 77.3271 135.702 77.5475C135.689 77.6828 135.655 77.8153 135.602 77.9405C135.464 78.2698 135.202 78.5315 134.872 78.6685L127.827 81.6245C127.493 81.7642 127.118 81.7658 126.783 81.6288C126.449 81.4918 126.182 81.2275 126.042 80.894C125.903 80.5605 125.901 80.1851 126.038 79.8504C126.175 79.5158 126.439 79.2492 126.773 79.1095L131.103 77.2935C122.681 73.4001 113.177 72.5212 104.185 74.8041C95.1921 77.087 87.2581 82.3928 81.7135 89.8316C76.1689 97.2704 73.351 106.39 73.7325 115.66C74.114 124.93 77.6717 133.786 83.8088 140.744ZM114.127 125.861C116.871 125.862 119.531 124.911 121.652 123.17C123.774 121.429 125.226 119.006 125.762 116.315C126.298 113.623 125.884 110.829 124.59 108.409C123.297 105.988 121.204 104.091 118.669 103.041C116.133 101.99 113.312 101.852 110.686 102.648C108.06 103.444 105.791 105.127 104.266 107.408C102.741 109.69 102.054 112.43 102.323 115.161C102.592 117.892 103.799 120.446 105.74 122.386C106.838 123.492 108.145 124.368 109.585 124.964C111.025 125.561 112.568 125.866 114.127 125.861ZM107.668 107.54C108.945 106.263 110.573 105.393 112.345 105.041C114.116 104.689 115.953 104.869 117.622 105.561C119.291 106.252 120.717 107.423 121.721 108.925C122.725 110.427 123.26 112.193 123.26 113.999C123.26 115.806 122.725 117.572 121.721 119.074C120.717 120.576 119.291 121.747 117.622 122.438C115.953 123.129 114.116 123.31 112.345 122.958C110.573 122.606 108.945 121.736 107.668 120.458C106.816 119.612 106.14 118.606 105.679 117.497C105.218 116.389 104.98 115.2 104.98 113.999C104.98 112.799 105.218 111.61 105.679 110.502C106.14 109.393 106.816 108.387 107.668 107.54ZM108.809 113.333C109.032 113.049 109.36 112.865 109.719 112.822C110.078 112.78 110.439 112.881 110.724 113.104L113.167 115.026L117.342 110.199C117.581 109.935 117.914 109.776 118.27 109.754C118.626 109.733 118.976 109.851 119.245 110.084C119.514 110.318 119.682 110.647 119.712 111.002C119.741 111.357 119.631 111.71 119.404 111.984L114.377 117.799C114.148 118.065 113.825 118.231 113.476 118.264C113.127 118.298 112.779 118.195 112.504 117.978L109.038 115.253C108.896 115.143 108.778 115.005 108.69 114.849C108.602 114.692 108.545 114.52 108.524 114.341C108.503 114.163 108.517 113.982 108.566 113.809C108.615 113.636 108.697 113.474 108.809 113.333Z" fill="white"/>
</svg>
