<svg width="228" height="228" viewBox="0 0 228 228" fill="none" xmlns="http://www.w3.org/2000/svg">
<circle cx="114" cy="114" r="81" fill="#D9D9D9"/>
<circle cx="114" cy="114" r="81" fill="#1C2672"/>
<circle cx="114" cy="114" r="113.5" stroke="black" stroke-dasharray="2 2"/>
<path d="M132.75 59.1251H95.2502C92.6721 59.1251 90.5627 61.2344 90.5627 63.8126V82.5626C90.5627 85.1407 92.6721 87.2501 95.2502 87.2501H108.531L114 94.5352L119.469 87.2501H132.75C135.328 87.2501 137.438 85.1407 137.438 82.5626V63.8126C137.438 61.2344 135.328 59.1251 132.75 59.1251ZM134.313 82.5626C134.313 83.4219 133.61 84.1251 132.75 84.1251H117.906L114 89.3399L110.094 84.1251H95.2502C94.3909 84.1251 93.6877 83.4219 93.6877 82.5626V63.8126C93.6877 62.9532 94.3909 62.2501 95.2502 62.2501H132.75C133.61 62.2501 134.313 62.9532 134.313 63.8126V82.5626Z" fill="white"/>
<path d="M84.0556 83.2669L81.4553 85.0004L87.7065 94.3778L90.3068 92.6443L84.0556 83.2669Z" fill="white"/>
<path d="M73.9812 92.0611L72.7502 94.9333L83.6825 99.6185L84.9134 96.7463L73.9812 92.0611Z" fill="white"/>
<path d="M156.188 90.375H146.812C144.234 90.375 142.125 92.4844 142.125 95.0625V148.188C142.125 150.766 144.234 152.875 146.812 152.875H156.188C158.766 152.875 160.875 150.766 160.875 148.188V95.0625C160.875 92.4844 158.766 90.375 156.188 90.375ZM157.75 148.188C157.75 149.047 157.047 149.75 156.188 149.75H146.812C145.953 149.75 145.25 149.047 145.25 148.188V145.062H157.75V148.188ZM157.75 141.938H145.25V134.125H157.75V141.938ZM157.75 131H145.25V123.188H157.75V131ZM157.75 120.062H145.25V112.25H157.75V120.062ZM157.75 109.125H145.25V101.312H157.75V109.125ZM157.75 98.1875H145.25V95.0625C145.25 94.2031 145.953 93.5 146.812 93.5H156.188C157.047 93.5 157.75 94.2031 157.75 95.0625V98.1875Z" fill="white"/>
<path d="M132.75 90.3751H123.375C120.797 90.3751 118.688 92.4844 118.688 95.0626V101.859C118.668 101.469 118.629 101.098 118.512 100.727C118.18 99.5352 117.399 98.5001 116.305 97.8946L108.141 93.2657C105.895 91.9962 103.024 92.7774 101.754 95.0235L96.6956 103.969C95.8557 103.266 94.7815 102.875 93.6877 102.875H67.1252V106H78.219C78.9612 109.633 82.1643 112.25 85.8752 112.25H94.1956C92.3792 116.059 88.5315 118.5 84.3127 118.5H67.1252V121.625H84.3127C85.1526 121.625 85.9924 121.547 86.8323 121.391L75.5627 141.254C74.2932 143.5 75.0745 146.371 77.3206 147.641L85.4846 152.27C86.1877 152.66 86.9885 152.875 87.7893 152.875C88.219 152.875 88.6291 152.816 89.0393 152.699C90.2307 152.367 91.2659 151.586 91.8713 150.492L118.082 104.281C118.453 103.617 118.668 102.856 118.688 102.094V148.188C118.688 150.766 120.797 152.875 123.375 152.875H132.75C135.328 152.875 137.438 150.766 137.438 148.188V95.0626C137.438 92.4844 135.328 90.3751 132.75 90.3751ZM85.8752 109.125C83.8831 109.125 82.1252 107.875 81.4612 106H93.6877C94.5471 106 95.2502 106.703 95.2502 107.563C95.2502 108.09 95.2112 108.617 95.1331 109.125H85.8752ZM89.1565 148.949C88.7268 149.691 87.7698 149.965 87.0276 149.535L78.8635 144.906C78.1213 144.477 77.8479 143.52 78.2776 142.777L79.8206 140.063L90.6995 146.234L89.1565 148.949ZM92.2424 143.52L81.3635 137.348L85.2112 130.551L96.0901 136.723L92.2424 143.52ZM97.6331 134.008L86.7737 127.836L90.6213 121.039L101.481 127.191L97.6331 134.008ZM103.024 124.496L92.8479 118.734C94.9768 117.113 96.5979 114.906 97.5159 112.406L106.871 117.719L103.024 124.496ZM108.414 114.984L98.2581 109.223C98.3166 108.676 98.3557 108.109 98.3557 107.563C98.3557 107.504 98.3557 107.426 98.3557 107.367L101.383 102.016L112.262 108.188L108.414 114.984ZM115.367 102.738L113.824 105.453L102.946 99.2813L104.489 96.5665C104.918 95.8243 105.875 95.5508 106.617 95.9805L114.781 100.609C115.524 101.039 115.778 101.996 115.367 102.738ZM134.313 148.188C134.313 149.047 133.61 149.75 132.75 149.75H123.375C122.516 149.75 121.813 149.047 121.813 148.188V145.063H134.313V148.188ZM134.313 141.938H121.813V134.125H134.313V141.938ZM134.313 131H121.813V123.188H134.313V131ZM134.313 120.063H121.813V112.25H134.313V120.063ZM134.313 109.125H121.813V101.313H134.313V109.125ZM134.313 98.1876H121.813V95.0626C121.813 94.2032 122.516 93.5001 123.375 93.5001H132.75C133.61 93.5001 134.313 94.2032 134.313 95.0626V98.1876Z" fill="white"/>
<path d="M124.937 75.668L117.125 67.8555L110.875 74.1055L101.051 64.2617L98.8242 66.4883L110.875 78.5195L117.125 72.2695L122.73 77.875H118.687V81H128.062V71.625H124.937V75.668Z" fill="white"/>
<path d="M64.6884 158.492H64.5365C64.5337 158.472 64.528 158.454 64.5195 158.439C64.5109 158.424 64.5 158.411 64.4865 158.4C64.4731 158.389 64.4576 158.38 64.4401 158.375C64.4227 158.369 64.4039 158.366 64.3836 158.366C64.3468 158.366 64.3148 158.375 64.2875 158.393C64.2602 158.411 64.2391 158.438 64.224 158.472C64.209 158.507 64.2015 158.549 64.2015 158.598C64.2015 158.649 64.209 158.691 64.224 158.726C64.2393 158.76 64.2606 158.786 64.2878 158.804C64.3151 158.821 64.3467 158.83 64.3825 158.83C64.4026 158.83 64.4212 158.827 64.4383 158.822C64.4557 158.817 64.4711 158.809 64.4845 158.799C64.4979 158.788 64.509 158.776 64.5178 158.761C64.5268 158.746 64.533 158.729 64.5365 158.71L64.6884 158.711C64.6844 158.744 64.6746 158.775 64.6589 158.805C64.6434 158.835 64.6225 158.862 64.5961 158.886C64.57 158.91 64.5388 158.929 64.5025 158.942C64.4664 158.956 64.4256 158.963 64.3801 158.963C64.3167 158.963 64.2601 158.949 64.2102 158.92C64.1604 158.891 64.1211 158.85 64.0922 158.795C64.0636 158.741 64.0492 158.675 64.0492 158.598C64.0492 158.521 64.0638 158.455 64.0929 158.4C64.1221 158.346 64.1616 158.305 64.2115 158.276C64.2615 158.248 64.3177 158.233 64.3801 158.233C64.4212 158.233 64.4594 158.239 64.4945 158.251C64.5299 158.262 64.5612 158.279 64.5885 158.301C64.6158 158.323 64.638 158.35 64.6551 158.382C64.6724 158.414 64.6835 158.45 64.6884 158.492ZM64.7933 158.953V158.42H64.9365V158.513H64.9421C64.9518 158.48 64.9681 158.455 64.991 158.438C65.0138 158.421 65.0402 158.413 65.07 158.413C65.0774 158.413 65.0854 158.413 65.094 158.414C65.1025 158.415 65.11 158.416 65.1165 158.418V158.549C65.1096 158.547 65.1 158.545 65.0877 158.544C65.0755 158.542 65.0642 158.541 65.0541 158.541C65.0323 158.541 65.0129 158.546 64.9958 158.555C64.9789 158.565 64.9655 158.578 64.9556 158.594C64.9459 158.611 64.941 158.63 64.941 158.652V158.953H64.7933ZM65.4108 158.964C65.356 158.964 65.3089 158.952 65.2693 158.93C65.23 158.908 65.1998 158.876 65.1785 158.835C65.1572 158.794 65.1466 158.745 65.1466 158.689C65.1466 158.634 65.1572 158.586 65.1785 158.545C65.1998 158.504 65.2297 158.471 65.2683 158.448C65.3071 158.425 65.3527 158.414 65.4049 158.414C65.4401 158.414 65.4728 158.419 65.5031 158.431C65.5336 158.442 65.5602 158.458 65.5828 158.481C65.6057 158.503 65.6235 158.531 65.6362 158.565C65.649 158.599 65.6553 158.639 65.6553 158.684V158.725H65.2055V158.633H65.5163C65.5163 158.612 65.5116 158.593 65.5024 158.577C65.4931 158.56 65.4803 158.547 65.4639 158.538C65.4477 158.529 65.4289 158.524 65.4074 158.524C65.3849 158.524 65.3651 158.529 65.3477 158.539C65.3306 158.55 65.3172 158.563 65.3075 158.581C65.2978 158.598 65.2928 158.617 65.2926 158.638V158.725C65.2926 158.751 65.2974 158.774 65.3071 158.793C65.3171 158.812 65.3311 158.827 65.3491 158.838C65.3671 158.848 65.3885 158.853 65.4133 158.853C65.4297 158.853 65.4447 158.851 65.4583 158.846C65.472 158.842 65.4837 158.835 65.4934 158.826C65.5031 158.816 65.5105 158.805 65.5156 158.792L65.6522 158.801C65.6453 158.833 65.631 158.862 65.6095 158.887C65.5883 158.911 65.5608 158.93 65.527 158.943C65.4935 158.957 65.4548 158.964 65.4108 158.964ZM65.9036 158.963C65.8696 158.963 65.8393 158.957 65.8128 158.945C65.7862 158.933 65.7651 158.916 65.7496 158.892C65.7344 158.869 65.7268 158.839 65.7268 158.804C65.7268 158.775 65.7322 158.75 65.7431 158.73C65.7539 158.71 65.7687 158.693 65.7874 158.681C65.8062 158.669 65.8274 158.66 65.8513 158.653C65.8753 158.647 65.9005 158.643 65.9269 158.64C65.9578 158.637 65.9828 158.634 66.0018 158.631C66.0207 158.628 66.0345 158.624 66.043 158.618C66.0516 158.612 66.0559 158.604 66.0559 158.592V158.59C66.0559 158.568 66.0489 158.551 66.0351 158.539C66.0214 158.527 66.002 158.521 65.9768 158.521C65.9502 158.521 65.9291 158.527 65.9133 158.539C65.8976 158.551 65.8872 158.565 65.8821 158.583L65.7455 158.572C65.7524 158.539 65.7661 158.511 65.7864 158.488C65.8068 158.464 65.833 158.446 65.8651 158.433C65.8975 158.42 65.9349 158.414 65.9775 158.414C66.0071 158.414 66.0354 158.417 66.0625 158.424C66.0897 158.431 66.1139 158.442 66.1349 158.456C66.1562 158.471 66.173 158.489 66.1852 158.512C66.1975 158.535 66.2036 158.562 66.2036 158.594V158.953H66.0635V158.879H66.0593C66.0508 158.896 66.0393 158.911 66.025 158.923C66.0107 158.936 65.9934 158.946 65.9733 158.953C65.9532 158.96 65.93 158.963 65.9036 158.963ZM65.9459 158.861C65.9677 158.861 65.9869 158.857 66.0035 158.848C66.0201 158.84 66.0332 158.828 66.0427 158.813C66.0522 158.798 66.0569 158.781 66.0569 158.763V158.706C66.0523 158.709 66.0459 158.712 66.0378 158.715C66.03 158.717 66.0211 158.719 66.0111 158.721C66.0012 158.723 65.9912 158.725 65.9813 158.726C65.9714 158.728 65.9623 158.729 65.9543 158.73C65.9369 158.733 65.9218 158.737 65.9088 158.742C65.8959 158.748 65.8858 158.755 65.8787 158.765C65.8715 158.774 65.8679 158.786 65.8679 158.799C65.8679 158.82 65.8752 158.835 65.8897 158.846C65.9045 158.856 65.9233 158.861 65.9459 158.861ZM66.6015 158.42V158.531H66.2808V158.42H66.6015ZM66.3536 158.293H66.5013V158.789C66.5013 158.803 66.5034 158.814 66.5076 158.821C66.5117 158.829 66.5175 158.834 66.5249 158.837C66.5325 158.84 66.5413 158.841 66.5513 158.841C66.5582 158.841 66.5651 158.841 66.5721 158.84C66.579 158.838 66.5843 158.837 66.588 158.837L66.6112 158.947C66.6038 158.949 66.5934 158.952 66.58 158.955C66.5666 158.958 66.5503 158.96 66.5311 158.96C66.4955 158.962 66.4643 158.957 66.4375 158.946C66.4109 158.935 66.3902 158.918 66.3754 158.896C66.3606 158.873 66.3534 158.844 66.3536 158.809V158.293ZM66.9348 158.964C66.88 158.964 66.8328 158.952 66.7933 158.93C66.754 158.908 66.7237 158.876 66.7025 158.835C66.6812 158.794 66.6705 158.745 66.6705 158.689C66.6705 158.634 66.6812 158.586 66.7025 158.545C66.7237 158.504 66.7537 158.471 66.7923 158.448C66.8311 158.425 66.8767 158.414 66.9289 158.414C66.964 158.414 66.9968 158.419 67.027 158.431C67.0576 158.442 67.0842 158.458 67.1068 158.481C67.1297 158.503 67.1475 158.531 67.1602 158.565C67.1729 158.599 67.1793 158.639 67.1793 158.684V158.725H66.7295V158.633H67.0402C67.0402 158.612 67.0356 158.593 67.0264 158.577C67.0171 158.56 67.0043 158.547 66.9879 158.538C66.9717 158.529 66.9528 158.524 66.9313 158.524C66.9089 158.524 66.889 158.529 66.8717 158.539C66.8546 158.55 66.8412 158.563 66.8315 158.581C66.8217 158.598 66.8168 158.617 66.8165 158.638V158.725C66.8165 158.751 66.8214 158.774 66.8311 158.793C66.8411 158.812 66.855 158.827 66.8731 158.838C66.8911 158.848 66.9125 158.853 66.9372 158.853C66.9536 158.853 66.9687 158.851 66.9823 158.846C66.996 158.842 67.0076 158.835 67.0173 158.826C67.027 158.816 67.0344 158.805 67.0395 158.792L67.1762 158.801C67.1692 158.833 67.155 158.862 67.1335 158.887C67.1122 158.911 67.0847 158.93 67.051 158.943C67.0175 158.957 66.9787 158.964 66.9348 158.964ZM67.472 158.962C67.4315 158.962 67.3949 158.951 67.362 158.931C67.3295 158.91 67.3036 158.879 67.2844 158.838C67.2654 158.797 67.2559 158.747 67.2559 158.687C67.2559 158.626 67.2658 158.576 67.2854 158.535C67.3051 158.495 67.3312 158.464 67.3638 158.444C67.3966 158.424 67.4326 158.414 67.4716 158.414C67.5015 158.414 67.5263 158.419 67.5462 158.429C67.5663 158.439 67.5825 158.451 67.5947 158.466C67.6072 158.481 67.6167 158.496 67.6232 158.51H67.6277V158.243H67.7751V158.953H67.6294V158.868H67.6232C67.6162 158.883 67.6064 158.897 67.5937 158.912C67.5812 158.926 67.5649 158.938 67.5448 158.948C67.5249 158.957 67.5006 158.962 67.472 158.962ZM67.5188 158.844C67.5426 158.844 67.5627 158.838 67.5791 158.825C67.5958 158.812 67.6085 158.793 67.6173 158.77C67.6263 158.746 67.6308 158.718 67.6308 158.687C67.6308 158.655 67.6264 158.628 67.6176 158.604C67.6088 158.581 67.5961 158.563 67.5795 158.55C67.5628 158.537 67.5426 158.531 67.5188 158.531C67.4945 158.531 67.4741 158.538 67.4574 158.551C67.4408 158.564 67.4282 158.582 67.4196 158.606C67.4111 158.629 67.4068 158.656 67.4068 158.687C67.4068 158.718 67.4111 158.745 67.4196 158.769C67.4284 158.793 67.441 158.811 67.4574 158.824C67.4741 158.838 67.4945 158.844 67.5188 158.844ZM68.1253 158.953V158.243H68.2731V158.51H68.2776C68.284 158.496 68.2934 158.481 68.3057 158.466C68.3182 158.451 68.3343 158.439 68.3542 158.429C68.3743 158.419 68.3993 158.414 68.4291 158.414C68.468 158.414 68.5038 158.424 68.5366 158.444C68.5695 158.464 68.5957 158.495 68.6154 158.535C68.635 158.576 68.6448 158.626 68.6448 158.687C68.6448 158.747 68.6352 158.797 68.616 158.838C68.5971 158.879 68.5712 158.91 68.5384 158.931C68.5058 158.951 68.4692 158.962 68.4288 158.962C68.4001 158.962 68.3757 158.957 68.3556 158.948C68.3357 158.938 68.3194 158.926 68.3067 158.912C68.294 158.897 68.2843 158.883 68.2776 158.868H68.271V158.953H68.1253ZM68.2699 158.687C68.2699 158.718 68.2743 158.746 68.2831 158.77C68.2919 158.793 68.3046 158.812 68.3213 158.825C68.3379 158.838 68.3581 158.844 68.382 158.844C68.406 158.844 68.4263 158.838 68.443 158.824C68.4596 158.811 68.4722 158.793 68.4808 158.769C68.4896 158.745 68.494 158.718 68.494 158.687C68.494 158.656 68.4897 158.629 68.4811 158.606C68.4726 158.582 68.46 158.564 68.4433 158.551C68.4267 158.538 68.4062 158.531 68.382 158.531C68.3579 158.531 68.3376 158.537 68.3209 158.55C68.3045 158.563 68.2919 158.581 68.2831 158.604C68.2743 158.628 68.2699 158.655 68.2699 158.687ZM68.8174 159.153C68.7987 159.153 68.7811 159.151 68.7647 159.148C68.7485 159.146 68.7351 159.142 68.7245 159.138L68.7578 159.027C68.7751 159.033 68.7907 159.036 68.8046 159.036C68.8187 159.036 68.8309 159.033 68.841 159.026C68.8514 159.019 68.8599 159.008 68.8663 158.991L68.875 158.968L68.6839 158.42H68.8393L68.9496 158.812H68.9551L69.0664 158.42H69.2228L69.0158 159.011C69.0059 159.039 68.9923 159.064 68.9752 159.086C68.9584 159.107 68.937 159.124 68.9111 159.135C68.8852 159.147 68.854 159.153 68.8174 159.153ZM69.6871 158.953L69.4839 158.243H69.6479L69.7655 158.736H69.7714L69.9011 158.243H70.0415L70.1709 158.737H70.1771L70.2947 158.243H70.4587L70.2555 158.953H70.1092L69.9739 158.489H69.9684L69.8335 158.953H69.6871ZM70.5363 158.953V158.42H70.684V158.953H70.5363ZM70.6105 158.352C70.5886 158.352 70.5697 158.345 70.554 158.33C70.5385 158.315 70.5308 158.297 70.5308 158.277C70.5308 158.257 70.5385 158.239 70.554 158.225C70.5697 158.21 70.5886 158.202 70.6105 158.202C70.6325 158.202 70.6512 158.21 70.6667 158.225C70.6824 158.239 70.6903 158.257 70.6903 158.277C70.6903 158.297 70.6824 158.315 70.6667 158.33C70.6512 158.345 70.6325 158.352 70.6105 158.352ZM71.1904 158.447C71.1877 158.419 71.1758 158.397 71.1547 158.382C71.1337 158.366 71.1051 158.359 71.0691 158.359C71.0446 158.359 71.0239 158.362 71.007 158.369C70.9901 158.376 70.9772 158.385 70.9682 158.397C70.9594 158.409 70.955 158.423 70.955 158.438C70.9545 158.451 70.9572 158.462 70.9629 158.471C70.969 158.481 70.9772 158.489 70.9876 158.496C70.998 158.503 71.01 158.509 71.0236 158.514C71.0373 158.519 71.0518 158.523 71.0673 158.526L71.1311 158.541C71.1621 158.548 71.1906 158.558 71.2165 158.569C71.2423 158.581 71.2648 158.595 71.2837 158.612C71.3027 158.629 71.3174 158.649 71.3278 158.672C71.3384 158.694 71.3438 158.721 71.3441 158.75C71.3438 158.794 71.3327 158.831 71.3108 158.863C71.289 158.895 71.2576 158.92 71.2165 158.937C71.1755 158.955 71.1262 158.963 71.0684 158.963C71.011 158.963 70.9611 158.954 70.9186 158.937C70.8763 158.919 70.8432 158.893 70.8194 158.859C70.7958 158.824 70.7834 158.781 70.7823 158.73H70.9276C70.9292 158.754 70.936 158.774 70.948 158.79C70.9603 158.806 70.9766 158.817 70.9969 158.826C71.0175 158.833 71.0407 158.837 71.0666 158.837C71.0921 158.837 71.1142 158.834 71.1329 158.826C71.1518 158.819 71.1665 158.809 71.1769 158.795C71.1873 158.782 71.1925 158.767 71.1925 158.75C71.1925 158.734 71.1878 158.721 71.1783 158.71C71.1691 158.699 71.1554 158.69 71.1374 158.682C71.1196 158.674 71.0977 158.667 71.0718 158.661L70.9945 158.642C70.9346 158.627 70.8873 158.604 70.8527 158.573C70.818 158.542 70.8008 158.501 70.801 158.448C70.8008 158.405 70.8122 158.368 70.8353 158.335C70.8587 158.303 70.8907 158.278 70.9314 158.26C70.9721 158.242 71.0183 158.233 71.0701 158.233C71.1228 158.233 71.1688 158.242 71.2081 158.26C71.2477 158.278 71.2784 158.303 71.3004 158.335C71.3223 158.368 71.3337 158.405 71.3344 158.447H71.1904ZM71.7256 158.42V158.531H71.4048V158.42H71.7256ZM71.4777 158.293H71.6254V158.789C71.6254 158.803 71.6275 158.814 71.6316 158.821C71.6358 158.829 71.6416 158.834 71.649 158.837C71.6566 158.84 71.6654 158.841 71.6753 158.841C71.6823 158.841 71.6892 158.841 71.6962 158.84C71.7031 158.838 71.7084 158.837 71.7121 158.837L71.7353 158.947C71.7279 158.949 71.7175 158.952 71.7041 158.955C71.6907 158.958 71.6744 158.96 71.6552 158.96C71.6196 158.962 71.5884 158.957 71.5616 158.946C71.535 158.935 71.5143 158.918 71.4995 158.896C71.4847 158.873 71.4774 158.844 71.4777 158.809V158.293ZM72.1635 158.726V158.42H72.3112V158.953H72.1693V158.856H72.1638C72.1518 158.888 72.1318 158.913 72.1038 158.932C72.0761 158.951 72.0422 158.96 72.0022 158.96C71.9666 158.96 71.9353 158.952 71.9082 158.936C71.8812 158.92 71.86 158.897 71.8448 158.867C71.8297 158.837 71.8221 158.801 71.8219 158.76V158.42H71.9696V158.733C71.9698 158.765 71.9783 158.79 71.9949 158.808C72.0116 158.826 72.0339 158.835 72.0618 158.835C72.0796 158.835 72.0963 158.831 72.1118 158.823C72.1273 158.815 72.1398 158.803 72.1492 158.786C72.1589 158.77 72.1637 158.75 72.1635 158.726ZM72.6256 158.962C72.5852 158.962 72.5485 158.951 72.5157 158.931C72.4831 158.91 72.4572 158.879 72.438 158.838C72.4191 158.797 72.4096 158.747 72.4096 158.687C72.4096 158.626 72.4194 158.576 72.4391 158.535C72.4587 158.495 72.4848 158.464 72.5174 158.444C72.5503 158.424 72.5862 158.414 72.6253 158.414C72.6551 158.414 72.68 158.419 72.6999 158.429C72.72 158.439 72.7361 158.451 72.7484 158.466C72.7609 158.481 72.7704 158.496 72.7768 158.51H72.7813V158.243H72.9287V158.953H72.7831V158.868H72.7768C72.7699 158.883 72.7601 158.897 72.7474 158.912C72.7349 158.926 72.7186 158.938 72.6985 158.948C72.6786 158.957 72.6543 158.962 72.6256 158.962ZM72.6725 158.844C72.6963 158.844 72.7164 158.838 72.7328 158.825C72.7494 158.812 72.7622 158.793 72.7709 158.77C72.78 158.746 72.7845 158.718 72.7845 158.687C72.7845 158.655 72.7801 158.628 72.7713 158.604C72.7625 158.581 72.7498 158.563 72.7331 158.55C72.7165 158.537 72.6963 158.531 72.6725 158.531C72.6482 158.531 72.6277 158.538 72.6111 158.551C72.5944 158.564 72.5818 158.582 72.5733 158.606C72.5647 158.629 72.5604 158.656 72.5604 158.687C72.5604 158.718 72.5647 158.745 72.5733 158.769C72.5821 158.793 72.5947 158.811 72.6111 158.824C72.6277 158.838 72.6482 158.844 72.6725 158.844ZM73.0502 158.953V158.42H73.1979V158.953H73.0502ZM73.1244 158.352C73.1024 158.352 73.0836 158.345 73.0679 158.33C73.0524 158.315 73.0446 158.297 73.0446 158.277C73.0446 158.257 73.0524 158.239 73.0679 158.225C73.0836 158.21 73.1024 158.202 73.1244 158.202C73.1464 158.202 73.1651 158.21 73.1806 158.225C73.1963 158.239 73.2042 158.257 73.2042 158.277C73.2042 158.297 73.1963 158.315 73.1806 158.33C73.1651 158.345 73.1464 158.352 73.1244 158.352ZM73.5569 158.964C73.5031 158.964 73.4565 158.952 73.4172 158.929C73.3781 158.906 73.3479 158.874 73.3267 158.833C73.3054 158.791 73.2948 158.743 73.2948 158.689C73.2948 158.634 73.3054 158.586 73.3267 158.545C73.3479 158.503 73.3781 158.471 73.4172 158.448C73.4565 158.425 73.5031 158.414 73.5569 158.414C73.6108 158.414 73.6573 158.425 73.6964 158.448C73.7357 158.471 73.7659 158.503 73.7872 158.545C73.8085 158.586 73.8191 158.634 73.8191 158.689C73.8191 158.743 73.8085 158.791 73.7872 158.833C73.7659 158.874 73.7357 158.906 73.6964 158.929C73.6573 158.952 73.6108 158.964 73.5569 158.964ZM73.5576 158.849C73.5821 158.849 73.6026 158.842 73.619 158.828C73.6354 158.814 73.6478 158.795 73.6561 158.771C73.6647 158.746 73.669 158.719 73.669 158.688C73.669 158.657 73.6647 158.629 73.6561 158.605C73.6478 158.581 73.6354 158.561 73.619 158.547C73.6026 158.533 73.5821 158.526 73.5576 158.526C73.5329 158.526 73.5121 158.533 73.4952 158.547C73.4786 158.561 73.466 158.581 73.4574 158.605C73.4491 158.629 73.4449 158.657 73.4449 158.688C73.4449 158.719 73.4491 158.746 73.4574 158.771C73.466 158.795 73.4786 158.814 73.4952 158.828C73.5121 158.842 73.5329 158.849 73.5576 158.849Z" fill="white"/>
<path d="M64.3454 159.397V159.508H64.0166V159.397H64.3454ZM64.0919 159.93V159.359C64.0919 159.32 64.0994 159.288 64.1144 159.262C64.1297 159.237 64.1505 159.218 64.1769 159.205C64.2032 159.193 64.2332 159.186 64.2667 159.186C64.2893 159.186 64.31 159.188 64.3288 159.191C64.3477 159.195 64.3618 159.198 64.3711 159.201L64.3447 159.312C64.3389 159.31 64.3318 159.308 64.3232 159.307C64.3149 159.305 64.3063 159.304 64.2975 159.304C64.2758 159.304 64.2607 159.309 64.2521 159.319C64.2436 159.329 64.2393 159.343 64.2393 159.361V159.93H64.0919ZM64.4357 159.93V159.397H64.5789V159.49H64.5844C64.5941 159.457 64.6104 159.432 64.6333 159.415C64.6562 159.398 64.6826 159.389 64.7124 159.389C64.7198 159.389 64.7278 159.39 64.7363 159.391C64.7449 159.392 64.7524 159.393 64.7589 159.395V159.526C64.7519 159.524 64.7423 159.522 64.7301 159.52C64.7178 159.519 64.7066 159.518 64.6964 159.518C64.6747 159.518 64.6553 159.522 64.6382 159.532C64.6213 159.541 64.6079 159.554 64.598 159.571C64.5882 159.587 64.5834 159.607 64.5834 159.628V159.93H64.4357ZM65.0511 159.94C64.9973 159.94 64.9507 159.929 64.9114 159.906C64.8723 159.883 64.8421 159.851 64.8209 159.809C64.7996 159.768 64.7889 159.72 64.7889 159.665C64.7889 159.61 64.7996 159.562 64.8209 159.521C64.8421 159.48 64.8723 159.448 64.9114 159.425C64.9507 159.402 64.9973 159.39 65.0511 159.39C65.105 159.39 65.1515 159.402 65.1905 159.425C65.2298 159.448 65.2601 159.48 65.2814 159.521C65.3027 159.562 65.3133 159.61 65.3133 159.665C65.3133 159.72 65.3027 159.768 65.2814 159.809C65.2601 159.851 65.2298 159.883 65.1905 159.906C65.1515 159.929 65.105 159.94 65.0511 159.94ZM65.0518 159.826C65.0763 159.826 65.0968 159.819 65.1132 159.805C65.1296 159.791 65.142 159.772 65.1503 159.747C65.1589 159.723 65.1631 159.695 65.1631 159.664C65.1631 159.633 65.1589 159.606 65.1503 159.582C65.142 159.557 65.1296 159.538 65.1132 159.524C65.0968 159.51 65.0763 159.503 65.0518 159.503C65.0271 159.503 65.0063 159.51 64.9894 159.524C64.9727 159.538 64.9601 159.557 64.9516 159.582C64.9433 159.606 64.9391 159.633 64.9391 159.664C64.9391 159.695 64.9433 159.723 64.9516 159.747C64.9601 159.772 64.9727 159.791 64.9894 159.805C65.0063 159.819 65.0271 159.826 65.0518 159.826ZM65.4094 159.93V159.397H65.5502V159.491H65.5564C65.5675 159.46 65.586 159.435 65.6119 159.417C65.6378 159.399 65.6688 159.39 65.7048 159.39C65.7414 159.39 65.7724 159.399 65.7981 159.417C65.8238 159.436 65.8409 159.46 65.8494 159.491H65.855C65.8658 159.46 65.8855 159.436 65.9139 159.418C65.9426 159.399 65.9765 159.39 66.0155 159.39C66.0653 159.39 66.1056 159.406 66.1366 159.438C66.1678 159.469 66.1834 159.514 66.1834 159.571V159.93H66.036V159.601C66.036 159.571 66.0281 159.549 66.0124 159.534C65.9967 159.519 65.9771 159.512 65.9535 159.512C65.9267 159.512 65.9057 159.52 65.8907 159.537C65.8757 159.554 65.8682 159.577 65.8682 159.604V159.93H65.7249V159.597C65.7249 159.571 65.7174 159.551 65.7024 159.535C65.6876 159.52 65.6681 159.512 65.6438 159.512C65.6274 159.512 65.6126 159.516 65.5994 159.524C65.5865 159.532 65.5762 159.544 65.5685 159.559C65.5609 159.573 65.5571 159.59 65.5571 159.61V159.93H65.4094ZM66.8094 159.397V159.508H66.4887V159.397H66.8094ZM66.5615 159.269H66.7092V159.766C66.7092 159.78 66.7113 159.79 66.7155 159.798C66.7196 159.805 66.7254 159.811 66.7328 159.814C66.7404 159.817 66.7492 159.818 66.7592 159.818C66.7661 159.818 66.773 159.817 66.78 159.816C66.7869 159.815 66.7922 159.814 66.7959 159.813L66.8191 159.923C66.8117 159.925 66.8013 159.928 66.7879 159.931C66.7745 159.934 66.7582 159.936 66.739 159.937C66.7034 159.938 66.6722 159.934 66.6454 159.923C66.6188 159.912 66.5981 159.895 66.5833 159.872C66.5685 159.849 66.5613 159.82 66.5615 159.785V159.269ZM67.0648 159.622V159.93H66.9171V159.219H67.0607V159.491H67.0669C67.079 159.46 67.0984 159.435 67.1252 159.417C67.152 159.399 67.1856 159.39 67.2261 159.39C67.2631 159.39 67.2953 159.398 67.3229 159.414C67.3506 159.43 67.3721 159.453 67.3874 159.483C67.4029 159.513 67.4105 159.549 67.4103 159.591V159.93H67.2625V159.617C67.2628 159.584 67.2544 159.559 67.2376 159.54C67.2209 159.522 67.1976 159.513 67.1675 159.513C67.1474 159.513 67.1296 159.517 67.1141 159.526C67.0988 159.534 67.0868 159.547 67.078 159.563C67.0695 159.579 67.0651 159.599 67.0648 159.622ZM67.7693 159.94C67.7145 159.94 67.6673 159.929 67.6278 159.907C67.5885 159.884 67.5582 159.853 67.5369 159.812C67.5156 159.771 67.505 159.722 67.505 159.666C67.505 159.611 67.5156 159.563 67.5369 159.522C67.5582 159.48 67.5881 159.448 67.6267 159.425C67.6656 159.402 67.7111 159.39 67.7634 159.39C67.7985 159.39 67.8312 159.396 67.8615 159.407C67.892 159.418 67.9186 159.435 67.9413 159.457C67.9642 159.48 67.982 159.508 67.9947 159.542C68.0074 159.576 68.0138 159.615 68.0138 159.661V159.701H67.564V159.61H67.8747C67.8747 159.588 67.8701 159.569 67.8608 159.553C67.8516 159.537 67.8387 159.524 67.8223 159.515C67.8061 159.505 67.7873 159.5 67.7658 159.5C67.7434 159.5 67.7235 159.506 67.7062 159.516C67.689 159.526 67.6756 159.54 67.6659 159.557C67.6562 159.574 67.6512 159.593 67.651 159.614V159.701C67.651 159.728 67.6559 159.751 67.6656 159.77C67.6755 159.789 67.6895 159.804 67.7075 159.814C67.7256 159.825 67.747 159.83 67.7717 159.83C67.7881 159.83 67.8031 159.827 67.8168 159.823C67.8304 159.818 67.8421 159.811 67.8518 159.802C67.8615 159.793 67.8689 159.781 67.874 159.768L68.0106 159.777C68.0037 159.81 67.9895 159.839 67.968 159.863C67.9467 159.887 67.9192 159.906 67.8854 159.92C67.8519 159.933 67.8132 159.94 67.7693 159.94ZM68.933 159.219V159.93H68.8033L68.4943 159.483H68.4891V159.93H68.339V159.219H68.4707L68.7773 159.666H68.7835V159.219H68.933ZM69.295 159.94C69.2411 159.94 69.1945 159.929 69.1552 159.906C69.1161 159.883 69.086 159.851 69.0647 159.809C69.0434 159.768 69.0328 159.72 69.0328 159.665C69.0328 159.61 69.0434 159.562 69.0647 159.521C69.086 159.48 69.1161 159.448 69.1552 159.425C69.1945 159.402 69.2411 159.39 69.295 159.39C69.3488 159.39 69.3953 159.402 69.4344 159.425C69.4737 159.448 69.504 159.48 69.5252 159.521C69.5465 159.562 69.5571 159.61 69.5571 159.665C69.5571 159.72 69.5465 159.768 69.5252 159.809C69.504 159.851 69.4737 159.883 69.4344 159.906C69.3953 159.929 69.3488 159.94 69.295 159.94ZM69.2957 159.826C69.3202 159.826 69.3406 159.819 69.357 159.805C69.3735 159.791 69.3858 159.772 69.3942 159.747C69.4027 159.723 69.407 159.695 69.407 159.664C69.407 159.633 69.4027 159.606 69.3942 159.582C69.3858 159.557 69.3735 159.538 69.357 159.524C69.3406 159.51 69.3202 159.503 69.2957 159.503C69.2709 159.503 69.2501 159.51 69.2332 159.524C69.2166 159.538 69.204 159.557 69.1954 159.582C69.1871 159.606 69.183 159.633 69.183 159.664C69.183 159.695 69.1871 159.723 69.1954 159.747C69.204 159.772 69.2166 159.791 69.2332 159.805C69.2501 159.819 69.2709 159.826 69.2957 159.826ZM69.9948 159.703V159.397H70.1425V159.93H70.0007V159.833H69.9951C69.9831 159.864 69.9631 159.889 69.9351 159.908C69.9074 159.927 69.8735 159.937 69.8335 159.937C69.7979 159.937 69.7666 159.929 69.7396 159.912C69.7125 159.896 69.6914 159.873 69.6761 159.843C69.6611 159.814 69.6534 159.778 69.6532 159.736V159.397H69.8009V159.71C69.8012 159.741 69.8096 159.766 69.8263 159.784C69.8429 159.803 69.8652 159.812 69.8932 159.812C69.911 159.812 69.9276 159.808 69.9431 159.8C69.9586 159.791 69.9711 159.779 69.9806 159.763C69.9903 159.747 69.995 159.727 69.9948 159.703ZM70.4084 159.622V159.93H70.2607V159.397H70.4015V159.491H70.4077C70.4195 159.46 70.4393 159.436 70.467 159.417C70.4948 159.399 70.5284 159.39 70.568 159.39C70.6049 159.39 70.6372 159.398 70.6647 159.414C70.6922 159.431 70.7136 159.454 70.7289 159.484C70.7441 159.514 70.7518 159.549 70.7518 159.591V159.93H70.604V159.617C70.6043 159.584 70.5959 159.559 70.5791 159.541C70.5622 159.522 70.5389 159.513 70.5093 159.513C70.4895 159.513 70.4719 159.517 70.4566 159.526C70.4416 159.534 70.4298 159.547 70.4213 159.563C70.4129 159.579 70.4087 159.599 70.4084 159.622ZM71.097 159.93V159.219H71.3772C71.4311 159.219 71.477 159.23 71.5149 159.25C71.5528 159.271 71.5817 159.299 71.6016 159.335C71.6217 159.371 71.6317 159.413 71.6317 159.46C71.6317 159.507 71.6216 159.549 71.6012 159.585C71.5809 159.621 71.5514 159.649 71.5128 159.669C71.4744 159.689 71.4279 159.699 71.3734 159.699H71.1948V159.579H71.3491C71.378 159.579 71.4018 159.574 71.4205 159.564C71.4395 159.554 71.4536 159.54 71.4628 159.522C71.4723 159.504 71.4771 159.483 71.4771 159.46C71.4771 159.437 71.4723 159.416 71.4628 159.398C71.4536 159.381 71.4395 159.367 71.4205 159.357C71.4016 159.347 71.3775 159.342 71.3484 159.342H71.2471V159.93H71.097ZM71.7265 159.93V159.397H71.8697V159.49H71.8753C71.885 159.457 71.9013 159.432 71.9242 159.415C71.9471 159.398 71.9734 159.389 72.0032 159.389C72.0106 159.389 72.0186 159.39 72.0272 159.391C72.0357 159.392 72.0432 159.393 72.0497 159.395V159.526C72.0428 159.524 72.0332 159.522 72.0209 159.52C72.0087 159.519 71.9975 159.518 71.9873 159.518C71.9656 159.518 71.9461 159.522 71.929 159.532C71.9121 159.541 71.8987 159.554 71.8888 159.571C71.8791 159.587 71.8742 159.607 71.8742 159.628V159.93H71.7265ZM72.342 159.94C72.2881 159.94 72.2415 159.929 72.2022 159.906C72.1631 159.883 72.133 159.851 72.1117 159.809C72.0904 159.768 72.0798 159.72 72.0798 159.665C72.0798 159.61 72.0904 159.562 72.1117 159.521C72.133 159.48 72.1631 159.448 72.2022 159.425C72.2415 159.402 72.2881 159.39 72.342 159.39C72.3958 159.39 72.4423 159.402 72.4814 159.425C72.5207 159.448 72.551 159.48 72.5722 159.521C72.5935 159.562 72.6041 159.61 72.6041 159.665C72.6041 159.72 72.5935 159.768 72.5722 159.809C72.551 159.851 72.5207 159.883 72.4814 159.906C72.4423 159.929 72.3958 159.94 72.342 159.94ZM72.3427 159.826C72.3672 159.826 72.3876 159.819 72.404 159.805C72.4205 159.791 72.4328 159.772 72.4411 159.747C72.4497 159.723 72.454 159.695 72.454 159.664C72.454 159.633 72.4497 159.606 72.4411 159.582C72.4328 159.557 72.4205 159.538 72.404 159.524C72.3876 159.51 72.3672 159.503 72.3427 159.503C72.3179 159.503 72.2971 159.51 72.2802 159.524C72.2636 159.538 72.251 159.557 72.2424 159.582C72.2341 159.606 72.2299 159.633 72.2299 159.664C72.2299 159.695 72.2341 159.723 72.2424 159.747C72.251 159.772 72.2636 159.791 72.2802 159.805C72.2971 159.819 72.3179 159.826 72.3427 159.826ZM72.7002 159.397H72.8479V159.956C72.8479 159.997 72.8398 160.03 72.8237 160.056C72.8075 160.081 72.7842 160.1 72.7539 160.112C72.7239 160.124 72.6879 160.129 72.6461 160.129C72.641 160.129 72.6362 160.129 72.6315 160.129C72.6267 160.129 72.6216 160.129 72.6163 160.129V160.013C72.6202 160.013 72.6237 160.014 72.6267 160.014C72.6295 160.014 72.6325 160.014 72.6357 160.014C72.6595 160.014 72.6762 160.009 72.6856 159.999C72.6953 159.989 72.7002 159.974 72.7002 159.954V159.397ZM72.7737 159.328C72.752 159.328 72.7333 159.321 72.7175 159.307C72.7018 159.292 72.694 159.274 72.694 159.253C72.694 159.233 72.7018 159.216 72.7175 159.201C72.7333 159.186 72.752 159.179 72.7737 159.179C72.7959 159.179 72.8148 159.186 72.8302 159.201C72.846 159.216 72.8538 159.233 72.8538 159.253C72.8538 159.274 72.846 159.292 72.8302 159.307C72.8148 159.321 72.7959 159.328 72.7737 159.328ZM73.209 159.94C73.1542 159.94 73.1071 159.929 73.0675 159.907C73.0282 159.884 72.9979 159.853 72.9767 159.812C72.9554 159.771 72.9448 159.722 72.9448 159.666C72.9448 159.611 72.9554 159.563 72.9767 159.522C72.9979 159.48 73.0279 159.448 73.0665 159.425C73.1053 159.402 73.1509 159.39 73.2031 159.39C73.2383 159.39 73.271 159.396 73.3013 159.407C73.3318 159.418 73.3584 159.435 73.381 159.457C73.4039 159.48 73.4217 159.508 73.4344 159.542C73.4472 159.576 73.4535 159.615 73.4535 159.661V159.701H73.0037V159.61H73.3145C73.3145 159.588 73.3098 159.569 73.3006 159.553C73.2913 159.537 73.2785 159.524 73.2621 159.515C73.2459 159.505 73.2271 159.5 73.2056 159.5C73.1831 159.5 73.1632 159.506 73.1459 159.516C73.1288 159.526 73.1154 159.54 73.1057 159.557C73.096 159.574 73.091 159.593 73.0908 159.614V159.701C73.0908 159.728 73.0956 159.751 73.1053 159.77C73.1153 159.789 73.1293 159.804 73.1473 159.814C73.1653 159.825 73.1867 159.83 73.2115 159.83C73.2279 159.83 73.2429 159.827 73.2565 159.823C73.2702 159.818 73.2819 159.811 73.2916 159.802C73.3013 159.793 73.3087 159.781 73.3138 159.768L73.4504 159.777C73.4435 159.81 73.4292 159.839 73.4077 159.863C73.3865 159.887 73.359 159.906 73.3252 159.92C73.2917 159.933 73.253 159.94 73.209 159.94ZM73.7906 159.94C73.736 159.94 73.6891 159.929 73.6498 159.905C73.6107 159.882 73.5807 159.85 73.5596 159.808C73.5388 159.767 73.5284 159.719 73.5284 159.665C73.5284 159.611 73.5389 159.563 73.56 159.522C73.5812 159.48 73.6114 159.448 73.6505 159.425C73.6896 159.402 73.736 159.39 73.7899 159.39C73.8364 159.39 73.8771 159.399 73.912 159.415C73.9469 159.432 73.9745 159.456 73.9949 159.486C74.0152 159.517 74.0264 159.553 74.0285 159.594H73.8891C73.8852 159.567 73.8747 159.546 73.8579 159.53C73.8412 159.513 73.8194 159.505 73.7923 159.505C73.7694 159.505 73.7494 159.511 73.7323 159.524C73.7155 159.536 73.7023 159.554 73.6928 159.578C73.6833 159.601 73.6786 159.63 73.6786 159.663C73.6786 159.697 73.6832 159.726 73.6925 159.75C73.7019 159.774 73.7152 159.792 73.7323 159.804C73.7494 159.817 73.7694 159.823 73.7923 159.823C73.8092 159.823 73.8243 159.82 73.8378 159.813C73.8514 159.806 73.8626 159.796 73.8714 159.783C73.8804 159.769 73.8863 159.753 73.8891 159.734H74.0285C74.0262 159.775 74.0151 159.811 73.9952 159.842C73.9755 159.873 73.9484 159.897 73.9137 159.914C73.879 159.931 73.838 159.94 73.7906 159.94ZM74.4064 159.397V159.508H74.0856V159.397H74.4064ZM74.1585 159.269H74.3062V159.766C74.3062 159.78 74.3083 159.79 74.3124 159.798C74.3166 159.805 74.3224 159.811 74.3298 159.814C74.3374 159.817 74.3462 159.818 74.3561 159.818C74.3631 159.818 74.37 159.817 74.3769 159.816C74.3839 159.815 74.3892 159.814 74.3929 159.813L74.4161 159.923C74.4087 159.925 74.3983 159.928 74.3849 159.931C74.3715 159.934 74.3552 159.936 74.336 159.937C74.3004 159.938 74.2692 159.934 74.2424 159.923C74.2158 159.912 74.1951 159.895 74.1803 159.872C74.1655 159.849 74.1582 159.82 74.1585 159.785V159.269Z" fill="white"/>
</svg>
