<svg width="228" height="228" viewBox="0 0 228 228" fill="none" xmlns="http://www.w3.org/2000/svg">
<circle cx="114" cy="114" r="81" fill="#D9D9D9"/>
<circle cx="114" cy="114" r="81" fill="#1C2672"/>
<circle cx="114" cy="114" r="113.5" stroke="black" stroke-dasharray="2 2"/>
<g clip-path="url(#clip0_265_6636)">
<path fill-rule="evenodd" clip-rule="evenodd" d="M69.1533 76.0001H143.34C146.155 76.0001 148.491 78.3357 148.491 81.1596V108.145C146.896 107.567 145.211 107.169 143.478 106.965V85.6924H68.9499V129.971H118.616C118.681 131.656 118.925 133.284 119.34 134.854H69.1533C66.3376 134.854 64.002 132.519 64.002 129.695V81.1596C64.002 78.3357 66.3376 76.0001 69.1533 76.0001ZM142.013 112.914C146.79 112.914 151.119 114.859 154.261 117.984C157.394 121.125 159.331 125.439 159.331 130.232C159.331 133.723 158.289 136.986 156.515 139.704L164.01 147.875L158.842 152.603L151.616 144.652C148.873 146.483 145.569 147.55 142.029 147.55C137.252 147.55 132.923 145.605 129.79 142.48C126.648 139.338 124.72 135.025 124.72 130.24C124.72 125.463 126.665 121.134 129.79 117.992C132.907 114.843 137.228 112.914 142.013 112.914ZM151.217 121.02C148.865 118.668 145.602 117.203 142.013 117.203C138.424 117.203 135.161 118.668 132.809 121.02C130.457 123.371 128.992 126.635 128.992 130.224C128.992 133.813 130.457 137.076 132.809 139.428C135.161 141.78 138.424 143.245 142.013 143.245C145.602 143.245 148.865 141.78 151.217 139.428C153.569 137.076 155.034 133.813 155.034 130.224C155.034 126.635 153.577 123.38 151.217 121.02ZM112.057 119.522H120.757C120.333 120.409 119.967 121.329 119.666 122.273H112.065V119.522H112.057ZM112.057 112.507H126.006C125.07 113.345 124.199 114.273 123.418 115.258H112.057V112.507ZM127.324 100.064H131.173C131.377 100.064 131.515 100.203 131.515 100.406V107.966C131.515 108.17 131.377 108.308 131.173 108.308H127.324C127.12 108.308 126.982 108.17 126.982 107.966V100.406C126.974 100.268 127.112 100.064 127.324 100.064ZM112.472 95.4581H116.321C116.525 95.4581 116.663 95.5964 116.663 95.808V108.048C116.663 108.251 116.525 108.389 116.321 108.389H112.472C112.269 108.389 112.13 108.251 112.13 108.048V95.7999C112.057 95.5964 112.269 95.4581 112.472 95.4581ZM119.894 92.8458H123.743C123.947 92.8458 124.085 92.9841 124.085 93.1876V108.039C124.085 108.243 123.947 108.381 123.743 108.381H119.894C119.69 108.381 119.552 108.243 119.552 108.039V93.1876C119.552 92.9841 119.69 92.8458 119.894 92.8458ZM91.0202 109.138L102.706 109.342C102.706 113.533 100.647 117.382 97.2051 119.726L91.0202 109.138ZM89.8483 107.144L89.71 93.5294V92.6342L90.6051 92.6993C91.7038 92.7644 92.8024 92.976 93.8359 93.2527C94.8695 93.5294 95.8298 93.9363 96.79 94.4245C101.535 96.8985 104.83 101.846 105.107 107.486L105.172 108.381H104.277L90.7354 107.966H89.9785L89.8483 107.144ZM91.362 94.3594L91.5003 106.322L103.398 106.664C102.918 101.985 100.029 97.932 96.0413 95.7999C95.2194 95.3848 94.3242 95.043 93.429 94.7663C92.6722 94.6361 92.0537 94.4978 91.362 94.3594ZM88.6846 108.454L95.3496 120.002C93.2907 121.174 91.0202 121.793 88.6846 121.793C81.3278 121.793 75.3464 115.811 75.3464 108.454C75.3464 101.301 80.986 95.393 88.1312 95.1163L88.6846 108.454Z" fill="white"/>
</g>
<defs>
<clipPath id="clip0_265_6636">
<rect width="100" height="76.5951" fill="white" transform="translate(64 76)"/>
</clipPath>
</defs>
</svg>
