<svg width="21" height="16" viewBox="0 0 21 16" fill="none" xmlns="http://www.w3.org/2000/svg">
<path d="M11.25 15.75V11.25H14.25L10.5 6.75L6.75 11.25H9.75V15.75H6V15.7125C5.874 15.72 5.754 15.75 5.625 15.75C4.13316 15.75 2.70242 15.1574 1.64752 14.1025C0.592632 13.0476 0 11.6168 0 10.125C0 7.239 2.1825 4.887 4.983 4.5645C5.22854 3.28094 5.91368 2.12306 6.92057 1.29001C7.92746 0.456956 9.19317 0.000801025 10.5 0C11.807 0.000722493 13.0729 0.456817 14.0801 1.28985C15.0872 2.12289 15.7727 3.28081 16.0185 4.5645C18.819 4.887 20.9985 7.239 20.9985 10.125C20.9985 11.6168 20.4059 13.0476 19.351 14.1025C18.2961 15.1574 16.8653 15.75 15.3735 15.75C15.2475 15.75 15.126 15.72 14.9985 15.7125V15.75H11.25Z" fill="#D0021B"/>
</svg>
