<svg width="80" height="56" viewBox="0 0 80 56" fill="none" xmlns="http://www.w3.org/2000/svg">
<path d="M38.8184 10.5051C40.1215 10.5059 41.3966 10.7379 43.186 11.2126C44.7306 11.6223 48.1881 12.0753 50.8693 12.2193C53.5506 12.3632 57.1182 12.8096 58.7975 13.2111C60.4767 13.6127 63.0398 14.0404 64.4933 14.1616C69.3815 14.5692 73.4687 15.4489 74.0009 16.2078C74.6598 17.1473 74.6289 17.5212 73.7714 18.9874C72.4927 21.1741 70.2478 21.6633 61.7587 21.6053L54.4938 21.5557L53.7362 22.56C53.3195 23.1123 52.9748 23.9388 52.9702 24.3967C52.9656 24.8547 52.6296 25.6723 52.2236 26.2135C51.8175 26.7548 51.4814 27.3534 51.4768 27.5438C51.4722 27.7342 52.233 28.6323 53.1674 29.5396C54.5681 30.8996 54.8662 31.4357 54.8662 32.5942C54.8662 34.3794 54.2166 35.1199 50.7134 37.3284L47.8819 39.1135L41.4639 39.4055C30.4956 39.9046 30.2399 39.8875 25.0153 38.2996C22.4055 37.5064 19.5989 36.6105 18.7784 36.3087C17.958 36.0069 16.4141 35.6347 15.3475 35.4817C13.0756 35.1559 13.1419 35.0484 12.7504 39.7002C12.5159 42.4865 12.4142 42.7759 11.5944 42.9905C10.9893 43.1488 10.5957 43.6299 10.3902 44.4624L10.0849 45.6991L3.68886 46.5313C0.171013 46.989 -3.04706 47.445 -3.46234 47.5446C-4.22652 47.7279 -4.60666 47.645 -4.62464 47.2837C-4.81299 47.3151 -5.0258 47.1767 -4.99545 46.8974C-4.97706 46.7476 -4.95464 46.5983 -4.91306 46.4532C-4.85776 46.2359 -4.84154 46.0089 -4.76273 45.7977C-4.68621 45.5685 -4.62148 45.3356 -4.52512 45.1139C-4.45141 44.9189 -4.38995 44.7176 -4.3424 44.5141C-4.31165 44.2868 -4.2547 44.0659 -4.22307 43.8394C-4.19364 43.6324 -4.14565 43.4283 -4.16177 43.2174C-4.16177 42.9921 -4.16267 42.7668 -4.1604 42.5415C-4.15688 42.3132 -4.15209 42.0844 -4.12217 41.8579C-4.09547 41.6768 -4.04491 41.4979 -4.05376 41.3133C-4.05376 41.089 -4.05376 40.8647 -4.05448 40.6404C-4.05544 40.4059 -4.05729 40.1715 -4.06066 39.9371C-4.06358 39.6855 -4.06221 39.4342 -4.05273 39.1829C-4.05214 38.9676 -4.051 38.7523 -4.05679 38.537C-4.06374 38.3637 -4.07188 38.1886 -4.12659 38.0231C-4.19891 37.8059 -4.24548 37.5839 -4.28812 37.3583C-4.31321 37.1531 -4.37998 36.9571 -4.39451 36.751C-4.41592 36.5149 -4.46149 36.2829 -4.48354 36.047C-4.48353 35.8231 -4.48353 35.5992 -4.48354 35.3753C-4.48354 35.1505 -4.48354 34.9258 -4.48474 34.701C-4.48617 34.4626 -4.48891 34.2241 -4.4922 33.9857C-4.49422 33.7388 -4.48428 33.4927 -4.48368 33.246C-4.48368 33.0219 -4.48369 32.7978 -4.48368 32.5738C-4.48367 32.3498 -4.48368 32.1257 -4.48368 31.9017V31.23C-4.48428 31.0015 -4.48482 30.773 -4.4875 30.5445C-4.49037 30.2917 -4.49656 30.0388 -4.49031 29.7861C-4.47796 29.5578 -4.48553 29.329 -4.48355 29.1004C-4.48354 28.8764 -4.4835 28.6524 -4.48355 28.4284C-4.48359 28.2046 -4.48355 27.9807 -4.48355 27.7569C-4.48355 27.5304 -4.48415 27.3039 -4.48636 27.0774C-4.48916 26.8275 -4.4946 26.5776 -4.49544 26.3276C-4.49216 26.0691 -4.48623 25.8107 -4.48623 25.552C-4.47607 25.2954 -4.44696 25.0406 -4.40419 24.7876C-4.36884 24.5741 -4.37413 24.3603 -4.36458 24.144C-4.3467 23.8897 -4.31493 23.6367 -4.25026 23.3901C-4.19405 23.1526 -4.16062 22.909 -4.09259 22.6745C-4.03619 22.4436 -3.96374 22.2175 -3.92828 21.9813C-3.85783 21.6561 -3.79359 21.3324 -3.67493 21.0212C-3.58893 20.7617 -3.48396 20.5106 -3.41343 20.2467C-3.33784 20.0051 -3.24487 19.7695 -3.15286 19.5343C-3.08257 19.3028 -3.01597 19.0705 -2.95348 18.8366C-2.89885 18.6393 -2.85764 18.4393 -2.87143 18.2328C-2.87138 18.0095 -2.87071 17.7861 -2.87071 17.5627C-2.87167 17.337 -2.8728 17.1111 -2.89111 16.886C-2.91751 16.6065 -2.96622 16.3309 -3.01451 16.0547C-3.07497 15.7424 -3.12319 15.4273 -3.17708 15.1135C-3.19816 14.9775 -3.21986 14.8414 -3.23453 14.7046L-3.65125 14.7175V13.7735V12.8295H3.18169C8.73615 12.8295 10.2589 12.9504 11.321 13.4759C12.3663 13.9931 13.3587 14.0792 16.286 13.9065C19.9037 13.6931 30.0369 12.1323 34.9315 11.0347C36.4969 10.6836 37.6684 10.5044 38.8182 10.5051H38.8184Z" fill="white"/>
<path d="M-3.46233 47.5444C-3.04705 47.4448 0.170975 46.9888 3.68883 46.5311L10.0849 45.6989L10.3902 44.4622C10.5957 43.6297 10.9893 43.1486 11.5944 42.9902C12.4142 42.7757 12.5159 42.4862 12.7504 39.7C13.1418 35.0481 13.0756 35.1558 15.3474 35.4816C16.414 35.6345 17.9579 36.0066 18.7784 36.3085C19.5989 36.6103 22.4055 37.5062 25.0153 38.2994C30.2399 39.8873 30.4955 39.9045 41.4639 39.4053L47.8819 39.1132L50.7134 37.3282C54.2166 35.1198 54.8662 34.3792 54.8662 32.594C54.8662 31.4356 54.568 30.8994 53.1673 29.5393C52.233 28.632 51.4722 27.7339 51.4768 27.5436C51.4815 27.3532 51.8175 26.7546 52.2235 26.2133C52.6296 25.6721 52.9656 24.8545 52.9702 24.3966C52.9748 23.9386 53.3195 23.1121 53.7361 22.5597L54.4937 21.5555L61.7587 21.6051C70.2478 21.6631 72.4927 21.1738 73.7715 18.9872C74.6289 17.521 74.6598 17.1471 74.0009 16.2075C73.4687 15.4487 69.3816 14.5691 64.4933 14.1614C63.0398 14.0402 60.4766 13.6125 58.7974 13.2109C57.1182 12.8094 53.5505 12.363 50.8693 12.219C48.188 12.0751 44.7306 11.622 43.186 11.2123C39.8178 10.3188 38.2712 10.2855 34.9316 11.0344C30.037 12.1321 19.9038 13.6928 16.2861 13.9063C13.3588 14.079 12.3665 13.9929 11.3211 13.4757C10.2591 12.9502 8.73625 12.8293 3.18179 12.8293H-3.6511V13.7732V14.7172L3.35468 14.5013L10.3605 14.2854L10.1611 15.2303C9.65311 17.6378 9.13795 25.6802 8.928 34.4799C8.80145 39.7844 8.5463 44.2275 8.361 44.3535C8.00134 44.5981 1.34544 45.6963 -2.20388 46.0966C-3.52055 46.2451 -4.42156 46.5508 -4.54697 46.8915C-4.79789 47.5733 -4.45171 47.7817 -3.46233 47.5444ZM9.7739 30.3466C10.1505 17.7331 10.5179 15.5848 12.2986 15.5848C12.9531 15.5848 13.0198 15.7567 12.7953 16.8642C12.5241 18.2026 11.8679 32.849 11.8424 38.1339C11.8289 40.9436 11.7573 41.2247 10.9782 41.5276C10.1947 41.8322 10.1059 41.7167 9.83382 40.0387C9.67159 39.0382 9.64462 34.6768 9.7739 30.3466ZM27.3065 37.6005C24.1782 36.7742 21.07 35.7674 17.7832 34.5157C16.5945 34.063 15.1261 33.6926 14.5202 33.6926C13.9143 33.6926 13.3266 33.4426 13.2141 33.1371C13.1017 32.8315 12.8976 30.4844 12.7606 27.9212C12.5658 24.2765 12.6502 22.5747 13.1479 20.1118C13.4979 18.3797 13.9235 16.7027 14.0938 16.3851C14.3983 15.8169 18.9174 14.8095 27.4952 13.3976C29.5716 13.0559 32.5617 12.5225 34.1397 12.2123C37.7836 11.496 40.534 11.5036 43.1628 12.237C44.3048 12.5556 47.848 13.0079 51.0366 13.2421C54.2251 13.4762 57.2831 13.848 57.8321 14.0682C58.7088 14.4198 64.9602 15.306 70.5338 15.8688C71.572 15.9736 72.6236 16.2312 72.8707 16.4412C73.5596 17.0266 73.6261 18.4765 72.9906 19.0584C72.4895 19.5173 72.4892 19.5457 72.9877 19.2959C73.4233 19.0776 73.4545 19.1247 73.1228 19.4998C72.8857 19.768 72.2061 20.0401 71.6127 20.1045C71.0193 20.1688 69.4887 20.353 68.2114 20.5139C66.7638 20.6961 65.4435 20.6443 64.7063 20.3764C64.0222 20.1277 63.618 20.1058 63.7476 20.3244C64.0848 20.8934 58.8466 20.7725 55.9988 20.1456C54.6369 19.8458 53.4889 19.7619 53.419 19.957C53.26 20.4013 49.4638 20.3986 47.6243 19.953C46.4512 19.6688 45.8923 19.7959 44.0457 20.7671C41.1729 22.2781 40.0497 22.1553 39.8504 20.3086C39.6432 18.389 39.3886 18.2999 39.3817 20.1446C39.3739 22.2054 38.9006 22.9989 38.0948 22.3017C37.5577 21.8369 37.5484 21.9162 37.9992 23.1143C38.274 23.8445 38.4652 24.6633 38.424 24.934C38.3829 25.2046 38.328 25.6901 38.3021 26.0129C38.2653 26.4695 37.8987 26.5532 36.6504 26.3899L35.0458 26.1802L36.9335 27.2209C41.2722 29.613 42.5249 30.1871 42.9952 29.999C43.2682 29.8897 43.545 29.9636 43.6103 30.163C43.6756 30.3624 44.3237 30.6158 45.0504 30.726C46.0595 30.8791 46.1488 30.8527 45.428 30.6143L44.4841 30.3022L45.428 30.0026C48.4614 29.0397 48.9069 29.0281 50.9851 29.8573C54.5089 31.2633 54.7199 33.7461 51.462 35.4674C50.4274 36.0141 49.5628 36.3256 49.5408 36.1596C49.5188 35.9935 49.5104 35.3263 49.5221 34.6768C49.5408 33.6462 49.4965 33.6938 49.1748 35.0507C48.4978 37.906 48.0826 38.1117 43.5522 37.836C40.7481 37.6653 38.7416 37.764 36.7447 38.1708C33.5635 38.8188 31.4308 38.69 27.3065 37.6005ZM51.0909 34.2757C51.0909 33.8747 51.4732 33.1125 51.9404 32.5821L52.7898 31.6176L51.9448 32.076C51.1123 32.5277 50.4003 34.2847 50.8568 34.7607C50.9856 34.895 51.0909 34.6767 51.0909 34.2757ZM45.428 19.3666C45.428 19.2815 45.1643 19.1064 44.842 18.9774C44.5061 18.843 44.3545 18.909 44.4868 19.1322C44.7085 19.5062 45.428 19.6854 45.428 19.3666ZM71.4128 17.1679C70.858 16.9932 70.1785 16.7296 69.9027 16.582C69.6269 16.4345 69.731 16.5926 70.134 16.9334C70.5371 17.2742 71.2166 17.5378 71.6441 17.5192C72.2679 17.4921 72.2222 17.4226 71.4128 17.1679ZM42.5716 29.4045C42.6862 29.2111 42.314 28.9334 41.7444 28.7874C39.8499 28.3017 39.0095 27.4759 39.0155 26.1058C39.0226 24.4835 39.7819 22.9126 40.6425 22.7398C41.8391 22.4995 43.1628 23.7428 43.1628 25.1071C43.1628 26.8446 43.4813 26.3209 43.5898 24.4052L43.6796 22.8173L45.4032 23.1141C48.0896 23.5766 48.8273 23.4419 46.7948 22.8599C44.4461 22.1874 44.0899 21.8054 45.0055 20.9415C45.6631 20.321 46.029 20.2996 48.7897 20.7205L51.846 21.1865V22.8745C51.846 24.3126 51.6084 24.8319 50.2415 26.3818C48.6674 28.1665 47.4426 28.7309 43.5403 29.4702C43.0212 29.5685 42.544 29.6731 42.4798 29.7025C42.4156 29.732 42.4569 29.5979 42.5716 29.4045Z" fill="black"/>
</svg>
