<svg width="55" height="108" viewBox="0 0 55 108" fill="none" xmlns="http://www.w3.org/2000/svg">
<path d="M-7.83889 6.46655C-6.09924 -2.07019 6.09924 -2.07019 7.83889 6.46655L8.76076 10.9903C9.95312 16.8414 16.9033 19.3711 21.5778 15.6553L25.1918 12.7825C32.0117 7.36118 41.3563 15.2022 37.2016 22.8599L35 26.9179C32.1524 32.1666 35.8505 38.5719 41.8198 38.7301L46.4349 38.8525C55.144 39.0833 57.2623 51.0964 49.1573 54.2921L44.8624 55.9855C39.3072 58.1757 38.0229 65.4596 42.4939 69.4178L45.9507 72.4781C52.4739 78.253 46.3746 88.8172 38.1118 86.0554L33.7332 84.5919C28.0697 82.699 22.4039 87.4532 23.2846 93.3592L23.9656 97.9255C25.2506 106.542 13.7878 110.715 9.23328 103.288L6.81979 99.352C3.69813 94.2615 -3.69812 94.2615 -6.81979 99.352L-9.23327 103.288C-13.7878 110.715 -25.2506 106.542 -23.9656 97.9255L-23.2846 93.3593C-22.4039 87.4532 -28.0697 82.699 -33.7332 84.5919L-38.1118 86.0554C-46.3746 88.8172 -52.4739 78.253 -45.9507 72.4781L-42.4939 69.4178C-38.0229 65.4596 -39.3072 58.1758 -44.8624 55.9855L-49.1573 54.2921C-57.2623 51.0964 -55.1441 39.0833 -46.4349 38.8525L-41.8198 38.7301C-35.8505 38.5719 -32.1524 32.1666 -35 26.9179L-37.2016 22.86C-41.3563 15.2022 -32.0117 7.36118 -25.1918 12.7825L-21.5778 15.6553C-16.9033 19.3711 -9.95312 16.8414 -8.76076 10.9903L-7.83889 6.46655Z" fill="#D0021B"/>
</svg>
