<svg width="1460" height="488" viewBox="0 0 1460 488" fill="none" xmlns="http://www.w3.org/2000/svg">
<rect x="4" width="1456" height="488" fill="#0D1266" fill-opacity="0.8"/>
<path d="M329.873 209.963L322.523 225.293M329.873 209.963L352.076 227.878C353.607 228.338 355.138 227.572 355.598 226.194L383.313 179.491C383.773 177.959 383.007 176.428 381.629 175.969L288.682 200.775C288.223 202.306 288.988 203.837 290.367 204.297L322.523 207.206M329.873 209.963L382.51 177.691L322.523 207.206M322.523 225.293L335.372 214.399M322.523 225.293V207.206" stroke="white" stroke-width="3.0625" stroke-linejoin="round"/>
<path d="M1115.13 209.963L1122.48 225.293M1115.13 209.963L1092.92 227.878C1091.39 228.338 1089.86 227.572 1089.4 226.194L1061.69 179.491C1061.23 177.959 1061.99 176.428 1063.37 175.969L1156.32 200.775C1156.78 202.306 1156.01 203.837 1154.63 204.297L1122.48 207.206M1115.13 209.963L1062.49 177.691L1122.48 207.206M1122.48 225.293L1109.63 214.399M1122.48 225.293V207.206" stroke="white" stroke-width="3.0625" stroke-linejoin="round"/>
<path d="M1444 240C1423.17 256.666 1382.1 275.3 1384.5 216.5C1392.67 188.5 1393.5 140.3 1331.5 171.5C1311 185 1261.8 210.1 1229 202.5C1208.33 197.833 1173.2 179.4 1198 143C1207.2 129.5 1238.5 119.5 1252 155C1261.5 182 1227.1 250.9 1129.5 222.5" stroke="white" stroke-width="2" stroke-dasharray="4 4"/>
<path d="M1 240C21.8333 256.666 62.9 275.3 60.5 216.5C52.3333 188.5 51.5 140.3 113.5 171.5C134 185 183.2 210.1 216 202.5C236.667 197.833 271.8 179.4 247 143C237.802 129.5 206.5 119.5 193 155C183.5 182 217.9 250.9 315.5 222.5" stroke="white" stroke-width="2" stroke-dasharray="4 4"/>
</svg>
