<svg width="42" height="42" viewBox="0 0 42 42" fill="none" xmlns="http://www.w3.org/2000/svg">
<circle cx="21" cy="21" r="20.5" fill="white"/>
<circle cx="21" cy="21" r="20.5" fill="#D0021B"/>
<circle cx="21" cy="21" r="20.5" stroke="black"/>
<circle cx="21" cy="21" r="20.5" stroke="#D0021B"/>
<path d="M20.8232 24.7537L21 24.9304L21.1767 24.7537L24.7157 21.2157L24.8913 21.0402L24.717 20.8634L24.008 20.1444L23.8312 19.9651L23.6532 20.1431L21.75 22.0464V13.9999V13.7499H21.5H20.5H20.25V13.9999V22.0464L18.3458 20.1421L18.1675 19.9639L17.9907 20.1436L17.2827 20.8636L17.1089 21.0404L17.2842 21.2157L20.8232 24.7537ZM13.75 26.3839L13.75 26.3843C13.7507 26.9075 13.9284 27.3569 14.2862 27.7147C14.644 28.0725 15.0932 28.2499 15.616 28.2499H26.384H26.3843C26.9075 28.2492 27.357 28.0715 27.7148 27.7137C28.0726 27.3559 28.25 26.9067 28.25 26.3839V23.9609V23.7109H28H27H26.75V23.9609L26.75 26.3839L26.75 26.385C26.7503 26.4612 26.7218 26.541 26.6317 26.6307C26.5406 26.7213 26.4602 26.7499 26.385 26.7499L15.615 26.7499L15.6139 26.7499C15.5387 26.7502 15.4591 26.722 15.3692 26.6316C15.2789 26.5408 15.25 26.4602 15.25 26.3839V23.9609V23.7109H15H14H13.75V23.9609L13.75 26.3839Z" fill="white" stroke="white" stroke-width="0.5"/>
</svg>
