<svg width="75" height="56" viewBox="0 0 75 56" fill="none" xmlns="http://www.w3.org/2000/svg">
<g clip-path="url(#clip0_260_2656)">
<path d="M72.9418 54.8013C61.1111 55.8388 49.2424 56.3575 37.3862 56.3575C36.0702 56.3575 34.7416 56.3449 33.4257 56.3323C31.7808 56.3197 30.1358 56.2816 28.5035 56.2563C27.3901 56.2311 26.2639 56.2058 25.1378 56.1678C22.2148 56.0792 19.292 55.9526 16.3691 55.8009C15.4707 55.7503 14.5595 55.6996 13.6613 55.6491C12.5225 55.5858 11.3838 55.51 10.2448 55.4341C8.38478 55.3075 6.52473 55.1684 4.66481 55.0164C3.79177 54.9532 2.93132 54.8773 2.05827 54.8014C1.91896 53.8651 1.7798 52.9413 1.65339 52.005C-0.674688 35.2141 -0.548272 18.322 2.05842 1.55654C22.9363 -0.278181 43.8774 -0.493367 64.7551 0.923869C66.4127 1.03783 68.0701 1.16425 69.7278 1.29081C70.8032 1.37929 71.8661 1.46791 72.9416 1.55654C73.1187 2.70805 73.2832 3.84682 73.4351 4.99833C75.6749 21.5739 75.5104 38.2509 72.9418 54.8013Z" fill="#E31E24"/>
<path d="M49.9691 28.1789C49.9609 28.1946 49.9526 28.2104 49.9444 28.2261C45.7647 36.2449 36.4177 41.7133 26.7402 41.7133C26.7402 34.2324 26.7402 22.1253 26.7402 14.6443C36.4179 14.6443 45.7649 20.1129 49.9444 28.1316C49.9527 28.1474 49.9609 28.1632 49.9691 28.1789Z" fill="white"/>
<path d="M49.9691 28.179C49.9609 28.1634 49.9526 28.1475 49.9444 28.1319C45.7647 20.113 36.4177 14.6446 26.7402 14.6446C26.7402 15.6912 26.7402 16.8354 26.7402 18.0379C35.7196 18.2619 44.3116 23.1452 48.6505 30.363C49.1184 29.6711 49.5602 28.9636 49.9444 28.2265C49.9527 28.2105 49.9609 28.1949 49.9691 28.179Z" fill="#E3E2E2"/>
<path opacity="0.08" d="M72.942 54.8013C61.1114 55.8388 49.2426 56.3575 37.3865 56.3575C36.0705 56.3575 34.7418 56.3449 33.426 56.3323C31.7811 56.3197 30.1361 56.2816 28.5038 56.2563C27.3904 56.2311 26.2642 56.2057 25.138 56.1678C22.2151 56.0792 19.2923 55.9526 16.3693 55.8009C15.4709 55.7503 14.5598 55.6996 13.6616 55.6491C12.5228 55.5858 11.384 55.5099 10.2451 55.4341L64.7553 0.923874C66.4129 1.03784 68.0704 1.16425 69.728 1.29082C70.8035 1.37929 71.8664 1.46792 72.9419 1.55654C73.119 2.70805 73.2835 3.84682 73.4354 4.99834C75.6751 21.5739 75.5106 38.2509 72.942 54.8013Z" fill="white"/>
</g>
<defs>
<clipPath id="clip0_260_2656">
<rect width="75" height="56" fill="white"/>
</clipPath>
</defs>
</svg>
