<svg width="68" height="68" viewBox="0 0 68 68" fill="none" xmlns="http://www.w3.org/2000/svg">
<circle cx="34" cy="34" r="33.5" fill="white" stroke="#D2D0D0"/>
<path d="M44.5742 23.3651C43.199 21.976 41.561 20.8746 39.7557 20.1252C37.9504 19.3757 36.0139 18.9933 34.0592 19.0001C25.8692 19.0001 19.1942 25.6751 19.1942 33.8651C19.1942 36.4901 19.8842 39.0401 21.1742 41.2901L19.0742 49.0001L26.9492 46.9301C29.1242 48.1151 31.5692 48.7451 34.0592 48.7451C42.2492 48.7451 48.9242 42.0701 48.9242 33.8801C48.9242 29.9051 47.3792 26.1701 44.5742 23.3651ZM34.0592 46.2251C31.8392 46.2251 29.6642 45.6251 27.7592 44.5001L27.3092 44.2301L22.6292 45.4601L23.8742 40.9001L23.5742 40.4351C22.3408 38.4655 21.6859 36.189 21.6842 33.8651C21.6842 27.0551 27.2342 21.5051 34.0442 21.5051C37.3442 21.5051 40.4492 22.7951 42.7742 25.1351C43.9254 26.281 44.8378 27.6441 45.4583 29.1452C46.0789 30.6464 46.3953 32.2558 46.3892 33.8801C46.4192 40.6901 40.8692 46.2251 34.0592 46.2251ZM40.8392 36.9851C40.4642 36.8051 38.6342 35.9051 38.3042 35.7701C37.9592 35.6501 37.7192 35.5901 37.4642 35.9501C37.2092 36.3251 36.5042 37.1651 36.2942 37.4051C36.0842 37.6601 35.8592 37.6901 35.4842 37.4951C35.1092 37.3151 33.9092 36.9101 32.4992 35.6501C31.3892 34.6601 30.6542 33.4451 30.4292 33.0701C30.2192 32.6951 30.3992 32.5001 30.5942 32.3051C30.7592 32.1401 30.9692 31.8701 31.1492 31.6601C31.3292 31.4501 31.4042 31.2851 31.5242 31.0451C31.6442 30.7901 31.5842 30.5801 31.4942 30.4001C31.4042 30.2201 30.6542 28.3901 30.3542 27.6401C30.0542 26.9201 29.7392 27.0101 29.5142 26.9951H28.7942C28.5392 26.9951 28.1492 27.0851 27.8042 27.4601C27.4742 27.8351 26.5142 28.7351 26.5142 30.5651C26.5142 32.3951 27.8492 34.1651 28.0292 34.4051C28.2092 34.6601 30.6542 38.4101 34.3742 40.0151C35.2592 40.4051 35.9492 40.6301 36.4892 40.7951C37.3742 41.0801 38.1842 41.0351 38.8292 40.9451C39.5492 40.8401 41.0342 40.0451 41.3342 39.1751C41.6492 38.3051 41.6492 37.5701 41.5442 37.4051C41.4392 37.2401 41.2142 37.1651 40.8392 36.9851Z" fill="black"/>
<path d="M44.5742 23.3651C43.199 21.976 41.561 20.8746 39.7557 20.1252C37.9504 19.3757 36.0139 18.9933 34.0592 19.0001C25.8692 19.0001 19.1942 25.6751 19.1942 33.8651C19.1942 36.4901 19.8842 39.0401 21.1742 41.2901L19.0742 49.0001L26.9492 46.9301C29.1242 48.1151 31.5692 48.7451 34.0592 48.7451C42.2492 48.7451 48.9242 42.0701 48.9242 33.8801C48.9242 29.9051 47.3792 26.1701 44.5742 23.3651ZM34.0592 46.2251C31.8392 46.2251 29.6642 45.6251 27.7592 44.5001L27.3092 44.2301L22.6292 45.4601L23.8742 40.9001L23.5742 40.4351C22.3408 38.4655 21.6859 36.189 21.6842 33.8651C21.6842 27.0551 27.2342 21.5051 34.0442 21.5051C37.3442 21.5051 40.4492 22.7951 42.7742 25.1351C43.9254 26.281 44.8378 27.6441 45.4583 29.1452C46.0789 30.6464 46.3953 32.2558 46.3892 33.8801C46.4192 40.6901 40.8692 46.2251 34.0592 46.2251ZM40.8392 36.9851C40.4642 36.8051 38.6342 35.9051 38.3042 35.7701C37.9592 35.6501 37.7192 35.5901 37.4642 35.9501C37.2092 36.3251 36.5042 37.1651 36.2942 37.4051C36.0842 37.6601 35.8592 37.6901 35.4842 37.4951C35.1092 37.3151 33.9092 36.9101 32.4992 35.6501C31.3892 34.6601 30.6542 33.4451 30.4292 33.0701C30.2192 32.6951 30.3992 32.5001 30.5942 32.3051C30.7592 32.1401 30.9692 31.8701 31.1492 31.6601C31.3292 31.4501 31.4042 31.2851 31.5242 31.0451C31.6442 30.7901 31.5842 30.5801 31.4942 30.4001C31.4042 30.2201 30.6542 28.3901 30.3542 27.6401C30.0542 26.9201 29.7392 27.0101 29.5142 26.9951H28.7942C28.5392 26.9951 28.1492 27.0851 27.8042 27.4601C27.4742 27.8351 26.5142 28.7351 26.5142 30.5651C26.5142 32.3951 27.8492 34.1651 28.0292 34.4051C28.2092 34.6601 30.6542 38.4101 34.3742 40.0151C35.2592 40.4051 35.9492 40.6301 36.4892 40.7951C37.3742 41.0801 38.1842 41.0351 38.8292 40.9451C39.5492 40.8401 41.0342 40.0451 41.3342 39.1751C41.6492 38.3051 41.6492 37.5701 41.5442 37.4051C41.4392 37.2401 41.2142 37.1651 40.8392 36.9851Z" fill="#D0021B"/>
</svg>
