<svg width="68" height="68" viewBox="0 0 68 68" fill="none" xmlns="http://www.w3.org/2000/svg">
<circle cx="34" cy="34" r="33.5" fill="white" stroke="#D2D0D0"/>
<path fill-rule="evenodd" clip-rule="evenodd" d="M34.0025 47.7828L35.0842 46.5639C36.3117 45.1582 37.4157 43.8245 38.3979 42.5559L39.2088 41.4862C42.5945 36.9245 44.2882 33.3039 44.2882 30.6279C44.2882 24.9159 39.6837 20.2856 34.0025 20.2856C28.3214 20.2856 23.7168 24.9159 23.7168 30.6279C23.7168 33.3039 25.4105 36.9245 28.7962 41.4862L29.6071 42.5559C31.0084 44.3515 32.4745 46.0938 34.0025 47.7828Z" stroke="black" stroke-width="1.71429" stroke-linecap="round" stroke-linejoin="round"/>
<path fill-rule="evenodd" clip-rule="evenodd" d="M34.0025 47.7828L35.0842 46.5639C36.3117 45.1582 37.4157 43.8245 38.3979 42.5559L39.2088 41.4862C42.5945 36.9245 44.2882 33.3039 44.2882 30.6279C44.2882 24.9159 39.6837 20.2856 34.0025 20.2856C28.3214 20.2856 23.7168 24.9159 23.7168 30.6279C23.7168 33.3039 25.4105 36.9245 28.7962 41.4862L29.6071 42.5559C31.0084 44.3515 32.4745 46.0938 34.0025 47.7828Z" stroke="#D0021B" stroke-width="1.71429" stroke-linecap="round" stroke-linejoin="round"/>
<path d="M34.0025 34.8571C36.3694 34.8571 38.2882 32.9383 38.2882 30.5714C38.2882 28.2044 36.3694 26.2856 34.0025 26.2856C31.6356 26.2856 29.7168 28.2044 29.7168 30.5714C29.7168 32.9383 31.6356 34.8571 34.0025 34.8571Z" stroke="black" stroke-width="1.71429" stroke-linecap="round" stroke-linejoin="round"/>
<path d="M34.0025 34.8571C36.3694 34.8571 38.2882 32.9383 38.2882 30.5714C38.2882 28.2044 36.3694 26.2856 34.0025 26.2856C31.6356 26.2856 29.7168 28.2044 29.7168 30.5714C29.7168 32.9383 31.6356 34.8571 34.0025 34.8571Z" stroke="#D0021B" stroke-width="1.71429" stroke-linecap="round" stroke-linejoin="round"/>
</svg>
