<svg width="68" height="68" viewBox="0 0 68 68" fill="none" xmlns="http://www.w3.org/2000/svg">
<circle cx="34" cy="34" r="33.5" fill="white" stroke="#D2D0D0"/>
<path d="M48.625 26.125V41.875C48.625 42.4717 48.3879 43.044 47.966 43.466C47.544 43.8879 46.9717 44.125 46.375 44.125H21.625C21.0283 44.125 20.456 43.8879 20.034 43.466C19.6121 43.044 19.375 42.4717 19.375 41.875V26.125M48.625 26.125C48.625 25.5283 48.3879 24.956 47.966 24.534C47.544 24.1121 46.9717 23.875 46.375 23.875H21.625C21.0283 23.875 20.456 24.1121 20.034 24.534C19.6121 24.956 19.375 25.5283 19.375 26.125M48.625 26.125L35.2803 35.3635C34.9041 35.6238 34.4575 35.7632 34 35.7632C33.5425 35.7632 33.0959 35.6238 32.7198 35.3635L19.375 26.125" stroke="black" stroke-width="2.25" stroke-linecap="round" stroke-linejoin="round"/>
<path d="M48.625 26.125V41.875C48.625 42.4717 48.3879 43.044 47.966 43.466C47.544 43.8879 46.9717 44.125 46.375 44.125H21.625C21.0283 44.125 20.456 43.8879 20.034 43.466C19.6121 43.044 19.375 42.4717 19.375 41.875V26.125M48.625 26.125C48.625 25.5283 48.3879 24.956 47.966 24.534C47.544 24.1121 46.9717 23.875 46.375 23.875H21.625C21.0283 23.875 20.456 24.1121 20.034 24.534C19.6121 24.956 19.375 25.5283 19.375 26.125M48.625 26.125L35.2803 35.3635C34.9041 35.6238 34.4575 35.7632 34 35.7632C33.5425 35.7632 33.0959 35.6238 32.7198 35.3635L19.375 26.125" stroke="#D0021B" stroke-width="2.25" stroke-linecap="round" stroke-linejoin="round"/>
</svg>
